<?xml version="1.0" encoding="UTF-8"?><svg xmlns="http://www.w3.org/2000/svg" xmlns:xlink="http://www.w3.org/1999/xlink" viewBox="0 0 49.47 43.28"><defs><style>.af{fill:url(#u);}.af,.ag,.ah,.ai{mix-blend-mode:multiply;}.aj{fill:url(#j);}.ak{fill:#1f1f24;}.al{mask:url(#o);}.am{opacity:.7;}.an,.ao,.ap{fill:#fff;}.aq{fill:#d78400;}.ar{fill:#6dbe95;}.as{fill:url(#h);}.at{fill:#e3e5f5;}.au{fill:#8caed5;}.av{fill:#f7a56d;}.aw{clip-path:url(#g);}.ax{fill:#f0f4f9;}.ay{isolation:isolate;}.az{fill:#ffb677;}.ba{filter:url(#x);}.ao{opacity:.18;}.ao,.ap{mix-blend-mode:lighten;}.bb{fill:#f0f3f9;}.bc{fill:url(#f);}.bd{fill:#f5c2a6;}.be{clip-path:url(#m);}.bf{clip-path:url(#i);}.bg{fill:#381977;}.bh{fill:#1f0159;}.bi{fill:#f5ebcb;}.bi,.ag,.bj{opacity:.3;}.bi,.bj{mix-blend-mode:screen;}.bk{fill:#f3e7e0;}.bl{opacity:.8;}.bm{clip-path:url(#e);}.bn{clip-path:url(#l);}.bo{mask:url(#y);}.bp{fill:#a5a9d3;}.bq{mask:url(#r);}.br{fill:#8defa3;}.bs{fill:#746150;}.bt{fill:#ffd6bf;}.bu{fill:#f1f2f2;}.bv{opacity:.4;}.bv,.bw{fill:#f1f5fa;}.bx{clip-path:url(#n);}.ap{opacity:.17;}.by{fill:url(#d);}.bz{clip-path:url(#k);}.ca{mix-blend-mode:overlay;opacity:.9;}.cb{filter:url(#q);}.ah{fill:url(#ab);}.cc{fill:#b5b9dc;}.cd{fill:#f5f5fd;}.ce{fill:#f2eae6;}.ai{fill:#27262c;opacity:.2;}.cf{fill:#ef995e;}.cg{fill:#ffc89f;}.ch{mask:url(#v);}.ci{fill:#b6ccdf;}.cj{fill:#816e5d;}.ck{fill:#154902;}.cl{fill:#d0cbe6;}.cm{fill:#e8ecf2;}.cn{fill:url(#ac);}.co{fill:#ffa200;}.cp{fill:#141e30;}</style><linearGradient id="d" x1="7.19" y1="17.07" x2="30.78" y2="17.07" gradientTransform="matrix(1, 0, 0, 1, 0, 0)" gradientUnits="userSpaceOnUse"><stop offset=".02" stop-color="#6bb290"/><stop offset="1" stop-color="#8ceea3"/></linearGradient><clipPath id="e"><path class="bb" d="M14.8,24.42l.71,.41c-.09-.05-.21-.04-.35,.03l-.71-.41c.13-.08,.26-.08,.35-.03Z"/></clipPath><linearGradient id="f" x1="-12894.21" y1="28.07" x2="-12893.01" y2="28.07" gradientTransform="translate(-12884.21) rotate(-180) scale(1 -1)" gradientUnits="userSpaceOnUse"><stop offset="0" stop-color="#e4e9f2"/><stop offset="1" stop-color="#b4c2da"/></linearGradient><clipPath id="g"><path class="bc" d="M9.51,28.69l-.71-.41c0-.31,.22-.69,.49-.84l.71,.41c-.27,.16-.49,.53-.49,.84Z"/></clipPath><linearGradient id="h" x1="-12899.89" y1="33.19" x2="-12893.72" y2="33.19" gradientTransform="translate(-12884.21) rotate(-180) scale(1 -1)" gradientUnits="userSpaceOnUse"><stop offset="0" stop-color="#21deff"/><stop offset=".29" stop-color="#1ad2fa"/><stop offset="1" stop-color="#0ab4ef"/></linearGradient><clipPath id="i"><path class="cl" d="M49.17,32.27v1.29c-.01,1.66-1.11,3.33-3.29,4.6-4.4,2.56-11.56,2.56-15.98,0-2.23-1.29-3.34-2.98-3.34-4.66v-1.29c0,1.69,1.12,3.38,3.35,4.66,4.43,2.56,11.59,2.56,15.98,0,2.19-1.27,3.28-2.93,3.28-4.6Z"/></clipPath><linearGradient id="j" x1="35.25" y1="31.05" x2="45.22" y2="35.91" xlink:href="#d"/><clipPath id="k"><path class="aq" d="M40.18,27.12l.47,.27c.1,.06,.13,.24,.13,.44,0,.38-.08,.65-.36,.81l-.47-.27c.28-.16,.37-.44,.36-.81,0-.2-.03-.38-.13-.44Z"/></clipPath><clipPath id="l"><path class="aq" d="M41.42,26.01l.47,.27c-.16-.09-.36-.1-.59,0l-.47-.27c.23-.09,.44-.08,.59,0Z"/></clipPath><clipPath id="m"><path class="aq" d="M40.1,24.91l.47,.27c.06,.04,.11,.14,.11,.33,0,.24-.11,.5-.34,.63l-.47-.27c.22-.13,.34-.39,.34-.63,0-.19-.04-.29-.11-.33Z"/></clipPath><clipPath id="n"><path class="aq" d="M41.25,23.21l.47,.27c-.26-.15-.66-.09-1.23,.23l-.47-.27c.57-.32,.97-.38,1.23-.23Z"/></clipPath><filter id="q" x="7.72" y="17.32" width="3.14" height="1.33" color-interpolation-filters="sRGB" filterUnits="userSpaceOnUse"><feFlood flood-color="#fff" result="bg"/><feBlend in="SourceGraphic" in2="bg"/></filter><filter id="t" x="7.72" y="-8249.88" width="3.14" height="32766" color-interpolation-filters="sRGB" filterUnits="userSpaceOnUse"><feFlood flood-color="#fff" result="bg"/><feBlend in="SourceGraphic" in2="bg"/></filter><mask id="r" x="7.72" y="-8249.88" width="3.14" height="32766" maskUnits="userSpaceOnUse"/><linearGradient id="u" x1="10.78" y1="19.36" x2="9.03" y2="17.84" gradientTransform="matrix(1, 0, 0, 1, 0, 0)" gradientUnits="userSpaceOnUse"><stop offset=".23" stop-color="#fff"/><stop offset=".42" stop-color="#fbfbfb"/><stop offset=".59" stop-color="#efefef"/><stop offset=".76" stop-color="#dcdcdc"/><stop offset=".92" stop-color="#c2c2c2"/><stop offset="1" stop-color="#b3b3b3"/></linearGradient><mask id="o" x="7.72" y="17.32" width="3.14" height="1.33" maskUnits="userSpaceOnUse"><g class="cb"><g class="bq"><path class="af" d="M9.88,17.47c-.24-.14-.54-.18-.88-.11-.21,.04-.43,.13-.66,.26-.22,.13-.43,.29-.63,.47l.97,.56c.2-.18,.41-.34,.63-.47,.23-.13,.45-.22,.66-.26,.34-.07,.64-.03,.88,.11l-.97-.56Z"/></g></g></mask><filter id="x" y="16.74" width="7.99" height="10.13" color-interpolation-filters="sRGB" filterUnits="userSpaceOnUse"><feFlood flood-color="#fff" result="bg"/><feBlend in="SourceGraphic" in2="bg"/></filter><filter id="aa" y="-8249.88" width="7.99" height="32766" color-interpolation-filters="sRGB" filterUnits="userSpaceOnUse"><feFlood flood-color="#fff" result="bg"/><feBlend in="SourceGraphic" in2="bg"/></filter><mask id="y" y="-8249.88" width="7.99" height="32766" maskUnits="userSpaceOnUse"/><linearGradient id="ab" x1="5.83" y1="23.36" x2="2.64" y2="20.3" xlink:href="#u"/><mask id="v" y="16.74" width="7.99" height="10.13" maskUnits="userSpaceOnUse"><g class="ba"><g class="bo"><path class="ah" d="M7.02,16.9c-.28-.16-.63-.21-1.02-.13-.24,.05-.49,.15-.76,.3-.44,.25-.85,.62-1.21,1.06-.66,.8-1.13,1.84-1.25,2.8-.2,.05-.41,.13-.63,.26-.38,.22-.74,.54-1.04,.91C.44,22.91,0,23.99,0,24.92c0,.68,.24,1.16,.63,1.38l.97,.56c-.39-.23-.63-.7-.63-1.38,0-.93,.44-2.01,1.11-2.81,.31-.38,.67-.7,1.05-.91,.22-.13,.43-.21,.63-.26,.12-.96,.59-2,1.25-2.8,.36-.44,.77-.81,1.21-1.06,.26-.15,.52-.25,.76-.3,.39-.08,.74-.03,1.02,.13l-.97-.56Z"/></g></g></mask><linearGradient id="ac" x1="-14792.81" y1="30.89" x2="-14792.07" y2="30.89" gradientTransform="translate(-14768.52) rotate(-180) scale(1 -1)" gradientUnits="userSpaceOnUse"><stop offset="0" stop-color="#21deff"/><stop offset="1" stop-color="#0ab4ef"/></linearGradient></defs><g class="ay"><g id="b"><g id="c"><g><g><g><g><g><path class="cc" d="M17.3,32.47l-.97-.81c-.55-.46-.87-1.14-.87-1.85v-6.45h.31v6.45c0,.63,.28,1.22,.76,1.62l1.08,.91-.31,.13Z"/><polygon class="bk" points="18.86 33.49 18.86 33.49 18.86 33.7 17.3 32.47 17.29 32.46 17.45 32.37 17.48 32.4 18.86 33.49"/><polygon class="cc" points="18.86 33.49 18.86 33.49 18.86 33.7 17.3 32.47 17.29 32.46 17.29 32.24 17.4 32.33 17.45 32.37 17.48 32.4 18.86 33.49"/><path class="cd" d="M26.62,29.05l-7.76,4.44-1.38-1.09-.03-.03-.05-.04h-.01l-.09-.08-.87-.73-.03-.03c-.48-.4-.75-.98-.76-1.59v-6.26l.14-.07,4.82-2.67,1.72-1.56h.31v6.45s0,.08,0,.11c.03,.58,.3,1.13,.75,1.5,.03,.02,.06,.05,.11,.07,.44,.29,1.75,.92,3.13,1.56Z"/><path class="cc" d="M22.63,25.9l-7,4v-5.79c.49-.48,.86-.81,.91-.76,.11,.14,4.58-1.1,6.09-1.31v3.75s0,.08,0,.11Z"/></g><polygon class="ce" points="18.86 33.49 26.62 29.05 26.62 29.27 18.86 33.7 18.86 33.49"/><path class="cl" d="M23.49,27.48l-7.07,4.04-.03-.03c-.48-.4-.75-.98-.76-1.59l7-4c.03,.58,.3,1.13,.75,1.5,.03,.02,.06,.05,.11,.07Z"/></g><g><path class="cc" d="M31.2,.55l-.17,.03h0l-.35,.07s.01,.08,.02,.12c.01,.1,.02,.21,.02,.32l-.03,3.68-.09,12.55c0,.98-.61,2.12-1.35,2.53L6.69,32.83s-.03,.01-.04,.02l.17,.63-.77-.45c-.25-.15-.42-.46-.46-.92,0-.06,0-.11,0-.17l.12-16.2v-.03c0-.68,.29-1.42,.71-1.96,.19-.24,.41-.44,.64-.57L29.63,.2c.32-.18,.62-.2,.84-.08h0l.64,.37,.09,.06Z"/><path class="cd" d="M31.11,.5l-.07,.09h0l-.33,.18L7.2,14.12l-.77-.37c.19-.24,.41-.44,.64-.57L29.63,.2c.32-.18,.62-.2,.84-.08h0l.64,.37Z"/><path class="cc" d="M8.19,14.61l-.84,2.06-1.63-.93v-.03c0-.68,.29-1.42,.71-1.96l1.76,.85Z"/><path class="at" d="M31.68,1.64l-.02,1.62h0l-.02,2.06-.09,12.55c0,.98-.61,2.11-1.35,2.54l-8.26,4.69-8.88,5.03-.21,.12-5.21,3.14c-.6,.34-1.11,.1-1.27-.53-.02-.09-.04-.2-.05-.31,0-.06,0-.11,0-.17v-1.85l.05-4.76,.07-9.62c0-.98,.61-2.12,1.35-2.54l9.31-5.28h.02l3.18-1.9,4.03-2.4h0l4.66-2.65,1.35-.76c.49-.28,.92-.17,1.15,.23,.11,.2,.17,.47,.17,.79Z"/><g><path class="by" d="M30.78,1.91V18.44q-4.6,2.69-14.57,8.51c-2.59,1.51,.33-.19-9.02,5.27V15.7C20.33,8.02,26.75,4.27,30.61,2.01l.17-.1Z"/><polygon class="cc" points="30.44 2.11 30.44 18.26 7.19 31.85 7.19 32.23 30.78 18.44 30.78 1.91 30.44 2.11"/><polygon class="cd" points="7.19 32.23 30.78 18.44 30.44 18.26 7.19 31.85 7.19 32.23"/></g></g></g><g class="am"><path class="bb" d="M16.17,23.75c-.68,0-1.29-.18-1.8-.54-1.02-.72-1.49-2.07-1.32-3.8,.16-1.67,.89-3.5,2.07-5.16,1.18-1.66,2.66-2.96,4.17-3.65l.11,.23-.11-.23c1.55-.71,2.97-.71,3.98,.01,1.02,.72,1.49,2.07,1.32,3.8-.16,1.67-.89,3.5-2.07,5.16-1.18,1.66-2.66,2.96-4.17,3.65-.77,.35-1.51,.53-2.18,.53Zm5.3-13.17c-.6,0-1.26,.16-1.97,.48h0c-2.97,1.36-5.64,5.12-5.95,8.39-.15,1.54,.25,2.72,1.11,3.34,.86,.61,2.09,.6,3.47-.04,2.97-1.36,5.64-5.12,5.95-8.39,.15-1.54-.25-2.72-1.11-3.34-.42-.3-.93-.45-1.5-.45Z"/><path class="bb" d="M20.64,16c.55-.22,.92,.15,.92,.79,0,1.38-.57,2.22-1.69,2.87v.72l-.69,.4v-.72l-.42,.24v.72l-.69,.4v-.72l-.41,.24-.18,.1-1.07,.62v-.79l1.07-.62v-4.6l-1.08,.62v-.79l1.07-.62,.18-.1,.41-.24v-.72l.69-.4v.72l.42-.24v-.72l.69-.4v.72c1.11-.62,1.57-.25,1.57,.78,0,.52-.25,1.38-.78,1.74Zm-.86,2.32c.28-.16,.36-.43,.36-.8,0-.31-.07-.57-.36-.4l-.87,.5v1.2l.88-.5h0Zm-.88-2.91v.91l.8-.46c.22-.13,.33-.39,.33-.62,0-.37-.17-.38-.33-.29l-.8,.46h0Z"/></g><polygon class="ao" points="16.14 10.47 7.19 25.97 7.19 21.52 12.27 12.73 12.49 12.6 13.42 12.06 14.13 11.64 15.67 10.74 16.14 10.47"/><polygon class="ap" points="30.61 2.01 16.21 26.96 14.29 28.07 14.21 28.13 7.19 32.23 7.19 31.39 20.86 7.71 21.36 7.42 21.46 7.36 21.59 7.28 21.86 7.12 22.29 6.87 22.5 6.75 30.61 2.01"/></g><path class="ai" d="M12.73,36.19c-1.47,.74,.24-.73-1.23,0-.72,.35-1.43,.7-2.15,1.05-.16,.08-.33,.16-.5,.24v3.59c.01,.16,.07,.27,.16,.32l.73,.43h-.02c.09,.05,.23,.05,.38-.03l5.33-3.08c.28-.16,.5-.55,.5-.87v-.41l-3.19-1.23Z"/><g><g><g class="ay"><g><path class="bb" d="M14.8,24.42l.71,.41c-.09-.05-.21-.04-.35,.03l-.71-.41c.13-.08,.26-.08,.35-.03Z"/><g class="bm"><g class="ay"><path class="bb" d="M15.17,24.86l-.71-.41c.05-.03,.1-.05,.15-.06l.71,.41s-.1,.03-.15,.06h0Z"/><path class="bb" d="M15.31,24.81l-.71-.41c.07-.02,.14,0,.19,.02l.71,.41c-.05-.03-.12-.04-.19-.02h0Z"/><polygon class="bb" points="15.5 24.83 14.8 24.41 14.8 24.42 15.51 24.83 15.5 24.83 15.5 24.83"/></g></g></g><polygon class="cd" points="10 27.85 9.29 27.44 14.46 24.45 15.17 24.86 10 27.85"/><g><path class="bc" d="M9.51,28.69l-.71-.41c0-.31,.22-.69,.49-.84l.71,.41c-.27,.16-.49,.53-.49,.84Z"/><g class="aw"><path class="cl" d="M9.29,27.44c-.09,.05-.17,.12-.24,.21-.07,.08-.12,.17-.16,.27-.05,.12-.09,.25-.09,.37l.71,.41c0-.12,.03-.25,.09-.37,.04-.1,.1-.19,.16-.27,.07-.09,.15-.16,.24-.21l-.71-.41Z"/></g></g><g><path class="bw" d="M15.69,37.57c0,.31-.22,.69-.49,.84l-5.17,2.99c-.27,.15-.49,.03-.49-.28v-.39l6.14-3.55v.39Z"/><polygon class="as" points="15.66 25.66 15.69 37.18 9.55 40.73 9.52 29.21 15.66 25.66"/><path class="bw" d="M9.51,28.69c0-.31,.22-.69,.49-.84l5.17-2.99c.27-.15,.49-.03,.49,.28v.52l-6.14,3.55v-.52Z"/></g></g><g><path class="cl" d="M10.84,26.83s.03,.08,.08,.11c.12,.07,.3,.07,.42,0,.03-.02,.05-.03,.06-.05,.05-.06,.03-.14-.06-.19-.12-.07-.3-.07-.42,0-.06,.03-.09,.08-.08,.13Z"/><path class="cp" d="M10.84,26.83s.03,.08,.08,.11c.12,.07,.3,.07,.42,0,.03-.02,.05-.03,.06-.05,0-.04-.03-.08-.09-.11-.11-.07-.3-.07-.42,0-.03,.02-.05,.03-.06,.05Z"/></g><g><path class="cl" d="M9.77,27.49s.03,.05,.06,.06c.1,.06,.28,.06,.38,0l.41-.24s.05-.04,.06-.06c.03-.06,.01-.12-.06-.17-.1-.06-.28-.06-.38,0l-.4,.24c-.07,.04-.1,.1-.07,.16Z"/><path class="cp" d="M9.77,27.49s.03,.05,.06,.06c.1,.06,.28,.06,.38,0l.41-.24s.05-.04,.06-.06c-.01-.03-.03-.05-.07-.07-.11-.06-.28-.06-.38,0l-.4,.24s-.05,.04-.06,.06Z"/></g><path class="cl" d="M13.29,26.71l-1.88,1.09c-.08,.05-.15,0-.15-.09h0c0-.09,.07-.21,.15-.26l1.88-1.09c.08-.05,.15,0,.15,.09h0c0,.09-.07,.21-.15,.26Z"/><g><path class="cl" d="M9.55,41.12c0,.15,.05,.26,.14,.31l-.71-.41c-.09-.05-.14-.16-.14-.31v-.36l.71,.41v.36Z"/><polygon class="cl" points="8.81 28.28 9.51 28.69 9.52 29.21 8.81 28.8 8.81 28.28"/><polygon class="cl" points="9.52 29.21 9.55 40.76 8.84 40.35 8.81 28.8 9.52 29.21"/><polygon class="ar" points="9.15 29 9.52 29.21 9.55 40.76 9.15 40.54 9.15 29"/></g></g><polygon class="br" points="15.66 25.66 15.69 37.18 9.55 40.73 9.52 29.21 15.66 25.66"/><g class="am"><path class="bb" d="M11.53,36.57c-.3,0-.56-.08-.79-.24-.45-.32-.65-.91-.58-1.66,.07-.73,.39-1.53,.91-2.26,.52-.73,1.16-1.29,1.83-1.6l.05,.1-.05-.1c.68-.31,1.3-.31,1.74,0,.45,.32,.65,.91,.58,1.66-.07,.73-.39,1.53-.91,2.26-.52,.73-1.16,1.29-1.83,1.6-.34,.15-.66,.23-.95,.23Zm2.32-5.76c-.26,0-.55,.07-.86,.21h0c-1.3,.59-2.47,2.24-2.6,3.67-.06,.67,.11,1.19,.49,1.46,.37,.27,.91,.26,1.52-.02,1.3-.59,2.47-2.24,2.6-3.67,.06-.67-.11-1.19-.49-1.46-.18-.13-.41-.2-.66-.2Z"/><path class="bb" d="M13.48,33.18c.24-.1,.4,.06,.4,.34,0,.6-.25,.97-.74,1.26v.31l-.3,.17v-.31l-.19,.11v.31l-.3,.17v-.31l-.18,.1-.08,.04-.47,.27v-.35l.47-.27v-2.01l-.47,.27v-.35l.47-.27,.08-.04,.18-.1v-.31l.3-.17v.31l.19-.11v-.31l.3-.17v.31c.49-.27,.69-.11,.69,.34,0,.23-.11,.6-.34,.76Zm-.38,1.02c.12-.07,.16-.19,.16-.35,0-.14-.03-.25-.16-.17l-.38,.22v.52l.38-.22h0Zm-.39-1.27v.4l.35-.2c.1-.06,.14-.17,.14-.27,0-.16-.07-.17-.15-.13l-.35,.2h0Z"/></g><g class="bj"><polygon class="ci" points="13.71 26.78 9.53 33.63 9.53 35.18 15.19 25.93 13.71 26.78"/><polygon class="ci" points="15.66 26.87 9.54 36.88 9.54 39.33 15.67 29.32 15.66 26.87"/><polygon class="ci" points="15.67 29.32 9.54 39.33 9.55 40.73 10.85 39.98 15.67 32.08 15.67 29.32"/></g></g><path class="ai" d="M46.12,28.62c-4.43-2.56-11.59-2.56-15.98,0-2.19,1.27-3.29,2.94-3.28,4.61v1.28c-.02,2.63,2.56,4.51,5.01,5.46,4.43,1.73,10.45,1.44,14.3-.8,3.68-2.14,3.28-4.53,3.29-5.89,0,.41,.5-2.45-3.34-4.66Z"/><g><g class="ay"><g class="ay"><path class="cl" d="M49.17,32.27v1.29c-.01,1.66-1.11,3.33-3.29,4.6-4.4,2.56-11.56,2.56-15.98,0-2.23-1.29-3.34-2.98-3.34-4.66v-1.29c0,1.69,1.12,3.38,3.35,4.66,4.43,2.56,11.59,2.56,15.98,0,2.19-1.27,3.28-2.93,3.28-4.6Z"/><g class="bf"><g class="ay"><path class="cl" d="M49.17,32.27v1.29c-.01,1-.41,2-1.19,2.91v-1.29c.8-.91,1.19-1.91,1.19-2.91h0Z"/><path class="cl" d="M47.98,35.18v1.29c-.53,.61-1.23,1.18-2.11,1.69-.36,.21-.75,.41-1.14,.58v-1.29c.41-.18,.79-.37,1.15-.58,.87-.51,1.57-1.08,2.1-1.69h0Z"/><path class="cl" d="M44.74,37.45v1.29c-2.57,1.14-5.79,1.55-8.84,1.23v-1.29c3.05,.31,6.27-.1,8.84-1.23h0Z"/><path class="cl" d="M35.91,38.69v1.29c-1.66-.17-3.25-.55-4.67-1.15v-1.29c1.42,.59,3.02,.98,4.67,1.15h0Z"/><path class="cl" d="M31.25,37.54v1.29c-.48-.2-.93-.42-1.36-.67-2.23-1.29-3.34-2.98-3.34-4.66v-1.29c0,1.69,1.12,3.38,3.35,4.66,.43,.25,.88,.47,1.35,.67h0Z"/></g></g></g><path class="cm" d="M45.83,27.61c4.43,2.56,4.45,6.7,.05,9.26-4.4,2.56-11.56,2.56-15.98,0-4.43-2.56-4.45-6.7-.05-9.26,4.4-2.56,11.56-2.56,15.98,0Z"/></g><g><path class="cc" d="M45.18,32.31c0,.97-.72,1.9-2.04,2.61-1.45,.78-3.35,1.18-5.25,1.18s-3.81-.39-5.27-1.18c-1.34-.72-2.07-1.66-2.08-2.64,0-.03,0-.06,0-.1,0-.03,0-.06,0-.09,0-.97,.72-1.9,2.04-2.62,1.45-.78,3.35-1.18,5.25-1.18s3.81,.39,5.27,1.18c1.34,.72,2.08,1.66,2.08,2.64,0,.03,0,.06,0,.09h0s0,.06,0,.09Zm-.73-4.03c-1.78-.96-4.13-1.49-6.62-1.49s-4.84,.53-6.61,1.49c-1.84,1-2.86,2.36-2.86,3.82,0,.03,0,.07,0,.1,0,.04,0,.07,0,.1,.09,1.39,1.11,2.68,2.89,3.64,1.78,.96,4.13,1.49,6.62,1.49s4.84-.53,6.61-1.49c1.75-.95,2.76-2.23,2.85-3.61,0-.04,0-.07,0-.1,0-.04,0-.07,0-.11,0-1.47-1.03-2.84-2.9-3.85Z"/><path class="aj" d="M44.45,28.7c-1.78-.96-4.13-1.49-6.62-1.49s-4.84,.53-6.61,1.49c-1.75,.95-2.76,2.23-2.85,3.61,.09,1.39,1.11,2.68,2.89,3.64,1.78,.96,4.13,1.49,6.62,1.49s4.84-.53,6.61-1.49c1.75-.95,2.76-2.23,2.85-3.61-.09-1.39-1.11-2.68-2.89-3.64Z"/><path class="cc" d="M42.45,29.94c-1.24-.67-2.88-1.04-4.61-1.04s-3.37,.37-4.6,1.04c-1.22,.66-1.92,1.55-1.99,2.51,.06,.97,.77,1.87,2.02,2.54,1.24,.67,2.88,1.04,4.61,1.04s3.37-.37,4.6-1.04c1.22-.66,1.92-1.55,1.99-2.51-.06-.97-.77-1.87-2.02-2.54Z"/><path class="an" d="M42.45,29.55c-1.24-.67-2.88-1.04-4.61-1.04s-3.37,.37-4.6,1.04c-1.22,.66-1.92,1.55-1.99,2.51,.06,.97,.77,1.87,2.02,2.54,1.24,.67,2.88,1.04,4.61,1.04s3.37-.37,4.6-1.04c1.22-.66,1.92-1.55,1.99-2.51-.06-.97-.77-1.87-2.02-2.54Z"/></g></g><g><g><path class="az" d="M37.64,20.52c.07-.05,.15-.09,.22-.13,.01,0,.02-.01,.03-.02,.05-.03,.1-.06,.15-.09,.19-.11,.38-.2,.57-.29,.03-.02,.07-.03,.1-.04l.06-.03s.09-.04,.14-.06c.06-.02,.11-.04,.17-.06,.21-.08,.41-.14,.61-.19,.09-.02,.17-.04,.26-.06,.1-.02,.19-.03,.29-.04,.16-.02,.31-.03,.46-.03,.1,0,.2,0,.29,.01,.14,.01,.27,.03,.4,.06,.37,.08,.7,.22,.99,.42h0l1.49,1.06c-.3-.22-.65-.38-1.04-.46-.11-.02-.22-.04-.33-.05-.02,0-.05,0-.07,0-.15-.01-.3-.01-.46,0h0c-.19,0-.38,.03-.58,.07-.08,.02-.17,.03-.25,.06-.13,.03-.27,.07-.4,.12-.11,.03-.21,.07-.32,.11-.02,0-.04,.01-.06,.02-.07,.03-.13,.06-.2,.09-.03,.01-.07,.03-.1,.04-.18,.08-.37,.18-.55,.28h-.02c-.06,.04-.12,.08-.18,.11-.02,.01-.04,.02-.06,.04-.12,.07-.24,.15-.36,.23l-1.59-.92c.12-.08,.24-.16,.36-.24Z"/><path class="cf" d="M32.39,28.77v-.04c.01-.08,.02-.16,.03-.24,.02-.16,.05-.32,.08-.49,.01-.07,.03-.13,.04-.2,.01-.06,.03-.12,.04-.18,.02-.09,.04-.17,.07-.26,.02-.08,.05-.17,.07-.25,.01-.04,.02-.07,.03-.11l1.49,.86s-.02,.06-.03,.08c-.02,.06-.04,.13-.06,.19,0,.03-.02,.06-.02,.08-.02,.08-.05,.17-.07,.26-.03,.12-.06,.23-.08,.35-.01,.07-.03,.13-.04,.2-.02,.1-.04,.21-.05,.31-.01,.09-.03,.18-.04,.27,0,.05-.01,.1-.02,.15v.02c0,.07-.01,.14-.02,.21-.01,.19-.02,.38-.01,.56,0,.08,0,.16,.01,.24v.06c0,.06,.01,.12,.02,.18,.04,.32,.1,.62,.19,.89,0,.02,.01,.04,.02,.06,.04,.11,.08,.22,.13,.32h0c.21,.45,.5,.81,.86,1.08l-1.46-1.04h0c-.27-.21-.5-.47-.69-.78-.05-.08-.1-.17-.14-.27-.02-.05-.04-.1-.07-.15-.03-.06-.05-.12-.07-.18-.1-.29-.17-.6-.21-.94v-.02c-.01-.08-.02-.16-.02-.24,0-.02,0-.03,0-.05-.01-.24-.01-.49,0-.76,0-.06,0-.13,.01-.19Z"/><path class="av" d="M32.78,26.93c.04-.12,.08-.25,.13-.37,.03-.08,.06-.16,.09-.24,0,0,0-.02,.01-.03,.02-.06,.05-.12,.07-.18,.08-.19,.16-.37,.24-.55l.03-.06c.03-.06,.06-.11,.09-.17h0c.1-.2,.2-.4,.31-.59,.03-.05,.05-.1,.08-.14v-.02c.05-.07,.09-.13,.13-.2,.07-.12,.15-.24,.23-.36,.04-.05,.07-.11,.11-.16,.04-.06,.08-.12,.12-.18,.05-.07,.1-.14,.15-.21,.03-.05,.07-.1,.11-.15,.04-.05,.07-.1,.11-.15,.09-.12,.19-.24,.29-.36,.04-.05,.08-.1,.12-.15,.02-.02,.03-.04,.05-.05,.03-.03,.05-.06,.08-.09,.15-.17,.3-.33,.45-.48l.05-.05,.09-.09s.07-.06,.1-.09c.13-.12,.26-.24,.39-.36,.05-.04,.1-.08,.15-.13,.04-.03,.07-.06,.11-.09,.07-.06,.14-.12,.22-.17,.07-.06,.14-.11,.21-.16,.06-.04,.11-.08,.17-.12h.01l1.59,.91c-.06,.04-.11,.07-.17,.11-.06,.04-.11,.08-.17,.12-.02,.02-.04,.03-.06,.05-.07,.05-.15,.11-.22,.17-.08,.07-.17,.13-.25,.2-.05,.04-.1,.08-.15,.13-.09,.08-.18,.16-.27,.24-.07,.06-.13,.12-.19,.18-.01,0-.02,.02-.03,.03l-.14,.14c-.14,.14-.28,.29-.42,.45l-.03,.03s-.09,.1-.13,.15v.02c-.15,.16-.28,.32-.42,.49-.04,.05-.08,.1-.11,.15h0c-.05,.08-.1,.15-.15,.22-.08,.1-.15,.21-.22,.31-.04,.05-.07,.11-.11,.16-.05,.07-.09,.14-.14,.21-.05,.07-.09,.14-.13,.22-.03,.04-.05,.08-.08,.12-.03,.05-.06,.11-.09,.16-.08,.14-.16,.29-.24,.44-.03,.05-.05,.1-.08,.15l-.04,.08s-.03,.06-.05,.09c-.1,.2-.19,.41-.27,.61,0,.02-.02,.04-.02,.06-.02,.04-.04,.09-.05,.13l-.04,.11c-.06,.15-.11,.3-.16,.45l-1.49-.86s.02-.05,.03-.08Z"/></g><g class="ag"><path class="co" d="M36.67,21.22l1.58,.91c.07-.06,.14-.12,.22-.17l-1.58-.91c-.07,.06-.14,.11-.22,.17Z"/><path class="co" d="M35.83,21.99l1.56,.9c.06-.06,.13-.12,.19-.18l-1.57-.9s-.07,.06-.1,.09l-.09,.09Z"/><path class="co" d="M40.23,19.52l1.73,1h0c.16,0,.31,0,.46,0,.02,0,.05,0,.07,0l-1.8-1.04c-.15,0-.3,.01-.46,.03Z"/><path class="co" d="M38.77,19.92l1.64,.94c.11-.04,.21-.08,.32-.11l-1.65-.95c-.06,.02-.11,.04-.17,.06-.05,.02-.09,.04-.14,.06Z"/><path class="co" d="M37.64,20.52l1.6,.92s.04-.02,.06-.04c.06-.03,.12-.07,.18-.1h.02l-1.61-.94s-.02,.01-.03,.02c-.07,.04-.15,.09-.22,.13Z"/><path class="co" d="M32.9,26.56l1.5,.86,.04-.11s.03-.09,.05-.13l-1.5-.87c-.03,.08-.06,.16-.09,.24Z"/><path class="co" d="M32.39,28.77l1.46,.84c.01-.09,.02-.18,.04-.27l-1.46-.85c-.01,.08-.02,.16-.03,.24v.04Z"/><path class="co" d="M35.08,22.81l1.55,.89v-.02c.06-.05,.1-.1,.14-.15l.03-.03-1.55-.9s-.03,.03-.05,.05c-.04,.05-.08,.1-.12,.15Z"/><path class="co" d="M34.42,23.68l1.54,.89c.05-.07,.1-.14,.15-.21l-1.54-.89c-.05,.07-.1,.14-.15,.21Z"/><path class="co" d="M33.83,24.59l1.52,.88c.04-.07,.09-.15,.13-.22l-1.53-.88c-.04,.07-.08,.13-.12,.2v.02Z"/><path class="co" d="M33.32,25.55l1.51,.87,.04-.08c.03-.05,.05-.1,.08-.15l-1.51-.87h0c-.03,.06-.06,.12-.09,.17l-.03,.06Z"/><path class="co" d="M32.37,29.72s0,.03,0,.05c0,.08,.01,.17,.02,.24v.02l1.42,.82v-.06c0-.08-.01-.16-.02-.24l-1.43-.83Z"/><path class="co" d="M32.68,31.15c.02,.05,.04,.1,.07,.15,.04,.09,.09,.18,.14,.27l1.29,.74c-.05-.1-.09-.21-.13-.32,0-.02-.01-.04-.02-.06l-1.35-.78Z"/><path class="co" d="M32.58,27.63l1.48,.85c.02-.08,.04-.17,.07-.26l-1.49-.86c-.02,.09-.04,.17-.07,.26Z"/></g><path class="cg" d="M40.04,21.02c-3.1,1.42-5.88,5.34-6.21,8.76-.33,3.42,1.93,5.04,5.03,3.62,3.1-1.42,5.88-5.34,6.21-8.76,.33-3.42-1.93-5.04-5.03-3.62Z"/><path class="az" d="M36.75,33.27c.56,0,1.18-.15,1.84-.46,2.91-1.33,5.53-5.02,5.84-8.23,.11-1.19-.12-2.18-.66-2.77-.4-.44-.94-.66-1.62-.66-.56,0-1.18,.15-1.84,.46-2.91,1.33-5.53,5.02-5.84,8.23-.11,1.19,.12,2.18,.66,2.77,.4,.44,.94,.66,1.62,.66Z"/><g class="ay"><polygon class="aq" points="39.82 31.14 39.35 30.86 39.34 30.13 39.82 30.41 39.82 31.14"/><polygon class="aq" points="38.69 31.79 38.21 31.51 38.21 30.79 38.69 31.06 38.69 31.79"/><g class="ay"><path class="aq" d="M40.18,27.12l.47,.27c.1,.06,.13,.24,.13,.44,0,.38-.08,.65-.36,.81l-.47-.27c.28-.16,.37-.44,.36-.81,0-.2-.03-.38-.13-.44Z"/><g class="bz"><g class="ay"><path class="aq" d="M40.42,28.65l-.47-.27c.28-.16,.37-.44,.36-.81,0-.2-.03-.38-.13-.44l.47,.27c.1,.06,.13,.24,.13,.44,0,.38-.08,.65-.36,.81h0Z"/></g></g></g><g class="ay"><path class="aq" d="M41.42,26.01l.47,.27c-.16-.09-.36-.1-.59,0l-.47-.27c.23-.09,.44-.08,.59,0Z"/><g class="bn"><g class="ay"><path class="aq" d="M41.3,26.28l-.47-.27c.23-.09,.44-.08,.59,0l.47,.27c-.16-.09-.36-.1-.59,0h0Z"/></g></g></g><polygon class="aq" points="39.53 29.16 39.06 28.88 39.95 28.37 40.42 28.65 39.53 29.16"/><g class="ay"><path class="aq" d="M40.1,24.91l.47,.27c.06,.04,.11,.14,.11,.33,0,.24-.11,.5-.34,.63l-.47-.27c.22-.13,.34-.39,.34-.63,0-.19-.04-.29-.11-.33Z"/><g class="be"><g class="ay"><path class="aq" d="M40.34,26.14l-.47-.27c.22-.13,.34-.39,.34-.63,0-.19-.04-.29-.11-.33l.47,.27c.06,.04,.11,.14,.11,.33,0,.24-.11,.5-.34,.63h0Z"/></g></g></g><polygon class="aq" points="37 32.03 36.53 31.76 36.52 30.96 37 31.23 37 32.03"/><polygon class="aq" points="37 31.23 36.52 30.96 37.61 30.33 38.08 30.6 37 31.23"/><polygon class="aq" points="39.53 26.62 39.05 26.34 39.87 25.87 40.34 26.14 39.53 26.62"/><g class="ay"><path class="aq" d="M41.25,23.21l.47,.27c-.26-.15-.66-.09-1.23,.23l-.47-.27c.57-.32,.97-.38,1.23-.23Z"/><g class="bx"><g class="ay"><path class="aq" d="M40.5,23.71l-.47-.27c.57-.32,.97-.38,1.23-.23l.47,.27c-.26-.15-.66-.09-1.23,.23h0Z"/></g></g></g><polygon class="aq" points="39.37 24.36 38.9 24.09 39.33 23.84 39.8 24.12 39.37 24.36"/><polygon class="aq" points="39.8 23.39 39.32 23.11 40.02 22.71 40.5 22.98 39.8 23.39"/><polygon class="aq" points="39.8 24.12 39.33 23.84 39.32 23.11 39.8 23.39 39.8 24.12"/><polygon class="aq" points="38.08 30.6 37.61 30.33 37.6 25.64 38.07 25.92 38.08 30.6"/><polygon class="aq" points="38.25 25.01 37.78 24.74 38.19 24.49 38.67 24.77 38.25 25.01"/><polygon class="aq" points="38.07 25.11 37.6 24.84 37.78 24.74 38.25 25.01 38.07 25.11"/><polygon class="aq" points="38.67 24.77 38.19 24.49 38.19 23.77 38.67 24.04 38.67 24.77"/><polygon class="aq" points="38.67 24.04 38.19 23.77 38.89 23.36 39.37 23.64 38.67 24.04"/><polygon class="aq" points="36.98 26.55 36.51 26.27 36.51 25.47 36.98 25.74 36.98 26.55"/><path class="cg" d="M41.3,26.28c.56-.22,.94,.15,.94,.8,0,1.4-.58,2.26-1.72,2.92v.73l-.7,.4v-.73l-.43,.25v.73l-.7,.4v-.73l-.42,.24-.18,.1-1.09,.63v-.8l1.09-.63v-4.68l-1.1,.63v-.8l1.09-.63,.18-.1,.42-.24v-.73l.7-.4v.73l.43-.25v-.73l.7-.4v.73c1.13-.63,1.6-.25,1.6,.8,0,.53-.26,1.41-.8,1.77Zm-.88,2.37c.28-.16,.37-.44,.36-.81,0-.32-.08-.58-.37-.41l-.89,.51v1.22l.89-.51h0Zm-.9-2.96v.93l.82-.47c.22-.13,.34-.39,.34-.63,0-.38-.17-.39-.34-.3l-.82,.47h0Z"/><polygon class="aq" points="36.98 25.74 36.51 25.47 37.6 24.84 38.07 25.11 36.98 25.74"/></g><path class="bi" d="M35.82,25.94c2.12,1.28,4.2,2.63,6.23,4.05-.92,1.14-2.02,2.1-3.18,2.69-1.42-1.03-2.89-1.97-4.39-2.87,.13-1.27,.62-2.62,1.34-3.87Z"/><path class="bi" d="M39.59,21.98c1.63,1.05,3.22,2.13,4.73,3.33-.12,.62-.32,1.24-.58,1.86-1.85-1.43-3.78-2.73-5.76-3.96,.51-.47,1.05-.89,1.6-1.22Z"/><g><path class="az" d="M38.04,32.54c.64-.29,1.27-.7,1.86-1.19l.53,.3c-.58,.48-1.2,.88-1.82,1.16-.66,.3-1.28,.45-1.84,.45-.52,0-.96-.13-1.32-.39,.23,.07,.48,.11,.76,.11,.56,0,1.18-.15,1.84-.45Z"/><path class="cf" d="M43.87,24.3c.11-1.19-.12-2.18-.66-2.77-.09-.1-.19-.19-.3-.27,.34,.11,.63,.29,.86,.55,.54,.59,.78,1.58,.66,2.77-.02,.23-.06,.47-.1,.7l-.55-.32c.04-.22,.07-.44,.09-.66Z"/><path class="av" d="M43.78,24.96l.55,.32c-.45,2.32-1.99,4.79-3.91,6.37l-.53-.3c1.91-1.59,3.45-4.06,3.88-6.38Z"/></g></g><g class="ca"><g class="ay"><g class="am"><g class="al"><path class="bu" d="M9.88,17.47c-.24-.14-.54-.18-.88-.11-.21,.04-.43,.13-.66,.26-.22,.13-.43,.29-.63,.47l.97,.56c.2-.18,.41-.34,.63-.47,.23-.13,.45-.22,.66-.26,.34-.07,.64-.03,.88,.11l-.97-.56Z"/></g><g class="ch"><path class="bu" d="M7.02,16.9c-.28-.16-.63-.21-1.02-.13-.24,.05-.49,.15-.76,.3-.44,.25-.85,.62-1.21,1.06-.66,.8-1.13,1.84-1.25,2.8-.2,.05-.41,.13-.63,.26-.38,.22-.74,.54-1.04,.91C.44,22.91,0,23.99,0,24.92c0,.68,.24,1.16,.63,1.38l.97,.56c-.39-.23-.63-.7-.63-1.38,0-.93,.44-2.01,1.11-2.81,.31-.38,.67-.7,1.05-.91,.22-.13,.43-.21,.63-.26,.12-.96,.59-2,1.25-2.8,.36-.44,.77-.81,1.21-1.06,.26-.15,.52-.25,.76-.3,.39-.08,.74-.03,1.02,.13l-.97-.56Z"/></g></g><g class="bl"><path class="bu" d="M6.21,17.64c1.25-.72,2.29-.26,2.47,1.01,.2-.18,.41-.34,.63-.47,1.19-.69,2.16-.14,2.17,1.23,0,1.37-.96,3.04-2.15,3.72l-6.19,3.58c-1.19,.69-2.16,.14-2.17-1.23,0-1.37,.96-3.04,2.15-3.73,.22-.13,.43-.21,.63-.26,.18-1.48,1.21-3.14,2.46-3.86Z"/></g></g></g><path class="ai" d="M23.29,40.76c1,.58,1,1.51,0,2.09-1,.58-2.62,.58-3.62,0s-1-1.51,0-2.09,2.62-.58,3.62,0Z"/><g><path class="bd" d="M23.88,30.16c-.14,.03-.28,.07-.31,.08-.23,.09-.41,.29-.61,.42-.17,.11-1.32,.3-1.52,.34-.01-.14,.2,.92,.21,.93,0,0,1.08-.74,1.16-.78,.13-.05,.28-.05,.4-.07,.01-.1,.04-.19,.08-.27,.05-.09,.19-.19,.29-.22,.06-.08,.09-.14,.13-.16,.05-.03,.11-.05,.17-.06v-.21Z"/><path class="au" d="M19.69,31.68c4.37,9.37,.68,.83,1.05,1.24,.61-.03,.81-.54,.85-.86-.26-.33-.79-.84-1.14-1.2-.38-.38-1.01,.28-.76,.82Z"/><g><path class="ak" d="M22.02,42.44c-.25,.1-.54,.32-.81,.15-.19-.12-.1-.42,0-.62,.09-.19,.18-.32,.4-.39,.06-.02,.18-.04,.23,0,.19,.19,.59,.16,.84,.15,.08,0,.16,0,.23,.01,.21,.06,.28,.29-.04,.46-.39,.21-.62,.12-.86,.22Z"/><path class="ak" d="M20.13,41.35s-.2,.46-.07,.65c.04,.05,.22,.09,.45,.07,.15-.01,.31-.08,.45-.08,.42,0,.69-.19,.89-.4,.43-.43-.25-.37-.71-.28-.47,.1-1.01,.04-1.01,.04Z"/><path class="bh" d="M20.92,41.4l.59-5.4c.05-.37-.16-.72-.54-.77-.37-.05-1.07-.09-1.13,.28-.17,1.04,.53,1.46,.29,2.63-.16,.78-.04,2.87,0,3.21,.04,.33,.63,.32,.79,.05Z"/><path class="bg" d="M21.99,41.71c.1-.61,.35-1.5,.38-2.37,.03-.72,.13-2.89,.13-2.89,0-.37-.03-1.61-.37-1.61-.34,0-1.88,.02-1.88,.78,0,.48-.12,.63,.38,1.36,.33,.48,.46,1.39,.42,2.02-.08,1.18,.2,2.74,.2,2.75,.03,.33,.72,.16,.75-.03Z"/><g><path class="ax" d="M22.4,33.69c-.05,.58,.17,1.64,.13,2.05-.04,.4-2.67,.46-2.78-.11-.09-.44,.26-1.4,.21-1.81-.1-.88-.22-2.07-.21-2.47,0-.14,.03-.32,.14-.42,.16-.15,.46-.21,.86-.16l.78,.11c.19,.11,1.04,.23,1.13,.71,0,0-.08,.19-.11,.45-.04,.38-.14,1.57-.14,1.65Z"/><path class="bt" d="M21.96,30.1h-.01c-.05-.1-.39-.1-.5-.11-.2,0-.41,0-.61,.02l-.04,.16h0c-.02,.11-.04,.23-.02,.34,0,.11,0,.21-.05,.31-.04,.11-.06,.22,.09,.29,.38,.19,.83,.15,.92,0,.06-.1-.06-.25,0-.5,.05-.22,.23-.44,.21-.51h.01Z"/><path class="bt" d="M22.27,29.34c.04,.52,.03,1.05-.25,1.27-.09,.07-.22,.08-.35,.06-.03,0-.05,0-.08-.02-.14-.04-.28-.1-.37-.15-.13-.08-.27-.54-.31-.7-.12-.5,.26-.55,.58-.79,.32-.25,.73-.18,.77,.34Z"/><path class="cj" d="M21.95,28.58c-.14-.1-.33-.16-.5-.2-.08-.02-.15-.03-.23-.03-.53,.08-.65,.41-.65,.41,0,0-1.03,.53,.06,1.74,.05,.06,.08,.13,.1,.19,.05,.03,.45,.03,.52-.02,.07-.05,.12-.12,.16-.2,.04-.08,.06-.16,.1-.24,.02-.05,.05-.09,.09-.13,.06-.05,.16-.07,.21-.13,.06-.06,.07-.14,.07-.22,0-.05,0-.1-.01-.15v-.03c.01-.08,.04-.17,.1-.22,.11-.09,.22-.07,.3-.21,.08-.13-.02-.34-.32-.56Z"/><path class="cj" d="M21.95,28.58c-.14-.1-.33-.16-.5-.2-.08-.02-.15-.03-.23-.03-.53,.08-.65,.41-.65,.41,0,0-.6,.31-.4,1,.35-.47,1.03-.48,1.55-.3,.05,.02,.1,.04,.15,.07,.01-.06,.04-.13,.09-.17,.11-.09,.22-.07,.3-.21,.08-.13-.02-.34-.32-.56Z"/><path class="bs" d="M20.18,29.76c.06,.21,.2,.46,.46,.74,.05,.06,.08,.13,.1,.19,.05,.03,.45,.03,.52-.02,.15-.1,.19-.29,.26-.44,.02-.05,.05-.09,.09-.13,.06-.05,.16-.07,.21-.13,.06-.06,.07-.14,.07-.22,0-.05,0-.1-.01-.15v-.03s0-.04,.01-.06c-.05-.03-.09-.05-.15-.07-.52-.18-1.2-.17-1.55,.3Z"/><path class="bt" d="M21.78,30.01c.06,.11,.04,.24-.04,.29s-.2,0-.26-.12c-.06-.11-.04-.24,.04-.29,.08-.05,.2,0,.26,.12Z"/><path class="bd" d="M21.68,30.06s.02,.1-.02,.11c-.03,.02-.08,0-.11-.05-.03-.05-.02-.1,.02-.11s.08,0,.11,.05Z"/></g></g><g><path class="ck" d="M23.83,31.14h.02s0,.02-.02,.02h-.02s.02,0,.02-.02h0Z"/><g><path class="bp" d="M23.86,31.54s-.02,0-.02,.01v.08s0,.03,.02,.03l.07,.04s.02,0,.02-.01v-.08s0-.03-.02-.03l-.07-.04Z"/><g><polygon class="bp" points="23.86 30.15 23.86 30.17 24.04 30.28 24.04 30.26 23.86 30.15"/><path class="cn" d="M23.64,30.05s-.04,0-.04,.02l-.05,1.22s.02,.05,.04,.07l.61,.38s.04,0,.04-.02l.05-1.22s-.02-.05-.04-.07l-.61-.38Z"/><path class="cd" d="M24.24,30.31s.09,.1,.08,.16l-.05,1.39c0,.06-.04,.08-.09,.05l-.58-.36s-.09-.1-.08-.16l.05-1.39c0-.06,.04-.08,.09-.05l.58,.36Zm-.66,.96s.01,.05,.03,.06l.58,.36s.04,0,.04-.02l.04-1.15s-.01-.05-.03-.06l-.58-.36s-.04,0-.04,.02l-.04,1.15h0Zm.26,.36s0,.03,.02,.03l.07,.04s.02,0,.02-.01v-.08s0-.03-.02-.03l-.07-.04s-.02,0-.02,.01v.08h0Zm.2-1.37l-.18-.11v.02l.18,.11v-.02h0Z"/><path class="cl" d="M23.69,29.9s.02,0,.04,0c0,0,.02,0,.03,.01l.58,.36s.03,.02,.04,.04c.03,.03,.04,.08,.04,.12l-.05,1.39s-.01,.05-.03,.06l-.09,.05s.03-.03,.03-.06l.05-1.39s-.02-.08-.04-.12c-.01-.02-.03-.03-.04-.04l-.58-.36s-.02,0-.03-.01c-.01,0-.03,0-.04,0l.09-.05Z"/></g></g></g><path class="bt" d="M24.52,30.7s-.1-.06-.12,0c-.02,.05,.04,.41-.07,.52-.02,.02-.08,.13-.18,.03-.03-.03-.11-.16-.14-.21-.06-.1-.15-.03-.11,.05,.03,.05,.08,.16,.09,.22,.02,.12,.14,.22,.16,.28,0,.02,0,.06-.01,.06-.05,.08-.23,.66-.47,.68-.38,.03-1.13-1-1.13-1-.17-.14-.37-.21-.54-.11-.08,.04-.14,.1-.19,.15-.27,.32,.02,.61,.2,.77,0,0,.08,.15,.27,.28,.46,.33,1.27,1.01,1.74,.77,.31-.16,.43-.87,.48-1,.1-.29,.11-.56,.2-.85,.04-.12,.06-.13,.07-.26,0-.1-.23-.38-.26-.41Z"/><path class="bd" d="M23.21,31.09c.05,0,.11-.02,.16-.05,.08-.05,.15-.09,.24-.1,.08-.01,.18,0,.25-.06,.06-.04,.06-.11-.02-.14-.09-.03-.21,.05-.3,.03-.11-.02-.04-.09,.01-.17-.09,.03-.2,.12-.26,.21-.04,.07-.07,.17-.08,.27Z"/><path class="cd" d="M23.53,32.17l-.98-.84c-.17-.14-.37-.21-.54-.11-.08,.04-.14,.1-.19,.15-.27,.32-.09,.79,.1,.94h0l1.1,.74c.29-.2,.49-.54,.51-.89Z"/></g><g><path class="bv" d="M35.93,15.45c0-1.12-.79-1.58-1.76-1.02s-1.76,1.93-1.76,3.05c0,1.12,.79,1.58,1.76,1.02s1.76-1.93,1.76-3.05Z"/><g id="ad"><g id="ae"><g><polygon class="bw" points="33.78 17.47 33.78 17.83 34.56 17.38 34.56 17.01 33.78 17.47"/><polygon class="bw" points="33.36 18.28 34.98 17.35 34.98 17.18 33.36 18.12 33.36 18.28"/><path class="bw" d="M35.29,14.66l-2.23,1.29c-.06,.03-.11,.12-.11,.19v1.63c0,.07,.05,.1,.11,.06l2.23-1.29c.06-.03,.11-.12,.11-.19v-1.63c0-.07-.05-.1-.11-.06Zm.02,1.54s-.03,.09-.07,.11l-2.14,1.24s-.07,0-.07-.04v-1.37s.03-.09,.07-.11l2.14-1.24s.07,0,.07,.04v1.37Z"/></g><path class="bw" d="M34.78,15.39l.07,.04-.23,.39s-.02,0-.03,0c-.02,.01-.04,.04-.05,.06l-.18,.02s-.03-.05-.06-.03c-.04,.02-.06,.07-.06,.11,0,0,0,.02,0,.02l-.23,.58h-.01s-.03,.03-.04,.04l-.25-.03s-.03-.04-.06-.03c-.04,.02-.06,.07-.06,.11v.02l-.21,.52,.08-.04,.19-.45h.02s.03-.03,.04-.05l.25,.03s.03,.05,.06,.03c.04-.02,.06-.07,.06-.11,0,0,0-.02,0-.02l.23-.59h.01s.03-.03,.04-.04l.2-.03s.03,.02,.06,0c.04-.02,.06-.07,.06-.11h0l.23-.41,.07,.04,.07-.32-.24,.22Z"/></g></g></g><g><g><g><g><path class="bw" d="M34.64,1.37c-.38,.22-.7,.76-.7,1.21s.31,.62,.7,.4c.38-.22,.7-.76,.7-1.21s-.31-.62-.7-.4Zm0,1.52c-.34,.2-.62,.04-.62-.36s.28-.87,.62-1.07c.34-.2,.62-.04,.62,.36s-.28,.87-.62,1.07Z"/><path class="bw" d="M34.64,1.53c-.31,.18-.56,.61-.56,.97s.25,.5,.56,.32,.56-.61,.56-.97-.25-.5-.56-.32Zm.23,.69c0,.18-.09,.28-.19,.33v.09l-.09,.05v-.09c-.08,.04-.1,.05-.16,.06v-.14s.13-.06,.21-.11c.04-.02,.07-.05,.07-.1v-.03s-.01-.06-.06-.03l-.07,.04c-.17,.1-.18-.05-.18-.11v-.07c0-.15,.08-.25,.18-.31v-.09l.09-.05v.09c.07-.03,.11-.05,.16-.06v.14c-.06,.03-.16,.08-.2,.11-.05,.03-.08,.05-.08,.11v.03s.02,.06,.07,.03l.07-.04c.14-.08,.17,.03,.17,.12v.04Z"/></g><g><path class="bw" d="M33.23,2.48l.84-.49c.05-.11,.11-.21,.18-.3l-1.03,.59v.19Z"/><path class="bw" d="M34.14,3.08l-.92,.53v.19l1.16-.67v-.02c-.09,.01-.17,0-.24-.03Z"/><path class="bw" d="M33.26,2.68l.7-.4c.02-.08,.05-.16,.09-.24l-.79,.46v.19Z"/><path class="bw" d="M33.31,2.9v.19l.61-.35s-.01-.09-.01-.14c0-.02,0-.03,0-.05l-.6,.35Z"/><path class="bw" d="M33.26,2.9l.65-.38c0-.07,.02-.14,.04-.21l-.69,.4v.19Z"/><path class="bw" d="M33.23,3.36l.76-.44s-.04-.1-.06-.16l-.7,.4v.19Z"/><path class="bw" d="M34,2.94l-.63,.37v.19l.75-.44s-.09-.07-.12-.12Z"/><path class="bw" d="M33.23,2.06v.19l1.06-.61s.06-.07,.1-.1v-.14l-1.16,.67Z"/><polygon class="bw" points="34.39 1.18 33.23 1.84 33.23 2.04 34.39 1.37 34.39 1.18"/></g></g><path class="bv" d="M35.93,1.26c0-1.12-.79-1.58-1.76-1.02s-1.76,1.93-1.76,3.05c0,1.12,.79,1.58,1.76,1.02s1.76-1.93,1.76-3.05Z"/></g><g><path class="bv" d="M35.93,10.72c0-1.12-.79-1.58-1.76-1.02s-1.76,1.93-1.76,3.05c0,1.12,.79,1.58,1.76,1.02s1.76-1.93,1.76-3.05Z"/><g><g><path class="bw" d="M34.28,10.79c.07-.01,.11,0,.17,0-.08-.06-.16-.09-.3,0-.06,.04-.12,.09-.18,.16,.09-.08,.18-.15,.3-.17Z"/><path class="bw" d="M34.14,11.44c.14-.03,.26,.18,.35,.33,.05,.08,.08,.14,.11,.15,.01,0,.02,0,.03,.01,0-.02,0-.04,0-.07h-.01s-.06-.08-.1-.15c-.09-.16-.22-.38-.38-.34-.2,.05-.37,.24-.49,.42,0,.03,0,.05,0,.08,.11-.17,.28-.39,.49-.44Z"/><path class="bw" d="M34.21,11.28c.17,0,.25,.12,.35,.26,.03,.05,.07,.1,.1,.14,0-.03,0-.06,0-.1-.02-.03-.05-.06-.07-.1-.1-.14-.19-.28-.37-.27-.19,0-.39,.21-.53,.38,0,.03-.01,.06-.02,.08,.13-.17,.34-.4,.53-.4Z"/><path class="bw" d="M34.24,11.1c.16,0,.25,.1,.35,.21,.03,.03,.05,.06,.08,.09,0-.03,0-.07,0-.1l-.04-.04c-.11-.12-.2-.23-.37-.22-.17,0-.35,.17-.49,.33-.01,.03-.02,.07-.03,.1,.13-.17,.33-.36,.5-.37Z"/><path class="bw" d="M34.29,10.9c.15,0,.23,.08,.33,.19-.02-.06-.04-.11-.06-.15-.07-.06-.15-.1-.25-.1-.15,0-.31,.14-.45,.29-.02,.04-.04,.09-.06,.14,.14-.17,.33-.36,.49-.37Z"/><path class="bw" d="M34.17,11.91c0-.09-.04-.13-.11-.11-.1,.02-.19,.12-.24,.27-.05,.14-.06,.29,.02,.31,.04,.01,.08,0,.12-.06,.07-.08,.13-.21,.13-.3,0-.05-.02-.08-.05-.09-.03,0-.06,.02-.09,.05-.05,.06-.07,.15-.07,.2,0,.03,.01,.05,.04,.05,.01,0,.03-.01,.03-.03,0-.02,0-.03-.01-.03,0,0,0,0,0-.02,0-.04,.02-.1,.05-.14,.01-.02,.03-.02,.04-.02,.02,0,.03,.02,.03,.05,0,.07-.05,.19-.1,.24-.03,.03-.05,.04-.07,.03-.05-.02-.05-.13,0-.26,.02-.06,.08-.19,.19-.22,.06-.01,.08,.04,.08,.08,0,.16-.12,.48-.35,.76,0,0,.02,.02,.03,.03,.24-.3,.38-.63,.37-.81Z"/><path class="bw" d="M34.25,11.7c-.03-.06-.08-.08-.16-.05-.08,.03-.16,.09-.23,.18-.08,.11-.13,.24-.15,.39-.03,.24,.02,.31,.07,.32,.05,.01,.11-.03,.13-.06,.01-.01,.01-.03,0-.04,0,0-.02,0-.03,0,0,0-.05,.04-.08,.03-.04,0-.07-.07-.05-.28,.02-.13,.06-.25,.13-.34,.06-.08,.12-.13,.19-.15,.06-.02,.1,0,.13,.04,.05,.11,0,.34-.03,.41-.08,.21-.21,.4-.33,.58,.01,0,.02,0,.04,.01,.12-.18,.25-.38,.33-.59,.03-.09,.09-.34,.03-.46Z"/><path class="bw" d="M34.32,11.58c-.05-.08-.15-.09-.28-.04h0c-.18,.07-.31,.28-.39,.47,0,0,0,.02,0,.02v.08c.07-.2,.19-.44,.38-.52h0c.12-.05,.2-.03,.25,.03,.06,.08,.05,.25,0,.44-.06,.19-.16,.45-.28,.68,.02,0,.03,0,.05-.02,.11-.23,.21-.48,.27-.67,.06-.21,.06-.39,0-.48Z"/><path class="bw" d="M34.62,12.05s0-.04,.01-.06c-.16-.02-.19-.15-.19-.18h0s-.01-.02-.03-.02c-.01,0-.02,.03-.02,.04h0c.02,.19-.15,.6-.28,.87,.02,0,.03-.02,.05-.03h0c.1-.22,.22-.52,.26-.73,.03,.05,.09,.1,.19,.11Z"/><path class="bw" d="M34.55,12.26s.02-.04,.02-.06c-.08-.03-.1-.08-.1-.1h0s-.01-.02-.03-.01c-.01,0-.02,.03-.02,.04h0c0,.09-.06,.27-.14,.46,.02-.02,.04-.04,.07-.06,.06-.14,.09-.25,.11-.33,.02,.02,.04,.04,.08,.05Z"/></g><path class="bw" d="M34.83,10.1l-1.33,.77c-.23,.13-.42,.46-.42,.72v1.53c0,.27,.19,.37,.42,.24l1.33-.76c.23-.13,.42-.46,.42-.72v-1.53c0-.27-.19-.37-.42-.24Zm.3,1.84c0,.19-.14,.43-.3,.52l-1.33,.77c-.17,.1-.3,.02-.3-.17v-1.53c0-.19,.13-.43,.3-.52l1.33-.77c.17-.1,.3-.02,.3,.17v1.53Z"/></g></g><g><path class="bv" d="M35.93,5.99c0-1.12-.79-1.58-1.76-1.02-.97,.56-1.76,1.93-1.76,3.05,0,1.12,.79,1.58,1.76,1.02s1.76-1.93,1.76-3.05Z"/><path class="bw" d="M35,5.4l-1.66,.96c-.11,.06-.19,.21-.19,.34v1.81c0,.12,.09,.17,.19,.11l1.66-.96c.11-.06,.19-.21,.19-.34v-1.81c0-.12-.09-.17-.19-.11Zm-.58,.55s.02-.08,.06-.1c.04-.02,.07-.03,.08-.04v.04s-.06,.03-.07,.04c-.02,0-.02,.02-.02,.03h0s0,.03,.02,.02l.03-.02s.05,.01,.05,.04h0c0,.07-.03,.1-.06,.12-.04,.03-.06,.03-.08,.04v-.04s.05-.02,.07-.04c.01,0,.02-.02,.02-.03h0s0-.03-.02-.02l-.03,.02c-.05,.03-.06-.02-.06-.03v-.02Zm-.24,.08l.04,.15,.03-.19,.05-.03v.06l.02,.1,.03-.19,.05-.03-.05,.27-.06,.03-.02-.08-.02,.1-.06,.03-.06-.21,.05-.03Zm-.21,.17s.03-.07,.05-.08c0,0,.07-.04,.09-.05v.05l-.08,.05s-.01,.02-.01,.03v.03l.08-.04v.04l-.08,.05v.03s0,.01,.02,0l.08-.04v.04s-.09,.06-.09,.06c-.02,.01-.05,.03-.05-.02v-.14Zm-.19,.06l.05-.03,.07,.1v-.14l.05-.03v.24l-.05,.03-.07-.1v.14l-.05,.03v-.24Zm.28,1.8l-.82,.47v-.08l.82-.47v.08Zm0-.18l-.82,.47v-.08l.82-.47v.08Zm0-.18l-.82,.47v-.08l.82-.47v.08Zm-.07-.36c-.06,.17-.18,.34-.33,.42-.1,.06-.19,.06-.26,.03l.26-.44h.33Zm-.32-.02v-.43c.1-.06,.2-.06,.26-.02,.06,.04,.1,.12,.1,.24h0c0,.07-.02,.15-.04,.22h-.33Zm-.02,.02l-.26,.44c-.07-.04-.11-.12-.11-.23h0c0-.07,.01-.14,.04-.21,.06-.18,.19-.35,.33-.43v.43Zm.69,.55l-.14,.08v-.2l.14-.08v.2Zm.02-.4s0-.01,0-.01c0,0,.14-.07,.24-.26h-.03l.08-.09v.1h-.03c-.09,.16-.2,.24-.24,.26h-.01s0,0,0,0Zm.15,.31l-.14,.08v-.29l.14-.08v.29Zm.17-.1l-.14,.08v-.38l.14-.08v.38Zm.17-.1l-.14,.08v-.48l.14-.08v.48Zm.17-.1l-.14,.08v-.55l.14-.08v.55Zm0-.66l-.82,.47v-.08l.82-.47v.08Zm0-.16l-.82,.47v-.08l.82-.47v.08Zm0-.16l-.82,.47v-.08l.82-.47v.08Zm0-.16l-.82,.47v-.08l.82-.47v.08Zm0-.16l-.82,.47v-.08l.82-.47v.08Zm0-.22l-1.78,1.03v-.1l1.78-1.03v.1Z"/></g></g></g></g></g></g></svg>