<?xml version="1.0" encoding="UTF-8"?><svg xmlns="http://www.w3.org/2000/svg" xmlns:xlink="http://www.w3.org/1999/xlink" viewBox="0 0 35.91 51.71"><defs><style>.w,.x,.y,.z,.aa{opacity:.6;}.w,.ab{fill:#ff5454;}.ac{fill:#d78400;}.ad{fill:url(#h);}.ae{clip-path:url(#t);}.af{fill:url(#i);}.af,.ag{opacity:.5;}.ah{fill:#1b1823;}.ai,.y{fill:#025a82;}.aj{fill:#951616;}.ak{fill:#f7a56d;}.al{fill:#5f1d0f;}.al,.am,.an{mix-blend-mode:screen;}.al,.an,.ao{opacity:.2;}.ap{fill:#21212b;}.aq{clip-path:url(#r);}.ar{isolation:isolate;}.as{fill:#ffb677;}.at{clip-path:url(#p);}.au,.an{fill:#ad7e6c;}.av{clip-path:url(#d);}.aw{fill:url(#g);}.ax{fill:#0b0c0d;}.ay{fill:#f5c2a6;}.az{clip-path:url(#v);}.ba{clip-path:url(#m);}.bb{fill:#381977;}.bc{fill:#f02031;}.bd{fill:#1f0159;}.am{fill:#f5ebcb;}.am,.be{opacity:.3;}.bf{fill:#1b1b1b;}.z,.bg{fill:#ffc104;}.bh,.aa{fill:#46c7c7;}.bi{clip-path:url(#e);}.bj{clip-path:url(#f);}.bk{clip-path:url(#l);}.bl{fill:#f8f9fc;}.bm{fill:#ffd6bf;}.bn{clip-path:url(#o);}.bo{fill:#d9e1ee;}.be,.ao{mix-blend-mode:multiply;}.bp{clip-path:url(#n);}.bq{clip-path:url(#q);}.br{fill:#4fb788;}.bs{fill:#153c55;}.bt{fill:#5c697c;}.bu{fill:#b62c2c;}.bv{fill:#fff9fc;}.bw{clip-path:url(#u);}.bx{fill:#f5f5fd;}.ao{fill:#27262c;}.by{clip-path:url(#s);}.bz{fill:#ef995e;}.ca{fill:#ffc89f;}.cb{fill:#404040;}.cc{fill:#d0cbe6;}.cd{fill:#393244;}.ce{fill:#ffa200;}</style><clipPath id="d"><path class="cc" d="M35.81,34.91v1.76c0,.22-.15,.43-.43,.6v-1.76c.29-.16,.43-.38,.43-.6Z"/></clipPath><clipPath id="e"><path class="cc" d="M.09,42.67v-1.76c0,.22,.15,.44,.44,.61v1.76c-.3-.17-.44-.39-.44-.61Z"/></clipPath><clipPath id="f"><path class="cc" d="M13.81,47.92v1.76c-.58,.33-1.53,.33-2.11,0v-1.76c.58,.33,1.53,.33,2.11,0Z"/></clipPath><linearGradient id="g" x1="1126.3" y1="37.56" x2="1157.79" y2="37.56" gradientTransform="translate(1160.6) rotate(-180) scale(1 -1)" gradientUnits="userSpaceOnUse"><stop offset=".02" stop-color="#6bb290"/><stop offset="1" stop-color="#8ceea3"/></linearGradient><linearGradient id="h" x1="1154.15" y1="44.53" x2="1152.16" y2="43.78" gradientTransform="translate(1160.6 -.1) rotate(179.99) scale(1 -1)" gradientUnits="userSpaceOnUse"><stop offset="0" stop-color="#857faa"/><stop offset=".22" stop-color="#8f89b4"/><stop offset=".64" stop-color="#9d97c2"/><stop offset=".99" stop-color="#a29dc7"/></linearGradient><linearGradient id="i" x1="1126.29" y1="32.81" x2="1141.34" y2="32.81" gradientTransform="translate(1160.6 -.1) rotate(179.99) scale(1 -1)" gradientUnits="userSpaceOnUse"><stop offset="0" stop-color="#148a9e"/><stop offset="1" stop-color="#087dc2"/></linearGradient><clipPath id="l"><path class="ac" d="M12.52,32.97l.6,.35c.12,.07,.15,.25,.15,.49l-.6-.35c0-.25-.04-.43-.15-.49Z"/></clipPath><clipPath id="m"><path class="ac" d="M10.11,36.69l-.6-.35c.39-.2,1.37-.69,2.28-1.22,.41-.24,.88-.61,.88-1.22l.6,.35c0,.61-.47,.98-.88,1.22-.91,.52-1.89,1.01-2.28,1.22Z"/></clipPath><clipPath id="n"><path class="ac" d="M13.54,31.12l.6,.35c-.26-.15-.64-.13-1.2,.2l-.6-.35c.56-.33,.95-.35,1.2-.2Z"/></clipPath><clipPath id="o"><path class="ac" d="M11.41,32.34l-.6-.35c.13,.08,.34,.01,.62-.15l.6,.35c-.28,.16-.49,.22-.62,.15Z"/></clipPath><clipPath id="p"><path class="ac" d="M12.61,28.43l-.6-.35c.67-.34,1.28-.57,1.74-.69l.6,.35c-.46,.13-1.07,.35-1.74,.69Z"/></clipPath><clipPath id="q"><path class="ac" d="M10.38,34.17l-.6-.35c-.43-.25-.5-.93-.5-1.34l.6,.35c0,.42,.07,1.09,.5,1.34Z"/></clipPath><clipPath id="r"><path class="ac" d="M9.88,32.12l-.6-.35c0-1.6,.84-2.57,1.9-3.22l.6,.35c-1.07,.65-1.9,1.62-1.9,3.22Z"/></clipPath><clipPath id="s"><path class="ac" d="M28.53,23.46l.59,.34c.12,.07,.16,.3,.16,.55,0,.47-.1,.81-.46,1.02l-.59-.34c.36-.21,.46-.54,.46-1.02,0-.25-.04-.48-.16-.55Z"/></clipPath><clipPath id="t"><path class="ac" d="M30.07,22.08l.59,.34c-.19-.11-.45-.13-.74-.01l-.59-.34c.29-.11,.54-.1,.74,.01Z"/></clipPath><clipPath id="u"><path class="ac" d="M28.42,20.7l.59,.34c.08,.05,.14,.17,.14,.41,0,.3-.14,.63-.42,.79l-.59-.34c.28-.16,.42-.49,.42-.79,0-.24-.06-.36-.14-.41Z"/></clipPath><clipPath id="v"><path class="ac" d="M29.86,18.58l.59,.34c-.32-.19-.82-.11-1.53,.29l-.59-.34c.71-.4,1.21-.47,1.53-.29Z"/></clipPath></defs><g class="ar"><g id="b"><g id="c"><g><g class="ag"><path class="aa" d="M16.37,13.8c0-.24-.17-.34-.38-.22-.21,.12-.38,.41-.38,.66s.17,.34,.38,.22c.21-.12,.38-.41,.38-.66Z"/><path class="y" d="M1.38,24.74c0-.24-.17-.34-.38-.22-.21,.12-.38,.41-.38,.66s.17,.34,.38,.22c.21-.12,.38-.41,.38-.66Z"/><path class="w" d="M1.38,28.58c0-.24-.17-.34-.38-.22-.21,.12-.38,.41-.38,.66s.17,.34,.38,.22c.21-.12,.38-.41,.38-.66Z"/><path class="w" d="M4.02,23.34c0-.24-.17-.34-.38-.22-.21,.12-.38,.41-.38,.66s.17,.34,.38,.22c.21-.12,.38-.41,.38-.66Z"/><path class="w" d="M6.81,19.54c0-.24-.17-.34-.38-.22-.21,.12-.38,.41-.38,.66s.17,.34,.38,.22c.21-.12,.38-.41,.38-.66Z"/><path class="w" d="M13.81,15.94c0-.24-.17-.34-.38-.22-.21,.12-.38,.41-.38,.65s.17,.34,.38,.22c.21-.12,.38-.41,.38-.66Z"/><path class="w" d="M11.35,11c0-.24-.17-.34-.38-.22-.21,.12-.38,.41-.38,.66s.17,.34,.38,.22c.21-.12,.38-.41,.38-.66Z"/><g class="ag"><path class="ab" d="M19.1,13.1c0-.24-.17-.34-.38-.22-.21,.12-.38,.41-.38,.66s.17,.34,.38,.22c.21-.12,.38-.41,.38-.66Z"/></g><path class="aa" d="M19.61,18.93c0-.24-.17-.34-.38-.22s-.38,.41-.38,.66,.17,.34,.38,.22c.21-.12,.38-.41,.38-.66Z"/><path class="aa" d="M10.25,25.51c0-.24-.17-.34-.38-.22-.21,.12-.38,.41-.38,.66s.17,.34,.38,.22c.21-.12,.38-.41,.38-.66Z"/><path class="aa" d="M1.35,31.73c0-.24-.17-.34-.38-.22s-.38,.41-.38,.66,.17,.34,.38,.22c.21-.12,.38-.41,.38-.66Z"/><path class="z" d="M1.38,21.83c0-.24-.17-.34-.38-.22-.21,.12-.38,.41-.38,.66s.17,.34,.38,.22c.21-.12,.38-.41,.38-.66Z"/><path class="z" d="M4.77,28.08c0-.24-.17-.34-.38-.22-.21,.12-.38,.41-.38,.66s.17,.34,.38,.22c.21-.12,.38-.41,.38-.65Z"/><path class="z" d="M8.28,18.47c0-.24-.17-.34-.38-.22-.21,.12-.38,.41-.38,.66s.17,.34,.38,.22c.21-.12,.38-.41,.38-.66Z"/><path class="z" d="M14.94,21.77c0-.24-.17-.34-.38-.22-.21,.12-.38,.41-.38,.66s.17,.34,.38,.22c.21-.12,.38-.41,.38-.66Z"/><g class="x"><polygon class="bv" points="0 33.9 0 12.5 .28 12.5 .28 33.41 30.12 16.18 30.27 16.42 0 33.9"/></g><g class="x"><path class="bh" d="M1.11,31.87h-.07l-.17,.1c0-.07,0-.27,3.62-7.14l.07-.13,5.29,.97,6.15-11.93,3.26,5.27,6.82-9.46L26.76,.34l.24-.12-.67,9.34-.05,.07-7.1,9.85-3.22-5.2-6.06,11.74-5.3-.97c-1.33,2.53-3.4,6.51-3.5,6.83Z"/></g><g class="x"><path class="bg" d="M4.39,28.73c-.13,.07-.4-.22-3.43-6.58l.23-.24c1.09,2.28,2.71,5.62,3.17,6.38,.49-1.65,2.9-8.19,3.43-9.61l.08-.2,6.63,3.33,5.39-15.02,6.77,6.23-.19,.29-6.53-6.02-5.36,14.94-6.63-3.34c-1.38,3.73-3.37,9.22-3.41,9.62v.12l-.1,.09s-.01,.01-.02,.02Z"/></g><g class="x"><path class="ai" d="M17.37,21.16l-1.36-8.74-1.87-1.35-3.12,6.44-5.14-2.98c-1.86,3.97-4.56,9.86-4.65,10.28l-.24,.12c0-.38,3.34-7.57,4.78-10.64l.08-.18,5.14,2.98,3.13-6.46,2.11,1.52,1.26,8.1,3.46-8.86,7.87-7.71,.08,.22-7.78,7.62-3.76,9.63Z"/></g><g class="x"><polygon class="ab" points="25.48 16.28 18.67 13.52 13.26 16.42 10.94 11.47 6.48 19.83 3.77 23.58 1.13 28.85 .94 28.78 3.61 23.45 6.32 19.7 11.01 10.9 13.42 16.05 18.77 13.19 18.8 13.2 25.44 15.89 30.86 4.73 31.05 4.79 25.48 16.28"/></g><g class="x"><path class="ab" d="M25.85,15.83c0-.24-.17-.34-.38-.22-.21,.12-.38,.41-.38,.66s.17,.34,.38,.22c.21-.12,.38-.41,.38-.66Z"/></g><g class="x"><path class="ab" d="M31.27,4.58c0-.24-.17-.34-.38-.22-.21,.12-.38,.41-.38,.66s.17,.34,.38,.22c.21-.12,.38-.41,.38-.66Z"/></g><g class="x"><path class="bh" d="M26.51,9.46c0-.24-.17-.34-.38-.22-.21,.12-.38,.41-.38,.66s.17,.34,.38,.22c.21-.12,.38-.41,.38-.66Z"/></g><g class="x"><path class="bh" d="M27.27,.27c0-.24-.17-.34-.38-.22s-.38,.41-.38,.66,.17,.34,.38,.22c.21-.12,.38-.41,.38-.66Z"/></g><g class="x"><path class="bg" d="M26.77,12.82c0-.24-.17-.34-.38-.22-.21,.12-.38,.41-.38,.66s.17,.34,.38,.22c.21-.12,.38-.41,.38-.66Z"/></g><g class="x"><path class="bg" d="M20.25,6.94c0-.24-.17-.34-.38-.22-.21,.12-.38,.41-.38,.66s.17,.34,.38,.22c.21-.12,.38-.41,.38-.65Z"/></g><path class="y" d="M11.4,16.89c0-.24-.17-.34-.38-.22-.21,.12-.38,.41-.38,.66s.17,.34,.38,.22,.38-.41,.38-.66Z"/><path class="y" d="M6.31,14.28c0-.24-.17-.34-.38-.22-.21,.12-.38,.41-.38,.66s.17,.34,.38,.22c.21-.12,.38-.41,.38-.66Z"/><path class="y" d="M14.56,10.75c0-.24-.17-.34-.38-.22-.21,.12-.38,.41-.38,.65s.17,.34,.38,.22c.21-.12,.38-.41,.38-.66Z"/><path class="y" d="M16.48,11.97c0-.24-.17-.34-.38-.22s-.38,.41-.38,.66,.17,.34,.38,.22c.21-.12,.38-.41,.38-.66Z"/><path class="y" d="M17.87,20.44c0-.24-.17-.34-.38-.22-.21,.12-.38,.41-.38,.65s.17,.34,.38,.22c.21-.12,.38-.41,.38-.66Z"/><g class="ag"><path class="ai" d="M21.46,11.2c0-.24-.17-.34-.38-.22-.21,.12-.38,.41-.38,.66s.17,.34,.38,.22c.21-.12,.38-.41,.38-.66Z"/></g></g><g><path class="ao" d="M.09,44.46c0,.22,.15,.44,.44,.61l11.18,6.39c.58,.33,1.53,.33,2.1,0l21.56-12.41c.29-.16,.43-.38,.43-.6v-1.73c.02-.23-.13-.46-.43-.63l-11.18-6.39c-.58-.33-1.53-.33-2.1,0l-1.07,.61-1.76,1.01h0L2.81,40.78l-2.29,1.32c-.29,.17-.43,.38-.43,.6h0v1.75Zm35.71-7.7v0Zm0,.04v0Zm-.01,.04v0Zm-.01,.04v0Zm-.02,.04v0Zm-.02,.04v0Zm-.02,.04v0Zm-.03,.04l.02-.02-.02,.02Zm-.03,.04l.02-.02-.02,.02Zm-.03,.04l.02-.02-.02,.02Zm-.04,.04l.02-.02-.02,.02Zm-1.27,.76h0l1.07-.61s.04-.02,.05-.03c-.02,.01-.03,.02-.05,.03l-1.07,.61Zm1.23-.73l.03-.02-.03,.02Zm-.05,.04l.03-.02-.03,.02Zm-.05,.03l.04-.02-.04,.02Zm-21.63,12.45l2.29-1.32h0l-2.29,1.32ZM.34,43.18c.05,.05,.12,.09,.19,.13l11.18,6.39L.53,43.31c-.07-.04-.13-.08-.19-.13Zm-.03-.03l.03,.03-.03-.03Zm-.03-.03l.02,.02-.02-.02Zm-.18-.37v0Zm0,.04v0Zm0,.04v0Zm.01,.04v0Zm.02,.04v0Zm.02,.04v0Zm.02,.04v0Zm.03,.04v0Zm.03,.04l-.02-.02,.02,.02Zm.03,.04l-.02-.02,.02,.02Z"/><g><g><g class="ar"><g><path class="cc" d="M35.81,34.91v1.76c0,.22-.15,.43-.43,.6v-1.76c.29-.16,.43-.38,.43-.6Z"/><g class="av"><g class="ar"><path class="cc" d="M35.81,34.91v1.76c0,.22-.15,.43-.43,.6v-1.76c.29-.16,.43-.38,.43-.6h0Z"/></g></g></g><g><path class="cc" d="M.09,42.67v-1.76c0,.22,.15,.44,.44,.61v1.76c-.3-.17-.44-.39-.44-.61Z"/><g class="bi"><g class="ar"><path class="cc" d="M.53,41.52v1.76c-.3-.17-.44-.39-.44-.61v-1.76c0,.22,.15,.44,.44,.61H.53Z"/></g></g></g><polygon class="cc" points="35.38 35.51 35.37 37.26 13.81 49.67 13.81 47.92 35.38 35.51"/><polygon class="cc" points="11.71 47.92 11.71 49.67 .53 43.28 .53 41.52 11.71 47.92"/><g><path class="cc" d="M13.81,47.92v1.76c-.58,.33-1.53,.33-2.11,0v-1.76c.58,.33,1.53,.33,2.11,0Z"/><g class="bj"><path class="cc" d="M13.81,47.92v1.76c-.58,.33-1.53,.33-2.11,0v-1.76c.58,.33,1.53,.33,2.11,0h0Z"/></g></g><g><polygon class="aw" points="21.02 28.52 34.31 36.12 16.1 46.6 2.81 39 21.02 28.52"/><path class="bx" d="M22.09,27.91c.58-.33,1.52-.33,2.1,0l11.18,6.39c.58,.33,.58,.87,0,1.21l-1.07,.61-13.29-7.6,1.07-.61Z"/><path class="bx" d="M.52,40.32l2.29-1.32,13.29,7.6-2.29,1.32c-.58,.33-1.52,.33-2.1,0L.53,41.52c-.58-.33-.58-.87,0-1.21Z"/></g></g><path class="ad" d="M6.42,43.94l1.48,.92c.4,.25,1.07,.28,1.48,.06,.42-.22,.43-.61,.02-.85l-1.48-.93c-.4-.25-1.07-.28-1.48-.05-.42,.22-.43,.6-.02,.86h0Z"/><g><polygon class="bx" points="2.88 44.3 1.72 43.57 1.72 42.76 2.88 43.48 2.88 44.3"/><polygon class="bt" points="1.95 43.44 2.84 44 2.84 44.21 1.76 43.55 1.76 43.54 1.95 43.44"/><g><polygon class="bf" points="2.84 43.51 2.84 44 1.95 43.44 1.95 42.95 2 42.97 2.84 43.51"/><polygon class="ah" points="2.84 43.58 2.84 43.93 2 43.39 2 43.05 2.84 43.58"/><polygon class="cb" points="1.76 43.33 1.76 42.84 1.95 42.95 1.95 43.44 1.76 43.54 1.76 43.33"/></g></g><g><path class="bf" d="M.7,42.56c0,.25,.15,.54,.34,.65,.19,.11,.34,0,.34-.26,0-.25-.15-.54-.34-.65-.19-.11-.34,0-.34,.26Z"/><path class="bt" d="M1.35,43.02c-.19-.11-.34-.4-.34-.65,0-.03,0-.06,0-.09-.17-.08-.31,.04-.31,.27,0,.25,.15,.54,.34,.65,.17,.1,.3,.02,.34-.17-.01,0-.02,0-.03-.01Z"/><path class="cc" d="M1.14,43.16c-.19-.11-.34-.4-.34-.65,0-.11,.03-.19,.08-.24-.1,.02-.17,.12-.17,.29,0,.25,.15,.54,.34,.65,.11,.06,.2,.05,.27-.02-.05,0-.11,0-.17-.04Z"/></g><g><path class="cc" d="M30.49,32.73s-.06,.08-.12,.11c-.19,.1-.49,.09-.67-.02l-2.82-1.75s-.09-.07-.11-.11c-.06-.1-.02-.21,.12-.29,.19-.1,.49-.09,.68,.03l2.81,1.76c.13,.08,.17,.19,.11,.28Z"/><path class="ap" d="M30.49,32.73s-.06,.08-.12,.11c-.19,.1-.49,.09-.67-.02l-2.82-1.75s-.09-.07-.11-.11c.02-.04,.06-.08,.12-.11,.19-.1,.49-.09,.68,.03l2.81,1.76c.05,.03,.09,.07,.11,.1Z"/></g><path class="ap" d="M34.62,34.69c0,.09-.07,.19-.19,.25-.26,.15-.68,.15-.94,0-.06-.03-.11-.08-.14-.12-.1-.14-.06-.31,.14-.42,.26-.15,.68-.15,.94,0,.14,.08,.2,.18,.19,.29Z"/></g><polygon class="br" points="34.31 36.12 34.31 37.03 16.1 47.5 16.1 46.6 34.31 36.12"/><polygon class="af" points="21.02 28.52 34.31 36.12 32.55 37.13 19.26 29.53 21.02 28.52"/><g><g><path class="cc" d="M22.74,30.99l-1.39-.79,.64-.37,1.39,.79-.64,.37Zm-1.31-.79l1.31,.75,.56-.32-1.31-.75-.56,.32Z"/><polygon class="cc" points="23.34 30.62 22.74 30.96 21.81 30.43 22.41 30.09 23.34 30.62"/><g><polygon class="cc" points="25.22 32.13 25.01 32.01 24.79 32.14 24.99 32.25 25.22 32.13"/><polygon class="cc" points="25.68 32.18 25.48 32.06 25.07 32.29 25.27 32.41 25.68 32.18"/><polygon class="cc" points="26.15 32.22 25.94 32.11 25.34 32.45 25.55 32.57 26.15 32.22"/></g><g><path class="cc" d="M23.56,30.77c.08,.04,.16,.1,.23,.15l-.07,.04-.2-.12c-.07-.04-.18,.01-.24,.05,.06,.02,.13,.06,.19,.09,.11,.06,.07,.11,0,.15l-.09,.05c-.09,.05-.18,.04-.25,0l-.11-.06c-.09-.05-.09-.12,.15-.25,.2-.12,.33-.11,.4-.08Zm-.45,.3l.08,.05s.06,.03,.11,0l.07-.04s.03-.04,0-.06l-.16-.09c-.08,.04-.17,.1-.09,.14Z"/><path class="cc" d="M23.88,30.95l.36,.21-.02,.04-.71,.19-.1-.06,.66-.17-.27-.16,.08-.05Z"/><path class="cc" d="M24.79,31.47l.07,.04-.9,.13-.07-.04,.91-.13Zm-.58-.22c.07-.04,.12-.04,.2,0l.08,.04c.08,.04,.07,.08,0,.11l-.1,.06c-.07,.04-.12,.04-.2,0l-.08-.04c-.08-.04-.07-.08,0-.11l.1-.06Zm-.02,.14l.06,.04s.05,.02,.08,0l.08-.05s.03-.03,0-.05l-.06-.04s-.05-.02-.08,0l-.08,.05s-.03,.03,0,.05Zm.16,.25c.07-.04,.12-.04,.2,0l.08,.04c.08,.04,.07,.08,0,.11l-.1,.06c-.07,.04-.12,.04-.2,0l-.08-.04c-.08-.04-.07-.08,0-.11l.1-.06Zm-.02,.14l.06,.04s.06,.02,.08,0l.08-.05s.03-.03,0-.05l-.06-.04s-.05-.02-.08,0l-.08,.05s-.03,.03,0,.05Z"/></g></g><g><path class="bx" d="M26.63,33.14c.08-.04,.2-.04,.28,0,.08,.04,.08,.12,0,.16-.08,.04-.2,.04-.28,0-.08-.04-.08-.12,0-.16Z"/><g><path class="bx" d="M27.05,33.07c-.08-.05-.19-.07-.3-.07v-.08c.14,0,.29,.03,.4,.09,.11,.06,.17,.15,.17,.23h-.14c0-.06-.04-.12-.12-.17Z"/><path class="bx" d="M27.27,32.94c-.14-.08-.33-.12-.52-.12v-.08c.22,0,.45,.05,.62,.15,.17,.1,.26,.23,.26,.35h-.14c0-.11-.07-.21-.21-.3Z"/><path class="bx" d="M27.46,32.83c-.2-.11-.46-.17-.72-.17v-.08c.29,0,.59,.06,.81,.19,.22,.13,.34,.3,.34,.47h-.14c0-.15-.1-.3-.3-.41Z"/></g></g><g id="j"><g id="k"><g><polygon class="cc" points="31.32 35.99 32.16 35.51 31.05 35.41 31.32 35.99"/><polygon class="cc" points="30.8 35.26 30.61 34.63 29.77 35.11 30.8 35.26"/></g><polygon class="cc" points="30.83 35.39 30.8 35.28 29.75 35.12 31.29 36.01 31.01 35.4 30.83 35.39"/><polygon class="cc" points="32.19 35.49 30.64 34.61 30.86 35.37 32.19 35.49"/></g></g></g></g></g><g><g><path class="as" d="M9.76,24.78c.09-.06,.18-.11,.26-.16,.01,0,.02-.02,.04-.02,.06-.04,.12-.07,.18-.1,.23-.13,.46-.24,.69-.35,.04-.02,.08-.04,.12-.05,.03-.01,.05-.02,.08-.03,.06-.02,.11-.05,.17-.07,.07-.03,.13-.05,.2-.08,.25-.09,.5-.17,.74-.23,.11-.03,.21-.05,.31-.07,.12-.02,.23-.04,.35-.05,.19-.02,.37-.04,.55-.04,.12,0,.24,0,.35,.01,.17,.01,.33,.04,.49,.07,.45,.09,.85,.27,1.2,.51h0l1.8,1.28c-.37-.27-.79-.46-1.26-.55-.13-.03-.26-.05-.4-.06-.03,0-.06,0-.09,0-.18-.02-.37-.02-.56,0h0c-.22,.01-.46,.04-.7,.09-.1,.02-.2,.04-.31,.07-.16,.04-.32,.09-.49,.14-.13,.04-.25,.09-.38,.14-.02,0-.04,.02-.07,.03-.08,.03-.16,.07-.25,.1-.04,.02-.08,.04-.12,.05-.22,.1-.44,.22-.66,.34,0,0-.02,0-.02,.01-.07,.04-.15,.08-.22,.12-.02,.01-.05,.03-.07,.04-.15,.09-.29,.18-.44,.28l-1.92-1.11c.14-.1,.29-.2,.43-.29Z"/><path class="bz" d="M3.43,34.74v-.04c.01-.1,.02-.2,.04-.29,.03-.19,.06-.39,.1-.59,.01-.08,.03-.16,.05-.24,.02-.07,.03-.14,.05-.21,.02-.1,.05-.21,.08-.31,.03-.1,.06-.2,.08-.3,.01-.04,.03-.09,.04-.13l1.8,1.04s-.02,.07-.03,.1c-.02,.08-.05,.15-.07,.23-.01,.03-.02,.07-.03,.1-.03,.1-.06,.21-.08,.31-.04,.14-.07,.28-.1,.42-.02,.08-.03,.16-.05,.24-.02,.12-.05,.25-.07,.37-.02,.11-.03,.22-.04,.33,0,.06-.01,.12-.02,.18v.02c0,.08-.02,.17-.02,.25-.02,.23-.02,.46-.02,.67,0,.1,0,.2,.01,.3v.07c0,.08,.02,.15,.02,.22,.04,.39,.12,.75,.23,1.08,0,.03,.02,.05,.03,.08,.05,.13,.1,.26,.16,.39h0c.25,.55,.6,.98,1.03,1.3l-1.77-1.26h0c-.33-.25-.61-.56-.83-.94-.06-.1-.12-.21-.17-.32-.03-.06-.05-.12-.08-.18-.03-.07-.06-.14-.09-.22-.12-.35-.21-.72-.26-1.13v-.02c-.01-.1-.02-.2-.03-.3,0-.02,0-.04,0-.06-.02-.29-.02-.59,0-.91,0-.07,0-.15,.02-.23Z"/><path class="ak" d="M3.9,32.52c.05-.15,.1-.3,.15-.45,.04-.1,.07-.2,.11-.29,0-.01,0-.02,.01-.03,.03-.07,.06-.15,.09-.22,.09-.22,.19-.45,.29-.67l.03-.07c.03-.07,.07-.14,.1-.21h0c.12-.24,.24-.48,.38-.71,.03-.06,.06-.12,.1-.17,0,0,0-.02,.01-.02,.05-.08,.1-.16,.15-.24,.09-.15,.18-.29,.27-.43,.04-.07,.09-.13,.13-.19,.05-.07,.1-.14,.15-.21,.06-.09,.12-.17,.18-.25,.04-.06,.09-.12,.13-.18,.04-.06,.09-.12,.14-.18,.11-.15,.23-.29,.35-.44,.05-.06,.1-.12,.15-.18,.02-.02,.04-.04,.06-.06,.03-.04,.07-.08,.1-.11,.18-.2,.36-.39,.54-.58l.06-.06,.11-.11s.08-.08,.12-.11c.16-.15,.31-.3,.48-.44,.06-.05,.12-.1,.18-.15,.04-.04,.09-.08,.13-.11,.09-.07,.17-.14,.26-.21,.08-.07,.17-.13,.25-.19,.07-.05,.13-.1,.2-.15h.02l1.92,1.1c-.07,.05-.13,.09-.2,.14-.07,.05-.13,.09-.2,.14-.03,.02-.05,.04-.08,.06-.09,.07-.18,.13-.26,.21-.1,.08-.2,.16-.3,.25-.06,.05-.12,.1-.18,.15-.11,.09-.22,.19-.32,.29-.08,.07-.16,.15-.23,.22-.01,.01-.02,.02-.04,.04l-.17,.17c-.17,.17-.34,.36-.51,.54l-.04,.04c-.05,.06-.1,.12-.15,.18l-.02,.02c-.17,.19-.33,.39-.49,.6-.05,.06-.09,.12-.14,.18v.02c-.07,.08-.14,.17-.19,.25-.09,.13-.18,.25-.26,.38-.04,.06-.09,.13-.13,.19-.06,.09-.11,.17-.17,.26-.06,.09-.11,.17-.16,.26-.03,.05-.06,.1-.09,.15-.04,.07-.08,.13-.11,.2-.1,.17-.19,.35-.28,.53-.03,.06-.06,.12-.09,.18l-.05,.09s-.04,.07-.06,.11c-.12,.24-.23,.49-.33,.74,0,.02-.02,.04-.03,.07-.02,.05-.04,.1-.06,.16-.02,.04-.03,.09-.05,.13-.07,.18-.13,.36-.19,.54l-1.8-1.04s.02-.07,.03-.1Z"/></g><g class="be"><path class="ce" d="M8.6,25.63l1.91,1.1c.09-.07,.18-.14,.26-.21l-1.91-1.1c-.09,.07-.17,.14-.26,.21Z"/><path class="ce" d="M7.59,26.55l1.89,1.09c.08-.08,.15-.15,.23-.22l-1.89-1.09s-.08,.07-.12,.11l-.11,.11Z"/><path class="ce" d="M12.89,23.57l2.08,1.2h0c.19,0,.38,0,.56,0,.03,0,.06,0,.09,0l-2.18-1.26c-.18,0-.36,.01-.55,.04Z"/><path class="ce" d="M11.13,24.06l1.98,1.14c.13-.05,.26-.1,.38-.14l-1.99-1.15c-.07,.02-.13,.05-.2,.08-.06,.02-.11,.04-.17,.07Z"/><path class="ce" d="M9.76,24.78l1.93,1.12s.05-.03,.07-.04c.07-.04,.14-.08,.22-.12,0,0,.02,0,.02-.01l-1.94-1.12s-.02,.01-.04,.02c-.09,.05-.18,.11-.26,.16Z"/><path class="ce" d="M4.05,32.08l1.81,1.04s.03-.09,.05-.13c.02-.05,.04-.1,.06-.16l-1.81-1.05c-.04,.1-.08,.19-.11,.29Z"/><path class="ce" d="M3.43,34.74l1.76,1.02c.01-.11,.03-.22,.04-.33l-1.77-1.02c-.01,.1-.02,.2-.03,.29v.04Z"/><path class="ce" d="M6.68,27.54l1.87,1.08,.02-.02c.05-.06,.1-.12,.15-.18l.04-.04-1.87-1.08s-.04,.04-.06,.06c-.05,.06-.1,.12-.15,.18Z"/><path class="ce" d="M5.88,28.59l1.85,1.07c.06-.09,.12-.17,.18-.25l-1.86-1.07c-.06,.08-.12,.17-.18,.25Z"/><path class="ce" d="M5.17,29.7l1.84,1.06c.05-.09,.11-.18,.16-.26l-1.84-1.06c-.05,.08-.1,.16-.15,.24,0,0,0,.02-.01,.02Z"/><path class="ce" d="M4.56,30.86l1.83,1.05,.05-.09c.03-.06,.06-.12,.09-.18l-1.83-1.06h0c-.04,.07-.07,.14-.1,.21l-.03,.07Z"/><path class="ce" d="M3.41,35.89s0,.04,0,.06c0,.1,.02,.2,.02,.3v.02l1.72,.99v-.07c-.01-.1-.02-.19-.02-.3l-1.73-1Z"/><path class="ce" d="M3.78,37.61c.02,.06,.05,.12,.08,.18,.05,.11,.11,.22,.17,.32l1.56,.9c-.06-.12-.11-.25-.16-.39,0-.02-.02-.05-.03-.08l-1.63-.94Z"/><path class="ce" d="M3.66,33.37l1.79,1.03c.02-.1,.05-.21,.08-.31l-1.79-1.04c-.03,.1-.05,.21-.08,.31Z"/></g><path class="ca" d="M12.67,25.38c-3.75,1.71-7.1,6.45-7.5,10.57-.39,4.13,2.33,6.09,6.07,4.37,3.75-1.71,7.1-6.45,7.5-10.57,.39-4.13-2.33-6.09-6.07-4.37Z"/><path class="as" d="M8.7,40.18c.68,0,1.42-.18,2.22-.55,3.52-1.61,6.68-6.07,7.05-9.94,.14-1.44-.15-2.63-.8-3.35-.48-.53-1.14-.8-1.96-.8-.68,0-1.42,.18-2.22,.55-3.52,1.61-6.68,6.07-7.05,9.94-.14,1.44,.15,2.63,.8,3.35,.48,.53,1.14,.8,1.96,.8Z"/><g class="ar"><polygon class="ac" points="11.81 38.18 11.21 37.83 11.2 36.88 11.8 37.23 11.81 38.18"/><polygon class="ac" points="13.27 34.26 12.67 33.91 12.67 33.46 13.27 33.81 13.27 34.26"/><g class="ar"><path class="ac" d="M12.52,32.97l.6,.35c.12,.07,.15,.25,.15,.49l-.6-.35c0-.25-.04-.43-.15-.49Z"/><g class="bk"><g class="ar"><path class="ac" d="M13.27,33.81l-.6-.35c0-.25-.04-.43-.15-.49l.6,.35c.12,.07,.15,.25,.15,.49h0Z"/></g></g></g><polygon class="ac" points="10.12 37.9 9.52 37.55 9.51 36.34 10.11 36.69 10.12 37.9"/><g class="ar"><path class="ac" d="M10.11,36.69l-.6-.35c.39-.2,1.37-.69,2.28-1.22,.41-.24,.88-.61,.88-1.22l.6,.35c0,.61-.47,.98-.88,1.22-.91,.52-1.89,1.01-2.28,1.22Z"/><g class="ba"><g class="ar"><path class="ac" d="M10.11,36.69l-.6-.35c.39-.2,1.37-.69,2.28-1.22,.41-.24,.88-.61,.88-1.22l.6,.35c0,.61-.47,.98-.88,1.22-.91,.52-1.89,1.01-2.28,1.22h0Z"/></g></g></g><g class="ar"><path class="ac" d="M13.54,31.12l.6,.35c-.26-.15-.64-.13-1.2,.2l-.6-.35c.56-.33,.95-.35,1.2-.2Z"/><g class="bp"><g class="ar"><path class="ac" d="M12.94,31.67l-.6-.35c.56-.33,.95-.35,1.2-.2l.6,.35c-.26-.15-.64-.13-1.2,.2h0Z"/></g></g></g><polygon class="ac" points="12.02 32.2 11.42 31.85 12.34 31.32 12.94 31.67 12.02 32.2"/><g class="ar"><path class="ac" d="M11.41,32.34l-.6-.35c.13,.08,.34,.01,.62-.15l.6,.35c-.28,.16-.49,.22-.62,.15Z"/><g class="bn"><g class="ar"><path class="ac" d="M11.41,32.34l-.6-.35c.13,.08,.34,.01,.62-.15l.6,.35c-.28,.16-.49,.22-.62,.15h0Z"/></g></g></g><g class="ar"><path class="ac" d="M12.61,28.43l-.6-.35c.67-.34,1.28-.57,1.74-.69l.6,.35c-.46,.13-1.07,.35-1.74,.69Z"/><g class="at"><g class="ar"><path class="ac" d="M12.61,28.43l-.6-.35c.67-.34,1.28-.57,1.74-.69l.6,.35c-.46,.13-1.07,.35-1.74,.69h0Z"/></g></g></g><g class="ar"><path class="ac" d="M10.38,34.17l-.6-.35c-.43-.25-.5-.93-.5-1.34l.6,.35c0,.42,.07,1.09,.5,1.34Z"/><g class="bq"><g class="ar"><path class="ac" d="M10.38,34.17l-.6-.35c-.43-.25-.5-.93-.5-1.34l.6,.35c0,.42,.07,1.09,.5,1.34h0Z"/></g></g></g><polygon class="ac" points="9.88 32.83 9.28 32.48 9.28 31.77 9.88 32.12 9.88 32.83"/><polygon class="ac" points="11.78 27.94 11.18 27.59 12.01 27.11 12.61 27.46 11.78 27.94"/><polygon class="ac" points="11.78 28.9 11.18 28.55 11.18 27.59 11.78 27.94 11.78 28.9"/><path class="ca" d="M12.61,27.46v.98c.67-.34,1.29-.57,1.74-.69v1.23c-.56,.28-1.82,.94-2.17,1.14-.03,.02-.07,.04-.1,.06-.54,.31-.84,.6-.84,1.29v.4c0,.59,.27,.63,.78,.34l.91-.53c1.42-.82,1.7,.29,1.7,1.2v.54c0,1.77-.97,2.77-1.94,3.33l-.06,.04v.92l-.83,.48v-.94c-.75,.39-1.16,.53-1.69,.67v-1.21c.39-.2,1.37-.69,2.28-1.22,.41-.24,.88-.61,.88-1.22v-.44c0-.46-.13-.69-.66-.39l-.89,.51c-1.66,.96-1.85-.42-1.85-1.11v-.71c0-1.6,.84-2.57,1.9-3.22v-.96l.83-.48Z"/><g class="ar"><path class="ac" d="M9.88,32.12l-.6-.35c0-1.6,.84-2.57,1.9-3.22l.6,.35c-1.07,.65-1.9,1.62-1.9,3.22Z"/><g class="aq"><g class="ar"><path class="ac" d="M9.88,32.12l-.6-.35c0-1.6,.84-2.57,1.9-3.22l.6,.35c-1.07,.65-1.9,1.62-1.9,3.22h0Z"/></g></g></g></g><path class="am" d="M7.57,31.33c2.57,1.54,5.07,3.17,7.52,4.89-1.11,1.38-2.44,2.54-3.84,3.25-1.71-1.24-3.49-2.38-5.3-3.47,.15-1.54,.74-3.17,1.62-4.67Z"/><path class="am" d="M12.12,26.55c1.96,1.26,3.89,2.58,5.72,4.02-.15,.74-.39,1.5-.7,2.24-2.23-1.73-4.56-3.3-6.95-4.78,.61-.57,1.26-1.07,1.94-1.48Z"/><g><path class="as" d="M10.25,39.29c.77-.35,1.53-.84,2.24-1.44l.64,.37c-.7,.58-1.44,1.06-2.2,1.41-.8,.36-1.55,.55-2.22,.55-.63,0-1.16-.16-1.59-.47,.28,.09,.58,.13,.92,.13,.68,0,1.43-.18,2.22-.55Z"/><path class="bz" d="M17.3,29.35c.14-1.44-.15-2.63-.8-3.35-.11-.12-.24-.23-.37-.33,.41,.13,.76,.35,1.04,.66,.65,.72,.94,1.91,.8,3.35-.03,.28-.07,.56-.12,.85l-.67-.38c.05-.27,.09-.54,.11-.8Z"/><path class="ak" d="M17.18,30.15l.67,.38c-.54,2.81-2.41,5.78-4.72,7.69l-.64-.37c2.31-1.92,4.17-4.9,4.69-7.71Z"/></g></g><g><g><path class="as" d="M25.35,15.23c.09-.06,.18-.11,.27-.17,.01,0,.03-.02,.04-.02,.06-.04,.12-.07,.19-.11,.23-.13,.47-.25,.71-.36,.04-.02,.08-.04,.12-.06l.08-.03c.06-.03,.12-.05,.17-.07,.07-.03,.14-.05,.21-.08,.26-.1,.52-.18,.76-.24,.11-.03,.21-.05,.32-.07,.12-.02,.24-.04,.36-.05,.2-.03,.39-.04,.57-.04,.12,0,.25,0,.36,.01,.17,.01,.34,.04,.5,.07,.46,.1,.88,.28,1.24,.53h0l1.86,1.32c-.38-.28-.82-.47-1.3-.57-.13-.03-.27-.05-.41-.06-.03,0-.06,0-.09,0-.19-.02-.38-.02-.58,0h0c-.23,.01-.47,.04-.72,.09-.11,.02-.21,.04-.32,.07-.16,.04-.33,.09-.5,.15-.13,.04-.26,.09-.4,.14-.02,0-.05,.02-.07,.03-.08,.03-.17,.07-.25,.11-.04,.02-.08,.04-.13,.06-.23,.11-.46,.22-.69,.35,0,0-.02,0-.02,.01-.08,.04-.15,.08-.22,.13-.02,.01-.05,.03-.07,.04-.15,.09-.3,.19-.46,.29l-1.99-1.15c.15-.1,.3-.2,.45-.3Z"/><path class="bz" d="M18.8,25.53v-.04c.01-.1,.03-.2,.04-.3,.03-.2,.06-.41,.1-.61,.01-.08,.03-.17,.05-.25,.02-.07,.03-.15,.05-.22,.03-.11,.05-.21,.08-.32,.03-.1,.06-.21,.09-.31,.01-.05,.03-.09,.04-.14l1.86,1.08s-.02,.07-.03,.1c-.02,.08-.05,.16-.07,.24-.01,.04-.02,.07-.03,.11-.03,.11-.06,.21-.09,.32-.04,.14-.07,.29-.1,.43-.02,.08-.04,.17-.05,.25-.03,.13-.05,.26-.07,.38-.02,.12-.03,.23-.05,.34,0,.06-.01,.12-.02,.18v.02c0,.09-.02,.17-.02,.26-.02,.24-.02,.47-.02,.7,0,.1,0,.2,.01,.31v.08c0,.08,.02,.15,.03,.23,.04,.4,.12,.78,.24,1.12,0,.03,.02,.05,.03,.08,.05,.14,.1,.27,.16,.4h0c.26,.57,.62,1.01,1.07,1.34l-1.83-1.3h0c-.34-.26-.63-.58-.86-.97-.06-.11-.12-.22-.18-.33-.03-.06-.06-.12-.08-.19-.03-.07-.06-.15-.09-.23-.12-.36-.21-.75-.26-1.17v-.03c-.01-.1-.02-.2-.03-.31,0-.02,0-.04,0-.06-.02-.3-.02-.61,0-.94,0-.08,0-.16,.02-.24Z"/><path class="ak" d="M19.28,23.23c.05-.15,.1-.31,.16-.46,.04-.1,.08-.2,.12-.3,0-.01,0-.02,.01-.04,.03-.08,.06-.15,.09-.23,.09-.23,.2-.46,.3-.69l.03-.07c.04-.07,.07-.14,.11-.21h0c.12-.25,.25-.49,.39-.73,.03-.06,.07-.12,.1-.18,0,0,0-.02,.01-.02,.05-.08,.1-.17,.15-.25,.09-.15,.19-.3,.28-.45,.04-.07,.09-.13,.13-.2,.05-.07,.1-.15,.15-.22,.06-.09,.12-.17,.19-.26,.04-.06,.09-.12,.14-.19,.05-.06,.09-.12,.14-.19,.12-.15,.24-.3,.37-.45,.05-.06,.1-.12,.15-.18,.02-.02,.04-.04,.06-.07,.03-.04,.07-.08,.1-.12,.18-.21,.37-.41,.56-.6l.06-.06,.12-.12s.08-.08,.12-.12c.16-.16,.32-.31,.49-.45,.06-.05,.12-.11,.18-.16,.05-.04,.09-.08,.14-.12,.09-.07,.18-.14,.27-.21,.09-.07,.17-.13,.26-.2,.07-.05,.14-.1,.21-.15h.02l1.99,1.14c-.07,.05-.14,.09-.21,.14-.07,.05-.14,.1-.21,.15-.03,.02-.05,.04-.08,.06-.09,.07-.18,.14-.27,.21-.11,.08-.21,.17-.31,.26-.06,.05-.12,.1-.18,.16-.11,.1-.22,.2-.33,.3-.08,.08-.16,.15-.24,.23-.01,.01-.03,.02-.04,.04l-.17,.17c-.18,.18-.35,.37-.52,.56l-.04,.04c-.05,.06-.11,.12-.16,.18l-.02,.02c-.17,.2-.34,.4-.5,.62-.05,.06-.09,.12-.14,.19v.02c-.08,.08-.14,.17-.2,.26-.09,.13-.19,.26-.27,.39-.05,.07-.09,.13-.13,.2-.06,.09-.12,.18-.17,.27-.06,.09-.11,.18-.17,.27-.03,.05-.06,.1-.09,.16-.04,.07-.08,.13-.12,.2-.1,.18-.2,.36-.29,.54-.03,.06-.07,.13-.1,.19l-.05,.1s-.04,.08-.06,.12c-.12,.25-.23,.51-.34,.76,0,.02-.02,.05-.03,.07-.02,.05-.04,.11-.07,.16l-.05,.14c-.07,.19-.14,.37-.2,.56l-1.86-1.08s.02-.07,.03-.1Z"/></g><g class="be"><path class="ce" d="M24.14,16.1l1.97,1.14c.09-.07,.18-.14,.27-.21l-1.98-1.14c-.09,.07-.18,.14-.27,.21Z"/><path class="ce" d="M23.09,17.05l1.95,1.13c.08-.08,.16-.16,.24-.23l-1.96-1.13s-.08,.08-.12,.12l-.12,.12Z"/><path class="ce" d="M28.58,13.97l2.16,1.25h0c.2,0,.39,0,.58,0,.03,0,.06,0,.09,0l-2.25-1.3c-.19,0-.38,.01-.57,.04Z"/><path class="ce" d="M26.76,14.48l2.04,1.18c.13-.05,.26-.1,.4-.14l-2.06-1.19c-.07,.02-.14,.05-.21,.08-.06,.02-.12,.05-.17,.07Z"/><path class="ce" d="M25.35,15.23l2,1.15s.05-.03,.07-.04c.07-.04,.15-.09,.22-.13,0,0,.02,0,.02-.01l-2.01-1.16s-.03,.01-.04,.02c-.09,.05-.18,.11-.27,.17Z"/><path class="ce" d="M19.44,22.77l1.87,1.08,.05-.14c.02-.05,.04-.11,.07-.16l-1.87-1.08c-.04,.1-.08,.2-.12,.3Z"/><path class="ce" d="M18.8,25.53l1.82,1.05c.01-.11,.03-.23,.05-.34l-1.83-1.06c-.01,.1-.03,.2-.04,.3v.04Z"/><path class="ce" d="M22.16,18.08l1.93,1.12,.02-.02c.05-.06,.11-.12,.16-.18l.04-.04-1.94-1.12s-.04,.04-.06,.07c-.05,.06-.1,.12-.15,.18Z"/><path class="ce" d="M21.33,19.17l1.92,1.11c.06-.09,.12-.17,.19-.26l-1.92-1.11c-.07,.09-.13,.17-.19,.26Z"/><path class="ce" d="M20.6,20.31l1.9,1.1c.05-.09,.11-.18,.17-.27l-1.91-1.1c-.05,.08-.1,.17-.15,.25,0,0,0,.02-.01,.02Z"/><path class="ce" d="M19.96,21.51l1.89,1.09,.05-.1c.03-.06,.06-.13,.1-.19l-1.89-1.09h0c-.04,.07-.07,.15-.11,.22l-.03,.07Z"/><path class="ce" d="M18.77,26.71s0,.04,0,.06c0,.1,.02,.21,.03,.31v.03l1.78,1.02v-.08c-.01-.1-.02-.2-.02-.31l-1.79-1.03Z"/><path class="ce" d="M19.16,28.49c.03,.06,.05,.13,.08,.19,.06,.12,.12,.23,.18,.33l1.61,.93c-.06-.13-.11-.26-.16-.4,0-.03-.02-.05-.03-.08l-1.68-.97Z"/><path class="ce" d="M19.04,24.1l1.85,1.07c.03-.11,.06-.21,.09-.32l-1.86-1.07c-.03,.11-.06,.21-.08,.32Z"/></g><path class="ca" d="M28.35,15.85c-3.88,1.77-7.35,6.67-7.75,10.94-.41,4.27,2.41,6.29,6.28,4.52,3.88-1.77,7.35-6.67,7.75-10.94,.41-4.27-2.41-6.29-6.28-4.52Z"/><path class="as" d="M24.25,31.15c.7,0,1.47-.19,2.3-.57,3.64-1.66,6.91-6.28,7.29-10.28,.14-1.49-.15-2.72-.83-3.46-.5-.55-1.18-.82-2.03-.82-.7,0-1.47,.19-2.3,.57-3.64,1.66-6.91,6.28-7.29,10.28-.14,1.49,.15,2.72,.83,3.46,.5,.55,1.18,.82,2.03,.82Z"/><g class="ar"><polygon class="ac" points="28.07 28.48 27.48 28.14 27.48 27.23 28.07 27.57 28.07 28.48"/><polygon class="ac" points="26.66 29.3 26.07 28.95 26.07 28.04 26.66 28.39 26.66 29.3"/><g class="ar"><path class="ac" d="M28.53,23.46l.59,.34c.12,.07,.16,.3,.16,.55,0,.47-.1,.81-.46,1.02l-.59-.34c.36-.21,.46-.54,.46-1.02,0-.25-.04-.48-.16-.55Z"/><g class="by"><g class="ar"><path class="ac" d="M28.83,25.37l-.59-.34c.36-.21,.46-.54,.46-1.02,0-.25-.04-.48-.16-.55l.59,.34c.12,.07,.16,.3,.16,.55,0,.47-.1,.81-.46,1.02h0Z"/></g></g></g><g class="ar"><path class="ac" d="M30.07,22.08l.59,.34c-.19-.11-.45-.13-.74-.01l-.59-.34c.29-.11,.54-.1,.74,.01Z"/><g class="ae"><g class="ar"><path class="ac" d="M29.93,22.41l-.59-.34c.29-.11,.54-.1,.74,.01l.59,.34c-.19-.11-.45-.13-.74-.01h0Z"/></g></g></g><polygon class="ac" points="27.72 26.01 27.13 25.67 28.24 25.03 28.83 25.37 27.72 26.01"/><g class="ar"><path class="ac" d="M28.42,20.7l.59,.34c.08,.05,.14,.17,.14,.41,0,.3-.14,.63-.42,.79l-.59-.34c.28-.16,.42-.49,.42-.79,0-.24-.06-.36-.14-.41Z"/><g class="bw"><g class="ar"><path class="ac" d="M28.73,22.25l-.59-.34c.28-.16,.42-.49,.42-.79,0-.24-.06-.36-.14-.41l.59,.34c.08,.05,.14,.17,.14,.41,0,.3-.14,.63-.42,.79h0Z"/></g></g></g><polygon class="ac" points="24.55 29.6 23.96 29.26 23.96 28.25 24.55 28.6 24.55 29.6"/><polygon class="ac" points="24.55 28.6 23.96 28.25 25.32 27.47 25.91 27.81 24.55 28.6"/><polygon class="ac" points="27.71 22.83 27.12 22.49 28.14 21.9 28.73 22.25 27.71 22.83"/><g class="ar"><path class="ac" d="M29.86,18.58l.59,.34c-.32-.19-.82-.11-1.53,.29l-.59-.34c.71-.4,1.21-.47,1.53-.29Z"/><g class="az"><g class="ar"><path class="ac" d="M28.92,19.21l-.59-.34c.71-.4,1.21-.47,1.53-.29l.59,.34c-.32-.19-.82-.11-1.53,.29h0Z"/></g></g></g><polygon class="ac" points="27.51 20.02 26.92 19.68 27.46 19.37 28.05 19.71 27.51 20.02"/><polygon class="ac" points="28.05 18.8 27.45 18.46 28.33 17.96 28.92 18.3 28.05 18.8"/><polygon class="ac" points="28.05 19.71 27.46 19.37 27.45 18.46 28.05 18.8 28.05 19.71"/><polygon class="ac" points="25.91 27.81 25.32 27.47 25.3 21.62 25.89 21.96 25.91 27.81"/><polygon class="ac" points="26.11 20.83 25.52 20.49 26.04 20.18 26.64 20.53 26.11 20.83"/><polygon class="ac" points="25.89 20.96 25.3 20.62 25.52 20.49 26.11 20.83 25.89 20.96"/><polygon class="ac" points="26.64 20.53 26.04 20.18 26.04 19.28 26.63 19.62 26.64 20.53"/><polygon class="ac" points="26.63 19.62 26.04 19.28 26.92 18.77 27.51 19.11 26.63 19.62"/><polygon class="ac" points="24.53 22.75 23.94 22.41 23.94 21.4 24.53 21.74 24.53 22.75"/><path class="ca" d="M29.93,22.41c.7-.28,1.17,.18,1.17,1,0,1.75-.73,2.82-2.15,3.65v.91l-.87,.5v-.91l-.54,.31v.91l-.87,.51v-.91l-.53,.3-.22,.13-1.36,.78v-1l1.36-.78-.02-5.85-1.36,.78v-1l1.36-.78,.22-.13,.52-.3v-.91l.87-.51v.91l.54-.31v-.91l.87-.5v.91c1.41-.79,2-.32,2,1,0,.67-.32,1.76-.99,2.21Zm-1.1,2.96c.36-.21,.46-.54,.46-1.02,0-.4-.1-.72-.46-.51l-1.11,.64v1.52l1.12-.64h0Zm-1.12-3.7v1.16l1.02-.59c.28-.16,.42-.49,.42-.79,0-.47-.22-.49-.42-.37l-1.02,.59h0Z"/><polygon class="ac" points="24.53 21.74 23.94 21.4 25.3 20.62 25.89 20.96 24.53 21.74"/></g><path class="am" d="M23.07,21.99c2.65,1.59,5.25,3.28,7.78,5.06-1.14,1.43-2.52,2.62-3.97,3.36-1.77-1.28-3.61-2.46-5.48-3.59,.16-1.59,.77-3.28,1.68-4.83Z"/><path class="am" d="M27.79,17.05c2.03,1.31,4.02,2.66,5.91,4.15-.15,.77-.4,1.55-.72,2.32-2.31-1.79-4.72-3.41-7.19-4.95,.63-.59,1.31-1.11,2-1.53Z"/><g><path class="as" d="M25.85,30.23c.8-.37,1.58-.87,2.32-1.49l.66,.38c-.73,.6-1.49,1.09-2.28,1.45-.83,.38-1.6,.57-2.3,.57-.65,0-1.2-.16-1.65-.49,.29,.09,.6,.14,.95,.14,.7,0,1.47-.19,2.3-.57Z"/><path class="bz" d="M33.14,19.95c.14-1.49-.15-2.72-.83-3.46-.12-.13-.24-.24-.38-.34,.42,.13,.78,.36,1.08,.69,.68,.74,.97,1.97,.83,3.46-.03,.29-.07,.58-.13,.88l-.69-.4c.05-.28,.09-.55,.12-.83Z"/><path class="ak" d="M33.02,20.77l.69,.4c-.56,2.9-2.49,5.98-4.88,7.95l-.66-.38c2.39-1.99,4.31-5.07,4.85-7.97Z"/></g></g><g><g class="ar"><polygon class="bx" points="20.88 32.5 20.42 32.24 20.42 31.1 20.87 31.37 20.88 32.5"/><polygon class="bx" points="20.87 30 20.41 29.73 20.41 28.59 20.87 28.86 20.87 30"/><polygon class="bx" points="20.87 28.86 20.41 28.59 23.16 28.83 23.62 29.1 20.87 28.86"/><polygon class="bx" points="16.2 34.06 15.75 33.8 15.74 32.43 16.2 32.69 16.2 34.06"/><path class="cc" d="M23.62,29.1l-2.74,3.41v-1.13l-4.67,2.7v-1.37l4.67-2.7v-1.14l2.75,.24Z"/><polygon class="bx" points="16.2 32.69 15.74 32.43 20.41 29.73 20.87 30 16.2 32.69"/></g><g class="ar"><polygon class="bx" points="18.93 27.15 18.48 26.88 23.15 24.18 23.6 24.45 18.93 27.15"/><polygon class="bx" points="16.19 29.42 15.73 29.15 18.47 25.74 18.93 26.01 16.19 29.42"/><path class="cc" d="M18.93,27.15l4.67-2.7v1.37l-4.67,2.7v1.14l-2.75-.24,2.74-3.41v1.14Z"/></g></g><path class="ao" d="M30.29,46.63c1.23,.71,1.23,1.86,0,2.57-1.23,.71-3.22,.71-4.44,0-1.23-.71-1.23-1.86,0-2.57,1.23-.71,3.22-.71,4.44,0Z"/><path class="ao" d="M34.98,44.53c1.23,.71,1.23,1.86,0,2.57-1.23,.71-3.22,.71-4.44,0-1.23-.71-1.23-1.86,0-2.57,1.23-.71,3.22-.71,4.44,0Z"/><g><g><g><g><path class="bm" d="M30.88,31.79c.05-.06-.06-.09-.09-.16-.06-.15-.01-.3-.23-.49-.03-.02-.05-.06-.08-.07-.14-.04-.18,.03-.19,.12-.24-.1-.61-.59-.67-.38-.03,.1,.36,.36,.42,.44-.01-.02-.13-.08-.14-.09-.07-.05-.19-.13-.22-.03-.03,.09,.03,.12,.09,.16,.01,0,.1,.08,.08,.07-.07-.03-.18-.12-.21,0-.01,.04,.02,.08,.05,.11,0,0,.08,.07,.09,.08-.1-.04-.19,.05-.09,.14,.42,.36,.78,.38,.86,.43,0,0,.01,0,.02,0,0,0,0-.01,.01-.02l.02-.03s.04-.02,.06-.05c.05-.07,.17-.16,.23-.23Z"/><path class="ah" d="M34.63,34.1c-.18-.41-1.86-1.32-1.86-1.32-.26-.18-1.11-.74-1.8-1.2-.35,.1-.57,.27-.71,.6,.53,.52,.72,.84,.91,1.05,.23,.25,.52,.46,.81,.65h.02l.58,.42c.59,.34,1.18,.7,1.86,.7,0,0,.37-.49,.18-.9Z"/><path class="bm" d="M32.5,33.46v.55s.05,.07,.14,.13h.04c.38-.04,.85-.12,.85-.38h0l-.02-.38h-.05l-.69,.06-.29,.02Z"/><path class="bl" d="M33.65,33.69c.06,.05,.03,.55,.03,.62-.02,.2-.05-.08-.26,0-.2,.08-.43,.07-.64,.03-.12-.02-.17-.04-.26-.12-.08-.08-.08-.42-.01-.42,.07,0,.25,0,.32,0,.18,0,.36-.02,.52-.08,.12-.05,.16-.15,.29-.03Z"/><path class="ax" d="M34.58,45.46s.07,.53-.13,.69c-.05,.04-.25,.03-.47-.06-.14-.06-.29-.17-.43-.22-.42-.13-.5-.34-.64-.61-.3-.57,.37-.31,.8-.07,.45,.25,.87,.27,.87,.27Z"/><path class="ah" d="M33.06,41.57c.04,.3,.1,.6,.16,.9,.03,.17,.02,.3,.05,.48,.06,.35,.05,1.96,.05,2.51,0,.11,1.28,.47,1.31,.31,.04-.16,.12-1.49,.06-1.97-.05-.36-.14-3.83-.12-4.06,.04-.37,0-.99-.33-1.19-.5-.29-1.13,.36-1.27,.64-.2,.41-.07,1,.09,2.37Z"/><path class="ax" d="M33,46.18s.21,.49,.06,.69c-.04,.06-.24,.09-.47,.07-.15-.02-.33-.09-.48-.09-.44-.01-.58-.19-.78-.41-.44-.47,.27-.39,.75-.28,.5,.12,.91,.03,.91,.03Z"/><path class="ap" d="M31.54,41.58h0c.4,3.01,.25,2.61,.26,4.75,0,.17,.05,.14,.61,.22,.12,.02,.24,.03,.37,.02,.37-.04,.42-.3,.43-.58,0-.31,.1-3.82-.75-3.83-.14,0-.81-.5-.92-.59Z"/><path class="ap" d="M31.45,39.55c.03,.77,.04,1.5,.09,2.03h0c.06,.67,.15,.69,.34,1.09,.13,.28,.11,.48,.28,.62,.13,.11,.32,.1,.47,.02,.14-.08,.34,.57,.39,.42,.04-.13,.07-.71,.07-.84,.07-1.32,.67-2.2,.54-3.28,0-.06-2.17-.05-2.17-.05Z"/><path class="ap" d="M31.11,34.88s.03,.21,.08,.5v.05c.08,.44,.16,1.05,.2,1.49,.01,.14,.02,.27,.02,.37,0,.48-.07,1.8-.09,2.21,0,.08,.04,.16,.11,.2,.08,.04,.15,.08,.22,.11,.13,.05,.25,.08,.39,.11,.1,.02,.2,.03,.32,.04,.44,.03,.91,.02,1.34-.05,.32-.05,.62-.16,.87-.35,.06-.04,.09-.11,.09-.18h0c.01-.45-.24-1.7-.24-2.18,0-.83,.32-2.23,.29-2.69-.02-.39-.17-.86-1.06-.75l-1.18,.25c-.25,.13-1.27,.3-1.37,.87Z"/><path class="bm" d="M32.14,33.13c.07,.16,.19,.3,.35,.38,.06,.03,.12,.05,.19,.06h.04c.06,0,.13,0,.18-.02,.11-.05,.51,.01,.55-.1,0-.02,.02-.05,.02-.08,.04-.28-.16-.71-.21-.98-.05-.25-.21-.48-.41-.65-.17-.14-.37-.25-.59-.32l-.11,.12-.09,.1c.04,.24,.02,.49,0,.74-.01,.25-.01,.5,.09,.73Z"/><path class="bm" d="M32.06,32.41c.01-.25,.04-.49,0-.74l.09-.1,.03,.16c-.1,.38-.1,.79,0,1.17,.04,.15,.09,.3,.2,.41,.11,.11,.29,.17,.44,.11l-.02,.02s-.08,.08-.1,.14c-.02,.04-.03,.09-.03,.14,0,.03,0,.06,0,.09-.04,0-.09,0-.13,0h-.02v-.29c-.16-.08-.29-.22-.36-.38-.1-.23-.1-.48-.09-.73Z"/><path class="au" d="M31.91,31.61c.02,.15,.16,.14,.24,.27,.1,.15,.1,.28,.2,.43,.03,.05,.18,.56,.34,.47,.24-.13-.03,.47,.4,.69,.08,.04,.28,0,.36,0,.05,0,.09-.05,.12-.08h0c.12-.13,.57-.54,.67-.74,.09-.18,.11-.4,.1-.6,0-.18-.12-.35-.23-.5-.11-.15-.25-.28-.42-.36-.29-.15-.68-.17-1.02-.13-.04,0-.09,.01-.13,.02-.08,.01-.15,.03-.23,.06-.03,.02-.06,.03-.1,.05-.32,.17-.32,.34-.32,.35,0,0,0,.07,0,.1Z"/><path class="bm" d="M32.7,32.75c-.1,.12-.1,.26,0,.33,.09,.07,.24,.03,.34-.09,.1-.12,.1-.26,0-.33-.09-.07-.24-.03-.34,.09Z"/><path class="ap" d="M32.59,33.9c-.07,.01-.14,.03-.21,.06-.05,.02-.1,.08-.1,.13,.28,.06,.79-.05,1.07-.09,.24-.04,.47-.18,.51-.24,.1-.15-.49,.01-.55,.03-.23,.06-.48,.06-.72,.11h0Z"/></g><path class="an" d="M34.18,32.12c.04,.4-.16,.81-.48,1.08-.05,.04-.1,.08-.12,.14,0,0,0,.02,0,.03,.12-.13,.57-.53,.67-.73,.09-.18,.11-.4,.1-.6,0-.18-.12-.35-.23-.5-.11-.15-.25-.28-.42-.36-.29-.15-.68-.17-1.02-.13,.27,.02,.55,.04,.8,.14,.39,.16,.66,.55,.7,.95Z"/></g><path class="bm" d="M30.58,39.61c-.11-.01-.21-.02-.32-.04-.02,.18-.04,.29-.04,.29-.02,.02-.1,.12-.12,.13-.08,.12-.11,.25-.18,.37-.02,.03-.11,.14-.1,.18,0,0,.02,.02,.03,.02,.14,.04,.2-.08,.25-.19-.01,.05-.02,.11-.04,.16-.01,.06-.1,.38-.02,.39,.04,0,.06-.05,.07-.07,.05-.12,.09-.25,.12-.37-.02,.11-.05,.22-.07,.32,0,.05-.04,.24,.04,.26,.02,0,.04-.01,.05-.03,.04-.1,.06-.2,.08-.3,0,.07-.01,.13-.02,.2,0,.03,0,.09,.04,.11,.05,.02,.08-.04,.09-.07,.04-.13,.06-.26,.08-.4,.02,.08-.01,.29,.02,.36h0s.02,.03,.04,.02c.02-.02,.03-.04,.04-.07,.05-.16,.08-.25,.13-.4,.02-.06,.04-.17,.04-.24,0-.08,.02-.15,.03-.23,0-.05,.01-.11,.01-.17h0s.03-.07,.07-.18c-.1-.02-.21-.05-.32-.06Z"/><path class="cd" d="M31.87,34.71c-.13-.18-.36-.28-.53-.18-.1,.06-.21,.21-.23,.33l-.56,2.39c-.06,.3-.35,1.76-.5,2.54,.25,.25,.5,.37,.88,.35,.27-.67,.61-1.46,.73-1.72,.14-.31,.22-.63,.27-.97v-.02l.15-.67c.08-.7,.19-1.43-.21-2.04Z"/></g><g><g><path class="bm" d="M27.99,41.04c.07-.11,.1-.25,.18-.36,.01-.02,.09-.11,.11-.13,0,0,.22-1.59,.3-2.26l-.05-.59,1.1-.12v.7c-.01,.34-.76,2.26-.76,2.26h0c0,.06,0,.12-.01,.17-.01,.08-.02,.14-.03,.22,0,.06-.03,.17-.04,.23-.05,.15-.08,.24-.13,.39,0,.02-.02,.05-.04,.07-.02,.01-.03,0-.03-.01h0c-.03-.07,0-.27-.01-.35-.02,.13-.04,.25-.08,.38-.01,.03-.04,.09-.09,.07-.04-.02-.04-.07-.03-.1,0-.07,.01-.13,.02-.19-.02,.1-.04,.2-.08,.29,0,.02-.03,.03-.05,.03-.08-.01-.05-.2-.04-.25,.02-.1,.05-.21,.07-.31-.03,.12-.07,.24-.12,.36-.01,.03-.03,.08-.07,.07-.08-.01,0-.32,.02-.38,.01-.05,.03-.1,.04-.16-.05,.1-.11,.22-.25,.18-.01,0-.02,0-.03-.02-.01-.04,.08-.14,.1-.18Z"/><path class="bo" d="M29.39,37.98c-.18,.08-.35,.09-.55,.06-.15-.02-.28-.06-.4-.11-.05-.69-.06-1.43,.05-1.78,.07-.2,.24-.42,.47-.44,.04,0,.09,0,.14,.01,.23,.06,.34,.26,.4,.54,.03,.15,.13,.85,.14,1.56-.07,.06-.18,.12-.27,.16Z"/></g><g><g><g><g><path class="ay" d="M28.98,48.49c-.09-.01-.09-1.23-.28-1.57-.31-.55-.8-1.71-1.03-2.13-.06-.11-.15-.69,.01-1.36l1.35-.18c.03,.39-.34,.87-.27,1.17,.42,.51,.48,1.37,.55,1.94,.03,.21,.03,.4,.03,.64-.1,.15-.14,1.53-.38,1.5Z"/><path class="bm" d="M26.48,47.81c.19,.07,.36,.08,.4-.15,.17-1.01-.08-1.24-.17-2.25-.01-.11-.25-.93-.38-1.92l1.86-.08c-.08,.53-.2,.98-.35,1.35,.29,.97-.17,2.58-.29,3.07,0,.07,.18,.27,.03,.44-.06,.06-1.81-.15-1.56-.42,.07-.07,.3-.08,.46-.03Z"/></g><path class="bb" d="M27.69,48.39h0c-.03,.1-.09,.18-.18,.2-.03,0-.07,0-.11,0-.04,0-.08,0-.11,0-.04,0-.08-.03-.11-.04-.04-.02-.07-.05-.11-.08-.1-.07-.23-.08-.35-.09s-.25,0-.36-.04c-.05-.02-.42-.14-.5-.32-.03-.07-.02-.15,0-.22,.03-.08,.11-.13,.2-.14,.08,0,.17,.01,.25,.03,.12,.03,.22,.07,.34,.1,.04,0,.09,.03,.15,.02-.05,.06-.3,.03-.45,.04-.02,0-.04,0-.06,.02-.03,.03,0,.08,.02,.1,.03,.03,.07,.05,.11,.06,.21,.08,.44,.1,.66,.1,.08,0,.48,.06,.51-.23,.06,.05,.09,.14,.11,.22,.02,.08,.02,.17,0,.25Z"/></g><g><polygon class="ap" points="29.03 39.4 29.02 39.4 29.02 39.4 29.03 39.4"/><path class="bb" d="M25.92,43.18c.03-.51,.13-1.02,.16-1.54,.02-.47-.02-.79,.4-1.66,.15-.31,.29-.58,.67-.66,.46-.09,1.1-.23,1.53,.01,.23,.13,.35,.38,.48,.58,.5,.77,.43,1.72,.44,3.04,0,.3,.01,.71-.48,.99-.17,.09-.38,.08-.57,.12-1.19,.28-1.61,.11-2.16-.15-.42-.2-.5-.34-.48-.74Z"/></g></g><path class="bb" d="M28.91,48.09c.02,.18,0,.36,.09,.5,.02,.04,.05,.07,.09,.1,.05,.03,.11-.03,.16-.08,.56-.59,.26-.79,.32-1.02,.03-.12,.14-.22,.13-.34,0-.03-.02-.11-.08-.19-.06-.07-.17-.18-.36-.14-.12,.02-.2,.18-.23,.26-.06,.14-.05,.28-.04,.43,0,.14-.05,.28-.06,.42,0,.02,0,.03,0,.05Z"/><path class="bd" d="M29.01,48.51s0,.05,0,.07c.02,.04,.05,.07,.09,.1,.05,.03,.11-.03,.16-.08,.56-.59,.26-.79,.32-1.02,.03-.12,.14-.22,.13-.34,0-.03-.02-.11-.08-.19-.04-.02-.08-.02-.12-.02-.06,0-.13,0-.17,.05-.03,.03-.04,.07-.04,.12,0,.13,.03,.26,.02,.38,0,.07-.03,.13-.05,.19-.04,.12-.09,.24-.13,.37-.02,.07-.05,.13-.07,.19-.01,.03-.03,.06-.03,.09,0,.03,0,.05,0,.08Z"/></g><g><g><polygon class="bs" points="29.15 39.33 29.14 39.34 29.14 39.33 29.15 39.33"/><g><path class="bx" d="M26.53,37.36c-.5-1.34-.16-1.15,.83-1.67l1.08-.18c.99-.13,1.2,.83,1.07,1.41-.05,.22-.44,1.6-.37,2.71,.04,.56-2.07,.68-2.58,.2-.18-.17,.03-2.32-.03-2.47Z"/><path class="al" d="M30.35,37.42s-.04,0-.06,0c.02,0,.04,0,.06,0Z"/></g><g><path class="bm" d="M26.5,33.84c0,1.8,.63,1.29,.74,1.62,.02,.05,.01,.04-.03,.39,0,.24,1.15,.12,1.1-.21-.02-.11-.08-.5-.08-.5,0,0-.09-.64-.06-.85,.09-.64-.34-.66-.72-.93-.38-.28-.95-.16-.95,.49Z"/><path class="bc" d="M28.33,35.08c-.11,.07-.2,.1-.28,.11-.12,0-.23,0-.34-.02-.12-.03-.23-.03-.34-.11-.22-.16-.21-.37-.28-.48-.12-.19-.37-.15-.53-.41-.09-.15-.14-.32-.15-.49,0-.1,0-.3,.04-.39,.04-.1,.13-.16,.21-.23,.4-.35,1.1-.46,1.59-.18,.41,.23,.61,.47,.68,.7,0,.01,0,.03,.01,.04,.22,.64-.58,1.42-.61,1.45Z"/><path class="bu" d="M26.67,33.07c.4-.35,1.1-.46,1.59-.18,.41,.23,.61,.47,.68,.7,0,.01,0,.03,.01,.04,.06,.19,.04,.39-.03,.57-.14,.02-.27,.01-.38-.07-.6-.43-1.24-.87-2.01-.73-.03,0-.07,.02-.1,.03,0-.05,.02-.1,.03-.13,.04-.1,.13-.16,.21-.23Z"/><path class="aj" d="M28.54,34.13c.11,.09,.24,.1,.38,.07-.16,.46-.56,.85-.59,.87-.11,.07-.2,.1-.28,.11-.12,0-.23,0-.34-.02-.12-.03-.23-.03-.34-.11-.22-.16-.21-.37-.28-.48-.12-.19-.37-.15-.53-.41-.09-.15-.14-.32-.15-.49,0-.06,0-.17,.01-.26,.03-.01,.06-.02,.1-.03,.78-.14,1.41,.3,2.01,.73Z"/><path class="bm" d="M27.24,34.66c-.09,.14-.19,.21-.28,.17-.1-.03-.12-.15-.06-.3,.06-.15,.23-.23,.33-.2,.1,.03,.12,.17,.02,.32Z"/><path class="ay" d="M27.15,34.62c-.04,.06-.08,.09-.12,.07-.04-.01-.05-.06-.03-.13,.03-.07,.1-.1,.14-.09,.04,.01,.05,.07,0,.14Z"/></g><path class="bu" d="M28.55,33.34c.11-.22,.49,.02,.66,.23,.25,.31,.35,.73,.41,1.11,.06,.36,.06,.74,0,1.11-.04,.26-.17,.5-.17,.77,0,.14-.02,.28,.05,.41,.12,.24,.33,.42,.62,.45-.09-.03-.19,.04-.28,.06-.16,.04-.3,.06-.46,.07-.17,.01-.33,.06-.5,0-.24-.07-.43-.32-.57-.5-.21-.27-.24-.59-.23-.92,0-.24,.03-.55,.19-.74,.17-.2,.26-.49,.32-.74,.03-.12,.07-.25,.08-.37,0-.08,0-.15,0-.23,.03-.22-.24-.47-.12-.72Z"/><path class="aj" d="M30.11,37.41s-.04,0-.06,0c.02,0,.04,0,.06,0Z"/><path class="aj" d="M28.07,36.13c0-.24,.03-.55,.19-.74,.17-.2,.26-.49,.32-.74,.03-.12,.07-.25,.08-.37,0-.08,0-.15,0-.23,.03-.22-.24-.47-.12-.72h0c.5,.39,.33,1.19,.16,1.64-.29,.83-.53,1.95,.38,2.36,.24,.12,.52,.12,.81,.1-.02,0-.05,.02-.07,.03-.16,.04-.3,.06-.46,.07-.17,.01-.33,.06-.5,0-.24-.07-.43-.32-.57-.5-.21-.27-.24-.59-.23-.92Z"/></g><g><path class="bm" d="M24.94,41.29c.09-.11,.13-.24,.22-.34,.01-.02,.11-.1,.13-.12,0,0,.41-1.56,.58-2.21l.03-.59h1.1l-.1,.69c-.04,.34-1.02,2.16-1.02,2.16h0c-.01,.06-.02,.12-.03,.16-.02,.07-.04,.14-.06,.21-.01,.06-.05,.16-.07,.22-.07,.14-.11,.23-.17,.37,0,.02-.02,.05-.05,.06-.02,.01-.03,0-.03-.02h0c-.02-.07,.03-.27,.03-.35-.03,.13-.07,.25-.12,.37-.01,.03-.05,.09-.09,.06-.04-.02-.03-.08-.02-.11,.01-.07,.03-.13,.04-.19-.03,.1-.06,.19-.11,.28-.01,.02-.03,.03-.05,.03-.08-.02-.02-.2,0-.25,.03-.1,.07-.2,.11-.3-.05,.12-.1,.23-.16,.35-.01,.02-.04,.07-.08,.06-.08-.02,.05-.32,.07-.38,.02-.05,.04-.1,.06-.15-.06,.09-.14,.21-.27,.15-.01,0-.02-.01-.02-.02,0-.04,.09-.13,.12-.16Z"/><path class="bo" d="M26.71,38.4c-.19,.06-.36,.05-.55,0-.14-.03-.27-.09-.38-.16,.04-.69,.11-1.43,.27-1.76,.09-.19,.29-.39,.52-.39,.04,0,.09,0,.14,.03,.22,.08,.31,.29,.33,.58,.01,.15,.02,.86-.05,1.57-.07,.05-.19,.1-.28,.13Z"/></g></g></g></g></g></g></g></g></svg>