<?xml version="1.0" encoding="UTF-8"?><svg xmlns="http://www.w3.org/2000/svg" xmlns:xlink="http://www.w3.org/1999/xlink" viewBox="0 0 41.96 48.69"><defs><style>.aq{clip-path:url(#am);}.ar,.as,.at{fill:#fff;}.au{clip-path:url(#j);}.av{fill:#d78400;}.aw{fill:#c7d3e6;}.ax{fill:#6ac88d;}.ay{fill:#96aac9;}.az{fill:#48a177;}.ba{clip-path:url(#t);}.bb{fill:url(#i);}.bc{fill:#e49408;}.bd{fill:#1b1823;}.be{fill:#f7a56d;}.bf{clip-path:url(#z);}.bg{fill:#64c089;}.bh{fill:#56b080;}.bi{fill:#71d092;}.bj,.bk,.bl,.bm{mix-blend-mode:multiply;}.bj,.bm,.bn{opacity:.2;}.bo{fill:url(#ap);}.bp{clip-path:url(#r);}.bq{isolation:isolate;}.br{fill:#ffb677;}.bs{clip-path:url(#p);}.bt{fill:#f0f3f9;}.bu{fill:#303030;}.bv{clip-path:url(#d);}.bw{fill:#7c93b8;}.bx{fill:#dcdeed;}.by,.bm{fill:#27262c;}.bz{clip-path:url(#ab);}.ca{clip-path:url(#ac);}.cb{clip-path:url(#aa);}.cc{clip-path:url(#v);}.cd{clip-path:url(#m);}.ce{clip-path:url(#x);}.cf{fill:#30273b;}.cg,.bk,.ch{opacity:.3;}.cg,.ch,.bn{mix-blend-mode:screen;}.cg,.ci{fill:#f5ebcb;}.cj{fill:#1b1b1b;}.ck{fill:#1b2029;}.cl{fill:url(#ad);}.cm{fill:#b3c2db;}.cn{fill:#5db884;}.co{clip-path:url(#e);}.cp{fill:#7fdf9a;}.cq{clip-path:url(#f);}.cr{clip-path:url(#l);}.cs{clip-path:url(#an);}.ct{fill:#8defa3;}.cu{clip-path:url(#o);}.cv{fill:#e9eef7;}.cw{clip-path:url(#af);}.cx{fill:url(#aj);}.cy{fill:#d9e1ee;}.cz{fill:#419973;}.da{fill:#393c41;}.db{clip-path:url(#n);}.dc{fill:#d4d0c8;}.dd{fill:#e8e0dd;}.as{opacity:.17;}.as,.at{mix-blend-mode:lighten;}.de{clip-path:url(#q);}.df{clip-path:url(#k);}.dg{fill:#5c697c;}.dh{fill:none;}.di{fill:#b5b9dc;}.dj{clip-path:url(#ao);}.dk{fill:#4a4e57;}.dl{clip-path:url(#u);}.dm{fill:#4fa97c;}.dn{fill:#f5f5fd;}.do{fill:#b3b3b3;}.dp{clip-path:url(#ae);}.bl{fill:#6bb390;}.dq{fill:#86e79f;}.dr{fill:#78d896;}.ds{clip-path:url(#s);}.dt{fill:#ef995e;}.du{fill:#ffc89f;}.dv{clip-path:url(#ag);}.dw{clip-path:url(#y);}.bn{fill:#b6ccdf;}.dx{fill:#404040;}.dy{fill:#d0cbe6;}.at{opacity:.26;}.dz{fill:#f2f2f2;}.ea{fill:#ffa200;}.eb{clip-path:url(#al);}.ec{clip-path:url(#w);}.ed{fill:#c49771;}.ee{fill:url(#ak);}</style><clipPath id="d"><path class="bx" d="M23.92,20.87v.75c0,.09,.06,.19,.18,.26v-.75c-.12-.07-.18-.16-.18-.26Z"/></clipPath><clipPath id="e"><path class="bx" d="M40.76,23.17v-.75c0,.09-.06,.19-.19,.26v.75c.13-.07,.19-.17,.19-.26Z"/></clipPath><clipPath id="f"><path class="dd" d="M33.21,26.42v.75c.25,.14,.65,.14,.89,0v-.75c-.25,.14-.65,.14-.89,0Z"/></clipPath><linearGradient id="i" x1="25.57" y1="21.66" x2="38.97" y2="21.66" gradientTransform="matrix(1, 0, 0, 1, 0, 0)" gradientUnits="userSpaceOnUse"><stop offset=".02" stop-color="#6bb290"/><stop offset="1" stop-color="#8ceea3"/></linearGradient><clipPath id="j"><path class="dh" d="M38.65,31.03v.23c0-.06-.05-.11-.12-.14v-.23c.06,.04,.12,.08,.12,.14Z"/></clipPath><clipPath id="k"><path class="dh" d="M37.74,31.58v.23s-.03-.1-.11-.14v-.23c.08,.04,.11,.09,.11,.14Z"/></clipPath><clipPath id="l"><path class="dh" d="M39.28,31.07v.23c0,.13-.12,.26-.29,.36-.22,.13-.55,.21-.83,.11v-.23c.28,.11,.61,.02,.83-.11,.18-.1,.29-.23,.29-.36Z"/></clipPath><clipPath id="m"><path class="dh" d="M38.26,31.72v.23c0,.11-.08,.23-.27,.33-.43,.25-.87,.29-1.36,.02v-.23c.49,.27,.93,.23,1.36-.02,.18-.11,.27-.23,.27-.33Z"/></clipPath><clipPath id="n"><path class="dh" d="M38.65,29.85v.23c0-.06-.05-.11-.12-.14v-.23c.06,.04,.12,.08,.12,.14Z"/></clipPath><clipPath id="o"><path class="dh" d="M37.74,30.39v.23s-.03-.1-.11-.14v-.23c.08,.04,.11,.09,.11,.14Z"/></clipPath><clipPath id="p"><path class="dh" d="M39.28,29.89v.23c0,.13-.12,.26-.29,.36-.22,.13-.55,.21-.83,.11v-.23c.28,.11,.61,.02,.83-.11,.18-.1,.29-.23,.29-.36Z"/></clipPath><clipPath id="q"><path class="dh" d="M38.26,30.54v.23c0,.11-.08,.23-.27,.33-.43,.25-.87,.29-1.36,.02v-.23c.49,.27,.93,.23,1.36-.02,.18-.11,.27-.23,.27-.33Z"/></clipPath><clipPath id="r"><path class="dh" d="M38.65,28.67v.23c0-.06-.05-.11-.12-.14v-.23c.06,.04,.12,.08,.12,.14Z"/></clipPath><clipPath id="s"><path class="dh" d="M37.74,29.21v.23s-.03-.1-.11-.14v-.23c.08,.04,.11,.09,.11,.14Z"/></clipPath><clipPath id="t"><path class="dh" d="M39.28,28.7v.23c0,.13-.12,.26-.29,.36-.22,.13-.55,.21-.83,.11v-.23c.28,.11,.61,.02,.83-.11,.18-.1,.29-.23,.29-.36Z"/></clipPath><clipPath id="u"><path class="dh" d="M38.26,29.35v.23c0,.11-.08,.23-.27,.33-.43,.25-.87,.29-1.36,.02v-.23c.49,.27,.93,.23,1.36-.02,.18-.11,.27-.23,.27-.33Z"/></clipPath><clipPath id="v"><path class="dh" d="M38.65,27.48v.23c0-.06-.05-.11-.12-.14v-.23c.06,.04,.12,.08,.12,.14Z"/></clipPath><clipPath id="w"><path class="dh" d="M37.74,28.02v.23s-.03-.1-.11-.14v-.23c.08,.04,.11,.09,.11,.14Z"/></clipPath><clipPath id="x"><path class="dh" d="M39.28,27.52v.23c0,.13-.12,.26-.29,.36-.22,.13-.55,.21-.83,.11v-.23c.28,.11,.61,.02,.83-.11,.18-.1,.29-.23,.29-.36Z"/></clipPath><clipPath id="y"><path class="dh" d="M38.26,28.17v.23c0,.11-.08,.23-.27,.33-.43,.25-.87,.29-1.36,.02v-.23c.49,.27,.93,.23,1.36-.02,.18-.11,.27-.23,.27-.33Z"/></clipPath><clipPath id="z"><path class="dh" d="M38.65,26.3v.23c0-.06-.05-.11-.12-.14v-.23c.06,.04,.12,.08,.12,.14Z"/></clipPath><clipPath id="aa"><path class="dh" d="M37.74,26.84v.23s-.03-.1-.11-.14v-.23c.08,.04,.11,.09,.11,.14Z"/></clipPath><clipPath id="ab"><path class="dh" d="M39.28,26.33v.23c0,.13-.12,.26-.29,.36-.22,.13-.55,.21-.83,.11v-.23c.28,.11,.61,.02,.83-.11,.18-.1,.29-.23,.29-.36Z"/></clipPath><clipPath id="ac"><path class="dh" d="M38.26,26.98v.23c0,.11-.08,.23-.27,.33-.43,.25-.87,.29-1.36,.02v-.23c.49,.27,.93,.23,1.36-.02,.18-.11,.27-.23,.27-.33Z"/></clipPath><linearGradient id="ad" x1="39.11" y1="35.58" x2="23.26" y2="28.88" xlink:href="#i"/><clipPath id="ae"><path class="bx" d="M11.35,42.8v.62c0,.08,.05,.15,.15,.21v-.62c-.1-.06-.15-.13-.15-.21Z"/></clipPath><clipPath id="af"><path class="bx" d="M23.75,45.52v-.62c0,.08-.05,.15-.15,.21v.62c.1-.06,.15-.14,.15-.21Z"/></clipPath><clipPath id="ag"><path class="dd" d="M18.99,47.36v.62c.2,.12,.53,.12,.73,0v-.62c-.2,.12-.53,.12-.73,0Z"/></clipPath><linearGradient id="aj" x1="30.98" y1="48.52" x2="10.94" y2="41.6" gradientTransform="matrix(1, 0, 0, 1, 0, 0)" gradientUnits="userSpaceOnUse"><stop offset="0" stop-color="#419973"/><stop offset=".41" stop-color="#71bd94"/><stop offset="1" stop-color="#8aeba2"/></linearGradient><linearGradient id="ak" x1="27.79" y1="11.63" x2="27.89" y2="11.64" gradientTransform="matrix(1, 0, 0, 1, 0, 0)" gradientUnits="userSpaceOnUse"><stop offset="0" stop-color="#e4e9f2"/><stop offset=".27" stop-color="#dee4ef"/><stop offset=".6" stop-color="#d0d9e8"/><stop offset=".95" stop-color="#b8c5dc"/><stop offset="1" stop-color="#b4c2da"/></linearGradient><clipPath id="al"><path class="av" d="M19.16,6.5l.4,.23c.08,.05,.11,.2,.11,.38,0,.32-.07,.55-.31,.69l-.4-.23c.24-.14,.31-.37,.31-.69,0-.17-.03-.33-.11-.38Z"/></clipPath><clipPath id="am"><path class="av" d="M20.21,5.56l.4,.23c-.13-.08-.3-.09-.5,0l-.4-.23c.2-.08,.37-.07,.5,0Z"/></clipPath><clipPath id="an"><path class="av" d="M19.09,4.62l.4,.23c.06,.03,.09,.12,.09,.28,0,.2-.09,.43-.29,.54l-.4-.23c.19-.11,.29-.33,.29-.54,0-.16-.04-.25-.09-.28Z"/></clipPath><clipPath id="ao"><path class="av" d="M20.07,3.17l.4,.23c-.22-.13-.56-.07-1.04,.2l-.4-.23c.48-.27,.82-.32,1.04-.2Z"/></clipPath><linearGradient id="ap" x1="11.79" y1="47.64" x2="3.78" y2="21.18" xlink:href="#i"/></defs><g class="bq"><g id="b"><g id="c"><g><polygon class="bm" points="2.72 37.84 2.72 38.14 6.95 40.6 9 38.97 5.43 36.78 2.72 37.84"/><path class="bm" d="M40.25,30.95c1.34,.78,1.34,2.03,0,2.81-1.34,.78-3.52,.78-4.87,0-1.34-.78-1.34-2.03,0-2.81,1.34-.78,3.52-.78,4.87,0Z"/><path class="bm" d="M41.96,36.95h0c0-.09-.06-.18-.18-.25l-6.08-3.51c-.24-.14-.63-.14-.87,0l-.89,.52,.17,.1-6.43,3.71-.15-.09-1.56,.9c-.12,.07-.18,.17-.18,.26h0v.56h0c0,.09,.06,.17,.18,.24l6.08,3.51c.24,.14,.63,.14,.87,0l8.86-5.14c.11-.07,.17-.15,.18-.24h0v-.56h0Z"/><path class="bm" d="M24.3,45.53h0c0-.08-.05-.15-.16-.21l-7.82-4.35c-.21-.12-.55-.12-.76,0l-4.05,2.24c-.11,.06-.17,.15-.16,.23v.6c0,.08,.05,.15,.16,.21l7.82,4.35c.21,.12,.55,.12,.76,0l4.05-2.24c.11-.06,.16-.14,.16-.21v-.62Zm-.16,.21c.05-.03,.09-.06,.12-.1-.03,.04-.07,.07-.12,.1Z"/><g class="bj"><polygon class="by" points="18.21 31.89 18.21 35.13 28.38 29.21 28.39 25.97 18.21 31.89"/><polygon class="by" points="6.92 25.38 6.92 25.38 6.92 28.62 18.21 35.13 18.21 31.89 28.39 25.97 17.1 19.47 6.92 25.38"/></g><path class="ed" d="M37.84,40.15l-2.35-1.69-.11,.16,2.35,1.69c.32,.23,.5,.61,.48,1.01s-.24,.75-.58,.95l-5.91,3.41c-.9,.52-2.36,.52-3.26,0l-1.35-.75c-.42-.24-.64-.55-.64-.89s.23-.65,.64-.89l.7-.4c.48-.28,.74-.65,.74-1.05s-.26-.78-.74-1.05l-7.06-4.16,.03-.02,9.66-5.58c.78-.45,1.2-1.05,1.2-1.7s-.43-1.25-1.2-1.7l-1.31-.75,1.71-.99c.22-.13,.34-.3,.34-.49,0-.19-.12-.36-.34-.49l-2.09-1.21c-.16-.09-.24-.2-.24-.32s.09-.23,.24-.32l2.03-1.17c.36-.21,.94-.21,1.3,0l1.24,.71,.1-.17-1.24-.71c-.42-.24-1.08-.24-1.5,0l-2.03,1.17c-.22,.13-.34,.3-.34,.49s.12,.36,.34,.49l2.09,1.21c.16,.09,.24,.2,.24,.32s-.09,.23-.24,.32l-1.81,1.04-3.7-2.14c-1.57-.9-4.12-.9-5.68,0l-9.66,5.58c-.78,.45-1.2,1.05-1.2,1.7s.43,1.25,1.2,1.7l5.2,3c.78,.45,1.81,.68,2.84,.68,.2,0,.4,0,.59-.03l-9.44,5.39c-.99,.57-2.6,.57-3.59,0l-1.48-.82c-.46-.27-.71-.61-.71-.98s.25-.72,.71-.98l5.61-3.14-.09-.17-5.61,3.15c-.52,.3-.81,.71-.81,1.15s.29,.85,.81,1.15l1.48,.82c.52,.3,1.21,.45,1.89,.45s1.37-.15,1.89-.45l9.8-5.6h0c.56-.1,1.1-.26,1.56-.49l5.97,3.52-2.45,1.41c-.53,.31-1.4,.31-1.93,0-.59-.34-1.54-.34-2.12,0l-3.73,2.15,.1,.17,3.73-2.15c.53-.31,1.4-.31,1.93,0,.59,.34,1.54,.34,2.12,0l2.54-1.47,1,.59c.42,.24,.64,.55,.64,.89s-.23,.65-.64,.89l-.7,.4c-.48,.28-.74,.65-.74,1.05s.26,.78,.74,1.05l1.35,.75c.48,.28,1.1,.41,1.73,.41s1.25-.14,1.73-.41l5.91-3.41c.4-.23,.65-.65,.68-1.11,.02-.46-.18-.9-.56-1.17Zm-22.66-3.85l-5.2-3c-.72-.41-1.11-.96-1.11-1.53,0-.57,.39-1.12,1.11-1.53l9.66-5.58c.76-.44,1.75-.66,2.75-.66s1.99,.22,2.74,.66l5.2,3c.72,.41,1.11,.96,1.11,1.53s-.39,1.12-1.11,1.53l-9.66,5.58c-1.51,.87-3.98,.87-5.49,0Z"/><g><g><g class="bq"><g><path class="bx" d="M23.92,20.87v.75c0,.09,.06,.19,.18,.26v-.75c-.12-.07-.18-.16-.18-.26Z"/><g class="bv"><g class="bq"><path class="bx" d="M23.92,20.87v.75c0,.09,.06,.19,.18,.26v-.75c-.12-.07-.18-.16-.18-.26h0Z"/></g></g></g><g><path class="bx" d="M40.76,23.17v-.75c0,.09-.06,.19-.19,.26v.75c.13-.07,.19-.17,.19-.26Z"/><g class="co"><g class="bq"><path class="bx" d="M40.57,22.68v.75c.13-.07,.19-.17,.19-.26v-.75c0,.09-.06,.19-.19,.26h0Z"/></g></g></g><polygon class="bx" points="24.1 21.13 24.1 21.88 33.21 27.17 33.21 26.42 24.1 21.13"/><polygon class="bx" points="34.1 26.42 34.1 27.17 40.57 23.43 40.57 22.68 34.1 26.42"/><g><path class="dd" d="M33.21,26.42v.75c.25,.14,.65,.14,.89,0v-.75c-.25,.14-.65,.14-.89,0Z"/><g class="cq"><path class="cy" d="M33.21,26.42v.75c.25,.14,.65,.14,.89,0v-.75c-.25,.14-.65,.14-.89,0h0Z"/></g></g><path class="dn" d="M24.1,20.61c-.25,.14-.25,.37,0,.51l9.11,5.29c.24,.14,.64,.14,.89,0l6.47-3.74c.25-.14,.25-.37,0-.51l-9.11-5.29c-.24-.14-.64-.14-.89,0l-6.47,3.74Z"/></g><path class="bx" d="M25.16,21.27s0,.04,.02,.06c.03,.07,.09,.14,.19,.19l6.71,3.88c.28,.16,.73,.16,1,0l5.69-3.29c.09-.05,.16-.12,.19-.19,0-.02,.01-.04,.02-.06,.02-.12-.05-.24-.2-.33l-6.71-3.88c-.28-.16-.73-.16-1,0l-5.69,3.29c-.16,.09-.23,.22-.2,.33Z"/><g><path class="bl" d="M32.19,17.81l-.54,.31-1.71,.99-1.33,.77-3.04,1.76-.21-.12c-.09-.05-.16-.12-.19-.19,0-.02-.01-.04-.02-.06,.02-.09,.08-.18,.2-.25l3.1-1.8,1.33-.77,1.26-.73c.1-.06,.22-.09,.34-.11,.23-.03,.48,0,.66,.11l.13,.08Z"/><g><path class="cy" d="M26.5,20.58l.59-.34,.27,.16-.59,.34-.27-.16Zm.59-.32l-.55,.32,.24,.14,.55-.32-.24-.14Z"/><polygon class="cy" points="26.52 20.58 26.77 20.73 27.17 20.5 26.91 20.35 26.52 20.58"/><g><polygon class="cy" points="25.72 21.22 25.81 21.17 25.9 21.23 25.82 21.28 25.72 21.22"/><polygon class="cy" points="25.53 21.25 25.61 21.2 25.79 21.3 25.7 21.35 25.53 21.25"/><polygon class="cy" points="25.33 21.27 25.42 21.22 25.67 21.36 25.59 21.41 25.33 21.27"/></g><g><path class="cy" d="M26.59,20.68c.1,.06,.1,.09,.06,.11l-.05,.03s-.07,.02-.11,0l-.04-.02s-.04-.04,0-.06c.03-.01,.05-.03,.08-.04-.03-.01-.07-.04-.1-.02l-.09,.05-.03-.02s.06-.04,.1-.06c.03-.02,.08-.02,.17,.03Zm-.02,.03l-.07,.04s-.02,.02,0,.03l.03,.02s.03,0,.05,0l.03-.02s0-.04-.04-.06Z"/><path class="cy" d="M26.33,20.74l-.12,.07,.28,.07-.04,.02-.3-.08v-.02l.14-.09,.04,.02Z"/><path class="cy" d="M26.29,21l-.03,.02-.38-.05,.03-.02,.38,.05Zm-.1-.12s.03,.03,0,.05l-.03,.02s-.06,.02-.09,0l-.04-.02s-.03-.03,0-.05l.03-.02s.06-.02,.08,0l.04,.02Zm-.03,.01l-.03-.02s-.02,0-.04,0l-.03,.02s-.01,.01,0,.02l.03,.02s.02,0,.04,0l.03-.02s.01-.01,0-.02Zm-.03,.15s.03,.03,0,.05l-.03,.02s-.06,.02-.08,0l-.04-.02s-.03-.03,0-.05l.03-.02s.06-.02,.08,0l.04,.02Zm-.03,.01l-.03-.02s-.02,0-.04,0l-.03,.02s-.01,.01,0,.02l.03,.02s.02,0,.04,0l.03-.02s.01-.01,0-.02Z"/></g></g><g><path class="ar" d="M27.79,20.12s-.09-.02-.12,0c-.03,.02-.03,.05,0,.07,.03,.02,.09,.02,.12,0,.03-.02,.03-.05,0-.07Z"/><g><path class="ar" d="M27.62,20.09s.08-.03,.13-.03v-.03c-.06,0-.12,.01-.17,.04-.05,.03-.07,.06-.07,.1h.06s.02-.05,.05-.07Z"/><path class="ar" d="M27.53,20.03c.06-.03,.14-.05,.22-.05v-.03c-.09,0-.19,.02-.26,.06-.07,.04-.11,.1-.11,.15h.06s.03-.09,.09-.13Z"/><path class="ar" d="M27.44,19.99c.08-.05,.19-.07,.3-.07v-.03c-.12,0-.25,.03-.34,.08-.09,.05-.14,.13-.14,.2h.06c0-.06,.04-.13,.13-.17Z"/></g></g><g id="g"><g id="h"><g><polygon class="cy" points="31.01 18.34 30.66 18.13 31.13 18.09 31.01 18.34"/><polygon class="cy" points="31.24 18.02 31.31 17.75 31.67 17.96 31.24 18.02"/></g><polygon class="cy" points="31.22 18.08 31.23 18.03 31.68 17.96 31.03 18.34 31.14 18.08 31.22 18.08"/><polygon class="cy" points="30.65 18.12 31.3 17.75 31.21 18.07 30.65 18.12"/></g></g><path class="bb" d="M38.97,21.86s0,.04-.02,.06c-.03,.07-.09,.14-.19,.19l-5.51,3.19-.18,.1c-.28,.16-.73,.16-1,0l-.84-.48h0l-1.72-.99-3.94-2.28,3.04-1.76,1.33-.77,1.71-.99,.54-.31,6.57,3.8c.12,.07,.19,.16,.2,.25Z"/></g><path class="bx" d="M37.38,24.14l-.64,.37c-.17,.1-.45,.11-.63,0-.17-.1-.17-.26,0-.36l.64-.38c.17-.1,.45-.1,.63,0,.17,.1,.17,.26,0,.36h0Z"/><g><polygon class="ar" points="39.58 23.86 40.07 23.55 40.07 23.2 39.58 23.51 39.58 23.86"/><polygon class="dg" points="39.97 23.49 39.6 23.73 39.6 23.83 40.05 23.54 40.05 23.54 39.97 23.49"/><g><polygon class="cj" points="39.6 23.52 39.6 23.73 39.97 23.49 39.97 23.28 39.95 23.3 39.6 23.52"/><polygon class="bd" points="39.6 23.56 39.6 23.7 39.95 23.48 39.95 23.33 39.6 23.56"/><polygon class="dx" points="40.05 23.45 40.05 23.24 39.97 23.28 39.97 23.49 40.05 23.54 40.05 23.45"/></g></g><g><path class="cj" d="M40.5,23.12c0,.11-.07,.23-.15,.28-.08,.05-.14,0-.14-.11s.06-.23,.14-.28,.15,0,.15,.11Z"/><path class="dg" d="M40.23,23.32c.08-.05,.15-.17,.15-.28,0-.01,0-.03,0-.04,.07-.03,.13,.02,.13,.12,0,.11-.07,.23-.15,.28-.07,.04-.13,0-.14-.07h.01Z"/><path class="cy" d="M40.31,23.37c.08-.05,.14-.17,.14-.28,0-.05-.01-.08-.03-.1,.04,0,.07,.05,.07,.12,0,.11-.07,.23-.15,.28-.05,.03-.09,.02-.11,0,.02,0,.05,0,.07-.02Z"/></g><g><path class="bx" d="M27.02,19.27s.02,.03,.05,.05c.08,.05,.21,.05,.29,0l1.22-.7s.04-.03,.05-.04c.03-.04,.01-.09-.05-.12-.08-.05-.2-.05-.29,0l-1.22,.7c-.06,.03-.07,.08-.05,.12Z"/><path class="cf" d="M27.02,19.27s.02,.03,.05,.05c.08,.05,.21,.05,.29,0l1.22-.7s.04-.03,.05-.04c0-.02-.02-.04-.05-.05-.08-.05-.2-.05-.29,0l-1.22,.7s-.04,.03-.05,.04Z"/></g><path class="cf" d="M30.57,17.14s.03,.08,.08,.11c.11,.06,.29,.06,.4,0,.03-.01,.05-.03,.06-.05,.04-.06,.02-.13-.06-.18-.11-.06-.29-.06-.4,0-.06,.03-.09,.08-.08,.12Z"/></g><g><g><polygon class="cy" points="25.9 22.82 25.08 22.35 25.08 22.03 25.9 22.51 25.9 22.82"/><polygon class="cy" points="25.9 22.51 25.08 22.03 25.21 21.96 26.03 22.44 25.9 22.51"/><polygon class="bx" points="26.03 22.44 26.02 22.75 25.9 22.82 25.9 22.51 26.03 22.44"/></g><g><polygon class="cy" points="24.85 22.21 24.49 22.01 24.49 21.69 24.85 21.9 24.85 22.21"/><polygon class="cy" points="24.85 21.9 24.49 21.69 24.62 21.62 24.98 21.83 24.85 21.9"/><polygon class="bx" points="24.98 21.83 24.97 22.14 24.85 22.21 24.85 21.9 24.98 21.83"/></g></g><path class="bt" d="M34.89,20.81c-.4-.23-1.01-.28-1.46-.09,.34-.23,.09-.59-.23-.78-.64-.37-1.36-.41-2.16,.04l-.42-.24-.32,.19,.42,.24-.21,.12-.42-.24-.32,.19,.42,.24-.63,.36-.2,.12-.77,.44,.5,.29,.77-.44,2.81,1.63-.77,.44,.5,.29,.77-.44,.2-.12,.63-.36,.29,.17,.32-.19-.29-.17,.21-.12,.29,.17,.32-.19-.29-.17c.8-.46,.9-.88,.05-1.37Zm-2.57-.24c.15,.08,.19,.2,.03,.29l-.57,.33-.56-.32,.57-.33c.11-.07,.3-.1,.53,.04Zm1.62,1.15l-.62,.36-.74-.43,.62-.36c.2-.12,.44-.04,.63,.07,.23,.13,.31,.24,.11,.36Z"/><g><path class="at" d="M33.25,25.29l-.18,.1c-.28,.16-.73,.16-1,0l-.84-.48h0l-1.29-5.8-.15-.65,1.26-.73c.1-.06,.22-.09,.34-.11l.16,.1,.09,.4,1.6,7.17Z"/><path class="as" d="M29.51,23.92l-3.94-2.28-.21-.12c-.09-.05-.16-.12-.19-.19,0-.02-.01-.04-.02-.06,.02-.09,.08-.18,.2-.25l3.1-1.8,.15,.65,.9,4.04Z"/></g></g><g><g><g><path class="be" d="M37.82,29.65v4.14s-.09,0-.14,0c-.03,0-.06,0-.1,0-.1,0-.19,0-.29,0-.03,0-.06,0-.1,0-.1,0-.19-.01-.29-.02-.03,0-.06,0-.1,0-.1-.01-.19-.02-.29-.04-.03,0-.06-.01-.1-.02-.1-.02-.19-.04-.29-.06-.03,0-.07-.02-.1-.02-.1-.03-.19-.05-.29-.08-.03-.01-.07-.02-.1-.03-.06-.02-.13-.05-.19-.07v-3.43c.06-.02,.12-.05,.19-.07,.03-.01,.06-.02,.1-.03,.09-.03,.19-.06,.29-.08,.03,0,.06-.02,.1-.02,.09-.02,.19-.04,.29-.06,.03,0,.06-.01,.1-.02,.09-.02,.19-.03,.29-.04,.03,0,.06,0,.1,0,.09,0,.19-.01,.29-.02,.03,0,.06,0,.1,0,.1,0,.19,0,.29,0,.03,0,.06,0,.1,0,.05,0,.09,0,.14,0Z"/><path class="dt" d="M40.87,30.98v.87h0c0,.17-.04,.35-.12,.52-.03,.06-.06,.12-.1,.17-.08,.12-.17,.23-.29,.33-.03,.03-.06,.06-.1,.09-.09,.07-.18,.14-.29,.21-.03,.02-.06,.04-.1,.06h0c-.09,.05-.18,.1-.28,.15-.03,.02-.06,.03-.1,.04-.09,.04-.19,.08-.29,.11-.03,.01-.06,.02-.1,.03-.09,.03-.19,.06-.29,.08-.03,0-.06,.02-.1,.02-.09,.02-.19,.04-.29,.06-.03,0-.06,.01-.1,.02-.09,.01-.19,.03-.29,.04-.03,0-.06,0-.1,0-.05,0-.1,0-.15,.01v-4.14c.05,0,.1,0,.15,.01,.03,0,.06,0,.1,0,.1,.01,.19,.02,.29,.04,.03,0,.07,.01,.1,.02,.1,.02,.19,.04,.29,.06,.03,0,.06,.02,.1,.02,.1,.02,.19,.05,.29,.08,.03,.01,.06,.02,.1,.03,.1,.03,.19,.07,.29,.11,.03,.01,.07,.03,.1,.04,.09,.04,.18,.09,.27,.14h.02s.07,.05,.1,.07c.1,.07,.2,.14,.29,.21,.03,.03,.07,.06,.1,.09,.12,.11,.21,.22,.29,.34,.01,.02,.02,.04,.03,.06h.19Z"/><path class="br" d="M35.48,30v3.43s-.06-.03-.1-.04l-.05-.02s-.03-.02-.05-.02c-.08-.04-.16-.08-.24-.13l-.05-.03s-.07-.04-.1-.06c-.1-.07-.2-.14-.28-.21-.03-.03-.07-.06-.1-.09-.12-.11-.21-.23-.29-.35-.04-.06-.07-.13-.1-.19-.06-.14-.09-.29-.1-.44h0v-.87h.17s.01-.02,.02-.04c.07-.12,.17-.24,.29-.35,.03-.03,.06-.06,.1-.09,.09-.07,.18-.14,.28-.21,.03-.02,.06-.04,.1-.06l.03-.02c.08-.05,.17-.09,.26-.13l.05-.02,.05-.02s.06-.03,.1-.04Z"/></g><g class="bk"><path class="ea" d="M34.62,30.5v2.41s-.07-.06-.1-.09v-2.24s.06-.06,.1-.09Z"/><path class="ea" d="M34.24,30.94v1.53c-.04-.06-.07-.13-.1-.19v-1.31h.07s.01-.02,.02-.04Z"/><path class="ea" d="M35.01,30.23v2.96s-.07-.04-.1-.06v-2.84s.06-.04,.1-.06Z"/><path class="ea" d="M35.77,29.89v3.64s-.07-.02-.1-.03v-3.58s.06-.02,.1-.03Z"/><path class="ea" d="M35.39,30.04v3.35l-.05-.02s-.03-.02-.05-.02v-3.26l.05-.02,.05-.02Z"/><path class="ea" d="M36.54,29.71v4.01s-.06-.01-.1-.02v-3.98s.06-.01,.1-.02Z"/><path class="ea" d="M36.15,29.79v3.86s-.07-.02-.1-.02v-3.81s.06-.02,.1-.02Z"/><path class="ea" d="M36.92,29.67v4.11s-.06,0-.1,0v-4.09s.06,0,.1,0Z"/><path class="ea" d="M37.3,29.64v4.15s-.06,0-.1,0v-4.15s.06,0,.1,0Z"/><path class="ea" d="M37.68,29.65v4.15s-.06,0-.1,0v-4.15s.06,0,.1,0Z"/><path class="ea" d="M38.07,29.68v4.09s-.06,0-.1,0v-4.11s.06,0,.1,0Z"/><path class="ea" d="M38.45,29.73v3.99s-.06,.01-.1,.02v-4.02s.07,.01,.1,.02Z"/><path class="ea" d="M39.6,30.09v3.29s-.06,.03-.1,.04v-3.37s.07,.03,.1,.04Z"/><path class="ea" d="M38.83,29.81v3.82s-.06,.02-.1,.02v-3.87s.06,.02,.1,.02Z"/><path class="ea" d="M39.22,29.93v3.6s-.06,.02-.1,.03v-3.66s.06,.02,.1,.03Z"/><path class="ea" d="M39.98,30.29v2.87s-.06,.04-.1,.06v-2.99s.07,.04,.1,.06Z"/><path class="ea" d="M40.36,30.59v2.29s-.06,.06-.1,.09v-2.46s.07,.06,.1,.09Z"/><path class="ea" d="M40.75,30.98v1.39c-.03,.06-.06,.12-.1,.17v-1.62s.02,.04,.03,.06h.06Z"/></g><g><path class="du" d="M39.88,32.43c-1.33,.77-3.49,.76-4.83,0-1.34-.77-1.34-2.02-.02-2.79s3.49-.76,4.83,0c1.34,.77,1.34,2.02,.02,2.79Z"/><path class="br" d="M37.48,32.76c-.87,0-1.69-.19-2.3-.55-.57-.33-.88-.75-.88-1.19s.31-.85,.87-1.17c.6-.35,1.41-.54,2.28-.54s1.69,.19,2.3,.55c.57,.33,.88,.75,.88,1.19s-.31,.85-.87,1.17c-.6,.35-1.41,.54-2.28,.54Z"/><g><path class="dt" d="M35.34,29.75v.28c-.06,.03-.12,.06-.18,.1-.5,.29-.8,.65-.86,1.03,0-.05-.01-.09-.01-.14,0-.43,.31-.85,.87-1.17,.06-.03,.12-.07,.18-.1Z"/><path class="br" d="M40.62,31.05s0,.09-.01,.14c-.06-.39-.36-.75-.87-1.05-.52-.3-1.19-.49-1.92-.54v-.28c.73,.05,1.4,.23,1.92,.54,.57,.33,.88,.75,.88,1.19Z"/><path class="be" d="M37.82,29.32v.28c-.13,0-.26-.01-.38-.01-.78,0-1.52,.16-2.09,.44v-.28c.58-.29,1.31-.44,2.09-.44,.13,0,.26,0,.38,.01Z"/></g></g><g class="bq"><polygon class="av" points="37.72 30.26 37.71 30.49 37.27 30.23 37.27 30 37.72 30.26"/><polygon class="bc" points="38.8 30.19 38.8 30.42 38.45 30.62 38.45 30.39 38.8 30.19"/><polygon class="bc" points="39.34 30.5 39.34 30.73 38.99 30.93 38.99 30.7 39.34 30.5"/><polygon class="av" points="38.53 30.89 38.53 31.12 38.03 30.83 38.03 30.61 38.53 30.89"/><polygon class="bc" points="38.03 30.61 38.03 30.83 37.5 31.15 37.5 30.92 38.03 30.61"/><g class="bq"><g class="au"><path class="av" d="M38.65,31.03v.23c0-.06-.05-.11-.12-.14v-.23c.06,.04,.12,.08,.12,.14h0Z"/></g></g><polygon class="av" points="37.63 31.44 37.63 31.66 37.12 31.37 37.12 31.14 37.63 31.44"/><polygon class="av" points="35.62 31.48 35.62 31.71 35.17 31.45 35.17 31.22 35.62 31.48"/><polygon class="bc" points="37.12 31.14 37.12 31.37 36.47 31.74 36.47 31.51 37.12 31.14"/><g class="bq"><g class="df"><path class="av" d="M37.74,31.58v.23s-.03-.1-.11-.14v-.23c.08,.04,.11,.09,.11,.14h0Z"/></g></g><polygon class="av" points="35.83 31.61 35.83 31.84 35.62 31.71 35.62 31.48 35.83 31.61"/><g class="bq"><g class="cr"><path class="bc" d="M39.28,31.07v.23c0,.13-.12,.26-.29,.36-.22,.13-.55,.21-.83,.11v-.23c.28,.11,.61,.02,.83-.11,.18-.1,.29-.23,.29-.36h0Z"/></g></g><polygon class="av" points="36.37 31.92 36.37 32.15 36.1 31.99 36.1 31.76 36.37 31.92"/><polygon class="av" points="35.75 31.96 35.75 32.19 35.49 32.04 35.49 31.81 35.75 31.96"/><polygon class="bc" points="36.1 31.76 36.1 31.99 35.75 32.19 35.75 31.96 36.1 31.76"/><polygon class="av" points="36.29 32.27 36.29 32.5 36.03 32.35 36.03 32.12 36.29 32.27"/><polygon class="bc" points="36.64 32.07 36.63 32.3 36.29 32.5 36.29 32.27 36.64 32.07"/><g class="bq"><g class="cd"><path class="bc" d="M38.26,31.72v.23c0,.11-.08,.23-.27,.33-.43,.25-.87,.29-1.36,.02v-.23c.49,.27,.93,.23,1.36-.02,.18-.11,.27-.23,.27-.33h0Z"/></g></g><path class="du" d="M38.16,31.54c.16,.13,.13,.34-.17,.52-.43,.25-.87,.29-1.36,.02l-.35,.2-.26-.15,.35-.2-.28-.16-.35,.2-.26-.15,.35-.2-.22-.13-.45-.26,.26-.15,.45,.26,1.84-1.07-.45-.26,.26-.15,.45,.26,.22,.13,.35-.2,.26,.15-.35,.2,.28,.16,.35-.2,.26,.15-.35,.2c.45,.27,.33,.54,0,.73-.22,.13-.55,.21-.83,.11Zm-1.18,.28c.14,.08,.33,.11,.58-.03,.17-.1,.26-.23,.07-.34l-.51-.3-.65,.38,.51,.3h0Zm1.05-1.21l-.54,.31,.5,.29c.16,.09,.35,.09,.52-.01,.22-.13,.14-.23,.02-.3l-.5-.29h0Z"/></g></g><g><g><path class="be" d="M37.82,28.47v4.14s-.09,0-.14,0c-.03,0-.06,0-.1,0-.1,0-.19,0-.29,0-.03,0-.06,0-.1,0-.1,0-.19-.01-.29-.02-.03,0-.06,0-.1,0-.1-.01-.19-.02-.29-.04-.03,0-.06-.01-.1-.02-.1-.02-.19-.04-.29-.06-.03,0-.07-.02-.1-.02-.1-.03-.19-.05-.29-.08-.03-.01-.07-.02-.1-.03-.06-.02-.13-.05-.19-.07v-3.43c.06-.03,.12-.05,.19-.07,.03-.01,.06-.02,.1-.03,.09-.03,.19-.06,.29-.08,.03,0,.06-.02,.1-.02,.09-.02,.19-.04,.29-.06,.03,0,.06-.01,.1-.02,.09-.02,.19-.03,.29-.04,.03,0,.06,0,.1,0,.09,0,.19-.01,.29-.02,.03,0,.06,0,.1,0,.1,0,.19,0,.29,0,.03,0,.06,0,.1,0,.05,0,.09,0,.14,0Z"/><path class="dt" d="M40.87,29.8v.87h0c0,.17-.04,.35-.12,.52-.03,.06-.06,.12-.1,.17-.08,.11-.17,.23-.29,.33-.03,.03-.06,.06-.1,.09-.09,.07-.18,.14-.29,.21-.03,.02-.06,.04-.1,.06h0c-.09,.05-.18,.1-.28,.15-.03,.02-.06,.03-.1,.04-.09,.04-.19,.08-.29,.11-.03,.01-.06,.02-.1,.03-.09,.03-.19,.06-.29,.08-.03,0-.06,.02-.1,.02-.09,.02-.19,.04-.29,.06-.03,0-.06,.01-.1,.02-.09,.01-.19,.03-.29,.04-.03,0-.06,0-.1,0-.05,0-.1,0-.15,.01v-4.14c.05,0,.1,0,.15,.01,.03,0,.06,0,.1,0,.1,.01,.19,.02,.29,.04,.03,0,.07,.01,.1,.02,.1,.02,.19,.04,.29,.06,.03,0,.06,.02,.1,.02,.1,.02,.19,.05,.29,.08,.03,.01,.06,.02,.1,.03,.1,.03,.19,.07,.29,.11,.03,.01,.07,.03,.1,.04,.09,.04,.18,.09,.27,.14h.02s.07,.05,.1,.07c.1,.07,.2,.14,.29,.21,.03,.03,.07,.06,.1,.09,.12,.11,.21,.22,.29,.34,.01,.02,.02,.04,.03,.06h.19Z"/><path class="br" d="M35.48,28.81v3.43s-.06-.03-.1-.04l-.05-.02s-.03-.02-.05-.02c-.08-.04-.16-.08-.24-.13l-.05-.03s-.07-.04-.1-.06c-.1-.07-.2-.14-.28-.21-.03-.03-.07-.06-.1-.09-.12-.11-.21-.23-.29-.35-.04-.06-.07-.13-.1-.19-.06-.14-.09-.29-.1-.44h0v-.87h.17s.01-.02,.02-.04c.07-.12,.17-.24,.29-.35,.03-.03,.06-.06,.1-.09,.09-.07,.18-.14,.28-.21,.03-.02,.06-.04,.1-.06l.03-.02c.08-.05,.17-.09,.26-.13l.05-.02,.05-.02s.06-.03,.1-.04Z"/></g><g class="bk"><path class="ea" d="M34.62,29.32v2.41s-.07-.06-.1-.09v-2.24s.06-.06,.1-.09Z"/><path class="ea" d="M34.24,29.76v1.53c-.04-.06-.07-.13-.1-.19v-1.31h.07s.01-.02,.02-.04Z"/><path class="ea" d="M35.01,29.05v2.96s-.07-.04-.1-.06v-2.84s.06-.04,.1-.06Z"/><path class="ea" d="M35.77,28.71v3.64s-.07-.02-.1-.03v-3.58s.06-.02,.1-.03Z"/><path class="ea" d="M35.39,28.85v3.35l-.05-.02s-.03-.02-.05-.02v-3.26l.05-.02,.05-.02Z"/><path class="ea" d="M36.54,28.53v4.01s-.06-.01-.1-.02v-3.98s.06-.01,.1-.02Z"/><path class="ea" d="M36.15,28.6v3.86s-.07-.02-.1-.02v-3.81s.06-.02,.1-.02Z"/><path class="ea" d="M36.92,28.48v4.11s-.06,0-.1,0v-4.09s.06,0,.1,0Z"/><path class="ea" d="M37.3,28.46v4.15s-.06,0-.1,0v-4.15s.06,0,.1,0Z"/><path class="ea" d="M37.68,28.46v4.15s-.06,0-.1,0v-4.15s.06,0,.1,0Z"/><path class="ea" d="M38.07,28.49v4.09s-.06,0-.1,0v-4.11s.06,0,.1,0Z"/><path class="ea" d="M38.45,28.55v3.99s-.06,.01-.1,.02v-4.02s.07,.01,.1,.02Z"/><path class="ea" d="M39.6,28.9v3.29s-.06,.03-.1,.04v-3.37s.07,.03,.1,.04Z"/><path class="ea" d="M38.83,28.63v3.82s-.06,.02-.1,.02v-3.87s.06,.02,.1,.02Z"/><path class="ea" d="M39.22,28.74v3.6s-.06,.02-.1,.03v-3.66s.06,.02,.1,.03Z"/><path class="ea" d="M39.98,29.11v2.87s-.06,.04-.1,.06v-2.99s.07,.04,.1,.06Z"/><path class="ea" d="M40.36,29.4v2.29s-.06,.06-.1,.09v-2.46s.07,.06,.1,.09Z"/><path class="ea" d="M40.75,29.8v1.39c-.03,.06-.06,.12-.1,.17v-1.62s.02,.04,.03,.06h.06Z"/></g><g><path class="du" d="M39.88,31.25c-1.33,.77-3.49,.76-4.83,0-1.34-.77-1.34-2.02-.02-2.79s3.49-.76,4.83,0c1.34,.77,1.34,2.02,.02,2.79Z"/><path class="br" d="M37.48,31.57c-.87,0-1.69-.19-2.3-.55-.57-.33-.88-.75-.88-1.19s.31-.85,.87-1.17c.6-.35,1.41-.54,2.28-.54s1.69,.19,2.3,.55c.57,.33,.88,.75,.88,1.19s-.31,.85-.87,1.17c-.6,.35-1.41,.54-2.28,.54Z"/><g><path class="dt" d="M35.34,28.57v.28c-.06,.03-.12,.06-.18,.1-.5,.29-.8,.65-.86,1.03,0-.05-.01-.09-.01-.14,0-.43,.31-.85,.87-1.17,.06-.03,.12-.07,.18-.1Z"/><path class="br" d="M40.62,29.86s0,.09-.01,.14c-.06-.39-.36-.75-.87-1.05-.52-.3-1.19-.49-1.92-.54v-.28c.73,.05,1.4,.23,1.92,.54,.57,.33,.88,.75,.88,1.19Z"/><path class="be" d="M37.82,28.14v.28c-.13,0-.26-.01-.38-.01-.78,0-1.52,.16-2.09,.44v-.28c.58-.29,1.31-.44,2.09-.44,.13,0,.26,0,.38,.01Z"/></g></g><g class="bq"><polygon class="av" points="37.72 29.08 37.71 29.31 37.27 29.05 37.27 28.82 37.72 29.08"/><polygon class="bc" points="38.8 29 38.8 29.23 38.45 29.43 38.45 29.2 38.8 29"/><polygon class="bc" points="39.34 29.31 39.34 29.54 38.99 29.74 38.99 29.52 39.34 29.31"/><polygon class="av" points="38.53 29.71 38.53 29.94 38.03 29.65 38.03 29.42 38.53 29.71"/><polygon class="bc" points="38.03 29.42 38.03 29.65 37.5 29.96 37.5 29.73 38.03 29.42"/><g class="bq"><g class="db"><path class="av" d="M38.65,29.85v.23c0-.06-.05-.11-.12-.14v-.23c.06,.04,.12,.08,.12,.14h0Z"/></g></g><polygon class="av" points="37.63 30.25 37.63 30.48 37.12 30.18 37.12 29.95 37.63 30.25"/><polygon class="av" points="35.62 30.3 35.62 30.53 35.17 30.27 35.17 30.04 35.62 30.3"/><polygon class="bc" points="37.12 29.95 37.12 30.18 36.47 30.56 36.47 30.33 37.12 29.95"/><g class="bq"><g class="cu"><path class="av" d="M37.74,30.39v.23s-.03-.1-.11-.14v-.23c.08,.04,.11,.09,.11,.14h0Z"/></g></g><polygon class="av" points="35.83 30.42 35.83 30.65 35.62 30.53 35.62 30.3 35.83 30.42"/><g class="bq"><g class="bs"><path class="bc" d="M39.28,29.89v.23c0,.13-.12,.26-.29,.36-.22,.13-.55,.21-.83,.11v-.23c.28,.11,.61,.02,.83-.11,.18-.1,.29-.23,.29-.36h0Z"/></g></g><polygon class="av" points="36.37 30.73 36.37 30.96 36.1 30.8 36.1 30.58 36.37 30.73"/><polygon class="av" points="35.75 30.78 35.75 31.01 35.49 30.85 35.49 30.63 35.75 30.78"/><polygon class="bc" points="36.1 30.58 36.1 30.8 35.75 31.01 35.75 30.78 36.1 30.58"/><polygon class="av" points="36.29 31.09 36.29 31.32 36.03 31.16 36.03 30.94 36.29 31.09"/><polygon class="bc" points="36.64 30.89 36.63 31.11 36.29 31.32 36.29 31.09 36.64 30.89"/><g class="bq"><g class="de"><path class="bc" d="M38.26,30.54v.23c0,.11-.08,.23-.27,.33-.43,.25-.87,.29-1.36,.02v-.23c.49,.27,.93,.23,1.36-.02,.18-.11,.27-.23,.27-.33h0Z"/></g></g><path class="du" d="M38.16,30.35c.16,.13,.13,.34-.17,.52-.43,.25-.87,.29-1.36,.02l-.35,.2-.26-.15,.35-.2-.28-.16-.35,.2-.26-.15,.35-.2-.22-.13-.45-.26,.26-.15,.45,.26,1.84-1.07-.45-.26,.26-.15,.45,.26,.22,.13,.35-.2,.26,.15-.35,.2,.28,.16,.35-.2,.26,.15-.35,.2c.45,.27,.33,.54,0,.73-.22,.13-.55,.21-.83,.11Zm-1.18,.28c.14,.08,.33,.11,.58-.03,.17-.1,.26-.23,.07-.34l-.51-.3-.65,.38,.51,.3h0Zm1.05-1.21l-.54,.31,.5,.29c.16,.09,.35,.09,.52-.01,.22-.13,.14-.23,.02-.3l-.5-.29h0Z"/></g></g><g><g><path class="be" d="M37.82,27.29v4.14s-.09,0-.14,0c-.03,0-.06,0-.1,0-.1,0-.19,0-.29,0-.03,0-.06,0-.1,0-.1,0-.19-.01-.29-.02-.03,0-.06,0-.1,0-.1-.01-.19-.02-.29-.04-.03,0-.06-.01-.1-.02-.1-.02-.19-.04-.29-.06-.03,0-.07-.02-.1-.02-.1-.03-.19-.05-.29-.08-.03-.01-.07-.02-.1-.03-.06-.02-.13-.05-.19-.07v-3.43c.06-.03,.12-.05,.19-.07,.03-.01,.06-.02,.1-.03,.09-.03,.19-.06,.29-.08,.03,0,.06-.02,.1-.02,.09-.02,.19-.04,.29-.06,.03,0,.06-.01,.1-.02,.09-.02,.19-.03,.29-.04,.03,0,.06,0,.1,0,.09,0,.19-.01,.29-.02,.03,0,.06,0,.1,0,.1,0,.19,0,.29,0,.03,0,.06,0,.1,0,.05,0,.09,0,.14,0Z"/><path class="dt" d="M40.87,28.61v.87h0c0,.17-.04,.35-.12,.52-.03,.06-.06,.12-.1,.17-.08,.11-.17,.23-.29,.33-.03,.03-.06,.06-.1,.09-.09,.07-.18,.14-.29,.21-.03,.02-.06,.04-.1,.06h0c-.09,.05-.18,.1-.28,.15-.03,.02-.06,.03-.1,.04-.09,.04-.19,.08-.29,.11-.03,.01-.06,.02-.1,.03-.09,.03-.19,.06-.29,.08-.03,0-.06,.02-.1,.02-.09,.02-.19,.04-.29,.06-.03,0-.06,.01-.1,.02-.09,.01-.19,.03-.29,.04-.03,0-.06,0-.1,0-.05,0-.1,0-.15,.01v-4.14c.05,0,.1,0,.15,.01,.03,0,.06,0,.1,0,.1,.01,.19,.02,.29,.04,.03,0,.07,.01,.1,.02,.1,.02,.19,.04,.29,.06,.03,0,.06,.02,.1,.02,.1,.02,.19,.05,.29,.08,.03,.01,.06,.02,.1,.03,.1,.03,.19,.07,.29,.11,.03,.01,.07,.03,.1,.04,.09,.04,.18,.09,.27,.14h.02s.07,.05,.1,.07c.1,.07,.2,.14,.29,.21,.03,.03,.07,.06,.1,.09,.12,.11,.21,.22,.29,.34,.01,.02,.02,.04,.03,.06h.19Z"/><path class="br" d="M35.48,27.63v3.43s-.06-.03-.1-.04l-.05-.02s-.03-.02-.05-.02c-.08-.04-.16-.08-.24-.13l-.05-.03s-.07-.04-.1-.06c-.1-.07-.2-.14-.28-.21-.03-.03-.07-.06-.1-.09-.12-.11-.21-.23-.29-.35-.04-.06-.07-.13-.1-.19-.06-.14-.09-.29-.1-.44h0v-.87h.17s.01-.02,.02-.04c.07-.12,.17-.24,.29-.35,.03-.03,.06-.06,.1-.09,.09-.07,.18-.14,.28-.21,.03-.02,.06-.04,.1-.06l.03-.02c.08-.05,.17-.09,.26-.13l.05-.02,.05-.02s.06-.03,.1-.04Z"/></g><g class="bk"><path class="ea" d="M34.62,28.13v2.41s-.07-.06-.1-.09v-2.24s.06-.06,.1-.09Z"/><path class="ea" d="M34.24,28.57v1.53c-.04-.06-.07-.13-.1-.19v-1.31h.07s.01-.02,.02-.04Z"/><path class="ea" d="M35.01,27.86v2.96s-.07-.04-.1-.06v-2.84s.06-.04,.1-.06Z"/><path class="ea" d="M35.77,27.52v3.64s-.07-.02-.1-.03v-3.58s.06-.02,.1-.03Z"/><path class="ea" d="M35.39,27.67v3.35l-.05-.02s-.03-.02-.05-.02v-3.26l.05-.02,.05-.02Z"/><path class="ea" d="M36.54,27.34v4.01s-.06-.01-.1-.02v-3.98s.06-.01,.1-.02Z"/><path class="ea" d="M36.15,27.42v3.86s-.07-.02-.1-.02v-3.81s.06-.02,.1-.02Z"/><path class="ea" d="M36.92,27.3v4.11s-.06,0-.1,0v-4.09s.06,0,.1,0Z"/><path class="ea" d="M37.3,27.27v4.15s-.06,0-.1,0v-4.15s.06,0,.1,0Z"/><path class="ea" d="M37.68,27.28v4.15s-.06,0-.1,0v-4.15s.06,0,.1,0Z"/><path class="ea" d="M38.07,27.31v4.09s-.06,0-.1,0v-4.11s.06,0,.1,0Z"/><path class="ea" d="M38.45,27.36v3.99s-.06,.01-.1,.02v-4.02s.07,.01,.1,.02Z"/><path class="ea" d="M39.6,27.72v3.29s-.06,.03-.1,.04v-3.37s.07,.03,.1,.04Z"/><path class="ea" d="M38.83,27.44v3.82s-.06,.02-.1,.02v-3.87s.06,.02,.1,.02Z"/><path class="ea" d="M39.22,27.56v3.6s-.06,.02-.1,.03v-3.66s.06,.02,.1,.03Z"/><path class="ea" d="M39.98,27.93v2.87s-.06,.04-.1,.06v-2.99s.07,.04,.1,.06Z"/><path class="ea" d="M40.36,28.22v2.29s-.06,.06-.1,.09v-2.46s.07,.06,.1,.09Z"/><path class="ea" d="M40.75,28.61v1.39c-.03,.06-.06,.12-.1,.17v-1.62s.02,.04,.03,.06h.06Z"/></g><g><path class="du" d="M39.88,30.06c-1.33,.77-3.49,.76-4.83,0-1.34-.77-1.34-2.02-.02-2.79s3.49-.76,4.83,0c1.34,.77,1.34,2.02,.02,2.79Z"/><path class="br" d="M37.48,30.39c-.87,0-1.69-.19-2.3-.55-.57-.33-.88-.75-.88-1.19s.31-.85,.87-1.17c.6-.35,1.41-.54,2.28-.54s1.69,.19,2.3,.55c.57,.33,.88,.75,.88,1.19s-.31,.85-.87,1.17c-.6,.35-1.41,.54-2.28,.54Z"/><g><path class="dt" d="M35.34,27.39v.28c-.06,.03-.12,.06-.18,.1-.5,.29-.8,.65-.86,1.03,0-.05-.01-.09-.01-.14,0-.43,.31-.85,.87-1.17,.06-.03,.12-.07,.18-.1Z"/><path class="br" d="M40.62,28.68s0,.09-.01,.14c-.06-.39-.36-.75-.87-1.05-.52-.3-1.19-.49-1.92-.54v-.28c.73,.05,1.4,.23,1.92,.54,.57,.33,.88,.75,.88,1.19Z"/><path class="be" d="M37.82,26.96v.28c-.13,0-.26-.01-.38-.01-.78,0-1.52,.16-2.09,.44v-.28c.58-.29,1.31-.44,2.09-.44,.13,0,.26,0,.38,.01Z"/></g></g><g class="bq"><polygon class="av" points="37.72 27.89 37.71 28.12 37.27 27.86 37.27 27.63 37.72 27.89"/><polygon class="bc" points="38.8 27.82 38.8 28.05 38.45 28.25 38.45 28.02 38.8 27.82"/><polygon class="bc" points="39.34 28.13 39.34 28.36 38.99 28.56 38.99 28.33 39.34 28.13"/><polygon class="av" points="38.53 28.52 38.53 28.75 38.03 28.47 38.03 28.24 38.53 28.52"/><polygon class="bc" points="38.03 28.24 38.03 28.47 37.5 28.78 37.5 28.55 38.03 28.24"/><g class="bq"><g class="bp"><path class="av" d="M38.65,28.67v.23c0-.06-.05-.11-.12-.14v-.23c.06,.04,.12,.08,.12,.14h0Z"/></g></g><polygon class="av" points="37.63 29.07 37.63 29.3 37.12 29 37.12 28.77 37.63 29.07"/><polygon class="av" points="35.62 29.11 35.62 29.34 35.17 29.08 35.17 28.85 35.62 29.11"/><polygon class="bc" points="37.12 28.77 37.12 29 36.47 29.37 36.47 29.15 37.12 28.77"/><g class="bq"><g class="ds"><path class="av" d="M37.74,29.21v.23s-.03-.1-.11-.14v-.23c.08,.04,.11,.09,.11,.14h0Z"/></g></g><polygon class="av" points="35.83 29.24 35.83 29.47 35.62 29.34 35.62 29.11 35.83 29.24"/><g class="bq"><g class="ba"><path class="bc" d="M39.28,28.7v.23c0,.13-.12,.26-.29,.36-.22,.13-.55,.21-.83,.11v-.23c.28,.11,.61,.02,.83-.11,.18-.1,.29-.23,.29-.36h0Z"/></g></g><polygon class="av" points="36.37 29.55 36.37 29.78 36.1 29.62 36.1 29.39 36.37 29.55"/><polygon class="av" points="35.75 29.59 35.75 29.82 35.49 29.67 35.49 29.44 35.75 29.59"/><polygon class="bc" points="36.1 29.39 36.1 29.62 35.75 29.82 35.75 29.59 36.1 29.39"/><polygon class="av" points="36.29 29.9 36.29 30.13 36.03 29.98 36.03 29.75 36.29 29.9"/><polygon class="bc" points="36.64 29.7 36.63 29.93 36.29 30.13 36.29 29.9 36.64 29.7"/><g class="bq"><g class="dl"><path class="bc" d="M38.26,29.35v.23c0,.11-.08,.23-.27,.33-.43,.25-.87,.29-1.36,.02v-.23c.49,.27,.93,.23,1.36-.02,.18-.11,.27-.23,.27-.33h0Z"/></g></g><path class="du" d="M38.16,29.17c.16,.13,.13,.34-.17,.52-.43,.25-.87,.29-1.36,.02l-.35,.2-.26-.15,.35-.2-.28-.16-.35,.2-.26-.15,.35-.2-.22-.13-.45-.26,.26-.15,.45,.26,1.84-1.07-.45-.26,.26-.15,.45,.26,.22,.13,.35-.2,.26,.15-.35,.2,.28,.16,.35-.2,.26,.15-.35,.2c.45,.27,.33,.54,0,.73-.22,.13-.55,.21-.83,.11Zm-1.18,.28c.14,.08,.33,.11,.58-.03,.17-.1,.26-.23,.07-.34l-.51-.3-.65,.38,.51,.3h0Zm1.05-1.2l-.54,.31,.5,.29c.16,.09,.35,.09,.52-.01,.22-.13,.14-.23,.02-.3l-.5-.29h0Z"/></g></g><g><g><path class="be" d="M37.82,26.1v4.14s-.09,0-.14,0c-.03,0-.06,0-.1,0-.1,0-.19,0-.29,0-.03,0-.06,0-.1,0-.1,0-.19-.01-.29-.02-.03,0-.06,0-.1,0-.1-.01-.19-.02-.29-.04-.03,0-.06-.01-.1-.02-.1-.02-.19-.04-.29-.06-.03,0-.07-.02-.1-.02-.1-.03-.19-.05-.29-.08-.03-.01-.07-.02-.1-.03-.06-.02-.13-.05-.19-.07v-3.43c.06-.03,.12-.05,.19-.07,.03-.01,.06-.02,.1-.03,.09-.03,.19-.06,.29-.08,.03,0,.06-.02,.1-.02,.09-.02,.19-.04,.29-.06,.03,0,.06-.01,.1-.02,.09-.02,.19-.03,.29-.04,.03,0,.06,0,.1,0,.09,0,.19-.01,.29-.02,.03,0,.06,0,.1,0,.1,0,.19,0,.29,0,.03,0,.06,0,.1,0,.05,0,.09,0,.14,0Z"/><path class="dt" d="M40.87,27.43v.87h0c0,.17-.04,.35-.12,.52-.03,.06-.06,.12-.1,.17-.08,.12-.17,.23-.29,.33-.03,.03-.06,.06-.1,.09-.09,.07-.18,.14-.29,.21-.03,.02-.06,.04-.1,.06h0c-.09,.05-.18,.1-.28,.15-.03,.02-.06,.03-.1,.04-.09,.04-.19,.08-.29,.11-.03,.01-.06,.02-.1,.03-.09,.03-.19,.06-.29,.08-.03,0-.06,.02-.1,.02-.09,.02-.19,.04-.29,.06-.03,0-.06,.01-.1,.02-.09,.01-.19,.03-.29,.04-.03,0-.06,0-.1,0-.05,0-.1,0-.15,.01v-4.14c.05,0,.1,0,.15,.01,.03,0,.06,0,.1,0,.1,.01,.19,.02,.29,.04,.03,0,.07,.01,.1,.02,.1,.02,.19,.04,.29,.06,.03,0,.06,.02,.1,.02,.1,.02,.19,.05,.29,.08,.03,.01,.06,.02,.1,.03,.1,.03,.19,.07,.29,.11,.03,.01,.07,.03,.1,.04,.09,.04,.18,.09,.27,.14h.02s.07,.05,.1,.07c.1,.07,.2,.14,.29,.21,.03,.03,.07,.06,.1,.09,.12,.11,.21,.22,.29,.34,.01,.02,.02,.04,.03,.06h.19Z"/><path class="br" d="M35.48,26.44v3.43s-.06-.03-.1-.04l-.05-.02s-.03-.02-.05-.02c-.08-.04-.16-.08-.24-.13l-.05-.03s-.07-.04-.1-.06c-.1-.07-.2-.14-.28-.21-.03-.03-.07-.06-.1-.09-.12-.11-.21-.23-.29-.35-.04-.06-.07-.13-.1-.19-.06-.14-.09-.29-.1-.44h0v-.87h.17s.01-.02,.02-.04c.07-.12,.17-.24,.29-.35,.03-.03,.06-.06,.1-.09,.09-.07,.18-.14,.28-.21,.03-.02,.06-.04,.1-.06l.03-.02c.08-.05,.17-.09,.26-.13l.05-.02,.05-.02s.06-.03,.1-.04Z"/></g><g class="bk"><path class="ea" d="M34.62,26.95v2.41s-.07-.06-.1-.09v-2.24s.06-.06,.1-.09Z"/><path class="ea" d="M34.24,27.39v1.53c-.04-.06-.07-.13-.1-.19v-1.31h.07s.01-.02,.02-.04Z"/><path class="ea" d="M35.01,26.68v2.96s-.07-.04-.1-.06v-2.84s.06-.04,.1-.06Z"/><path class="ea" d="M35.77,26.34v3.64s-.07-.02-.1-.03v-3.58s.06-.02,.1-.03Z"/><path class="ea" d="M35.39,26.48v3.35l-.05-.02s-.03-.02-.05-.02v-3.26l.05-.02,.05-.02Z"/><path class="ea" d="M36.54,26.16v4.01s-.06-.01-.1-.02v-3.98s.06-.01,.1-.02Z"/><path class="ea" d="M36.15,26.23v3.86s-.07-.02-.1-.02v-3.81s.06-.02,.1-.02Z"/><path class="ea" d="M36.92,26.11v4.11s-.06,0-.1,0v-4.09s.06,0,.1,0Z"/><path class="ea" d="M37.3,26.09v4.15s-.06,0-.1,0v-4.15s.06,0,.1,0Z"/><path class="ea" d="M37.68,26.09v4.15s-.06,0-.1,0v-4.15s.06,0,.1,0Z"/><path class="ea" d="M38.07,26.12v4.09s-.06,0-.1,0v-4.11s.06,0,.1,0Z"/><path class="ea" d="M38.45,26.18v3.99s-.06,.01-.1,.02v-4.02s.07,.01,.1,.02Z"/><path class="ea" d="M39.6,26.53v3.29s-.06,.03-.1,.04v-3.37s.07,.03,.1,.04Z"/><path class="ea" d="M38.83,26.26v3.82s-.06,.02-.1,.02v-3.87s.06,.02,.1,.02Z"/><path class="ea" d="M39.22,26.38v3.6s-.06,.02-.1,.03v-3.66s.06,.02,.1,.03Z"/><path class="ea" d="M39.98,26.74v2.87s-.06,.04-.1,.06v-2.99s.07,.04,.1,.06Z"/><path class="ea" d="M40.36,27.04v2.29s-.06,.06-.1,.09v-2.46s.07,.06,.1,.09Z"/><path class="ea" d="M40.75,27.43v1.39c-.03,.06-.06,.12-.1,.17v-1.62s.02,.04,.03,.06h.06Z"/></g><g><path class="du" d="M39.88,28.88c-1.33,.77-3.49,.76-4.83,0-1.34-.77-1.34-2.02-.02-2.79,1.33-.77,3.49-.76,4.83,0,1.34,.77,1.34,2.02,.02,2.79Z"/><path class="br" d="M37.48,29.2c-.87,0-1.69-.19-2.3-.55-.57-.33-.88-.75-.88-1.19s.31-.85,.87-1.17c.6-.35,1.41-.54,2.28-.54s1.69,.19,2.3,.55c.57,.33,.88,.75,.88,1.19s-.31,.85-.87,1.17c-.6,.35-1.41,.54-2.28,.54Z"/><g><path class="dt" d="M35.34,26.2v.28c-.06,.03-.12,.06-.18,.1-.5,.29-.8,.65-.86,1.03,0-.05-.01-.09-.01-.14,0-.43,.31-.85,.87-1.17,.06-.03,.12-.07,.18-.1Z"/><path class="br" d="M40.62,27.49s0,.09-.01,.14c-.06-.39-.36-.75-.87-1.05-.52-.3-1.19-.49-1.92-.54v-.28c.73,.05,1.4,.23,1.92,.54,.57,.33,.88,.75,.88,1.19Z"/><path class="be" d="M37.82,25.77v.28c-.13,0-.26-.01-.38-.01-.78,0-1.52,.16-2.09,.44v-.28c.58-.29,1.31-.44,2.09-.44,.13,0,.26,0,.38,.01Z"/></g></g><g class="bq"><polygon class="av" points="37.72 26.71 37.71 26.94 37.27 26.68 37.27 26.45 37.72 26.71"/><polygon class="bc" points="38.8 26.63 38.8 26.86 38.45 27.06 38.45 26.84 38.8 26.63"/><polygon class="bc" points="39.34 26.94 39.34 27.17 38.99 27.38 38.99 27.15 39.34 26.94"/><polygon class="av" points="38.53 27.34 38.53 27.57 38.03 27.28 38.03 27.05 38.53 27.34"/><polygon class="bc" points="38.03 27.05 38.03 27.28 37.5 27.59 37.5 27.36 38.03 27.05"/><g class="bq"><g class="cc"><path class="av" d="M38.65,27.48v.23c0-.06-.05-.11-.12-.14v-.23c.06,.04,.12,.08,.12,.14h0Z"/></g></g><polygon class="av" points="37.63 27.88 37.63 28.11 37.12 27.81 37.12 27.59 37.63 27.88"/><polygon class="av" points="35.62 27.93 35.62 28.16 35.17 27.9 35.17 27.67 35.62 27.93"/><polygon class="bc" points="37.12 27.59 37.12 27.81 36.47 28.19 36.47 27.96 37.12 27.59"/><g class="bq"><g class="ec"><path class="av" d="M37.74,28.02v.23s-.03-.1-.11-.14v-.23c.08,.04,.11,.09,.11,.14h0Z"/></g></g><polygon class="av" points="35.83 28.06 35.83 28.28 35.62 28.16 35.62 27.93 35.83 28.06"/><g class="bq"><g class="ce"><path class="bc" d="M39.28,27.52v.23c0,.13-.12,.26-.29,.36-.22,.13-.55,.21-.83,.11v-.23c.28,.11,.61,.02,.83-.11,.18-.1,.29-.23,.29-.36h0Z"/></g></g><polygon class="av" points="36.37 28.37 36.37 28.59 36.1 28.43 36.1 28.21 36.37 28.37"/><polygon class="av" points="35.75 28.41 35.75 28.64 35.49 28.49 35.49 28.26 35.75 28.41"/><polygon class="bc" points="36.1 28.21 36.1 28.43 35.75 28.64 35.75 28.41 36.1 28.21"/><polygon class="av" points="36.29 28.72 36.29 28.95 36.03 28.8 36.03 28.57 36.29 28.72"/><polygon class="bc" points="36.64 28.52 36.63 28.74 36.29 28.95 36.29 28.72 36.64 28.52"/><g class="bq"><g class="dw"><path class="bc" d="M38.26,28.17v.23c0,.11-.08,.23-.27,.33-.43,.25-.87,.29-1.36,.02v-.23c.49,.27,.93,.23,1.36-.02,.18-.11,.27-.23,.27-.33h0Z"/></g></g><path class="du" d="M38.16,27.98c.16,.13,.13,.34-.17,.52-.43,.25-.87,.29-1.36,.02l-.35,.2-.26-.15,.35-.2-.28-.16-.35,.2-.26-.15,.35-.2-.22-.13-.45-.26,.26-.15,.45,.26,1.84-1.07-.45-.26,.26-.15,.45,.26,.22,.13,.35-.2,.26,.15-.35,.2,.28,.16,.35-.2,.26,.15-.35,.2c.45,.27,.33,.54,0,.73-.22,.13-.55,.21-.83,.11Zm-1.18,.28c.14,.08,.33,.11,.58-.03,.17-.1,.26-.23,.07-.34l-.51-.3-.65,.38,.51,.3h0Zm1.05-1.2l-.54,.31,.5,.29c.16,.09,.35,.09,.52-.01,.22-.13,.14-.23,.02-.3l-.5-.29h0Z"/></g></g><g><g><path class="be" d="M37.82,24.92v4.14s-.09,0-.14,0c-.03,0-.06,0-.1,0-.1,0-.19,0-.29,0-.03,0-.06,0-.1,0-.1,0-.19-.01-.29-.02-.03,0-.06,0-.1,0-.1-.01-.19-.02-.29-.04-.03,0-.06-.01-.1-.02-.1-.02-.19-.04-.29-.06-.03,0-.07-.02-.1-.02-.1-.03-.19-.05-.29-.08-.03-.01-.07-.02-.1-.03-.06-.02-.13-.05-.19-.07v-3.43c.06-.03,.12-.05,.19-.07,.03-.01,.06-.02,.1-.03,.09-.03,.19-.06,.29-.08,.03,0,.06-.02,.1-.02,.09-.02,.19-.04,.29-.06,.03,0,.06-.01,.1-.02,.09-.02,.19-.03,.29-.04,.03,0,.06,0,.1,0,.09,0,.19-.01,.29-.02,.03,0,.06,0,.1,0,.1,0,.19,0,.29,0,.03,0,.06,0,.1,0,.05,0,.09,0,.14,0Z"/><path class="dt" d="M40.87,26.24v.87h0c0,.17-.04,.35-.12,.52-.03,.06-.06,.12-.1,.17-.08,.11-.17,.23-.29,.33-.03,.03-.06,.06-.1,.09-.09,.07-.18,.14-.29,.21-.03,.02-.06,.04-.1,.06h0c-.09,.05-.18,.1-.28,.15-.03,.02-.06,.03-.1,.04-.09,.04-.19,.08-.29,.11-.03,.01-.06,.02-.1,.03-.09,.03-.19,.06-.29,.08-.03,0-.06,.02-.1,.02-.09,.02-.19,.04-.29,.06-.03,0-.06,.01-.1,.02-.09,.01-.19,.03-.29,.04-.03,0-.06,0-.1,0-.05,0-.1,0-.15,.01v-4.14c.05,0,.1,0,.15,.01,.03,0,.06,0,.1,0,.1,.01,.19,.02,.29,.04,.03,0,.07,.01,.1,.02,.1,.02,.19,.04,.29,.06,.03,0,.06,.02,.1,.02,.1,.02,.19,.05,.29,.08,.03,.01,.06,.02,.1,.03,.1,.03,.19,.07,.29,.11,.03,.01,.07,.03,.1,.04,.09,.04,.18,.09,.27,.14h.02s.07,.05,.1,.07c.1,.07,.2,.14,.29,.21,.03,.03,.07,.06,.1,.09,.12,.11,.21,.22,.29,.34,.01,.02,.02,.04,.03,.06h.19Z"/><path class="br" d="M35.48,25.26v3.43s-.06-.03-.1-.04l-.05-.02s-.03-.02-.05-.02c-.08-.04-.16-.08-.24-.13l-.05-.03s-.07-.04-.1-.06c-.1-.07-.2-.14-.28-.21-.03-.03-.07-.06-.1-.09-.12-.11-.21-.23-.29-.35-.04-.06-.07-.13-.1-.19-.06-.14-.09-.29-.1-.44h0v-.87h.17s.01-.02,.02-.04c.07-.12,.17-.24,.29-.35,.03-.03,.06-.06,.1-.09,.09-.07,.18-.14,.28-.21,.03-.02,.06-.04,.1-.06l.03-.02c.08-.05,.17-.09,.26-.13l.05-.02,.05-.02s.06-.03,.1-.04Z"/></g><g class="bk"><path class="ea" d="M34.62,25.77v2.41s-.07-.06-.1-.09v-2.24s.06-.06,.1-.09Z"/><path class="ea" d="M34.24,26.21v1.53c-.04-.06-.07-.13-.1-.19v-1.31h.07s.01-.02,.02-.04Z"/><path class="ea" d="M35.01,25.5v2.96s-.07-.04-.1-.06v-2.84s.06-.04,.1-.06Z"/><path class="ea" d="M35.77,25.16v3.64s-.07-.02-.1-.03v-3.58s.06-.02,.1-.03Z"/><path class="ea" d="M35.39,25.3v3.35l-.05-.02s-.03-.02-.05-.02v-3.26l.05-.02,.05-.02Z"/><path class="ea" d="M36.54,24.97v4.01s-.06-.01-.1-.02v-3.98s.06-.01,.1-.02Z"/><path class="ea" d="M36.15,25.05v3.86s-.07-.02-.1-.02v-3.81s.06-.02,.1-.02Z"/><path class="ea" d="M36.92,24.93v4.11s-.06,0-.1,0v-4.09s.06,0,.1,0Z"/><path class="ea" d="M37.3,24.91v4.15s-.06,0-.1,0v-4.15s.06,0,.1,0Z"/><path class="ea" d="M37.68,24.91v4.15s-.06,0-.1,0v-4.15s.06,0,.1,0Z"/><path class="ea" d="M38.07,24.94v4.09s-.06,0-.1,0v-4.11s.06,0,.1,0Z"/><path class="ea" d="M38.45,24.99v3.99s-.06,.01-.1,.02v-4.02s.07,.01,.1,.02Z"/><path class="ea" d="M39.6,25.35v3.29s-.06,.03-.1,.04v-3.37s.07,.03,.1,.04Z"/><path class="ea" d="M38.83,25.08v3.82s-.06,.02-.1,.02v-3.87s.06,.02,.1,.02Z"/><path class="ea" d="M39.22,25.19v3.6s-.06,.02-.1,.03v-3.66s.06,.02,.1,.03Z"/><path class="ea" d="M39.98,25.56v2.87s-.06,.04-.1,.06v-2.99s.07,.04,.1,.06Z"/><path class="ea" d="M40.36,25.85v2.29s-.06,.06-.1,.09v-2.46s.07,.06,.1,.09Z"/><path class="ea" d="M40.75,26.24v1.39c-.03,.06-.06,.12-.1,.17v-1.62s.02,.04,.03,.06h.06Z"/></g><g><path class="du" d="M39.88,27.7c-1.33,.77-3.49,.76-4.83,0-1.34-.77-1.34-2.02-.02-2.79,1.33-.77,3.49-.76,4.83,0,1.34,.77,1.34,2.02,.02,2.79Z"/><path class="br" d="M40.62,26.31c0,.43-.31,.85-.87,1.17-.6,.35-1.41,.54-2.28,.54s-1.69-.19-2.3-.55c-.06-.03-.11-.07-.16-.1-.47-.31-.72-.69-.72-1.09,0-.2,.07-.4,.2-.58,.15-.22,.37-.41,.67-.59,.6-.35,1.41-.54,2.28-.54,.66,0,1.29,.11,1.83,.32,.17,.07,.33,.14,.48,.23,.55,.32,.86,.72,.88,1.13,0,.02,0,.03,0,.05Z"/></g><g class="bq"><polygon class="av" points="37.72 25.52 37.71 25.75 37.27 25.49 37.27 25.27 37.72 25.52"/><polygon class="bc" points="38.8 25.45 38.8 25.68 38.45 25.88 38.45 25.65 38.8 25.45"/><polygon class="bc" points="39.34 25.76 39.34 25.99 38.99 26.19 38.99 25.96 39.34 25.76"/><polygon class="av" points="38.53 26.15 38.53 26.38 38.03 26.1 38.03 25.87 38.53 26.15"/><polygon class="bc" points="38.03 25.87 38.03 26.1 37.5 26.41 37.5 26.18 38.03 25.87"/><g class="bq"><g class="bf"><path class="av" d="M38.65,26.3v.23c0-.06-.05-.11-.12-.14v-.23c.06,.04,.12,.08,.12,.14h0Z"/></g></g><polygon class="av" points="37.63 26.7 37.63 26.93 37.12 26.63 37.12 26.4 37.63 26.7"/><polygon class="av" points="35.62 26.74 35.62 26.97 35.17 26.71 35.17 26.49 35.62 26.74"/><polygon class="bc" points="37.12 26.4 37.12 26.63 36.47 27 36.47 26.78 37.12 26.4"/><g class="bq"><g class="cb"><path class="av" d="M37.74,26.84v.23s-.03-.1-.11-.14v-.23c.08,.04,.11,.09,.11,.14h0Z"/></g></g><polygon class="av" points="35.83 26.87 35.83 27.1 35.62 26.97 35.62 26.74 35.83 26.87"/><g class="bq"><g class="bz"><path class="bc" d="M39.28,26.33v.23c0,.13-.12,.26-.29,.36-.22,.13-.55,.21-.83,.11v-.23c.28,.11,.61,.02,.83-.11,.18-.1,.29-.23,.29-.36h0Z"/></g></g><polygon class="av" points="36.37 27.18 36.37 27.41 36.1 27.25 36.1 27.02 36.37 27.18"/><polygon class="av" points="35.75 27.22 35.75 27.45 35.49 27.3 35.49 27.07 35.75 27.22"/><polygon class="bc" points="36.1 27.02 36.1 27.25 35.75 27.45 35.75 27.22 36.1 27.02"/><polygon class="av" points="36.29 27.53 36.29 27.76 36.03 27.61 36.03 27.38 36.29 27.53"/><polygon class="bc" points="36.64 27.33 36.63 27.56 36.29 27.76 36.29 27.53 36.64 27.33"/><g class="bq"><g class="ca"><path class="bc" d="M38.26,26.98v.23c0,.11-.08,.23-.27,.33-.43,.25-.87,.29-1.36,.02v-.23c.49,.27,.93,.23,1.36-.02,.18-.11,.27-.23,.27-.33h0Z"/></g></g><path class="du" d="M38.16,26.8c.16,.13,.13,.34-.17,.52-.43,.25-.87,.29-1.36,.02l-.35,.2-.26-.15,.35-.2-.28-.16-.35,.2-.26-.15,.35-.2-.22-.13-.45-.26,.26-.15,.45,.26,1.84-1.07-.45-.26,.26-.15,.45,.26,.22,.13,.35-.2,.26,.15-.35,.2,.28,.16,.35-.2,.26,.15-.35,.2c.45,.27,.33,.54,0,.73-.22,.13-.55,.21-.83,.11Zm-1.18,.28c.14,.08,.33,.11,.58-.03,.17-.1,.26-.23,.07-.34l-.51-.3-.65,.38,.51,.3h0Zm1.05-1.2l-.54,.31,.5,.29c.16,.09,.35,.09,.52-.01,.22-.13,.14-.23,.02-.3l-.5-.29h0Z"/></g><g class="ch"><path class="ci" d="M40.62,26.26l-5.61,1.11c-.47-.31-.72-.69-.72-1.09,0-.2,.07-.4,.2-.58l4.77-.81c.17,.07,.33,.14,.48,.23,.55,.32,.86,.72,.88,1.13Z"/></g><g><path class="dt" d="M35.34,25.02v.28c-.06,.03-.12,.06-.18,.1-.5,.29-.8,.65-.86,1.03,0-.05-.01-.09-.01-.14,0-.43,.31-.85,.87-1.17,.06-.03,.12-.07,.18-.1Z"/><path class="br" d="M40.62,26.31s0,.09-.01,.14c-.06-.39-.36-.75-.87-1.05-.52-.3-1.19-.49-1.92-.54v-.28c.73,.05,1.4,.23,1.92,.54,.57,.33,.88,.75,.88,1.19Z"/><path class="be" d="M37.82,24.59v.28c-.13,0-.26-.01-.38-.01-.78,0-1.52,.16-2.09,.44v-.28c.58-.29,1.31-.44,2.09-.44,.13,0,.26,0,.38,.01Z"/></g></g></g><g><g><path class="bt" d="M25.84,30.6l8.85-5.14c.24-.14,.44-.03,.44,.25l.03,6.36c0,.28-.2,.62-.44,.76l-8.85,5.14c-.24,.14-.44,.03-.44-.25l-.03-6.36c0-.28,.19-.62,.44-.76Z"/><rect class="dc" x="33.94" y="33.28" width=".25" height=".35" transform="translate(68.14 66.91) rotate(180)"/><path class="bx" d="M25.79,38.17h.24v.26l8.8-5.11c.24-.14,.63-.14,.87,0l6.26,3.21v.56h0c0,.09-.07,.17-.18,.24l-8.86,5.14c-.24,.14-.64,.14-.87,0l-6.08-3.51c-.11-.07-.17-.15-.18-.24h0v-.56Z"/><path class="bt" d="M25.97,38.42l6.08,3.51c.24,.14,.63,.14,.87,0l8.86-5.14c.24-.14,.24-.37,0-.51l-6.08-3.51c-.24-.14-.63-.14-.87,0l-.89,.52,.17,.1-6.43,3.71-.15-.09-1.56,.9c-.24,.14-.24,.37,0,.51Z"/><path class="bx" d="M34.82,25.32s-.08-.05-.12-.07c-.08-.05-.19-.04-.31,.03l-8.85,5.14c-.24,.14-.44,.48-.43,.76l.03,6.36c0,.14,.05,.24,.13,.28,.1,.06,.21,.12,.31,.18-.08-.05-.13-.14-.13-.28l-.03-6.36c0-.28,.19-.62,.44-.76l8.85-5.14c.12-.07,.23-.08,.31-.03-.02,0-.15-.08-.19-.11Z"/><g><path class="bu" d="M27.11,39.31c0,.11,.07,.23,.15,.28,.08,.05,.15,0,.15-.11s-.07-.23-.15-.28c-.08-.05-.15,0-.15,.11Z"/><path class="dg" d="M27.39,39.51c-.08-.05-.15-.17-.15-.28,0-.01,0-.03,0-.04-.07-.03-.13,.02-.13,.12,0,.11,.07,.23,.15,.28,.07,.04,.13,0,.14-.07h-.01Z"/><path class="dz" d="M27.3,39.57c-.08-.05-.15-.17-.15-.28,0-.05,.01-.08,.03-.1-.04,0-.07,.05-.07,.13,0,.11,.07,.23,.15,.28,.05,.03,.09,.02,.11,0-.02,0-.05,0-.07-.02Z"/></g><g><path class="bu" d="M27.63,39.62c0,.11,.07,.24,.15,.28,.08,.05,.15,0,.15-.11s-.07-.24-.15-.28c-.08-.05-.15,0-.15,.11Z"/><path class="dg" d="M27.91,39.82c-.08-.05-.15-.17-.15-.28,0-.01,0-.03,0-.04-.07-.03-.13,.02-.13,.12,0,.11,.07,.24,.15,.28,.07,.04,.13,0,.14-.07h-.01Z"/><path class="dz" d="M27.82,39.87c-.08-.05-.15-.17-.15-.28,0-.05,.01-.08,.03-.1-.04,0-.07,.05-.07,.13,0,.11,.07,.24,.15,.28,.05,.03,.09,.02,.11,0-.02,0-.05,0-.07-.02Z"/></g><path class="do" d="M26.89,38.18c.04,.1,.12,.19,.26,.27l3.11,1.8c.34,.19,.84,.21,1.13,.05l7.86-4.53h0c.09-.06,.14-.12,.17-.19,.06-.15-.03-.33-.26-.47l-3.11-1.8c-.34-.19-.84-.21-1.13-.05l-7.86,4.53c-.08,.05-.14,.1-.17,.16-.04,.07-.04,.15-.01,.22Z"/><path class="dz" d="M26.89,38.18c.04,.1,.12,.19,.26,.27l3.11,1.8c.34,.19,.84,.21,1.13,.05l7.86-4.53h0c.09-.06,.14-.12,.17-.19-.04-.1-.12-.19-.26-.27l-3.11-1.8c-.34-.19-.84-.21-1.13-.05l-7.86,4.53c-.08,.05-.14,.1-.17,.16,0,0,0,.02-.01,.03Z"/><g><polygon class="dg" points="34.94 34.5 35.55 34.85 34.92 35.23 34.31 34.87 34.94 34.5"/><polygon class="dg" points="35.92 34.8 36.53 35.15 35.9 35.52 35.28 35.17 35.92 34.8"/><polygon class="dg" points="36.8 34.33 37.52 34.74 37.92 34.97 38.13 35.09 37.06 35.72 36.44 35.37 36.77 35.17 36.06 34.76 36.8 34.33"/><polygon class="dg" points="35.2 35.22 35.82 35.57 35.18 35.94 34.57 35.59 35.2 35.22"/><polygon class="dg" points="38.27 35.17 38.89 35.53 37.58 36.29 36.96 35.94 38.27 35.17"/><polygon class="dg" points="36.9 35.98 37.52 36.33 36.52 36.91 35.91 36.55 36.9 35.98"/><polygon class="dg" points="34.94 36.24 35.56 36.6 34.92 36.97 34.31 36.61 34.94 36.24"/><polygon class="dg" points="35.26 33.44 35.87 33.8 35.24 34.17 34.62 33.81 35.26 33.44"/><polygon class="dg" points="34.5 33.88 35.12 34.24 34.48 34.61 33.87 34.25 34.5 33.88"/><polygon class="dg" points="36.01 33.87 36.63 34.23 35.64 34.8 35.03 34.45 36.01 33.87"/><polygon class="dg" points="33.75 34.32 34.36 34.68 33.73 35.05 33.11 34.7 33.75 34.32"/><polygon class="dg" points="32.99 34.77 33.61 35.12 32.97 35.49 32.36 35.14 32.99 34.77"/><polygon class="dg" points="34.22 34.92 34.83 35.27 34.2 35.65 33.58 35.29 34.22 34.92"/><polygon class="dg" points="32.23 35.21 32.85 35.56 32.22 35.93 31.6 35.58 32.23 35.21"/><polygon class="dg" points="33.49 35.34 34.11 35.7 33.47 36.07 32.86 35.72 33.49 35.34"/><polygon class="dg" points="36.36 35.41 36.98 35.77 36.34 36.14 35.73 35.78 36.36 35.41"/><polygon class="dg" points="31.48 35.65 32.09 36 31.46 36.37 30.84 36.02 31.48 35.65"/><polygon class="dg" points="34.49 35.64 35.11 35.99 34.47 36.36 33.86 36 34.49 35.64"/><polygon class="dg" points="32.77 35.77 33.39 36.12 32.75 36.49 32.14 36.14 32.77 35.77"/><polygon class="dg" points="35.65 35.83 36.26 36.18 35.63 36.55 35.01 36.2 35.65 35.83"/><polygon class="dg" points="33.78 36.05 34.39 36.4 33.76 36.78 33.14 36.42 33.78 36.05"/><polygon class="dg" points="30.72 36.09 31.34 36.44 30.7 36.81 30.09 36.46 30.72 36.09"/><polygon class="dg" points="32.05 36.19 32.66 36.54 32.03 36.91 31.41 36.56 32.05 36.19"/><polygon class="dg" points="33.06 36.47 33.68 36.82 33.04 37.19 32.43 36.84 33.06 36.47"/><polygon class="dg" points="29.97 36.53 30.58 36.89 29.95 37.26 29.33 36.9 29.97 36.53"/><polygon class="dg" points="31.33 36.61 31.94 36.96 31.31 37.33 30.69 36.98 31.33 36.61"/><polygon class="dg" points="34.2 36.67 34.82 37.03 34.18 37.4 33.57 37.04 34.2 36.67"/><polygon class="dg" points="32.35 36.88 32.96 37.24 32.33 37.61 31.71 37.26 32.35 36.88"/><polygon class="dg" points="29.21 36.97 29.83 37.33 29.19 37.7 28.58 37.34 29.21 36.97"/><polygon class="dg" points="30.6 37.03 31.22 37.38 30.58 37.76 29.97 37.4 30.6 37.03"/><polygon class="dg" points="33.5 37.09 34.11 37.44 33.48 37.81 32.86 37.46 33.5 37.09"/><polygon class="dg" points="31.63 37.3 32.25 37.66 31.61 38.03 31 37.67 31.63 37.3"/><polygon class="dg" points="32.79 37.5 33.4 37.86 32.76 38.23 32.15 37.87 32.79 37.5"/><polygon class="dg" points="28.17 37.58 28.78 37.94 28.15 38.31 27.54 37.95 28.17 37.58"/><polygon class="dg" points="30.92 37.72 31.54 38.07 30.9 38.44 30.29 38.09 30.92 37.72"/><polygon class="dg" points="35.84 36.59 36.46 36.95 33.67 38.57 33.06 38.22 35.84 36.59"/><polygon class="dg" points="32.08 37.92 32.69 38.27 32.06 38.64 31.44 38.29 32.08 37.92"/><polygon class="dg" points="29.85 37.47 30.46 37.83 28.9 38.74 28.29 38.39 29.85 37.47"/><polygon class="dg" points="30.2 38.14 30.82 38.49 29.65 39.17 29.04 38.82 30.2 38.14"/><polygon class="dg" points="32.97 38.27 33.58 38.63 32.59 39.21 31.97 38.85 32.97 38.27"/><polygon class="dg" points="31.36 38.34 31.97 38.69 30.41 39.6 29.79 39.25 31.36 38.34"/><polygon class="dg" points="31.89 38.9 32.51 39.25 31.16 40.04 30.55 39.69 31.89 38.9"/></g><g><path class="bw" d="M34.92,38.88c.03,.06,.09,.12,.17,.17l.55,.33c.24,.14,.6,.15,.81,.03l1.43-.82c.05-.03,.09-.07,.11-.11,.06-.11,0-.26-.17-.36l-.55-.33c-.24-.14-.6-.15-.81-.03l-1.43,.82c-.13,.08-.17,.19-.12,.3Z"/><path class="dz" d="M34.92,38.88c.03,.06,.09,.12,.17,.17l.55,.33c.24,.14,.6,.15,.81,.03l1.43-.82c.05-.03,.09-.07,.11-.11-.03-.06-.09-.12-.17-.17l-.55-.33c-.24-.14-.6-.15-.81-.03l-1.43,.82c-.05,.03-.09,.07-.12,.11Z"/></g><path class="bd" d="M30.25,28.55c0,.12-.07,.26-.16,.31-.09,.05-.16,0-.16-.12s.07-.26,.16-.31c.09-.05,.16,0,.16,.12Z"/><polygon class="cl" points="34.7 32.28 26 37.39 26 31.47 34.7 26.36 34.7 32.28"/><polygon class="do" points="34.55 26.45 34.55 32.2 26 37.23 26 37.39 34.7 32.28 34.7 26.36 34.55 26.45"/><polygon class="dz" points="26 37.39 34.7 32.28 34.55 32.2 26 37.23 26 37.39"/><g><polygon class="dz" points="26.92 39.43 26.36 39.11 26.36 38.71 26.92 39.03 26.92 39.43"/><polygon class="dg" points="26.47 39.05 26.9 39.29 26.9 39.39 26.38 39.1 26.38 39.1 26.47 39.05"/><g><polygon class="bu" points="26.9 39.05 26.9 39.29 26.47 39.05 26.47 38.81 26.5 38.82 26.9 39.05"/><polygon class="cf" points="26.9 39.08 26.9 39.25 26.5 39.02 26.5 38.86 26.9 39.08"/><polygon class="dx" points="26.38 38.99 26.38 38.75 26.47 38.81 26.47 39.05 26.38 39.1 26.38 38.99"/></g></g></g><path class="bn" d="M30.25,28.98c1.51,.65,3,1.34,4.45,2.13v1.18l-.42,.25c-1.89-.88-3.82-1.7-5.74-2.54l1.71-1.01Z"/><path class="bn" d="M32.22,27.82c.84,.42,1.67,.86,2.48,1.34v.4c-.94-.55-1.91-1.04-2.9-1.49l.42-.25Z"/><g><polygon class="dz" points="31.33 41.96 31.12 41.84 31.12 41.45 31.33 41.57 31.33 41.96"/><polygon class="dk" points="31.23 41.78 31.3 41.82 31.3 41.92 31.14 41.83 31.14 41.83 31.23 41.78"/><g><polygon class="da" points="31.3 41.58 31.3 41.82 31.23 41.78 31.23 41.54 31.25 41.55 31.3 41.58"/><polygon class="ck" points="31.3 41.62 31.3 41.78 31.25 41.75 31.25 41.59 31.3 41.62"/><polygon class="ck" points="31.14 41.72 31.14 41.49 31.23 41.54 31.23 41.78 31.14 41.83 31.14 41.72"/></g></g><g><polygon class="dz" points="31.01 41.8 30.8 41.68 30.8 41.28 31.01 41.4 31.01 41.8"/><polygon class="dk" points="30.92 41.61 30.99 41.65 30.99 41.76 30.83 41.66 30.83 41.66 30.92 41.61"/><g><polygon class="da" points="30.99 41.41 30.99 41.65 30.92 41.61 30.92 41.37 30.94 41.39 30.99 41.41"/><polygon class="ck" points="30.99 41.45 30.99 41.62 30.94 41.59 30.94 41.42 30.99 41.45"/><polygon class="ck" points="30.83 41.56 30.83 41.32 30.92 41.37 30.92 41.61 30.83 41.66 30.83 41.56"/></g></g></g><g><g><g class="bq"><g><path class="bx" d="M11.35,42.8v.62c0,.08,.05,.15,.15,.21v-.62c-.1-.06-.15-.13-.15-.21Z"/><g class="dp"><g class="bq"><path class="bx" d="M11.35,42.8v.62c0,.08,.05,.15,.15,.21v-.62c-.1-.06-.15-.13-.15-.21h0Z"/></g></g></g><g><path class="bx" d="M23.75,45.52v-.62c0,.08-.05,.15-.15,.21v.62c.1-.06,.15-.14,.15-.21Z"/><g class="cw"><g class="bq"><path class="bx" d="M23.6,45.12v.62c.1-.06,.15-.14,.15-.21v-.62c0,.08-.05,.15-.15,.21h0Z"/></g></g></g><polygon class="bx" points="11.5 43.01 11.51 43.63 18.99 47.97 18.99 47.36 11.5 43.01"/><polygon class="bx" points="19.72 47.36 19.72 47.97 23.6 45.73 23.6 45.12 19.72 47.36"/><g><path class="dd" d="M18.99,47.36v.62c.2,.12,.53,.12,.73,0v-.62c-.2,.12-.53,.12-.73,0Z"/><g class="dv"><path class="bx" d="M18.99,47.36v.62c.2,.12,.53,.12,.73,0v-.62c-.2,.12-.53,.12-.73,0h0Z"/></g></g><path class="bt" d="M11.51,42.59c-.2,.12-.2,.31,0,.42l7.49,4.35c.2,.12,.53,.12,.73,0l3.88-2.24c.2-.12,.2-.31,0-.42l-7.49-4.35c-.2-.12-.53-.12-.73,0l-3.88,2.24Z"/></g><path class="bx" d="M12.38,43.13s0,.03,.01,.05c.02,.06,.08,.11,.15,.16l5.51,3.18c.23,.13,.6,.13,.83,0l3.24-1.87c.08-.04,.13-.1,.15-.16,0-.02,.01-.03,.01-.05,.02-.1-.04-.2-.17-.27l-5.51-3.18c-.23-.13-.6-.13-.83,0l-3.24,1.87c-.13,.07-.19,.18-.17,.27Z"/><g><path class="bl" d="M12.54,43.33c-.08-.04-.13-.1-.15-.16,0-.02-.01-.03-.01-.05,.01-.07,.07-.15,.17-.2l3.24-1.87c.23-.13,.6-.13,.83,0l.11,.06-4,2.31-.17-.1Z"/><g><g><path class="cy" d="M12.91,42.93l.48-.28,.22,.13-.48,.28-.22-.13Zm.48-.26l-.45,.26,.2,.11,.45-.26-.2-.11Z"/><polygon class="cy" points="12.92 42.93 13.13 43.05 13.45 42.86 13.24 42.74 12.92 42.93"/></g><g><polygon class="cy" points="12.84 43.09 12.91 43.05 12.99 43.09 12.92 43.13 12.84 43.09"/><polygon class="cy" points="12.68 43.11 12.75 43.07 12.89 43.15 12.82 43.19 12.68 43.11"/><polygon class="cy" points="12.52 43.12 12.59 43.08 12.8 43.2 12.72 43.24 12.52 43.12"/></g></g><g><path class="ar" d="M13.94,42.56s-.07-.02-.1,0c-.03,.02-.03,.04,0,.06,.03,.02,.07,.02,.1,0,.03-.02,.03-.04,0-.06Z"/><g><path class="ar" d="M13.8,42.54s.07-.02,.1-.02v-.03c-.05,0-.1,.01-.14,.03-.04,.02-.06,.05-.06,.08h.05s.01-.04,.04-.06Z"/><path class="ar" d="M13.72,42.49s.11-.04,.18-.04v-.03c-.08,0-.16,.02-.21,.05-.06,.03-.09,.08-.09,.12h.05s.02-.08,.07-.1Z"/><path class="ar" d="M13.65,42.45c.07-.04,.16-.06,.25-.06v-.03c-.1,0-.2,.02-.28,.07-.08,.05-.12,.1-.12,.16h.05c0-.05,.03-.1,.1-.14Z"/></g></g><g id="ah"><g id="ai"><g><polygon class="cy" points="15.75 41.55 15.46 41.38 15.85 41.35 15.75 41.55"/><polygon class="cy" points="15.93 41.3 16 41.07 16.29 41.24 15.93 41.3"/></g><polygon class="cy" points="15.92 41.34 15.93 41.3 16.3 41.25 15.76 41.56 15.86 41.34 15.92 41.34"/><polygon class="cy" points="15.45 41.38 15.99 41.07 15.91 41.33 15.45 41.38"/></g></g><path class="cx" d="M16.72,41.12l5.4,3.12c.1,.06,.15,.13,.17,.2,0,.02,0,.03-.01,.05-.02,.06-.08,.11-.15,.16l-3.24,1.87c-.23,.13-.6,.13-.83,0l-5.34-3.08,4-2.31Z"/></g><path class="ay" d="M21.56,45.96l-.51,.32c-.14,.09-.37,.1-.51,.02-.14-.08-.15-.21,0-.3l.51-.32c.14-.09,.37-.1,.51-.02,.15,.08,.15,.21,0,.3h0Z"/><g><polygon class="ar" points="22.78 46.09 23.19 45.83 23.19 45.55 22.78 45.8 22.78 46.09"/><polygon class="dg" points="23.11 45.79 22.8 45.98 22.8 46.06 23.17 45.83 23.17 45.83 23.11 45.79"/><g><polygon class="cj" points="22.8 45.81 22.8 45.98 23.11 45.79 23.11 45.62 23.09 45.63 22.8 45.81"/><polygon class="bd" points="22.8 45.84 22.8 45.96 23.09 45.77 23.09 45.65 22.8 45.84"/><polygon class="dx" points="23.17 45.75 23.17 45.58 23.11 45.62 23.11 45.79 23.17 45.83 23.17 45.75"/></g></g><g><path class="cj" d="M23.54,45.48c0,.09-.05,.19-.12,.23-.07,.04-.12,0-.12-.09s.05-.19,.12-.23c.07-.04,.12,0,.12,.09Z"/><path class="dg" d="M23.32,45.64c.07-.04,.12-.14,.12-.23,0-.01,0-.02,0-.03,.06-.03,.11,.01,.11,.1,0,.09-.05,.19-.12,.23-.06,.03-.11,0-.12-.06h.01Z"/><path class="cy" d="M23.39,45.69c.07-.04,.12-.14,.12-.23,0-.04-.01-.07-.03-.08,.04,0,.06,.04,.06,.1,0,.09-.05,.19-.12,.23-.04,.02-.07,.02-.09,0,.02,0,.04,0,.06-.01Z"/></g><g><path class="bx" d="M13.2,42.04s.02,.03,.04,.04c.06,.04,.17,.03,.23,0l.98-.61s.03-.02,.04-.04c.02-.04,0-.07-.04-.1-.07-.04-.17-.03-.23,0l-.98,.62s-.06,.07-.04,.1Z"/><path class="cf" d="M13.2,42.04s.02,.03,.04,.04c.06,.04,.17,.03,.23,0l.98-.61s.03-.02,.04-.04c0-.02-.02-.03-.04-.04-.07-.04-.17-.03-.23,0l-.98,.62s-.03,.02-.04,.04Z"/></g><path class="cf" d="M11.76,42.73s.02,.06,.07,.09c.09,.05,.24,.05,.33,0,.02-.01,.04-.03,.05-.04,.04-.05,.02-.11-.05-.15-.09-.05-.24-.05-.33,0-.05,.03-.07,.06-.07,.1Z"/></g><g><g><polygon class="aw" points="12.98 44.4 12.31 44.01 12.31 43.75 12.99 44.14 12.98 44.4"/><polygon class="cv" points="12.99 44.14 12.31 43.75 12.41 43.69 13.09 44.08 12.99 44.14"/><polygon class="cm" points="13.09 44.08 13.08 44.34 12.98 44.4 12.99 44.14 13.09 44.08"/></g><g><polygon class="aw" points="12.12 43.9 11.82 43.73 11.83 43.47 12.12 43.64 12.12 43.9"/><polygon class="cv" points="12.12 43.64 11.83 43.47 11.93 43.41 12.22 43.58 12.12 43.64"/><polygon class="cm" points="12.22 43.58 12.22 43.84 12.12 43.9 12.12 43.64 12.22 43.58"/></g></g><g><path class="at" d="M18.58,42.2l.89,3.97-.59,.34c-.08,.05-.19,.08-.29,.09l-1.13-5.06,1.13,.65Z"/><polygon class="as" points="15.69 41.11 16.72 45.75 14.38 44.39 13.88 42.16 15.69 41.11"/></g><path class="bt" d="M19.12,43.31c-.29-.17-.73-.2-1.06-.07,.25-.17,.06-.43-.17-.56-.46-.27-.98-.3-1.57,.03l-.3-.18-.23,.14,.3,.18-.15,.09-.3-.18-.23,.14,.3,.18-.46,.26-.15,.08-.56,.32,.36,.21,.56-.32,2.04,1.18-.56,.32,.36,.21,.56-.32,.15-.08,.46-.26,.21,.12,.23-.14-.21-.12,.15-.09,.21,.12,.23-.14-.21-.12c.58-.34,.65-.64,.03-1Zm-1.87-.17c.11,.06,.14,.14,.02,.21l-.41,.24-.41-.24,.41-.24c.08-.05,.22-.07,.39,.03Zm1.18,.83l-.45,.26-.54-.31,.45-.26c.15-.09,.32-.03,.46,.05,.17,.1,.22,.18,.08,.26Z"/></g><polygon class="ee" points="27.82 11.65 27.78 11.63 27.82 11.61 27.82 11.65"/><g><g><g class="bq"><polygon class="bt" points="28.39 25.23 28.38 28.47 18.21 34.39 18.21 31.15 28.39 25.23"/><g><polygon class="bx" points="18.21 31.15 18.21 34.39 6.92 27.88 6.92 24.64 18.21 31.15"/><polygon class="bt" points="7.48 25.49 7.48 27.75 17.55 33.55 17.55 31.29 7.48 25.49"/></g></g><polygon class="bx" points="18.5 31.36 28.2 25.76 28.2 28.29 18.5 33.9 18.5 31.36"/><polygon class="dn" points="17.1 18.73 6.92 24.64 18.21 31.15 28.39 25.23 17.1 18.73"/></g><g><path class="ct" d="M16.93,19.44l-8.32,4.84c-.3,.17-.3,.6,0,.78l9.33,5.37c.14,.08,.31,.08,.45,0l8.32-4.84c.3-.17,.3-.6,0-.78l-9.33-5.37c-.14-.08-.31-.08-.45,0Z"/><path class="dq" d="M16.93,19.23l-8.32,4.84c-.3,.17-.3,.6,0,.78l9.33,5.37c.14,.08,.31,.08,.45,0l8.32-4.84c.3-.17,.3-.6,0-.78l-9.33-5.37c-.14-.08-.31-.08-.45,0Z"/><path class="cp" d="M16.93,19.02l-8.32,4.84c-.3,.17-.3,.6,0,.78l9.33,5.37c.14,.08,.31,.08,.45,0l8.32-4.84c.3-.17,.3-.6,0-.78l-9.33-5.37c-.14-.08-.31-.08-.45,0Z"/><path class="dr" d="M16.93,18.81l-8.32,4.84c-.3,.17-.3,.6,0,.78l9.33,5.37c.14,.08,.31,.08,.45,0l8.32-4.84c.3-.17,.3-.6,0-.78l-9.33-5.37c-.14-.08-.31-.08-.45,0Z"/><path class="bi" d="M16.93,18.6l-8.32,4.84c-.3,.17-.3,.6,0,.78l9.33,5.37c.14,.08,.31,.08,.45,0l8.32-4.84c.3-.17,.3-.6,0-.78l-9.33-5.37c-.14-.08-.31-.08-.45,0Z"/><path class="ax" d="M16.93,18.39l-8.32,4.84c-.3,.17-.3,.6,0,.78l9.33,5.37c.14,.08,.31,.08,.45,0l8.32-4.84c.3-.17,.3-.6,0-.78l-9.33-5.37c-.14-.08-.31-.08-.45,0Z"/><path class="bg" d="M16.93,18.17l-8.32,4.84c-.3,.17-.3,.6,0,.78l9.33,5.37c.14,.08,.31,.08,.45,0l8.32-4.84c.3-.17,.3-.6,0-.78l-9.33-5.37c-.14-.08-.31-.08-.45,0Z"/><path class="cn" d="M16.93,17.96l-8.32,4.84c-.3,.17-.3,.6,0,.78l9.33,5.37c.14,.08,.31,.08,.45,0l8.32-4.84c.3-.17,.3-.6,0-.78l-9.33-5.37c-.14-.08-.31-.08-.45,0Z"/><path class="bh" d="M16.93,17.75l-8.32,4.84c-.3,.17-.3,.6,0,.78l9.33,5.37c.14,.08,.31,.08,.45,0l8.32-4.84c.3-.17,.3-.6,0-.78l-9.33-5.37c-.14-.08-.31-.08-.45,0Z"/><path class="dm" d="M16.93,17.54l-8.32,4.84c-.3,.17-.3,.6,0,.78l9.33,5.37c.14,.08,.31,.08,.45,0l8.32-4.84c.3-.17,.3-.6,0-.78l-9.33-5.37c-.14-.08-.31-.08-.45,0Z"/><path class="az" d="M16.93,17.33l-8.32,4.84c-.3,.17-.3,.6,0,.78l9.33,5.37c.14,.08,.31,.08,.45,0l8.32-4.84c.3-.17,.3-.6,0-.78l-9.33-5.37c-.14-.08-.31-.08-.45,0Z"/><path class="cz" d="M16.93,17.12l-8.32,4.84c-.3,.17-.3,.6,0,.78l9.33,5.37c.14,.08,.31,.08,.45,0l8.32-4.84c.3-.17,.3-.6,0-.78l-9.33-5.37c-.14-.08-.31-.08-.45,0Z"/></g><g><g class="bq"><polygon class="bt" points="28.39 18.8 28.38 22.04 18.21 27.96 18.21 24.72 28.39 18.8"/><g><polygon class="bx" points="18.21 24.72 18.21 27.96 6.92 21.45 6.92 18.21 18.21 24.72"/><polygon class="bt" points="7.48 19.06 7.48 21.33 17.55 27.13 17.55 24.86 7.48 19.06"/></g></g><polygon class="bx" points="18.5 24.94 28.2 19.33 28.2 21.86 18.5 27.47 18.5 24.94"/><polygon class="dn" points="17.1 12.3 6.92 18.21 18.21 24.72 28.39 18.8 17.1 12.3"/></g><g><path class="ct" d="M16.93,12.79l-8.32,4.84c-.3,.17-.3,.6,0,.77l9.33,5.37c.14,.08,.31,.08,.45,0l8.32-4.84c.3-.17,.3-.6,0-.77l-9.33-5.37c-.14-.08-.31-.08-.45,0Z"/><path class="dq" d="M16.93,12.58l-8.32,4.84c-.3,.17-.3,.6,0,.77l9.33,5.37c.14,.08,.31,.08,.45,0l8.32-4.84c.3-.17,.3-.6,0-.77l-9.33-5.37c-.14-.08-.31-.08-.45,0Z"/><path class="cp" d="M16.93,12.37l-8.32,4.84c-.3,.17-.3,.6,0,.77l9.33,5.37c.14,.08,.31,.08,.45,0l8.32-4.84c.3-.17,.3-.6,0-.77l-9.33-5.37c-.14-.08-.31-.08-.45,0Z"/><path class="dr" d="M16.93,12.16l-8.32,4.84c-.3,.17-.3,.6,0,.77l9.33,5.37c.14,.08,.31,.08,.45,0l8.32-4.84c.3-.17,.3-.6,0-.77l-9.33-5.37c-.14-.08-.31-.08-.45,0Z"/><path class="bi" d="M16.93,11.94l-8.32,4.84c-.3,.17-.3,.6,0,.78l9.33,5.37c.14,.08,.31,.08,.45,0l8.32-4.84c.3-.17,.3-.6,0-.77l-9.33-5.37c-.14-.08-.31-.08-.45,0Z"/><path class="ax" d="M16.93,11.73l-8.32,4.84c-.3,.17-.3,.6,0,.78l9.33,5.37c.14,.08,.31,.08,.45,0l8.32-4.84c.3-.17,.3-.6,0-.77l-9.33-5.37c-.14-.08-.31-.08-.45,0Z"/><path class="bg" d="M16.93,11.52l-8.32,4.84c-.3,.17-.3,.6,0,.78l9.33,5.37c.14,.08,.31,.08,.45,0l8.32-4.84c.3-.17,.3-.6,0-.77l-9.33-5.37c-.14-.08-.31-.08-.45,0Z"/><path class="cn" d="M16.93,11.31l-8.32,4.84c-.3,.17-.3,.6,0,.78l9.33,5.37c.14,.08,.31,.08,.45,0l8.32-4.84c.3-.17,.3-.6,0-.77l-9.33-5.37c-.14-.08-.31-.08-.45,0Z"/><path class="bh" d="M16.93,11.1l-8.32,4.84c-.3,.17-.3,.6,0,.77l9.33,5.37c.14,.08,.31,.08,.45,0l8.32-4.84c.3-.17,.3-.6,0-.77l-9.33-5.37c-.14-.08-.31-.08-.45,0Z"/><path class="dm" d="M16.93,10.89l-8.32,4.84c-.3,.17-.3,.6,0,.77l9.33,5.37c.14,.08,.31,.08,.45,0l8.32-4.84c.3-.17,.3-.6,0-.77l-9.33-5.37c-.14-.08-.31-.08-.45,0Z"/><path class="az" d="M16.93,10.68l-8.32,4.84c-.3,.17-.3,.6,0,.77l9.33,5.37c.14,.08,.31,.08,.45,0l8.32-4.84c.3-.17,.3-.6,0-.77l-9.33-5.37c-.14-.08-.31-.08-.45,0Z"/><path class="cz" d="M16.93,10.47l-8.32,4.84c-.3,.17-.3,.6,0,.77l9.33,5.37c.14,.08,.31,.08,.45,0l8.32-4.84c.3-.17,.3-.6,0-.77l-9.33-5.37c-.14-.08-.31-.08-.45,0Z"/></g><g><g class="bq"><polygon class="bt" points="28.39 12.15 28.38 15.39 18.21 21.31 18.21 18.07 28.39 12.15"/><g><polygon class="bx" points="18.21 18.07 18.21 21.31 6.92 14.8 6.92 11.56 18.21 18.07"/><polygon class="bt" points="7.48 12.41 7.48 14.67 17.55 20.47 17.55 18.21 7.48 12.41"/></g></g><polygon class="bx" points="18.5 18.28 28.2 12.68 28.2 15.21 18.5 20.82 18.5 18.28"/><polygon class="dn" points="17.1 5.65 6.92 11.56 18.21 18.07 28.39 12.15 17.1 5.65"/></g><path class="bx" d="M26.44,12.63c-.06,.08-.13,.15-.23,.2l-7.67,4.46c-.24,.14-.54,.14-.78,0l-8.67-5c-.09-.05-.17-.12-.23-.2-.27-.35-.2-.9,.23-1.14l7.67-4.46c.24-.14,.54-.14,.78,0l8.67,5c.42,.24,.5,.79,.23,1.15Z"/><path class="ct" d="M26.44,12.63c-.06,.08-.13,.15-.23,.2l-7.67,4.46c-.24,.14-.54,.14-.78,0l-8.67-5c-.09-.05-.17-.12-.23-.2,.06-.08,.14-.15,.23-.2l7.67-4.46c.24-.14,.54-.14,.78,0l8.67,5c.09,.05,.17,.12,.23,.2Z"/></g><g><g><path class="br" d="M16.99,.89c.06-.04,.12-.08,.19-.11l.03-.02s.08-.05,.13-.07c.16-.09,.32-.17,.48-.25,.03-.01,.06-.03,.09-.04l.05-.02s.08-.03,.12-.05c.05-.02,.09-.04,.14-.05,.18-.07,.35-.12,.52-.16,.07-.02,.15-.03,.22-.05,.08-.02,.16-.03,.25-.04,.13-.02,.26-.03,.39-.03,.09,0,.17,0,.25,0,.12,0,.23,.03,.34,.05,.31,.07,.6,.19,.85,.36h0l1.27,.9c-.26-.19-.56-.32-.89-.39-.09-.02-.18-.03-.28-.04-.02,0-.04,0-.06,0-.13-.01-.26-.01-.39,0h0c-.16,0-.32,.03-.49,.06-.07,.01-.14,.03-.22,.05-.11,.03-.23,.06-.34,.1-.09,.03-.18,.06-.27,.1-.02,0-.03,.01-.05,.02-.06,.02-.11,.05-.17,.07-.03,.01-.06,.03-.09,.04-.16,.07-.31,.15-.47,.24h-.02c-.05,.04-.1,.07-.15,.1-.02,0-.03,.02-.05,.03-.1,.06-.21,.13-.31,.2l-1.36-.78c.1-.07,.2-.14,.3-.2Z"/><path class="dt" d="M12.53,7.91v-.03c0-.07,.02-.14,.03-.21,.02-.14,.04-.28,.07-.41,0-.06,.02-.11,.03-.17,.01-.05,.02-.1,.03-.15,.02-.07,.04-.15,.06-.22,.02-.07,.04-.14,.06-.21,0-.03,.02-.06,.03-.09l1.27,.73s-.02,.05-.02,.07c-.02,.05-.03,.11-.05,.16,0,.02-.01,.05-.02,.07-.02,.07-.04,.15-.06,.22-.03,.1-.05,.2-.07,.29-.01,.06-.02,.11-.03,.17-.02,.09-.03,.17-.05,.26-.01,.08-.02,.16-.03,.23,0,.04,0,.08-.01,.12h0c0,.07,0,.13-.01,.19-.01,.16-.02,.32-.01,.48,0,.07,0,.14,0,.21v.05c0,.05,.01,.1,.02,.16,.03,.27,.09,.53,.16,.76,0,.02,.01,.04,.02,.05,.03,.09,.07,.19,.11,.27h0c.18,.39,.42,.69,.73,.92l-1.25-.89h0c-.23-.18-.43-.4-.59-.66-.04-.07-.08-.15-.12-.23-.02-.04-.04-.08-.06-.13-.02-.05-.04-.1-.06-.15-.09-.24-.15-.51-.18-.8v-.02c0-.07-.02-.14-.02-.21v-.04c-.01-.2-.01-.42,0-.64,0-.05,0-.11,.01-.16Z"/><path class="be" d="M12.86,6.34c.03-.1,.07-.21,.11-.31,.03-.07,.05-.14,.08-.21v-.02c.03-.05,.05-.1,.07-.16,.06-.16,.13-.32,.21-.47l.02-.05s.05-.1,.07-.15h0c.08-.17,.17-.34,.27-.5,.02-.04,.05-.08,.07-.12v-.02c.04-.06,.08-.11,.11-.17,.06-.1,.13-.2,.19-.3,.03-.05,.06-.09,.09-.14,.03-.05,.07-.1,.1-.15,.04-.06,.08-.12,.13-.18,.03-.04,.06-.09,.09-.13,.03-.04,.06-.09,.1-.13,.08-.1,.16-.21,.25-.31,.03-.04,.07-.08,.1-.12,.01-.02,.03-.03,.04-.04,.02-.03,.05-.05,.07-.08,.13-.14,.25-.28,.38-.41l.04-.04,.08-.08s.06-.05,.08-.08c.11-.11,.22-.21,.34-.31,.04-.04,.08-.07,.12-.11,.03-.03,.06-.05,.09-.08,.06-.05,.12-.1,.18-.15,.06-.05,.12-.09,.18-.13,.05-.04,.09-.07,.14-.1h.01l1.36,.77s-.09,.06-.14,.1c-.05,.03-.09,.07-.14,.1-.02,.01-.04,.03-.05,.04-.06,.05-.12,.09-.19,.15-.07,.06-.14,.11-.21,.17-.04,.03-.08,.07-.13,.11-.08,.07-.15,.14-.23,.21-.06,.05-.11,.1-.16,.16l-.03,.03-.12,.12c-.12,.12-.24,.25-.36,.38l-.03,.03s-.07,.08-.11,.12h-.01c-.12,.15-.23,.29-.34,.43-.03,.04-.06,.08-.1,.13h0c-.04,.07-.09,.13-.13,.19-.06,.09-.13,.18-.19,.27-.03,.04-.06,.09-.09,.14-.04,.06-.08,.12-.12,.18-.04,.06-.08,.12-.11,.19-.02,.03-.04,.07-.06,.11-.03,.05-.05,.09-.08,.14-.07,.12-.14,.25-.2,.37-.02,.04-.04,.09-.07,.13l-.03,.07s-.03,.05-.04,.08c-.08,.17-.16,.35-.23,.52,0,.02-.01,.03-.02,.05-.02,.04-.03,.07-.04,.11l-.04,.09c-.05,.13-.09,.25-.13,.38l-1.27-.73s.01-.05,.02-.07Z"/></g><g class="bk"><path class="ea" d="M16.17,1.48l1.34,.78c.06-.05,.12-.1,.19-.15l-1.35-.78c-.06,.05-.12,.1-.18,.15Z"/><path class="ea" d="M15.46,2.13l1.33,.77c.05-.05,.11-.11,.16-.16l-1.33-.77s-.06,.05-.08,.08l-.08,.08Z"/><path class="ea" d="M19.2,.03l1.47,.85h0c.14,0,.27,0,.39,0,.02,0,.04,0,.06,0L19.59,0c-.13,0-.26,0-.39,.03Z"/><path class="ea" d="M17.95,.38l1.39,.8c.09-.04,.18-.07,.27-.1l-1.4-.81s-.09,.03-.14,.05c-.04,.02-.08,.03-.12,.05Z"/><path class="ea" d="M16.99,.89l1.36,.79s.03-.02,.05-.03c.05-.03,.1-.06,.15-.09h.02l-1.37-.8-.03,.02c-.06,.04-.12,.08-.19,.11Z"/><path class="ea" d="M12.97,6.02l1.28,.74,.04-.09s.03-.07,.04-.11l-1.28-.74c-.03,.07-.05,.14-.08,.21Z"/><path class="ea" d="M12.53,7.91l1.24,.72c0-.08,.02-.15,.03-.23l-1.25-.72c0,.07-.02,.14-.02,.21v.03Z"/><path class="ea" d="M14.82,2.83l1.32,.76h.01c.04-.05,.07-.1,.11-.14l.03-.03-1.32-.76s-.03,.03-.04,.04c-.03,.04-.07,.08-.1,.12Z"/><path class="ea" d="M14.26,3.57l1.31,.75c.04-.06,.09-.12,.13-.18l-1.31-.76c-.04,.06-.09,.12-.13,.18Z"/><path class="ea" d="M13.76,4.35l1.3,.75c.04-.06,.07-.13,.11-.19l-1.3-.75c-.03,.06-.07,.11-.1,.17v.02Z"/><path class="ea" d="M13.32,5.17l1.29,.74,.03-.07s.04-.09,.07-.13l-1.29-.74h0c-.03,.05-.05,.1-.07,.15l-.02,.05Z"/><path class="ea" d="M12.51,8.71v.04c0,.07,.01,.14,.02,.21v.02l1.21,.7v-.05c0-.07-.01-.14-.01-.21l-1.22-.7Z"/><path class="ea" d="M12.77,9.93s.04,.09,.06,.13c.04,.08,.08,.16,.12,.23l1.1,.63c-.04-.09-.08-.18-.11-.27,0-.02-.01-.03-.02-.05l-1.15-.66Z"/><path class="ea" d="M12.69,6.93l1.26,.73c.02-.07,.04-.15,.06-.22l-1.26-.73c-.02,.07-.04,.15-.06,.22Z"/></g><path class="du" d="M19.04,1.31c-2.64,1.21-5.01,4.54-5.28,7.45-.28,2.91,1.64,4.29,4.28,3.08,2.64-1.21,5.01-4.54,5.28-7.45,.28-2.91-1.64-4.29-4.28-3.08Z"/><path class="br" d="M16.24,11.73c.48,0,1-.13,1.57-.39,2.48-1.13,4.71-4.28,4.97-7.01,.1-1.02-.1-1.85-.56-2.36-.34-.37-.8-.56-1.38-.56-.48,0-1,.13-1.57,.39-2.48,1.13-4.71,4.28-4.97,7.01-.1,1.02,.1,1.85,.56,2.36,.34,.37,.8,.56,1.38,.56Z"/><g class="bq"><polygon class="av" points="18.85 9.92 18.45 9.68 18.45 9.06 18.85 9.3 18.85 9.92"/><polygon class="av" points="17.89 10.47 17.49 10.24 17.48 9.62 17.89 9.85 17.89 10.47"/><g class="bq"><path class="av" d="M19.16,6.5l.4,.23c.08,.05,.11,.2,.11,.38,0,.32-.07,.55-.31,.69l-.4-.23c.24-.14,.31-.37,.31-.69,0-.17-.03-.33-.11-.38Z"/><g class="eb"><g class="bq"><path class="av" d="M19.37,7.8l-.4-.23c.24-.14,.31-.37,.31-.69,0-.17-.03-.33-.11-.38l.4,.23c.08,.05,.11,.2,.11,.38,0,.32-.07,.55-.31,.69h0Z"/></g></g></g><g class="bq"><path class="av" d="M20.21,5.56l.4,.23c-.13-.08-.3-.09-.5,0l-.4-.23c.2-.08,.37-.07,.5,0Z"/><g class="aq"><g class="bq"><path class="av" d="M20.11,5.78l-.4-.23c.2-.08,.37-.07,.5,0l.4,.23c-.13-.08-.3-.09-.5,0h0Z"/></g></g></g><polygon class="av" points="18.61 8.24 18.21 8 18.96 7.56 19.37 7.8 18.61 8.24"/><g class="bq"><path class="av" d="M19.09,4.62l.4,.23c.06,.03,.09,.12,.09,.28,0,.2-.09,.43-.29,.54l-.4-.23c.19-.11,.29-.33,.29-.54,0-.16-.04-.25-.09-.28Z"/><g class="cs"><g class="bq"><path class="av" d="M19.3,5.67l-.4-.23c.19-.11,.29-.33,.29-.54,0-.16-.04-.25-.09-.28l.4,.23c.06,.03,.09,.12,.09,.28,0,.2-.09,.43-.29,.54h0Z"/></g></g></g><polygon class="av" points="16.45 10.68 16.05 10.45 16.05 9.76 16.45 10 16.45 10.68"/><polygon class="av" points="16.45 10 16.05 9.76 16.97 9.23 17.38 9.46 16.45 10"/><polygon class="av" points="18.6 6.07 18.2 5.84 18.89 5.44 19.3 5.67 18.6 6.07"/><g class="bq"><path class="av" d="M20.07,3.17l.4,.23c-.22-.13-.56-.07-1.04,.2l-.4-.23c.48-.27,.82-.32,1.04-.2Z"/><g class="dj"><g class="bq"><path class="av" d="M19.43,3.6l-.4-.23c.48-.27,.82-.32,1.04-.2l.4,.23c-.22-.13-.56-.07-1.04,.2h0Z"/></g></g></g><polygon class="av" points="18.47 4.15 18.07 3.92 18.43 3.71 18.83 3.94 18.47 4.15"/><polygon class="av" points="18.83 3.32 18.43 3.09 19.03 2.75 19.43 2.98 18.83 3.32"/><polygon class="av" points="18.83 3.94 18.43 3.71 18.43 3.09 18.83 3.32 18.83 3.94"/><polygon class="av" points="17.38 9.46 16.97 9.23 16.96 5.24 17.36 5.48 17.38 9.46"/><polygon class="av" points="17.52 4.7 17.11 4.47 17.47 4.26 17.87 4.5 17.52 4.7"/><polygon class="av" points="17.36 4.79 16.96 4.56 17.11 4.47 17.52 4.7 17.36 4.79"/><polygon class="av" points="17.87 4.5 17.47 4.26 17.47 3.65 17.87 3.88 17.87 4.5"/><polygon class="av" points="17.87 3.88 17.47 3.65 18.06 3.3 18.47 3.53 17.87 3.88"/><polygon class="av" points="16.44 6.01 16.04 5.78 16.03 5.09 16.44 5.33 16.44 6.01"/><path class="du" d="M20.11,5.78c.48-.19,.8,.13,.8,.68,0,1.19-.49,1.92-1.47,2.49v.62l-.59,.34v-.62l-.37,.21v.62l-.59,.34v-.62l-.36,.21-.15,.09-.93,.53v-.68l.92-.53v-3.99l-.94,.53v-.68l.92-.53,.15-.09,.36-.21v-.62l.59-.34v.62l.37-.21v-.62l.59-.34v.62c.96-.54,1.36-.22,1.36,.68,0,.45-.22,1.2-.68,1.51Zm-.75,2.01c.24-.14,.31-.37,.31-.69,0-.27-.06-.49-.31-.35l-.76,.44v1.04l.76-.44h0Zm-.77-2.52v.79l.7-.4c.19-.11,.29-.33,.29-.54,0-.32-.15-.33-.29-.25l-.69,.4h0Z"/><polygon class="av" points="16.44 5.33 16.03 5.09 16.96 4.56 17.36 4.79 16.44 5.33"/></g><path class="cg" d="M15.44,5.5c1.81,1.09,3.58,2.23,5.3,3.45-.78,.97-1.72,1.79-2.71,2.29-1.21-.87-2.46-1.68-3.74-2.44,.11-1.08,.52-2.23,1.14-3.29Z"/><path class="cg" d="M18.66,2.13c1.38,.89,2.74,1.82,4.03,2.83-.1,.52-.27,1.06-.49,1.58-1.57-1.22-3.22-2.32-4.9-3.37,.43-.4,.89-.76,1.36-1.04Z"/><g><path class="br" d="M17.34,11.11c.54-.25,1.08-.6,1.58-1.01l.45,.26c-.49,.41-1.02,.75-1.55,.99-.56,.26-1.09,.39-1.57,.39-.44,0-.82-.11-1.12-.33,.2,.06,.41,.09,.65,.09,.48,0,1-.13,1.57-.39Z"/><path class="dt" d="M22.3,4.1c.1-1.02-.1-1.85-.56-2.36-.08-.09-.17-.16-.26-.23,.29,.09,.53,.25,.73,.47,.46,.51,.66,1.34,.56,2.36-.02,.2-.05,.4-.09,.6l-.47-.27c.04-.19,.06-.38,.08-.56Z"/><path class="be" d="M22.22,4.67l.47,.27c-.38,1.98-1.7,4.08-3.33,5.42l-.45-.26c1.63-1.35,2.94-3.45,3.31-5.43Z"/></g></g><g><g><g><path class="dn" d="M7.74,39.57l.52-.44c.3-.25,.47-.61,.47-1v-3.48h-.17v3.48c0,.34-.15,.66-.41,.87l-.58,.49,.17,.07Z"/><polygon class="bx" points="6.9 40.12 6.9 40.12 6.9 40.23 7.74 39.57 7.75 39.57 7.66 39.52 7.65 39.53 6.9 40.12"/><polygon class="dn" points="6.9 40.12 6.9 40.12 6.9 40.23 7.74 39.57 7.75 39.57 7.75 39.45 7.69 39.49 7.66 39.52 7.65 39.53 6.9 40.12"/><path class="bx" d="M2.72,37.72l4.18,2.39,.74-.59h.02l.03-.04h0l.05-.04,.47-.39h.02c.26-.23,.4-.54,.41-.87v-3.37l-.08-.04-2.6-1.44-.93-.84h-.17v3.48s0,.04,0,.06c-.02,.32-.16,.61-.4,.81-.01,.01-.03,.03-.06,.04-.23,.15-.94,.49-1.69,.84Z"/><path class="di" d="M4.87,36.03l3.77,2.15v-3.12c-.27-.26-.46-.44-.49-.41-.06,.07-2.47-.59-3.28-.71v2.02s0,.04,0,.06Z"/></g><polygon class="di" points="6.9 40.12 2.72 37.72 2.72 37.84 6.9 40.23 6.9 40.12"/><path class="dy" d="M4.41,36.88l3.81,2.17h.02c.26-.23,.4-.54,.41-.87l-3.77-2.15c-.02,.32-.16,.61-.4,.81-.01,.01-.03,.03-.06,.04Z"/></g><g><path class="bx" d="M.25,22.38l.09,.02h0l.19,.04v.06c-.02,.05-.02,.11-.02,.17l.02,1.98,.05,6.76c0,.53,.33,1.14,.73,1.37l12.15,6.99h.02l-.09,.35,.41-.24c.14-.08,.23-.25,.25-.49,0-.03,0-.06,0-.09l-.07-8.73h0c0-.38-.16-.78-.38-1.07-.1-.13-.22-.24-.34-.31L1.1,22.19c-.17-.1-.33-.11-.45-.04H.65l-.34,.2-.05,.03Z"/><path class="bx" d="M.3,22.35l.04,.05h0l.18,.1,12.66,7.19,.42-.2c-.1-.13-.22-.24-.34-.31L1.1,22.19c-.17-.1-.33-.11-.45-.04H.65l-.34,.2Z"/><path class="bx" d="M12.65,29.95l.45,1.11,.88-.5h0c0-.38-.16-.78-.38-1.07l-.95,.46Z"/><path class="bt" d="M0,22.96v.87H0v1.11l.06,6.76c0,.53,.33,1.14,.73,1.37l4.45,2.52,4.78,2.71,.11,.07,2.81,1.69c.33,.18,.6,.05,.69-.29,.01-.05,.02-.11,.03-.17,0-.03,0-.06,0-.09v-.99l-.03-2.56-.04-5.18c0-.53-.33-1.14-.73-1.37l-5.01-2.84h-.01l-1.71-1.02-2.17-1.29h0l-2.51-1.43-.73-.41c-.27-.15-.5-.09-.62,.12-.06,.11-.09,.25-.09,.43Z"/><g><polygon class="bo" points="13.19 30.53 13.19 39.44 9.07 37.03 5.07 34.69 5.05 34.68 3.3 33.66 3.3 33.66 3.04 33.5 .48 32.01 .48 23.11 3.61 24.93 3.91 25.11 4.49 25.45 4.87 25.67 7.22 27.05 7.89 27.44 9.44 28.34 11.73 29.68 13.19 30.53"/><polygon class="bx" points=".67 23.21 .67 31.91 13.19 39.23 13.19 39.44 .48 32.01 .48 23.11 .67 23.21"/><polygon class="dz" points="13.19 39.44 .48 32.01 .67 31.91 13.19 39.23 13.19 39.44"/></g></g><g><path class="bt" d="M6.81,34.95c-.92-.42-1.82-1.21-2.54-2.22-.72-1.01-1.16-2.12-1.26-3.14-.1-1.05,.19-1.87,.81-2.31,.61-.44,1.47-.44,2.42,0l-.06,.14,.06-.14c.92,.42,1.82,1.21,2.54,2.22,.72,1.01,1.16,2.12,1.26,3.14,.1,1.05-.19,1.87-.81,2.31-.31,.22-.68,.33-1.09,.33s-.86-.11-1.33-.32Zm-2.81-7.41c-.53,.37-.77,1.09-.68,2.03,.19,1.99,1.81,4.28,3.62,5.1,.84,.38,1.59,.39,2.11,.02,.52-.37,.77-1.09,.68-2.03-.19-1.99-1.81-4.28-3.62-5.1h0c-.43-.2-.83-.29-1.19-.29s-.66,.09-.91,.27Z"/><path class="bt" d="M8.29,32.97c0-.44-.25-.98-.63-1.27,.36,.17,.54-.21,.54-.57,0-.71-.31-1.33-1.08-1.78v-.47l-.31-.18v.47l-.2-.12v-.47l-.31-.18v.47l-.61-.35-.19-.11-.74-.43v.55l.74,.43v3.14l-.74-.43v.55l.74,.43,.19,.11,.61,.35v.33l.31,.18v-.32l.2,.12v.33l.31,.18v-.32c.77,.45,1.17,.33,1.17-.63Zm-1.05-2.27c0,.16-.08,.25-.23,.17l-.55-.32v-.63l.55,.32c.11,.06,.23,.21,.23,.46Zm-.18,1.91l-.6-.35v-.82l.6,.35c.2,.11,.25,.35,.25,.56,0,.26-.06,.37-.25,.26Z"/></g><g><path class="bn" d="M11.73,29.68c-2.91,1.27-5.81,2.53-8.69,3.82l-2.55-1.49v-1c2.43-1.3,4.9-2.47,7.41-3.57l1.55,.9,2.29,1.34Z"/><path class="bn" d="M4.49,25.45c-1.36,.65-2.7,1.34-4.01,2.09v-.9c1.03-.59,2.07-1.16,3.12-1.7l.3,.18,.59,.34Z"/></g></g><g><path class="bt" d="M29.3,34.6c-.27,0-.51-.07-.71-.22-.41-.29-.59-.83-.53-1.51,.06-.66,.36-1.39,.82-2.05,.47-.66,1.06-1.18,1.66-1.45l.04,.09-.04-.09c.62-.28,1.18-.28,1.58,0,.41,.29,.59,.83,.53,1.51-.06,.66-.36,1.39-.82,2.05-.47,.66-1.06,1.18-1.66,1.45-.31,.14-.6,.21-.87,.21Zm2.11-5.24c-.24,0-.5,.06-.78,.19h0c-1.18,.54-2.24,2.04-2.37,3.34-.06,.61,.1,1.08,.44,1.33,.34,.24,.83,.24,1.38-.01,1.18-.54,2.24-2.04,2.37-3.34,.06-.61-.1-1.08-.44-1.33-.17-.12-.37-.18-.6-.18Z"/><path class="bt" d="M31.51,31.85c0-.29-.16-.45-.41-.36,.24-.16,.35-.55,.35-.78,0-.47-.21-.63-.71-.35v-.31l-.2,.12v.31l-.13,.08v-.31l-.2,.12v.31l-.4,.23-.13,.07-.49,.28v.36l.49-.28v2.06l-.49,.28v.36l.49-.28,.13-.07,.4-.23v.21l.2-.12v-.21l.13-.08v.21l.2-.12v-.21c.51-.29,.77-.67,.77-1.29Zm-.68-.7c0,.11-.05,.22-.15,.28l-.36,.21v-.41l.36-.21c.07-.04,.15-.04,.15,.13Zm-.12,1.38l-.39,.23v-.54l.39-.23c.13-.07,.16,.04,.16,.18,0,.17-.04,.29-.16,.36Z"/></g></g></g></g></g></svg>