<?xml version="1.0" encoding="UTF-8"?><svg xmlns="http://www.w3.org/2000/svg" xmlns:xlink="http://www.w3.org/1999/xlink" viewBox="0 0 134.96 156"><defs><style>.am{fill:url(#j);}.an{fill:url(#m);}.ao{fill:url(#aa);}.ap{fill:url(#al);}.aq,.ar{fill:#9f19ab;}.as,.ar{opacity:.7;}.as,.ar,.at,.au,.av,.aw{mix-blend-mode:multiply;}.ax{fill:url(#h);}.ay{fill:url(#t);}.az{opacity:.18;}.ba{fill:url(#i);}.bb{fill:url(#l);}.bc{opacity:.45;}.bd{fill:url(#ah);}.be{fill:#928fa1;}.bf{fill:url(#af);}.bg{fill:#201f26;}.bh{isolation:isolate;}.bi{fill:url(#s);}.bj{fill:#68d1a3;opacity:.26;}.bk{opacity:.2;}.bl{opacity:.91;}.bm{fill:url(#q);}.bn{fill:url(#f);}.bo{opacity:0;}.bp{fill:url(#g);}.bq{opacity:.36;}.br{fill:url(#n);}.bs{opacity:.64;}.bt{opacity:.8;}.bu{fill:url(#ad);}.bv{fill:#3a3632;}.bw{fill:#b07c50;opacity:.34;}.at{fill:#c7bcd6;}.bx{fill:url(#e);}.by{fill:#29282d;}.bz{fill:url(#ai);}.ca{fill:url(#v);}.cb{fill:url(#aj);}.cc{fill:url(#y);}.cd{fill:url(#o);}.ce{opacity:.73;}.cf{opacity:.82;}.cg{fill:url(#x);}.ch{fill:url(#r);mix-blend-mode:screen;}.ci{fill:#ededf9;}.cj{opacity:.33;}.ck,.cl{mix-blend-mode:color-dodge;}.cm{fill:url(#u);}.cn{fill:url(#ae);}.co{fill:url(#z);}.au{fill:#f1f2f2;}.cp{fill:url(#ag);}.cq{opacity:.27;}.cl{fill:url(#p);}.cr{fill:url(#w);}.cs{fill:url(#ab);}.ct{fill:url(#k);}.cu{opacity:.55;}.cv{opacity:.09;}.cw{fill:url(#ac);}.aw{fill:#e6e7e8;}.cx{fill:url(#ak);}</style><linearGradient id="e" x1="9711.74" y1="30.15" x2="9773.43" y2="61.71" gradientTransform="translate(9786.95) rotate(-180) scale(1 -1)" gradientUnits="userSpaceOnUse"><stop offset=".04" stop-color="#6bb290"/><stop offset=".4" stop-color="#70c195"/><stop offset="1" stop-color="#7ee3a3"/></linearGradient><linearGradient id="f" x1="9752.63" y1="66.09" x2="9809.4" y2="-18.72" gradientTransform="translate(9786.95) rotate(-180) scale(1 -1)" gradientUnits="userSpaceOnUse"><stop offset=".04" stop-color="#6bb491"/><stop offset=".41" stop-color="#71c396"/><stop offset="1" stop-color="#80e4a3"/></linearGradient><linearGradient id="g" x1="9756.74" y1="99.34" x2="9777.96" y2="118.37" gradientTransform="translate(9786.95) rotate(-180) scale(1 -1)" gradientUnits="userSpaceOnUse"><stop offset=".04" stop-color="#6bb290"/><stop offset=".57" stop-color="#69c199"/><stop offset="1" stop-color="#68d1a3"/></linearGradient><linearGradient id="h" x1="9761.23" y1="58.75" x2="9822.91" y2="90.31" xlink:href="#g"/><linearGradient id="i" x1="9837.92" y1="25.86" x2="9702.08" y2="82.54" gradientTransform="translate(9786.95) rotate(-180) scale(1 -1)" gradientUnits="userSpaceOnUse"><stop offset=".04" stop-color="#68d1a3"/><stop offset=".5" stop-color="#77dda3"/><stop offset="1" stop-color="#8defa3"/></linearGradient><linearGradient id="j" x1="542.88" y1="61.68" x2="583.92" y2="82.67" gradientTransform="translate(-485.36)" gradientUnits="userSpaceOnUse"><stop offset=".04" stop-color="#b07c50"/><stop offset=".31" stop-color="#bf8757"/><stop offset=".83" stop-color="#e7a56b"/><stop offset="1" stop-color="#f6b073"/></linearGradient><linearGradient id="k" x1="576.55" y1="88.47" x2="610.97" y2="37.05" gradientTransform="translate(-485.36)" gradientUnits="userSpaceOnUse"><stop offset=".04" stop-color="#bc8556"/><stop offset=".41" stop-color="#cb905d"/><stop offset="1" stop-color="#eba76e"/></linearGradient><linearGradient id="l" x1="578.34" y1="108.77" x2="597.04" y2="125.55" gradientTransform="translate(-485.36)" gradientUnits="userSpaceOnUse"><stop offset=".04" stop-color="#b07c50"/><stop offset=".4" stop-color="#bf8758"/><stop offset="1" stop-color="#e2a16a"/></linearGradient><linearGradient id="m" x1="586.51" y1="86.89" x2="627.54" y2="107.88" gradientTransform="translate(-485.36)" gradientUnits="userSpaceOnUse"><stop offset="0" stop-color="#b07c50"/><stop offset=".2" stop-color="#bf8757"/><stop offset=".58" stop-color="#e7a46c"/><stop offset=".78" stop-color="#ffb678"/></linearGradient><linearGradient id="n" x1="637.78" y1="60.8" x2="535.59" y2="103.44" gradientTransform="translate(-485.36)" gradientUnits="userSpaceOnUse"><stop offset="0" stop-color="#bf885a"/><stop offset=".31" stop-color="#ce9360"/><stop offset=".89" stop-color="#f6af73"/><stop offset="1" stop-color="#ffb677"/></linearGradient><linearGradient id="o" x1="-382.61" y1="-1839.12" x2="-438.08" y2="-1881.05" gradientTransform="translate(2482.23 877.04) rotate(150) scale(1 -1) skewX(-49.11)" gradientUnits="userSpaceOnUse"><stop offset=".03" stop-color="#27262c"/><stop offset="1" stop-color="#393d44"/></linearGradient><radialGradient id="p" cx="5685.01" cy="142.68" fx="5685.01" fy="142.68" r="25.23" gradientTransform="translate(5732.69) rotate(-180) scale(1 -1)" gradientUnits="userSpaceOnUse"><stop offset="0" stop-color="#fff"/><stop offset="1" stop-color="#000"/></radialGradient><linearGradient id="q" x1="5684.31" y1="133.49" x2="5692.02" y2="144.26" gradientTransform="translate(5732.69) rotate(-180) scale(1 -1)" gradientUnits="userSpaceOnUse"><stop offset=".02" stop-color="#fff0e3"/><stop offset=".32" stop-color="#ffe7d2"/><stop offset=".92" stop-color="#ffd1a9"/><stop offset="1" stop-color="#ffcea3"/></linearGradient><linearGradient id="r" x1="5685.53" y1="134.82" x2="5686.91" y2="137.21" gradientTransform="translate(5732.69) rotate(-180) scale(1 -1)" gradientUnits="userSpaceOnUse"><stop offset=".09" stop-color="#fff"/><stop offset=".63" stop-color="#000"/></linearGradient><linearGradient id="s" x1="5690.19" y1="123.66" x2="5696.61" y2="123.66" gradientTransform="translate(5732.69) rotate(-180) scale(1 -1)" gradientUnits="userSpaceOnUse"><stop offset=".04" stop-color="#ffba78"/><stop offset=".4" stop-color="#fec986"/><stop offset="1" stop-color="#feeca8"/></linearGradient><linearGradient id="t" x1="5689.19" y1="125.05" x2="5692.76" y2="125.05" xlink:href="#s"/><linearGradient id="u" x1="5688.01" y1="123.74" x2="5690.9" y2="123.74" xlink:href="#s"/><linearGradient id="v" x1="5690.99" y1="125.94" x2="5695.53" y2="125.94" xlink:href="#s"/><linearGradient id="w" x1="5695.9" y1="123.58" x2="5698.79" y2="123.58" xlink:href="#s"/><linearGradient id="x" x1="5694.04" y1="122.27" x2="5697.61" y2="122.27" xlink:href="#s"/><linearGradient id="y" x1="5691.27" y1="121.38" x2="5695.81" y2="121.38" xlink:href="#s"/><linearGradient id="z" x1="5691.22" y1="136.14" x2="5699.4" y2="142.32" gradientTransform="translate(5732.69) rotate(-180) scale(1 -1)" gradientUnits="userSpaceOnUse"><stop offset=".02" stop-color="#f4e4ff"/><stop offset=".24" stop-color="#e8d3f5"/><stop offset=".59" stop-color="#d1b4e3"/><stop offset=".59" stop-color="#d0b3e2"/><stop offset=".83" stop-color="#c2a2d9"/><stop offset="1" stop-color="#be9cd6"/></linearGradient><linearGradient id="aa" x1="5690.57" y1="137" x2="5698.76" y2="143.18" xlink:href="#z"/><linearGradient id="ab" x1="5693.05" y1="133.71" x2="5701.24" y2="139.89" xlink:href="#z"/><linearGradient id="ac" x1="5692.41" y1="134.57" x2="5700.59" y2="140.75" xlink:href="#z"/><linearGradient id="ad" x1="5691.85" y1="135.3" x2="5700.03" y2="141.49" xlink:href="#z"/><linearGradient id="ae" x1="22.98" y1="130.25" x2="22.09" y2="133.06" gradientTransform="matrix(1, 0, 0, 1, 0, 0)" gradientUnits="userSpaceOnUse"><stop offset=".02" stop-color="#ffead9"/><stop offset=".37" stop-color="#ffe1c8"/><stop offset="1" stop-color="#ffcea3"/></linearGradient><linearGradient id="af" x1="23.71" y1="130.48" x2="22.83" y2="133.29" xlink:href="#ae"/><linearGradient id="ag" x1="25.08" y1="130.91" x2="24.2" y2="133.72" xlink:href="#ae"/><linearGradient id="ah" x1="26.18" y1="131.26" x2="25.29" y2="134.06" xlink:href="#ae"/><linearGradient id="ai" x1="27.47" y1="131.67" x2="26.59" y2="134.47" xlink:href="#ae"/><linearGradient id="aj" x1="28.64" y1="132.03" x2="27.76" y2="134.84" xlink:href="#ae"/><linearGradient id="ak" x1="30.19" y1="132.52" x2="29.3" y2="135.33" xlink:href="#ae"/><linearGradient id="al" x1="31.84" y1="133.04" x2="30.95" y2="135.85" xlink:href="#ae"/></defs><g class="bh"><g id="b"><g id="c"><g id="d"><g><g class="bk"><path class="bo" d="M20.37,123.83c-.95,0-1.81-.21-2.49-.6L1.43,114.11C.52,113.59,0,112.76,0,111.84,0,110.83,.63,109.89,1.72,109.26l30.55-16.12,30.55-16.12c.86-.49,1.93-.77,3.02-.77,.95,0,1.81,.21,2.49,.6l16.46,9.12c.91,.52,1.43,1.35,1.43,2.27,0,1.01-.63,1.95-1.72,2.58l-30.55,16.12-30.55,16.12c-.86,.49-1.93,.77-3.02,.77Z"/><path class="cv" d="M82.89,86.96c.89,.51,1.37,1.32,1.34,2.21-.02,.49-.19,.96-.5,1.39-.27,.39-.74,.79-1.23,1.07l-28.09,14.79-1.63,.86-27.88,14.68s-1.81,.95-1.86,.96c-.85,.46-1.9,.71-2.95,.68-.21,0-.42-.02-.63-.05-.63-.07-1.3-.3-1.77-.57L1.69,114.09c-.89-.51-1.37-1.32-1.34-2.21,.02-.49,.19-.96,.5-1.39,.27-.39,.74-.79,1.23-1.07l28.09-14.79,1.63-.86,27.88-14.68s1.81-.95,1.86-.96c.85-.46,1.9-.7,2.95-.68,.21,0,.42,.02,.63,.05,.63,.07,1.3,.3,1.77,.57l16,8.88Z"/><path class="az" d="M81,87.96c.87,.5,1.32,1.3,1.26,2.15-.03,.47-.22,.91-.53,1.32-.25,.34-.77,.76-1.21,1.01l-27.31,14.34-1.59,.83-27.11,14.23c-.08,.04-1.72,.9-1.82,.91-.84,.43-1.87,.64-2.87,.6-.21,0-.41-.03-.6-.06-.56-.07-1.29-.34-1.71-.58L1.96,114.08c-.87-.5-1.32-1.3-1.26-2.15,.03-.47,.22-.91,.53-1.32,.25-.34,.77-.76,1.21-1.01l27.31-14.34,1.59-.83,27.11-14.23c.08-.04,1.72-.9,1.82-.91,.84-.43,1.87-.64,2.87-.6,.21,0,.41,.03,.6,.06,.56,.07,1.29,.34,1.71,.58l15.55,8.64Z"/><path class="cq" d="M79.11,88.95c.86,.49,1.27,1.27,1.18,2.09-.05,.44-.26,.86-.56,1.25-.23,.3-.8,.73-1.19,.96l-26.54,13.89-1.54,.81-26.34,13.79c-.12,.07-1.63,.84-1.78,.87-.83,.4-1.83,.58-2.8,.52-.2-.01-.39-.05-.58-.07-.5-.07-1.27-.37-1.65-.59l-15.09-8.4c-.86-.49-1.27-1.27-1.18-2.09,.05-.44,.26-.86,.56-1.25,.23-.3,.8-.73,1.19-.96l26.53-13.89,1.54-.81,26.34-13.79c.12-.07,1.63-.84,1.78-.87,.83-.4,1.83-.58,2.8-.52,.2,.01,.39,.05,.58,.07,.5,.07,1.27,.37,1.65,.59l15.09,8.4Z"/><path class="bq" d="M77.21,89.95c.84,.48,1.22,1.24,1.09,2.04-.06,.42-.29,.8-.59,1.19-.2,.26-.82,.7-1.16,.9l-25.76,13.44-1.49,.78-25.57,13.34c-.16,.09-1.55,.79-1.74,.82-.83,.36-1.8,.52-2.73,.43-.19-.02-.37-.06-.55-.09-.44-.07-1.26-.41-1.59-.6l-14.63-8.16c-.84-.48-1.22-1.24-1.09-2.04,.06-.42,.29-.8,.59-1.19,.2-.26,.82-.7,1.16-.9l25.76-13.44,1.49-.78,25.57-13.34c.16-.09,1.55-.79,1.74-.82,.83-.36,1.8-.52,2.73-.43,.19,.02,.37,.06,.55,.09,.44,.07,1.26,.41,1.59,.6l14.63,8.16Z"/><path class="bc" d="M75.32,90.95c.82,.47,1.17,1.21,1.01,1.98-.08,.4-.32,.75-.62,1.12-.18,.22-.85,.68-1.14,.85l-24.98,12.99-1.44,.75-24.8,12.9c-.19,.11-1.46,.74-1.7,.77-.82,.33-1.77,.46-2.66,.35-.18-.02-.36-.07-.53-.1-.37-.07-1.24-.44-1.53-.61l-14.18-7.92c-.82-.47-1.17-1.21-1.01-1.98,.08-.4,.32-.75,.62-1.12,.18-.22,.85-.68,1.14-.85l24.98-12.99,1.44-.75,24.8-12.9c.19-.11,1.46-.74,1.7-.77,.82-.33,1.77-.46,2.66-.35,.18,.02,.36,.07,.53,.1,.37,.07,1.24,.44,1.53,.61l14.18,7.92Z"/><path class="cu" d="M73.43,91.95c.8,.46,1.12,1.18,.93,1.92-.1,.37-.35,.7-.65,1.05-.15,.18-.88,.65-1.12,.79l-24.2,12.54-1.39,.72-24.03,12.45c-.23,.13-1.37,.68-1.66,.73-.81,.3-1.74,.39-2.58,.26-.18-.03-.34-.08-.51-.11-.31-.06-1.23-.48-1.46-.61l-13.72-7.68c-.8-.46-1.12-1.18-.93-1.92,.1-.37,.35-.7,.65-1.05,.15-.18,.88-.65,1.12-.79l24.2-12.54,1.39-.72,24.03-12.45c.23-.13,1.37-.68,1.66-.73,.81-.3,1.74-.39,2.58-.26,.18,.03,.34,.08,.51,.11,.31,.06,1.23,.48,1.46,.61l13.72,7.68Z"/><path class="bs" d="M71.54,92.95c.79,.45,1.07,1.15,.84,1.86-.11,.35-.38,.65-.68,.99-.13,.14-.9,.62-1.1,.74l-23.43,12.09-1.34,.69-23.26,12.01c-.27,.16-1.28,.63-1.62,.68-.8,.26-1.71,.33-2.51,.18-.17-.03-.32-.09-.48-.13-.25-.05-1.21-.51-1.4-.62l-13.26-7.44c-.79-.45-1.07-1.15-.84-1.86,.11-.35,.38-.65,.68-.99,.13-.14,.9-.62,1.1-.74l23.43-12.09,1.34-.69,23.26-12.01c.27-.16,1.28-.63,1.62-.68,.8-.26,1.71-.33,2.51-.18,.17,.03,.32,.09,.48,.13,.25,.05,1.21,.51,1.4,.62l13.26,7.44Z"/><path class="ce" d="M69.64,93.95c.77,.44,1.02,1.12,.76,1.8-.12,.33-.41,.59-.71,.92-.1,.1-.93,.6-1.08,.68l-22.65,11.64-1.3,.67-22.49,11.56c-.31,.18-1.2,.58-1.57,.64-.8,.23-1.68,.27-2.44,.1-.16-.04-.31-.1-.46-.14-.18-.04-1.2-.55-1.34-.63l-12.81-7.2c-.77-.44-1.02-1.12-.76-1.8,.12-.33,.41-.59,.71-.92,.1-.1,.93-.6,1.08-.68l22.65-11.64,1.3-.67,22.49-11.56c.31-.18,1.2-.58,1.57-.64,.8-.23,1.68-.27,2.44-.1,.16,.04,.31,.1,.46,.14,.18,.04,1.2,.55,1.34,.63l12.81,7.2Z"/><path class="cf" d="M67.75,94.94c.75,.43,.97,1.1,.68,1.74-.14,.3-.38,.6-.74,.85-.05,.08-.96,.57-1.06,.62l-21.87,11.2-1.25,.64-21.72,11.12c-.35,.2-1.11,.52-1.53,.59-.79,.2-1.65,.21-2.36,.01-.15-.04-.29-.11-.43-.15-.12-.03-1.19-.58-1.28-.64l-12.35-6.96c-.75-.43-.97-1.1-.68-1.74,.14-.3,.38-.6,.74-.85,.05-.08,.96-.57,1.06-.62l21.87-11.2,1.25-.64,21.72-11.12c.35-.2,1.11-.52,1.53-.59,.79-.2,1.65-.21,2.36-.01,.15,.04,.29,.11,.43,.15,.12,.03,1.19,.58,1.28,.64l12.35,6.96Z"/><path class="bl" d="M65.86,95.94c.74,.42,.92,1.07,.59,1.68-.15,.28-.41,.55-.77,.79-.03,.04-.99,.54-1.03,.57l-21.09,10.75-1.2,.61-20.95,10.67c-.39,.22-1.02,.47-1.49,.55-.78,.16-1.62,.14-2.29-.07-.14-.05-.28-.1-.41-.17-.06,0-1.17-.62-1.22-.65l-11.89-6.72c-.74-.42-.92-1.07-.59-1.68,.15-.28,.41-.55,.77-.79,.03-.04,.99-.54,1.03-.57l21.09-10.75,1.2-.61,20.95-10.67c.39-.22,1.02-.47,1.49-.55,.78-.16,1.62-.14,2.29,.07,.14,.05,.28,.1,.41,.17,.06,0,1.17,.62,1.22,.65l11.89,6.72Z"/><path d="M16.96,121.07l-12.59-7.13c-1.04-.6-.91-1.65,.29-2.34l21.33-10.81,21.33-10.81c1.2-.69,3.02-.77,4.06-.17l12.59,7.13c1.04,.6,.91,1.65-.29,2.34l-21.33,10.81-21.33,10.81c-1.2,.69-3.02,.77-4.06,.17Z"/></g><polygon class="bx" points="66.62 7.07 57.81 4.03 54.51 0 50.23 83.67 67.14 66.63 66.62 7.07"/><polygon class="bn" points=".74 112.27 50.28 83.67 54.56 0 5.02 28.6 .74 112.27"/><polygon class="bp" points="19.24 100.22 18.97 122.91 .75 112.26 19.24 100.22"/><polygon class="ax" points="17.13 35.67 13.04 30.57 5.02 28.6 .74 112.27 19.02 100.55 17.13 35.67"/><polygon class="ba" points="18.97 122.91 68.51 94.32 66.66 7.07 17.13 35.67 18.97 122.91"/><polygon class="au" points="18.83 109.24 68.02 80.84 68.09 83.69 18.56 112.29 18.83 109.24"/><path class="at" d="M48.29,28.61c0,1.14,.8,1.6,1.8,1.02,.99-.57,1.8-1.96,1.8-3.1s-.8-1.6-1.8-1.02c-.99,.57-1.8,1.96-1.8,3.1Z"/><path class="at" d="M30.32,38.82c0,1.14,.8,1.6,1.8,1.02,.99-.57,1.8-1.96,1.8-3.1s-.8-1.6-1.8-1.02-1.8,1.96-1.8,3.1Z"/><path class="at" d="M49.27,28.93c.99-.57,1.8-1.96,1.8-3.1,0-.21-.04-.39-.09-.55,.54,.05,.91,.49,.91,1.26,0,1.14-.8,2.53-1.8,3.1-.81,.47-1.49,.24-1.71-.48,.26,.02,.57-.04,.89-.23Z"/><path class="at" d="M31.3,39.13c.99-.57,1.8-1.96,1.8-3.1,0-.21-.04-.39-.09-.55,.54,.05,.91,.49,.91,1.26,0,1.14-.8,2.53-1.8,3.1-.81,.47-1.49,.24-1.71-.48,.26,.02,.57-.04,.89-.23Z"/><path class="at" d="M38.84,59.42c1.46,0,2.91-.43,4.21-1.27,4.75-3.09,7.58-8.32,7.58-13.98v-14.12c0-.48-.39-.88-.87-.88s-.87,.39-.87,.88v14.12c0,5.07-2.54,9.75-6.78,12.52-1.87,1.22-4.16,1.31-6.12,.25-1.96-1.06-3.13-3.03-3.13-5.26v-11.61c0-.48-.39-.87-.87-.87s-.87,.39-.87,.87v11.61c0,2.88,1.51,5.43,4.05,6.8,1.17,.64,2.44,.95,3.7,.95Z"/><path class="by" d="M39.17,56.8c1.46,0,2.91-.43,4.21-1.27,4.75-3.09,7.58-8.32,7.58-13.98v-14.12c0-.48-.39-.88-.87-.88s-.87,.39-.87,.88v14.12c0,5.07-2.54,9.75-6.78,12.52-1.87,1.22-4.16,1.31-6.12,.25-1.96-1.06-3.13-3.03-3.13-5.26v-11.61c0-.48-.39-.87-.87-.87s-.87,.39-.87,.87v11.61c0,2.88,1.51,5.43,4.05,6.8,1.17,.64,2.44,.95,3.7,.95Z"/><path class="at" d="M40.81,17.55c0,1.14,.8,1.6,1.8,1.02,.99-.57,1.8-1.96,1.8-3.1s-.8-1.6-1.8-1.02c-.99,.57-1.8,1.96-1.8,3.1Z"/><path class="at" d="M22.84,27.75c0,1.14,.8,1.6,1.8,1.02,.99-.57,1.8-1.96,1.8-3.1s-.8-1.6-1.8-1.02c-.99,.57-1.8,1.96-1.8,3.1Z"/><path class="at" d="M41.79,17.86c.99-.57,1.8-1.96,1.8-3.1,0-.21-.04-.39-.09-.55,.54,.05,.91,.49,.91,1.26,0,1.14-.8,2.53-1.8,3.1-.81,.47-1.49,.24-1.71-.48,.26,.02,.57-.04,.89-.23Z"/><path class="at" d="M23.82,28.07c.99-.57,1.8-1.96,1.8-3.1,0-.21-.04-.39-.09-.55,.54,.05,.91,.49,.91,1.26,0,1.14-.8,2.53-1.8,3.1-.81,.47-1.49,.24-1.71-.48,.26,.02,.57-.04,.89-.23Z"/><g><path class="by" d="M43.48,18.91v-2.54c0-.48-.39-.87-.87-.87s-.87,.39-.87,.87v3.53l1.75-.99Z"/><path class="by" d="M25.69,28.98v-2.61c0-.48-.39-.87-.87-.87s-.87,.39-.87,.87v3.6l1.75-.99Z"/></g></g><g><g class="bk"><path class="bo" d="M81.57,87.37c-.83,0-1.59,.18-2.19,.53l-23.53,13.78c-.8,.46-1.26,1.19-1.26,2,0,.89,.55,1.72,1.51,2.27l24.61,13.33,24.61,13.33c.76,.44,1.7,.68,2.66,.68,.84,0,1.59-.18,2.19-.53l23.53-13.78c.8-.46,1.26-1.19,1.26-2,0-.89-.55-1.72-1.51-2.27l-24.61-13.33-24.61-13.33c-.76-.44-1.7-.68-2.66-.68Z"/><path class="cv" d="M56.08,101.69c-.78,.45-1.21,1.16-1.19,1.94,.01,.51,.22,.99,.58,1.42,.23,.27,.58,.55,.93,.75l23.86,12.87,2.51,1.35,21.35,11.52c.69,.4,1.69,.69,2.57,.69,.76,0,1.57-.1,2.12-.42l1.7-.88c.1,.06,4.7-2.55,4.79-2.6l16.35-9.56c.78-.45,1.21-1.16,1.19-1.94-.01-.51-.22-.99-.58-1.42-.23-.27-.58-.55-.93-.75l-23.86-12.87-2.51-1.35-21.35-11.52c-.69-.4-1.69-.69-2.57-.69-.76,0-1.57,.1-2.12,.42l-1.7,.88c-.1-.06-4.7,2.55-4.79,2.6l-16.35,9.56Z"/><path class="az" d="M56.32,101.71c-.76,.44-1.16,1.13-1.12,1.88,.03,.48,.24,.94,.6,1.35,.21,.24,.59,.53,.91,.71l23.11,12.41,2.43,1.3,20.68,11.11c.62,.36,1.69,.7,2.47,.7,.68,0,1.55-.02,2.04-.31l1.65-.73c.19,.11,4.5-2.23,4.67-2.33l15.82-9.23c.76-.44,1.16-1.13,1.12-1.88-.03-.48-.24-.94-.6-1.35-.21-.24-.59-.53-.91-.71l-23.11-12.41-2.43-1.3-20.68-11.11c-.62-.36-1.69-.7-2.47-.7-.68,0-1.55,.02-2.04,.31l-1.65,.73c-.19-.11-4.5,2.23-4.67,2.33l-15.82,9.23Z"/><path class="cq" d="M56.55,101.72c-.74,.43-1.12,1.1-1.05,1.82,.04,.46,.27,.88,.62,1.28,.19,.21,.6,.51,.88,.67l22.36,11.96,2.35,1.26,20.01,10.7c.55,.32,1.68,.72,2.38,.72,.61,0,1.53,.05,1.96-.2l1.6-.58c.29,.17,4.29-1.91,4.54-2.05l15.3-8.9c.74-.43,1.12-1.1,1.05-1.82-.04-.46-.27-.88-.62-1.28-.19-.21-.6-.51-.88-.67l-22.36-11.96-2.35-1.26-20.01-10.7c-.55-.32-1.68-.72-2.38-.72-.61,0-1.53-.05-1.96,.2l-1.6,.58c-.29-.17-4.29,1.91-4.54,2.05l-15.3,8.9Z"/><path class="bq" d="M56.79,101.73c-.73,.42-1.07,1.07-.98,1.76,.05,.43,.29,.83,.63,1.21,.17,.18,.61,.49,.86,.63l21.61,11.5,2.27,1.21,19.34,10.29c.48,.28,1.67,.73,2.28,.73,.53,0,1.51,.13,1.89-.09l1.55-.43c.38,.22,4.09-1.58,4.42-1.78l14.77-8.58c.72-.42,1.07-1.07,.98-1.76-.05-.43-.29-.83-.63-1.21-.17-.18-.61-.49-.86-.63l-21.61-11.5-2.27-1.21-19.34-10.29c-.48-.28-1.67-.73-2.28-.73-.53,0-1.51-.13-1.89,.09l-1.55,.43c-.38-.22-4.09,1.58-4.42,1.78l-14.77,8.58Z"/><path class="bc" d="M57.03,101.75c-.71,.41-1.02,1.04-.91,1.7,.07,.41,.31,.78,.65,1.14,.14,.15,.63,.47,.84,.59l20.87,11.04,2.2,1.16,18.66,9.88c.41,.24,1.66,.74,2.19,.74,.46,0,1.49,.21,1.81,.02l1.5-.28c.48,.28,3.89-1.26,4.3-1.5l14.25-8.25c.71-.41,1.02-1.04,.91-1.7-.07-.41-.31-.78-.65-1.14-.14-.15-.63-.47-.84-.59l-20.87-11.04-2.2-1.16-18.66-9.88c-.41-.24-1.66-.74-2.19-.74-.46,0-1.49-.21-1.81-.02l-1.5,.28c-.48-.28-3.89,1.26-4.3,1.5l-14.25,8.25Z"/><path class="cu" d="M57.26,101.76c-.69,.4-.98,1.01-.85,1.64,.08,.38,.33,.72,.67,1.07,.12,.13,.64,.45,.81,.55l20.12,10.59,2.12,1.11,17.99,9.47c.34,.2,1.66,.76,2.09,.76,.38,0,1.46,.29,1.74,.14l1.45-.14c.58,.33,3.68-.94,4.18-1.23l13.72-7.92c.69-.4,.98-1.01,.85-1.64-.08-.38-.33-.72-.67-1.07-.12-.13-.64-.45-.81-.55l-20.12-10.59-2.12-1.11-17.99-9.47c-.34-.2-1.66-.76-2.09-.76-.38,0-1.46-.29-1.74-.14l-1.45,.14c-.58-.33-3.68,.94-4.18,1.23l-13.72,7.92Z"/><path class="bs" d="M57.5,101.77c-.67,.39-.93,.98-.78,1.58,.09,.36,.35,.67,.69,1,.1,.1,.65,.43,.79,.51l19.37,10.13,2.04,1.07,17.32,9.06c.27,.16,1.65,.77,2,.77,.3,0,1.44,.37,1.66,.25h1.4c.67,.4,3.48-.6,4.06-.94l13.2-7.6c.67-.39,.93-.97,.78-1.58-.09-.36-.35-.67-.69-1-.1-.1-.65-.43-.79-.51l-19.37-10.13-2.04-1.07-17.32-9.06c-.27-.16-1.65-.77-2-.77-.3,0-1.44-.37-1.66-.25h-1.4c-.67-.4-3.48,.6-4.06,.94l-13.2,7.6Z"/><path class="ce" d="M57.73,101.79c-.65,.38-.89,.94-.71,1.52,.1,.33,.37,.62,.71,.93,.08,.07,.66,.41,.77,.47l18.62,9.67,1.96,1.02,16.65,8.65c.21,.12,1.64,.78,1.9,.78,.23,0,1.42,.45,1.59,.36l1.34,.16c.77,.44,3.27-.29,3.94-.68l12.68-7.27c.65-.38,.89-.94,.71-1.52-.1-.33-.37-.62-.71-.93-.08-.07-.66-.41-.77-.47l-18.62-9.67-1.96-1.02-16.65-8.65c-.21-.12-1.64-.78-1.9-.78-.23,0-1.42-.45-1.59-.36l-1.34-.16c-.77-.44-3.27,.29-3.94,.68l-12.68,7.27Z"/><path class="cf" d="M57.97,101.8c-.63,.37-.84,.91-.64,1.46,.11,.31,.39,.56,.72,.86,.05,.05,.68,.39,.75,.43l17.87,9.21,1.88,.97,15.98,8.24c.14,.08,1.63,.79,1.81,.79,.15,0,1.4,.53,1.51,.47l1.29,.31c.87,.5,3.07,.03,3.82-.4l12.15-6.94c.63-.37,.84-.91,.64-1.46-.11-.31-.39-.56-.72-.86-.05-.05-.67-.39-.75-.43l-17.87-9.21-1.88-.97-15.98-8.24c-.14-.08-1.63-.79-1.81-.79-.15,0-1.4-.53-1.51-.47l-1.29-.31c-.87-.5-3.07-.03-3.82,.4l-12.15,6.94Z"/><path class="bl" d="M58.2,101.82c-.61,.35-.8,.88-.57,1.4,.12,.28,.41,.51,.74,.8,.03,.02,.69,.37,.72,.39l17.12,8.76,1.81,.92,15.3,7.83c.07,.04,1.63,.81,1.71,.81,.08,0,1.38,.61,1.43,.58l1.24,.46c.96,.56,2.86,.35,3.7-.13l11.63-6.61c.61-.35,.8-.88,.57-1.4-.12-.28-.41-.51-.74-.8-.03-.02-.69-.37-.72-.39l-17.12-8.76-1.81-.92-15.3-7.83c-.07-.04-1.63-.81-1.71-.81-.08,0-1.38-.61-1.43-.58l-1.24-.46c-.96-.56-2.86-.35-3.7,.13l-11.63,6.61Z"/><path d="M69.54,95.54l-11.1,6.29c-.92,.53-.8,1.45,.26,2.06l18.8,9.53,18.8,9.53c1.06,.61,2.66,.68,3.58,.15l11.1-6.29c.92-.53,.8-1.45-.26-2.06l-18.8-9.53-18.8-9.53c-1.06-.61-2.66-.68-3.58-.15Z"/></g><polygon class="am" points="60.89 50.93 68.65 48.24 71.56 44.69 75.33 94.96 60.42 79.93 60.89 50.93"/><polygon class="ct" points="118.96 120.17 75.29 94.96 71.52 44.69 115.18 69.9 118.96 120.17"/><polygon class="bb" points="102.65 109.55 102.89 129.55 118.95 120.16 102.65 109.55"/><polygon class="an" points="104.51 76.14 108.11 71.64 115.18 69.9 118.96 120.17 102.84 109.84 104.51 76.14"/><polygon class="br" points="102.89 129.55 59.22 104.34 60.85 50.93 104.51 76.14 102.89 129.55"/><polygon class="au" points="103.01 117.5 59.66 92.47 59.59 94.98 103.26 120.19 103.01 117.5"/><path class="at" d="M77.04,69.91c0,1-.71,1.41-1.58,.9-.88-.51-1.58-1.73-1.58-2.73s.71-1.41,1.58-.9c.88,.51,1.58,1.73,1.58,2.73Z"/><path class="at" d="M92.89,78.91c0,1-.71,1.41-1.58,.9-.88-.51-1.58-1.73-1.58-2.73s.71-1.41,1.58-.9c.88,.51,1.58,1.73,1.58,2.73Z"/><path class="at" d="M76.18,70.19c-.88-.51-1.58-1.73-1.58-2.73,0-.18,.03-.34,.08-.48-.47,.04-.8,.43-.8,1.11,0,1,.71,2.23,1.58,2.73,.71,.41,1.31,.21,1.51-.42-.23,.02-.5-.04-.79-.21Z"/><path class="at" d="M92.03,79.19c-.88-.51-1.58-1.73-1.58-2.73,0-.18,.03-.34,.08-.48-.47,.04-.8,.43-.8,1.11,0,1,.71,2.23,1.58,2.73,.71,.41,1.31,.21,1.51-.42-.23,.02-.5-.04-.79-.21Z"/><path class="at" d="M85.38,97.07c-1.29,0-2.57-.38-3.71-1.12-4.18-2.73-6.68-7.33-6.68-12.33v-12.44c0-.43,.35-.77,.77-.77s.77,.35,.77,.77v12.44c0,4.47,2.24,8.59,5.98,11.03,1.65,1.07,3.67,1.15,5.4,.22,1.73-.94,2.76-2.67,2.76-4.64v-10.23c0-.43,.35-.77,.77-.77s.77,.34,.77,.77v10.23c0,2.54-1.33,4.78-3.57,6-1.03,.56-2.15,.84-3.26,.84Z"/><path class="by" d="M85.09,94.76c-1.29,0-2.57-.38-3.71-1.12-4.18-2.73-6.68-7.33-6.68-12.33v-12.44c0-.43,.34-.77,.77-.77s.77,.34,.77,.77v12.44c0,4.47,2.24,8.59,5.98,11.03,1.65,1.07,3.67,1.15,5.4,.22,1.73-.94,2.76-2.67,2.76-4.64v-10.23c0-.43,.34-.77,.77-.77s.77,.34,.77,.77v10.23c0,2.54-1.33,4.78-3.57,6-1.03,.56-2.15,.84-3.26,.84Z"/><path class="at" d="M83.63,60.16c0,1-.71,1.41-1.58,.9-.88-.51-1.58-1.73-1.58-2.73s.71-1.41,1.58-.9c.88,.51,1.58,1.73,1.58,2.73Z"/><path class="at" d="M99.48,69.16c0,1-.71,1.41-1.58,.9-.88-.51-1.58-1.73-1.58-2.73s.71-1.41,1.58-.9c.88,.51,1.58,1.73,1.58,2.73Z"/><path class="at" d="M82.77,60.44c-.88-.51-1.58-1.73-1.58-2.73,0-.18,.03-.34,.08-.48-.47,.04-.8,.43-.8,1.11,0,1,.71,2.23,1.58,2.73,.71,.41,1.31,.21,1.51-.42-.23,.02-.5-.04-.79-.21Z"/><path class="at" d="M98.62,69.44c-.87-.51-1.58-1.73-1.58-2.73,0-.18,.03-.34,.08-.48-.47,.04-.8,.43-.8,1.11,0,1,.71,2.23,1.58,2.73,.71,.41,1.31,.21,1.51-.42-.23,.02-.5-.04-.79-.21Z"/><g><path class="by" d="M81.28,61.36v-2.24c0-.43,.34-.77,.77-.77s.77,.34,.77,.77v3.11l-1.54-.87Z"/><path class="by" d="M96.97,70.24v-2.3c0-.43,.35-.77,.77-.77s.77,.35,.77,.77v3.17l-1.54-.87Z"/></g></g><g><path class="bg" d="M58.89,154.7l21.16-12.22c1.75-1.01,1.53-2.77-.49-3.93l-36.29-20.95c-2.02-1.16-5.07-1.29-6.81-.28l-21.16,12.22c-1.75,1.01-1.53,2.77,.49,3.93l36.29,20.95c2.02,1.16,5.07,1.29,6.81,.28Z"/><path class="cj" d="M58.9,155.3l21.75-12.56c1.79-1.04,1.57-2.85-.5-4.04l-37.29-21.53c-2.07-1.2-5.21-1.33-7-.29l-21.75,12.56c-1.79,1.04-1.57,2.85,.5,4.04l37.29,21.53c2.07,1.2,5.21,1.33,7,.29Z"/><path class="cd" d="M58.89,154.14l21.16-12.22c1.75-1.01,1.53-2.77-.49-3.93l-36.29-20.95c-2.02-1.16-5.07-1.29-6.81-.28l-21.16,12.22c-1.75,1.01-1.53,2.77,.49,3.93l36.29,20.95c2.02,1.16,5.07,1.29,6.81,.28Z"/><path class="cl" d="M15.79,132.6l36.29,20.95c2.02,1.16,5.07,1.29,6.81,.28l21.16-12.22c.73-.42,1.11-.98,1.17-1.57,.07,.7-.31,1.38-1.17,1.87l-21.16,12.22c-1.75,1.01-4.8,.88-6.81-.28l-36.29-20.95c-1.17-.68-1.73-1.55-1.66-2.37,.07,.72,.63,1.47,1.66,2.06Z"/><path class="ar" d="M59.99,145.83c.29,.16,.61,.23,.97,.19s.75-.18,1.17-.43c.44-.25,.69-.48,.76-.68,.07-.2-.05-.39-.34-.56-.29-.16-.61-.23-.97-.18-.36,.04-.76,.18-1.18,.43-.43,.25-.69,.48-.75,.68-.07,.2,.05,.39,.34,.56Zm.42-.24c-.12-.07-.14-.16-.06-.27,.08-.11,.27-.25,.57-.42,.31-.18,.55-.29,.74-.33,.19-.05,.34-.03,.46,.04,.12,.07,.14,.16,.06,.27-.08,.11-.27,.25-.58,.43s-.55,.29-.73,.33c-.18,.05-.34,.03-.46-.04Zm-4.55-2.14c.29,.16,.61,.23,.97,.19,.36-.04,.75-.18,1.17-.43,.44-.25,.69-.48,.76-.68,.07-.2-.05-.39-.34-.56-.29-.16-.61-.23-.97-.18-.36,.04-.76,.18-1.18,.43-.43,.25-.69,.48-.75,.68-.07,.2,.05,.39,.34,.56Zm.42-.24c-.12-.07-.14-.16-.06-.27,.08-.11,.27-.25,.57-.42,.31-.18,.55-.29,.74-.33,.19-.05,.34-.03,.46,.04,.12,.07,.14,.16,.06,.27-.08,.11-.27,.25-.58,.43-.31,.18-.55,.29-.73,.33-.18,.05-.34,.03-.46-.04Zm1.64,1.44c.29,.16,.61,.23,.97,.19s.75-.18,1.17-.43c.44-.25,.69-.48,.76-.68,.07-.2-.05-.39-.34-.56-.29-.16-.61-.23-.97-.18-.36,.04-.76,.18-1.18,.43-.43,.25-.69,.48-.75,.68-.07,.2,.05,.39,.34,.56Zm.42-.24c-.12-.07-.14-.16-.06-.27,.08-.11,.27-.25,.57-.42,.31-.18,.55-.29,.74-.33,.19-.05,.34-.03,.46,.04,.12,.07,.14,.16,.06,.27-.08,.11-.27,.25-.58,.43-.31,.18-.55,.29-.73,.33-.18,.05-.34,.03-.46-.04Zm3.7,2.63c.29,.16,.61,.23,.97,.19,.36-.04,.75-.18,1.17-.43,.44-.25,.69-.48,.76-.68,.07-.2-.05-.39-.34-.56-.29-.16-.61-.23-.97-.18-.36,.04-.76,.18-1.18,.43-.43,.25-.69,.48-.75,.68-.07,.2,.05,.39,.34,.56Zm.42-.24c-.12-.07-.14-.16-.06-.27,.08-.11,.27-.25,.57-.42,.31-.18,.55-.29,.74-.33,.19-.05,.34-.03,.46,.04,.12,.07,.14,.16,.06,.27-.08,.11-.27,.25-.58,.43-.31,.18-.55,.29-.73,.33-.18,.05-.34,.03-.46-.04Zm-11.58-6.2c.29,.16,.61,.23,.97,.19,.36-.04,.75-.18,1.17-.43,.44-.25,.69-.48,.76-.68,.07-.2-.05-.39-.34-.56-.29-.16-.61-.23-.97-.18-.36,.04-.76,.18-1.18,.43-.43,.25-.69,.48-.75,.68-.07,.2,.05,.39,.34,.56Zm.42-.24c-.12-.07-.14-.16-.06-.27,.08-.11,.27-.25,.57-.42,.31-.18,.55-.29,.74-.33s.34-.03,.46,.04c.12,.07,.14,.16,.06,.27-.08,.11-.27,.25-.58,.43s-.55,.29-.73,.33c-.18,.05-.34,.03-.46-.04Zm-4.55-2.14c.29,.16,.61,.23,.97,.19,.36-.04,.75-.18,1.17-.43,.44-.25,.69-.48,.76-.68s-.05-.39-.34-.56c-.29-.16-.61-.23-.97-.18-.36,.04-.76,.18-1.18,.43-.43,.25-.69,.48-.75,.68-.07,.2,.05,.39,.34,.56Zm.42-.24c-.12-.07-.14-.16-.06-.27,.08-.11,.27-.25,.57-.42,.31-.18,.55-.29,.74-.33,.19-.05,.34-.03,.46,.04,.12,.07,.14,.16,.06,.27-.08,.11-.27,.25-.58,.43-.31,.18-.55,.29-.73,.33-.18,.05-.34,.03-.46-.04Zm1.64,1.44c.29,.16,.61,.23,.97,.19,.36-.04,.75-.18,1.17-.43,.44-.25,.69-.48,.76-.68,.07-.2-.05-.39-.34-.56-.29-.16-.61-.23-.97-.18-.36,.04-.76,.18-1.18,.43-.43,.25-.69,.48-.75,.68-.07,.2,.05,.39,.34,.56Zm.42-.24c-.12-.07-.14-.16-.06-.27,.08-.11,.27-.25,.57-.42,.31-.18,.55-.29,.74-.33,.19-.05,.34-.03,.46,.04,.12,.07,.14,.16,.06,.27-.08,.11-.27,.25-.58,.43s-.55,.29-.73,.33c-.18,.05-.34,.03-.46-.04Zm3.7,2.63c.29,.16,.61,.23,.97,.19,.36-.04,.75-.18,1.17-.43,.44-.25,.69-.48,.76-.68,.07-.2-.05-.39-.34-.56-.29-.16-.61-.23-.97-.18-.36,.04-.76,.18-1.18,.43-.43,.25-.69,.48-.75,.68-.07,.2,.05,.39,.34,.56Zm.42-.24c-.12-.07-.14-.16-.06-.27,.08-.11,.27-.25,.57-.42,.31-.18,.55-.29,.74-.33s.34-.03,.46,.04c.12,.07,.14,.16,.06,.27-.08,.11-.27,.25-.58,.43s-.55,.29-.73,.33c-.18,.05-.34,.03-.46-.04Zm-9.87-5.21c.29,.16,.61,.23,.97,.19,.36-.04,.75-.18,1.17-.43,.44-.25,.69-.48,.76-.68,.07-.2-.05-.39-.34-.56-.29-.16-.61-.23-.97-.18-.36,.04-.76,.18-1.18,.43-.43,.25-.69,.48-.75,.68-.07,.2,.05,.39,.34,.56Zm.42-.24c-.12-.07-.14-.16-.06-.27,.08-.11,.27-.25,.57-.42,.31-.18,.55-.29,.74-.33,.19-.05,.34-.03,.46,.04,.12,.07,.14,.16,.06,.27-.08,.11-.27,.25-.58,.43-.31,.18-.55,.29-.73,.33-.18,.05-.34,.03-.46-.04Zm-4.55-2.14c.29,.16,.61,.23,.97,.19,.36-.04,.75-.18,1.17-.43,.44-.25,.69-.48,.76-.68,.07-.2-.05-.39-.34-.56-.29-.16-.61-.23-.97-.18s-.76,.18-1.18,.43c-.43,.25-.69,.48-.75,.68-.07,.2,.05,.39,.34,.56Zm.42-.24c-.12-.07-.14-.16-.06-.27,.08-.11,.27-.25,.57-.42,.31-.18,.55-.29,.74-.33,.19-.05,.34-.03,.46,.04,.12,.07,.14,.16,.06,.27-.08,.11-.27,.25-.58,.43-.31,.18-.55,.29-.73,.33-.18,.05-.34,.03-.46-.04Zm1.64,1.44c.29,.16,.61,.23,.97,.19,.36-.04,.75-.18,1.17-.43,.44-.25,.69-.48,.76-.68,.07-.2-.05-.39-.34-.56-.29-.16-.61-.23-.97-.18-.36,.04-.76,.18-1.18,.43-.43,.25-.69,.48-.75,.68-.07,.2,.05,.39,.34,.56Zm.42-.24c-.12-.07-.14-.16-.06-.27,.08-.11,.27-.25,.57-.42,.31-.18,.55-.29,.74-.33s.34-.03,.46,.04c.12,.07,.14,.16,.06,.27-.08,.11-.27,.25-.58,.43s-.55,.29-.73,.33c-.18,.05-.34,.03-.46-.04Zm-4.55-2.14c.29,.16,.61,.23,.97,.19s.75-.18,1.17-.43c.44-.25,.69-.48,.76-.68,.07-.2-.05-.39-.34-.56-.29-.16-.61-.23-.97-.18-.36,.04-.76,.18-1.18,.43-.43,.25-.69,.48-.75,.68-.07,.2,.05,.39,.34,.56Zm.42-.24c-.12-.07-.14-.16-.06-.27,.08-.11,.27-.25,.57-.42,.31-.18,.55-.29,.74-.33s.34-.03,.46,.04c.12,.07,.14,.16,.06,.27-.08,.11-.27,.25-.58,.43s-.55,.29-.73,.33c-.18,.05-.34,.03-.46-.04Zm-6.96-6.48c-.29-.16-.61-.23-.97-.18-.36,.04-.76,.18-1.18,.43-.43,.25-.69,.48-.75,.68-.07,.2,.05,.39,.34,.56,.29,.16,.61,.23,.97,.19,.36-.04,.75-.18,1.17-.43,.44-.25,.69-.48,.76-.68,.07-.2-.05-.39-.34-.56Zm-.43,.25c.12,.07,.14,.16,.06,.27-.08,.11-.27,.25-.58,.43-.31,.18-.55,.29-.73,.33-.18,.05-.34,.03-.46-.04-.12-.07-.14-.16-.06-.27,.08-.11,.27-.25,.57-.42,.31-.18,.55-.29,.74-.33,.19-.05,.34-.03,.46,.04Zm1.99,3.62c.29,.16,.61,.23,.97,.19s.75-.18,1.17-.43c.44-.25,.69-.48,.76-.68,.07-.2-.05-.39-.34-.56-.29-.16-.61-.23-.97-.18-.36,.04-.76,.18-1.18,.43-.43,.25-.69,.48-.75,.68-.07,.2,.05,.39,.34,.56Zm.42-.24c-.12-.07-.14-.16-.06-.27,.08-.11,.27-.25,.57-.42,.31-.18,.55-.29,.74-.33,.19-.05,.34-.03,.46,.04,.12,.07,.14,.16,.06,.27-.08,.11-.27,.25-.58,.43-.31,.18-.55,.29-.73,.33-.18,.05-.34,.03-.46-.04Zm-2.49-.95c.29,.16,.61,.23,.97,.19,.36-.04,.75-.18,1.17-.43,.44-.25,.69-.48,.76-.68,.07-.2-.05-.39-.34-.56-.29-.16-.61-.23-.97-.18-.36,.04-.76,.18-1.18,.43-.43,.25-.69,.48-.75,.68-.07,.2,.05,.39,.34,.56Zm.42-.24c-.12-.07-.14-.16-.06-.27,.08-.11,.27-.25,.57-.42,.31-.18,.55-.29,.74-.33,.19-.05,.34-.03,.46,.04,.12,.07,.14,.16,.06,.27-.08,.11-.27,.25-.58,.43-.31,.18-.55,.29-.73,.33-.18,.05-.34,.03-.46-.04Zm3.7,2.63c.29,.16,.61,.23,.97,.19s.75-.18,1.17-.43c.44-.25,.69-.48,.76-.68,.07-.2-.05-.39-.34-.56-.29-.16-.61-.23-.97-.18-.36,.04-.76,.18-1.18,.43-.43,.25-.69,.48-.75,.68-.07,.2,.05,.39,.34,.56Zm.42-.24c-.12-.07-.14-.16-.06-.27,.08-.11,.27-.25,.57-.42,.31-.18,.55-.29,.74-.33s.34-.03,.46,.04c.12,.07,.14,.16,.06,.27-.08,.11-.27,.25-.58,.43-.31,.18-.55,.29-.73,.33-.18,.05-.34,.03-.46-.04Z"/><path class="bm" d="M59.99,145.54c.29,.16,.61,.23,.97,.19,.36-.04,.75-.18,1.17-.43,.44-.25,.69-.48,.76-.68,.07-.2-.05-.39-.34-.56-.29-.16-.61-.23-.97-.18-.36,.04-.76,.18-1.18,.43-.43,.25-.69,.48-.75,.68-.07,.2,.05,.39,.34,.56Zm.42-.24c-.12-.07-.14-.16-.06-.27,.08-.11,.27-.25,.57-.42,.31-.18,.55-.29,.74-.33,.19-.05,.34-.03,.46,.04,.12,.07,.14,.16,.06,.27-.08,.11-.27,.25-.58,.43s-.55,.29-.73,.33c-.18,.05-.34,.03-.46-.04Zm-4.55-2.14c.29,.16,.61,.23,.97,.19s.75-.18,1.17-.43c.44-.25,.69-.48,.76-.68s-.05-.39-.34-.56c-.29-.16-.61-.23-.97-.18-.36,.04-.76,.18-1.18,.43-.43,.25-.69,.48-.75,.68-.07,.2,.05,.39,.34,.56Zm.42-.24c-.12-.07-.14-.16-.06-.27,.08-.11,.27-.25,.57-.42,.31-.18,.55-.29,.74-.33s.34-.03,.46,.04c.12,.07,.14,.16,.06,.27-.08,.11-.27,.25-.58,.43-.31,.18-.55,.29-.73,.33-.18,.05-.34,.03-.46-.04Zm1.64,1.44c.29,.16,.61,.23,.97,.19,.36-.04,.75-.18,1.17-.43,.44-.25,.69-.48,.76-.68,.07-.2-.05-.39-.34-.56-.29-.16-.61-.23-.97-.18-.36,.04-.76,.18-1.18,.43-.43,.25-.69,.48-.75,.68-.07,.2,.05,.39,.34,.56Zm.42-.24c-.12-.07-.14-.16-.06-.27,.08-.11,.27-.25,.57-.42,.31-.18,.55-.29,.74-.33s.34-.03,.46,.04c.12,.07,.14,.16,.06,.27s-.27,.25-.58,.43c-.31,.18-.55,.29-.73,.33-.18,.05-.34,.03-.46-.04Zm3.7,2.63c.29,.16,.61,.23,.97,.19,.36-.04,.75-.18,1.17-.43,.44-.25,.69-.48,.76-.68,.07-.2-.05-.39-.34-.56-.29-.16-.61-.23-.97-.18-.36,.04-.76,.18-1.18,.43-.43,.25-.69,.48-.75,.68-.07,.2,.05,.39,.34,.56Zm.42-.24c-.12-.07-.14-.16-.06-.27,.08-.11,.27-.25,.57-.42,.31-.18,.55-.29,.74-.33,.19-.05,.34-.03,.46,.04,.12,.07,.14,.16,.06,.27-.08,.11-.27,.25-.58,.43s-.55,.29-.73,.33c-.18,.05-.34,.03-.46-.04Zm-11.58-6.2c.29,.16,.61,.23,.97,.19,.36-.04,.75-.18,1.17-.43,.44-.25,.69-.48,.76-.68,.07-.2-.05-.39-.34-.56-.29-.16-.61-.23-.97-.18s-.76,.18-1.18,.43c-.43,.25-.69,.48-.75,.68-.07,.2,.05,.39,.34,.56Zm.42-.24c-.12-.07-.14-.16-.06-.27,.08-.11,.27-.25,.57-.42,.31-.18,.55-.29,.74-.33s.34-.03,.46,.04c.12,.07,.14,.16,.06,.27-.08,.11-.27,.25-.58,.43-.31,.18-.55,.29-.73,.33-.18,.05-.34,.03-.46-.04Zm-4.55-2.14c.29,.16,.61,.23,.97,.19,.36-.04,.75-.18,1.17-.43,.44-.25,.69-.48,.76-.68s-.05-.39-.34-.56c-.29-.16-.61-.23-.97-.18-.36,.04-.76,.18-1.18,.43-.43,.25-.69,.48-.75,.68-.07,.2,.05,.39,.34,.56Zm.42-.24c-.12-.07-.14-.16-.06-.27,.08-.11,.27-.25,.57-.42,.31-.18,.55-.29,.74-.33s.34-.03,.46,.04c.12,.07,.14,.16,.06,.27-.08,.11-.27,.25-.58,.43-.31,.18-.55,.29-.73,.33-.18,.05-.34,.03-.46-.04Zm1.64,1.44c.29,.16,.61,.23,.97,.19,.36-.04,.75-.18,1.17-.43,.44-.25,.69-.48,.76-.68,.07-.2-.05-.39-.34-.56-.29-.16-.61-.23-.97-.18-.36,.04-.76,.18-1.18,.43-.43,.25-.69,.48-.75,.68-.07,.2,.05,.39,.34,.56Zm.42-.24c-.12-.07-.14-.16-.06-.27,.08-.11,.27-.25,.57-.42,.31-.18,.55-.29,.74-.33,.19-.05,.34-.03,.46,.04,.12,.07,.14,.16,.06,.27-.08,.11-.27,.25-.58,.43-.31,.18-.55,.29-.73,.33-.18,.05-.34,.03-.46-.04Zm3.7,2.63c.29,.16,.61,.23,.97,.19,.36-.04,.75-.18,1.17-.43,.44-.25,.69-.48,.76-.68s-.05-.39-.34-.56c-.29-.16-.61-.23-.97-.18-.36,.04-.76,.18-1.18,.43-.43,.25-.69,.48-.75,.68-.07,.2,.05,.39,.34,.56Zm.42-.24c-.12-.07-.14-.16-.06-.27,.08-.11,.27-.25,.57-.42,.31-.18,.55-.29,.74-.33s.34-.03,.46,.04c.12,.07,.14,.16,.06,.27-.08,.11-.27,.25-.58,.43s-.55,.29-.73,.33c-.18,.05-.34,.03-.46-.04Zm-9.87-5.21c.29,.16,.61,.23,.97,.19,.36-.04,.75-.18,1.17-.43,.44-.25,.69-.48,.76-.68,.07-.2-.05-.39-.34-.56-.29-.16-.61-.23-.97-.18-.36,.04-.76,.18-1.18,.43-.43,.25-.69,.48-.75,.68-.07,.2,.05,.39,.34,.56Zm.42-.24c-.12-.07-.14-.16-.06-.27,.08-.11,.27-.25,.57-.42,.31-.18,.55-.29,.74-.33,.19-.05,.34-.03,.46,.04,.12,.07,.14,.16,.06,.27-.08,.11-.27,.25-.58,.43s-.55,.29-.73,.33c-.18,.05-.34,.03-.46-.04Zm-4.55-2.14c.29,.16,.61,.23,.97,.19,.36-.04,.75-.18,1.17-.43,.44-.25,.69-.48,.76-.68,.07-.2-.05-.39-.34-.56-.29-.16-.61-.23-.97-.18-.36,.04-.76,.18-1.18,.43-.43,.25-.69,.48-.75,.68-.07,.2,.05,.39,.34,.56Zm.42-.24c-.12-.07-.14-.16-.06-.27,.08-.11,.27-.25,.57-.42,.31-.18,.55-.29,.74-.33,.19-.05,.34-.03,.46,.04,.12,.07,.14,.16,.06,.27-.08,.11-.27,.25-.58,.43-.31,.18-.55,.29-.73,.33-.18,.05-.34,.03-.46-.04Zm1.64,1.44c.29,.16,.61,.23,.97,.19,.36-.04,.75-.18,1.17-.43,.44-.25,.69-.48,.76-.68,.07-.2-.05-.39-.34-.56-.29-.16-.61-.23-.97-.18-.36,.04-.76,.18-1.18,.43-.43,.25-.69,.48-.75,.68-.07,.2,.05,.39,.34,.56Zm.42-.24c-.12-.07-.14-.16-.06-.27,.08-.11,.27-.25,.57-.42,.31-.18,.55-.29,.74-.33,.19-.05,.34-.03,.46,.04,.12,.07,.14,.16,.06,.27-.08,.11-.27,.25-.58,.43s-.55,.29-.73,.33c-.18,.05-.34,.03-.46-.04Zm-4.55-2.14c.29,.16,.61,.23,.97,.19,.36-.04,.75-.18,1.17-.43,.44-.25,.69-.48,.76-.68,.07-.2-.05-.39-.34-.56-.29-.16-.61-.23-.97-.18-.36,.04-.76,.18-1.18,.43-.43,.25-.69,.48-.75,.68-.07,.2,.05,.39,.34,.56Zm.42-.24c-.12-.07-.14-.16-.06-.27,.08-.11,.27-.25,.57-.42,.31-.18,.55-.29,.74-.33s.34-.03,.46,.04c.12,.07,.14,.16,.06,.27-.08,.11-.27,.25-.58,.43s-.55,.29-.73,.33c-.18,.05-.34,.03-.46-.04Zm-6.96-6.48c-.29-.16-.61-.23-.97-.18-.36,.04-.76,.18-1.18,.43-.43,.25-.69,.48-.75,.68-.07,.2,.05,.39,.34,.56,.29,.16,.61,.23,.97,.19,.36-.04,.75-.18,1.17-.43,.44-.25,.69-.48,.76-.68,.07-.2-.05-.39-.34-.56Zm-.43,.25c.12,.07,.14,.16,.06,.27-.08,.11-.27,.25-.58,.43-.31,.18-.55,.29-.73,.33-.18,.05-.34,.03-.46-.04-.12-.07-.14-.16-.06-.27,.08-.11,.27-.25,.57-.42,.31-.18,.55-.29,.74-.33,.19-.05,.34-.03,.46,.04Zm1.99,3.62c.29,.16,.61,.23,.97,.19,.36-.04,.75-.18,1.17-.43,.44-.25,.69-.48,.76-.68,.07-.2-.05-.39-.34-.56-.29-.16-.61-.23-.97-.18-.36,.04-.76,.18-1.18,.43-.43,.25-.69,.48-.75,.68-.07,.2,.05,.39,.34,.56Zm.42-.24c-.12-.07-.14-.16-.06-.27,.08-.11,.27-.25,.57-.42,.31-.18,.55-.29,.74-.33s.34-.03,.46,.04c.12,.07,.14,.16,.06,.27-.08,.11-.27,.25-.58,.43-.31,.18-.55,.29-.73,.33-.18,.05-.34,.03-.46-.04Zm-2.49-.95c.29,.16,.61,.23,.97,.19,.36-.04,.75-.18,1.17-.43,.44-.25,.69-.48,.76-.68,.07-.2-.05-.39-.34-.56-.29-.16-.61-.23-.97-.18-.36,.04-.76,.18-1.18,.43-.43,.25-.69,.48-.75,.68-.07,.2,.05,.39,.34,.56Zm.42-.24c-.12-.07-.14-.16-.06-.27,.08-.11,.27-.25,.57-.42,.31-.18,.55-.29,.74-.33s.34-.03,.46,.04c.12,.07,.14,.16,.06,.27-.08,.11-.27,.25-.58,.43-.31,.18-.55,.29-.73,.33-.18,.05-.34,.03-.46-.04Zm3.7,2.63c.29,.16,.61,.23,.97,.19s.75-.18,1.17-.43c.44-.25,.69-.48,.76-.68s-.05-.39-.34-.56c-.29-.16-.61-.23-.97-.18-.36,.04-.76,.18-1.18,.43-.43,.25-.69,.48-.75,.68-.07,.2,.05,.39,.34,.56Zm.42-.24c-.12-.07-.14-.16-.06-.27,.08-.11,.27-.25,.57-.42,.31-.18,.55-.29,.74-.33s.34-.03,.46,.04c.12,.07,.14,.16,.06,.27-.08,.11-.27,.25-.58,.43-.31,.18-.55,.29-.73,.33-.18,.05-.34,.03-.46-.04Z"/><path class="ch" d="M62.08,146.55c-.37-.21-.31-.38-.29-.43,.04-.12,.2-.33,.71-.62,.41-.23,.79-.37,1.13-.41,.07,0,.14-.01,.2-.01,.26,0,.5,.06,.71,.18,.37,.21,.31,.38,.29,.43-.04,.12-.2,.33-.71,.63-.41,.23-.79,.37-1.13,.41-.07,0-.13,.01-.2,.01-.26,0-.49-.06-.71-.18Zm1.6-1.28c-.2,.05-.46,.16-.77,.34-.32,.18-.51,.33-.6,.45-.06,.08-.08,.16-.06,.23,.02,.08,.07,.14,.16,.19,.09,.05,.2,.08,.31,.08,.07,0,.15-.01,.23-.03,.2-.05,.44-.16,.76-.34,.32-.19,.52-.33,.61-.45,.06-.08,.08-.15,.06-.23-.02-.08-.07-.14-.16-.19-.09-.05-.19-.08-.31-.08-.07,0-.15,0-.23,.03Zm-3.66,.09c-.37-.21-.31-.38-.29-.43,.04-.12,.2-.33,.71-.62,.41-.23,.79-.37,1.13-.41,.07,0,.14-.01,.2-.01,.26,0,.5,.06,.71,.18,.37,.21,.31,.38,.29,.43-.04,.12-.2,.33-.71,.62-.41,.23-.79,.37-1.13,.41-.07,0-.13,.01-.2,.01-.26,0-.49-.06-.71-.18Zm1.6-1.28c-.2,.05-.45,.16-.77,.34-.32,.18-.52,.33-.6,.45-.06,.08-.08,.15-.06,.23,.02,.08,.07,.14,.16,.19,.09,.05,.2,.08,.31,.08,.07,0,.15-.01,.23-.03,.19-.05,.45-.16,.76-.34,.32-.18,.52-.33,.61-.45,.06-.08,.08-.15,.06-.23-.02-.08-.07-.14-.16-.19-.09-.05-.19-.08-.31-.08-.07,0-.15,0-.23,.03Zm-3.66,.09c-.37-.21-.31-.38-.29-.44,.04-.12,.2-.33,.71-.62,.4-.23,.79-.37,1.13-.41,.07,0,.14-.01,.2-.01,.26,0,.5,.06,.71,.18,.37,.21,.31,.38,.29,.43-.04,.12-.2,.33-.71,.63-.41,.23-.79,.37-1.13,.41-.07,0-.13,.01-.2,.01-.26,0-.49-.06-.71-.18Zm1.6-1.28c-.2,.05-.45,.16-.77,.34-.32,.18-.51,.33-.6,.45-.06,.08-.08,.16-.06,.23,.02,.08,.07,.14,.16,.19,.09,.05,.2,.08,.31,.08,.07,0,.15-.01,.23-.03,.2-.05,.45-.16,.76-.34,.32-.18,.52-.33,.61-.45,.06-.08,.08-.15,.06-.23-.02-.08-.07-.14-.16-.19-.09-.05-.19-.08-.31-.08-.07,0-.15,.01-.23,.03Zm-3.66,.09c-.37-.21-.31-.38-.29-.43,.04-.12,.2-.33,.71-.62,.41-.23,.79-.37,1.14-.41,.07,0,.14-.01,.2-.01,.26,0,.5,.06,.71,.18,.37,.21,.31,.38,.29,.43-.04,.12-.2,.33-.71,.63-.41,.23-.79,.37-1.13,.41-.07,0-.13,.01-.2,.01-.26,0-.49-.06-.71-.18Zm1.6-1.28c-.2,.05-.45,.16-.77,.34-.32,.18-.52,.33-.6,.45-.06,.08-.08,.15-.06,.23,.02,.08,.07,.14,.16,.19,.09,.05,.2,.08,.31,.08,.07,0,.15-.01,.23-.03,.2-.05,.45-.16,.76-.34,.32-.18,.52-.33,.61-.45,.06-.08,.08-.15,.06-.23-.02-.08-.07-.14-.16-.19-.09-.05-.19-.08-.31-.08-.07,0-.15,.01-.23,.03Zm-3.79-.21c-.26,0-.49-.06-.71-.18-.37-.21-.31-.38-.29-.43,.04-.12,.2-.33,.71-.62,.41-.23,.79-.37,1.13-.41,.07,0,.14-.01,.2-.01,.26,0,.5,.06,.71,.18,.37,.21,.31,.38,.29,.43-.04,.12-.2,.33-.71,.63-.41,.23-.79,.37-1.13,.41-.07,0-.13,.01-.2,.01h0Zm.89-1.46c-.2,.05-.46,.16-.77,.34-.32,.18-.51,.33-.6,.45-.06,.08-.08,.15-.06,.23,.02,.08,.07,.14,.16,.19,.09,.05,.2,.08,.31,.08,.07,0,.15-.01,.23-.03,.2-.05,.44-.16,.76-.34,.32-.18,.52-.33,.61-.45,.06-.08,.08-.15,.06-.23-.02-.08-.07-.14-.16-.19-.09-.05-.19-.08-.31-.08-.07,0-.15,0-.23,.03Zm-3.66,.09c-.37-.21-.31-.38-.29-.43,.04-.12,.2-.33,.71-.62,.41-.23,.79-.37,1.13-.41,.07,0,.14-.01,.2-.01,.26,0,.5,.06,.71,.18,.37,.21,.31,.38,.29,.43-.04,.12-.2,.33-.71,.63-.41,.23-.79,.37-1.13,.41-.07,0-.13,.01-.2,.01-.26,0-.49-.06-.71-.18Zm1.6-1.28c-.2,.05-.45,.16-.77,.34-.32,.18-.52,.33-.6,.45-.06,.08-.08,.15-.06,.23,.02,.08,.07,.14,.16,.19,.09,.05,.2,.08,.31,.08,.07,0,.15-.01,.23-.03,.19-.05,.45-.16,.76-.34,.32-.18,.52-.33,.61-.45,.06-.08,.08-.15,.06-.23-.02-.08-.07-.14-.16-.19-.09-.05-.19-.08-.31-.08-.07,0-.15,0-.23,.03Zm-3.66,.09c-.37-.21-.31-.38-.29-.44,.04-.12,.2-.33,.71-.62,.41-.23,.79-.37,1.14-.41,.07,0,.14-.01,.2-.01,.26,0,.5,.06,.71,.18,.37,.21,.31,.38,.29,.43-.04,.12-.2,.33-.71,.63-.41,.23-.79,.37-1.13,.41-.07,0-.13,.01-.2,.01-.26,0-.49-.06-.71-.18Zm1.6-1.28c-.2,.05-.45,.16-.77,.34-.32,.18-.52,.33-.6,.45-.06,.08-.08,.16-.06,.23,.02,.08,.07,.14,.16,.19,.09,.05,.2,.08,.31,.08,.07,0,.15-.01,.23-.03,.2-.05,.45-.16,.76-.34,.32-.18,.52-.33,.61-.45,.06-.08,.08-.15,.06-.23-.02-.08-.07-.14-.16-.19-.09-.05-.19-.08-.31-.08-.07,0-.15,.01-.23,.03Zm-2.95,.27c-.26,0-.49-.06-.71-.18-.37-.21-.31-.38-.29-.44,.04-.12,.2-.33,.71-.62,.41-.23,.79-.37,1.13-.41,.07,0,.14-.01,.2-.01,.26,0,.5,.06,.71,.18,.37,.21,.31,.38,.29,.43-.04,.12-.2,.33-.71,.63-.41,.23-.79,.37-1.13,.41-.07,0-.13,.01-.2,.01h0Zm.89-1.46c-.2,.05-.46,.16-.77,.34-.32,.18-.52,.33-.6,.45-.06,.08-.08,.16-.06,.23,.02,.08,.07,.14,.16,.19,.09,.05,.2,.08,.31,.08,.07,0,.15-.01,.23-.03,.2-.05,.44-.16,.76-.34,.32-.18,.52-.33,.61-.45,.06-.08,.08-.15,.06-.23-.02-.08-.07-.14-.16-.19-.09-.05-.19-.08-.31-.08-.07,0-.15,0-.23,.03Zm-4.14-.41c-.26,0-.49-.06-.71-.18-.37-.21-.31-.38-.29-.43,.04-.12,.2-.33,.71-.62,.41-.23,.79-.37,1.14-.41,.07,0,.14-.01,.2-.01,.26,0,.5,.06,.71,.18,.37,.21,.31,.38,.29,.43-.04,.12-.2,.33-.71,.63-.41,.23-.79,.37-1.13,.41-.07,0-.13,.01-.2,.01h0Zm.89-1.46c-.2,.05-.45,.16-.77,.34-.32,.18-.52,.33-.6,.45-.06,.08-.08,.16-.06,.23,.02,.08,.07,.14,.16,.19,.09,.05,.2,.08,.31,.08,.07,0,.15-.01,.23-.03,.2-.05,.44-.16,.76-.34,.32-.18,.52-.33,.61-.45,.06-.08,.08-.15,.06-.23-.02-.08-.07-.14-.16-.19-.09-.05-.19-.08-.31-.08-.07,0-.15,0-.23,.03Zm-2.95,.27c-.26,0-.49-.06-.71-.18-.37-.21-.31-.38-.29-.43,.04-.12,.2-.33,.71-.62,.4-.23,.79-.37,1.13-.41,.07,0,.14-.01,.2-.01,.26,0,.5,.06,.71,.18,.37,.21,.31,.38,.29,.43-.04,.12-.2,.33-.71,.63-.41,.23-.79,.37-1.13,.41-.07,0-.13,.01-.2,.01h0Zm.89-1.47c-.2,.05-.45,.16-.77,.34-.32,.18-.52,.33-.6,.45-.06,.08-.08,.15-.06,.23,.02,.08,.07,.14,.16,.19,.09,.05,.2,.08,.31,.08,.07,0,.15-.01,.23-.03,.2-.05,.45-.16,.76-.34,.32-.18,.52-.33,.61-.45,.06-.08,.08-.15,.06-.23-.02-.08-.07-.14-.16-.19-.09-.05-.19-.08-.31-.08-.07,0-.15,0-.23,.03Zm-2.95,.27c-.26,0-.49-.06-.71-.18-.37-.21-.31-.38-.29-.44,.04-.12,.2-.33,.71-.62,.41-.23,.79-.37,1.14-.41,.07,0,.14-.01,.2-.01,.26,0,.5,.06,.71,.18,.37,.21,.31,.38,.29,.43-.04,.12-.2,.33-.71,.63-.41,.23-.79,.37-1.13,.41-.07,0-.13,.01-.2,.01h0Zm.89-1.46c-.2,.05-.45,.16-.77,.34-.32,.18-.52,.33-.6,.45-.06,.08-.08,.16-.06,.23,.02,.08,.07,.14,.16,.19,.09,.05,.2,.08,.31,.08,.07,0,.15-.01,.23-.03,.2-.05,.45-.16,.76-.34,.32-.18,.52-.33,.61-.45,.06-.08,.08-.15,.06-.23-.02-.08-.07-.14-.16-.19-.09-.05-.19-.08-.31-.08-.07,0-.15,.01-.23,.03Zm-2.95,.27c-.26,0-.49-.06-.71-.18-.37-.21-.31-.38-.29-.44,.04-.12,.2-.33,.71-.62,.41-.23,.79-.37,1.14-.41,.07,0,.14-.01,.2-.01,.26,0,.5,.06,.71,.18,.37,.21,.31,.38,.29,.43-.04,.12-.2,.33-.71,.63-.41,.23-.79,.37-1.13,.41-.07,0-.13,.01-.2,.01h0Zm.89-1.46c-.2,.05-.45,.16-.77,.34-.32,.18-.52,.33-.6,.45-.06,.08-.08,.16-.06,.23,.02,.08,.07,.14,.16,.19,.09,.05,.2,.08,.31,.08,.07,0,.15-.01,.23-.03,.19-.05,.45-.16,.76-.34,.32-.19,.52-.33,.61-.45,.06-.08,.08-.15,.06-.23-.02-.08-.07-.14-.16-.19-.09-.05-.19-.08-.31-.08-.07,0-.15,0-.23,.03Zm-3.79-.21c-.26,0-.49-.06-.71-.18-.37-.21-.31-.38-.29-.43,.04-.12,.2-.33,.71-.62,.41-.23,.79-.37,1.13-.41,.07,0,.14-.01,.2-.01,.26,0,.5,.06,.71,.18,.37,.21,.31,.38,.29,.43-.04,.12-.2,.33-.71,.63-.41,.23-.79,.37-1.13,.41-.07,0-.13,.01-.2,.01h0Zm.89-1.46c-.2,.05-.45,.16-.77,.34-.32,.18-.52,.33-.6,.45-.06,.08-.08,.15-.06,.23,.02,.08,.07,.14,.16,.19,.09,.05,.2,.08,.31,.08,.07,0,.15-.01,.23-.03,.19-.05,.45-.17,.76-.34,.32-.18,.52-.33,.61-.45,.06-.08,.08-.15,.06-.23-.02-.08-.07-.14-.16-.19-.09-.05-.19-.08-.31-.08-.07,0-.15,0-.23,.03Zm-3.66,.09c-.37-.21-.31-.38-.29-.43,.04-.12,.2-.33,.71-.62,.4-.23,.79-.37,1.13-.41,.07,0,.14-.01,.2-.01,.26,0,.5,.06,.71,.18,.37,.21,.31,.38,.29,.43-.04,.12-.2,.33-.71,.62-.41,.23-.79,.37-1.13,.41-.07,0-.13,.01-.2,.01-.26,0-.49-.06-.71-.18Zm1.6-1.28c-.2,.05-.46,.16-.77,.34-.32,.18-.52,.33-.6,.45-.06,.08-.08,.16-.06,.23,.02,.08,.07,.14,.16,.19,.09,.05,.2,.08,.31,.08,.07,0,.15-.01,.23-.03,.2-.05,.45-.16,.76-.34,.32-.18,.52-.33,.61-.45,.06-.08,.08-.15,.06-.23-.02-.08-.07-.14-.16-.19-.09-.05-.19-.08-.31-.08-.07,0-.15,0-.23,.03Zm-2.95,.27c-.26,0-.49-.06-.71-.18-.37-.21-.31-.38-.29-.44,.04-.12,.2-.33,.71-.62,.41-.23,.79-.37,1.14-.41,.07,0,.14-.01,.2-.01,.26,0,.5,.06,.71,.18,.37,.21,.31,.38,.29,.43-.04,.12-.2,.33-.71,.63-.41,.23-.79,.37-1.13,.41-.07,0-.13,.01-.2,.01h0Zm.89-1.46c-.2,.05-.45,.16-.77,.34-.32,.18-.51,.33-.6,.45-.06,.08-.08,.16-.06,.23,.02,.08,.07,.14,.16,.19,.09,.05,.2,.08,.31,.08,.07,0,.15-.01,.23-.03,.2-.05,.45-.16,.76-.34,.32-.18,.52-.33,.61-.45,.06-.08,.08-.15,.06-.23-.02-.08-.07-.14-.16-.19-.09-.05-.19-.08-.31-.08-.07,0-.15,0-.23,.03Zm-2.95,.27c-.26,0-.49-.06-.71-.18-.37-.21-.31-.38-.29-.44,.04-.12,.2-.33,.71-.62,.41-.23,.79-.37,1.14-.41,.07,0,.14-.01,.2-.01,.26,0,.5,.06,.71,.18,.37,.21,.31,.38,.29,.43-.04,.12-.2,.33-.71,.63-.41,.23-.79,.37-1.13,.41-.07,0-.13,.01-.2,.01h0Zm.89-1.46c-.2,.05-.45,.16-.77,.34-.32,.18-.52,.33-.6,.45-.06,.08-.08,.16-.06,.23,.02,.08,.07,.14,.16,.19,.09,.05,.2,.08,.31,.08,.07,0,.15-.01,.23-.03,.2-.05,.44-.16,.76-.34,.32-.19,.52-.33,.61-.45,.06-.08,.08-.15,.06-.23-.02-.08-.07-.14-.16-.19-.09-.05-.19-.08-.31-.08-.07,0-.15,0-.23,.03Z"/><path class="bj" d="M51.26,150.39c1.69,.97,4.43,.97,6.12-.01s1.7-2.56,.02-3.53c-1.69-.97-4.43-.97-6.12,.01-1.7,.98-1.7,2.56-.02,3.53Z"/><path class="bw" d="M47.91,148.46c1.69,.97,4.43,.97,6.12-.01,1.7-.98,1.7-2.56,.02-3.53-1.69-.97-4.43-.97-6.12,.01-1.7,.98-1.7,2.56-.02,3.53Z"/><g class="as"><path class="aq" d="M39.25,125.38c.36-.21,.56-.5,.53-.8-.01-.12,.07-.24,.22-.33,.15-.09,.37-.14,.59-.13,.63,.02,1.23-.16,1.59-.46,.43-.36,.43-.85,0-1.21-.07-.06-.14-.11-.22-.15-.72-.42-1.9-.42-2.62,0-.36,.21-.56,.5-.53,.8,.01,.12-.07,.24-.22,.33-.15,.09-.37,.14-.59,.13-.63-.02-1.23,.16-1.59,.46-.43,.35-.43,.85,0,1.21,.36,.29,.93,.47,1.53,.47,.5,0,.96-.11,1.31-.31Z"/><path class="aq" d="M43.5,125.36l-1.97-1.14,.06-.04c-.31,.09-.66,.13-1.02,.12-.13,0-.26,.02-.35,.08-.09,.05-.13,.12-.12,.19,.02,.19-.05,.37-.17,.54l2,1.15,1.57-.91Z"/><path class="aq" d="M42.44,123.77c-.17,.15-.4,.26-.65,.35l1.93,1.12,.41-.24c.74-.43,.73-1.12,0-1.55l-1.46-.84c.25,.38,.18,.82-.22,1.16Z"/><path class="aq" d="M39.78,125.29c-.09,.08-.18,.16-.3,.22-.41,.24-.95,.37-1.53,.36-.27,0-.53-.03-.78-.09l1.45,.84c.74,.43,1.94,.43,2.68,0l.41-.24-1.92-1.11Z"/><path class="aq" d="M36.14,123.91c.17-.15,.4-.26,.65-.35l-1.93-1.12-.41,.24c-.74,.43-.73,1.12,0,1.55l1.46,.84c-.25-.38-.18-.82,.22-1.16Z"/><path class="aq" d="M38.36,123.29c.09-.05,.13-.12,.12-.19-.02-.19,.05-.37,.17-.54l-2-1.15-1.57,.91,2,1.16c.29-.07,.6-.11,.92-.1,.14,0,.26-.02,.35-.08Z"/><path class="aq" d="M38.8,122.39c.09-.08,.18-.16,.3-.22,.62-.36,1.54-.45,2.32-.28l-1.45-.84c-.74-.43-1.94-.43-2.68,0l-.41,.24,1.92,1.11Z"/></g><g><path class="bi" d="M39.25,125.2c.36-.21,.56-.5,.53-.8-.01-.12,.07-.24,.22-.33,.15-.09,.37-.14,.59-.13,.63,.02,1.23-.16,1.59-.46,.43-.36,.43-.85,0-1.21-.07-.06-.14-.11-.22-.15-.72-.42-1.9-.42-2.62,0-.36,.21-.56,.5-.53,.8,.01,.12-.07,.24-.22,.33-.15,.09-.37,.14-.59,.13-.63-.02-1.23,.16-1.59,.46-.43,.35-.43,.85,0,1.21,.36,.29,.93,.47,1.53,.47,.5,0,.96-.11,1.31-.31Z"/><path class="ay" d="M43.5,125.18l-1.97-1.14,.06-.04c-.31,.09-.66,.13-1.02,.12-.13,0-.26,.02-.35,.08-.09,.05-.13,.12-.12,.19,.02,.19-.05,.37-.17,.54l2,1.15,1.57-.91Z"/><path class="cm" d="M42.44,123.59c-.17,.15-.4,.26-.65,.35l1.93,1.12,.41-.24c.74-.43,.73-1.12,0-1.55l-1.46-.84c.25,.38,.18,.82-.22,1.16Z"/><path class="ca" d="M39.78,125.11c-.09,.08-.18,.16-.3,.22-.41,.24-.95,.37-1.53,.36-.27,0-.53-.03-.78-.09l1.45,.84c.74,.43,1.94,.43,2.68,0l.41-.24-1.92-1.11Z"/><path class="cr" d="M36.14,123.73c.17-.15,.4-.26,.65-.35l-1.93-1.12-.41,.24c-.74,.43-.73,1.12,0,1.55l1.46,.84c-.25-.38-.18-.82,.22-1.16Z"/><path class="cg" d="M38.36,123.12c.09-.05,.13-.12,.12-.19-.02-.19,.05-.37,.17-.54l-2-1.15-1.57,.91,2,1.16c.29-.07,.6-.11,.92-.1,.14,0,.26-.02,.35-.08Z"/><path class="cc" d="M38.8,122.21c.09-.08,.18-.16,.3-.22,.62-.36,1.54-.45,2.32-.28l-1.45-.84c-.74-.43-1.94-.43-2.68,0l-.41,.24,1.92,1.11Z"/></g><g class="av"><path class="aq" d="M39.14,137.55c-.03,.1,.02,.19,.17,.28,.14,.08,.3,.11,.48,.09,.18-.02,.38-.09,.59-.21,.22-.13,.35-.24,.38-.34,.03-.1-.02-.19-.17-.28-.14-.08-.3-.11-.49-.09-.18,.02-.38,.09-.59,.21-.22,.13-.34,.24-.38,.34Zm.35,.02c.04-.05,.14-.13,.29-.21,.15-.09,.28-.14,.37-.17,.09-.02,.17-.02,.23,.02,.06,.04,.07,.08,.03,.13-.04,.05-.14,.12-.29,.21s-.27,.14-.37,.17c-.09,.02-.17,.02-.23-.02-.06-.04-.07-.08-.03-.13Z"/><path class="aq" d="M40.14,138.14c-.03,.1,.02,.19,.17,.28,.14,.08,.3,.11,.48,.09,.18-.02,.38-.09,.59-.21,.22-.13,.35-.24,.38-.34,.03-.1-.02-.19-.17-.28-.14-.08-.3-.11-.49-.09-.18,.02-.38,.09-.59,.21-.22,.13-.34,.24-.38,.34Zm.35,.02c.04-.05,.14-.13,.29-.21,.15-.09,.28-.14,.37-.17,.09-.02,.17-.02,.23,.02,.06,.04,.07,.08,.03,.13-.04,.05-.14,.12-.29,.21-.15,.09-.27,.14-.37,.17-.09,.02-.17,.02-.23-.02-.06-.04-.07-.08-.03-.13Z"/><path class="aq" d="M36.45,136.18c.14,.08,.3,.11,.48,.09,.18-.02,.38-.09,.59-.21,.22-.13,.35-.24,.38-.34s-.02-.19-.17-.28c-.14-.08-.3-.11-.49-.09-.18,.02-.38,.09-.59,.21-.22,.13-.34,.24-.38,.34-.03,.1,.02,.19,.17,.28Zm.18-.26c.04-.05,.14-.12,.29-.21,.15-.09,.28-.14,.37-.17,.09-.02,.17-.02,.23,.02,.06,.04,.07,.08,.03,.13-.04,.05-.14,.12-.29,.21-.15,.09-.27,.14-.37,.17-.09,.02-.17,.02-.23-.02-.06-.04-.07-.08-.03-.13Z"/><path class="aq" d="M37.28,136.48c-.03,.1,.02,.19,.17,.28,.14,.08,.3,.11,.48,.09,.18-.02,.38-.09,.59-.21,.22-.13,.35-.24,.38-.34,.03-.1-.02-.19-.17-.28-.14-.08-.3-.11-.49-.09-.18,.02-.38,.09-.59,.21-.22,.13-.34,.24-.38,.34Zm.35,.02c.04-.05,.14-.12,.29-.21,.15-.09,.28-.14,.37-.17,.09-.02,.17-.02,.23,.02,.06,.04,.07,.08,.03,.13-.04,.05-.14,.12-.29,.21-.15,.09-.27,.14-.37,.17-.09,.02-.17,.02-.23-.02-.06-.04-.07-.08-.03-.13Z"/><path class="aq" d="M39.16,136.24c.03-.06,.11-.09,.17-.06,.06,.03,.09,.11,.06,.17l-.54,1.12s-.07,.07-.12,.07c-.02,0-.04,0-.06-.01-.06-.03-.09-.11-.06-.17l.54-1.12Z"/></g><g><path class="co" d="M39.14,137.38c-.03,.1,.02,.19,.17,.28,.14,.08,.3,.11,.48,.09,.18-.02,.38-.09,.59-.21,.22-.13,.35-.24,.38-.34s-.02-.19-.17-.28c-.14-.08-.3-.11-.49-.09-.18,.02-.38,.09-.59,.21-.22,.13-.34,.24-.38,.34Zm.35,.02c.04-.05,.14-.13,.29-.21,.15-.09,.28-.14,.37-.17,.09-.02,.17-.02,.23,.02,.06,.04,.07,.08,.03,.13-.04,.05-.14,.12-.29,.21-.15,.09-.27,.14-.37,.17-.09,.02-.17,.02-.23-.02-.06-.04-.07-.08-.03-.13Z"/><path class="ao" d="M40.14,137.97c-.03,.1,.02,.19,.17,.28,.14,.08,.3,.11,.48,.09,.18-.02,.38-.09,.59-.21,.22-.13,.35-.24,.38-.34,.03-.1-.02-.19-.17-.28-.14-.08-.3-.11-.49-.09-.18,.02-.38,.09-.59,.21-.22,.13-.34,.24-.38,.34Zm.35,.02c.04-.05,.14-.13,.29-.21,.15-.09,.28-.14,.37-.17,.09-.02,.17-.02,.23,.02,.06,.04,.07,.08,.03,.13-.04,.05-.14,.12-.29,.21-.15,.09-.27,.14-.37,.17-.09,.02-.17,.02-.23-.02-.06-.04-.07-.08-.03-.13Z"/><path class="cs" d="M36.45,136.01c.14,.08,.3,.11,.48,.09,.18-.02,.38-.09,.59-.21,.22-.13,.35-.24,.38-.34,.03-.1-.02-.19-.17-.28-.14-.08-.3-.11-.49-.09-.18,.02-.38,.09-.59,.21-.22,.13-.34,.24-.38,.34-.03,.1,.02,.19,.17,.28Zm.18-.26c.04-.05,.14-.12,.29-.21,.15-.09,.28-.14,.37-.17,.09-.02,.17-.02,.23,.02,.06,.04,.07,.08,.03,.13-.04,.05-.14,.12-.29,.21-.15,.09-.27,.14-.37,.17-.09,.02-.17,.02-.23-.02-.06-.04-.07-.08-.03-.13Z"/><path class="cw" d="M37.28,136.32c-.03,.1,.02,.19,.17,.28,.14,.08,.3,.11,.48,.09,.18-.02,.38-.09,.59-.21,.22-.13,.35-.24,.38-.34,.03-.1-.02-.19-.17-.28-.14-.08-.3-.11-.49-.09-.18,.02-.38,.09-.59,.21-.22,.13-.34,.24-.38,.34Zm.35,.02c.04-.05,.14-.12,.29-.21,.15-.09,.28-.14,.37-.17,.09-.02,.17-.02,.23,.02,.06,.04,.07,.08,.03,.13-.04,.05-.14,.12-.29,.21-.15,.09-.27,.14-.37,.17-.09,.02-.17,.02-.23-.02-.06-.04-.07-.08-.03-.13Z"/><path class="bu" d="M39.16,136.07c.03-.06,.11-.09,.17-.06,.06,.03,.09,.11,.06,.17l-.54,1.12s-.07,.07-.12,.07c-.02,0-.04,0-.06-.01-.06-.03-.09-.11-.06-.17l.54-1.12Z"/></g><g class="ck"><path class="be" d="M57.13,132.2c-.03-.18,.09-.36,.36-.52,.05-.03,.14-.09,.27-.16,.13-.07,.22-.13,.28-.16,.28-.15,.58-.22,.9-.2,.32,.02,.63,.11,.92,.28,.19,.11,.32,.22,.41,.34,.09,.12,.12,.24,.09,.35-.03,.12-.12,.22-.27,.31-.02,.01-.04,.02-.07,.02-.03,0-.05,0-.07-.02l-.45-.26s-.05-.03-.05-.05c0-.01,0-.03,.03-.06,.07-.08,.1-.14,.08-.2-.02-.06-.08-.12-.18-.17-.24-.14-.49-.13-.76,.01-.06,.03-.15,.08-.26,.15-.12,.07-.2,.12-.26,.16-.25,.16-.26,.3-.03,.44,.1,.06,.2,.09,.3,.1,.1,.01,.22,0,.35-.05,.04-.01,.07-.02,.1-.02,.03,0,.05,.01,.08,.03l.45,.26s.03,.02,.03,.04c0,.01,0,.03-.03,.04-.16,.09-.34,.14-.54,.16-.2,.02-.4,0-.61-.05-.21-.05-.41-.13-.59-.24-.3-.17-.46-.35-.49-.53Z"/><path class="be" d="M58.81,133.35s.01-.03,.03-.05l1.46-.84s.05-.02,.08-.02c.03,0,.06,0,.08,.02l.38,.22s.03,.03,.03,.05c0,.02-.01,.03-.03,.05l-.12,.07c.12,0,.24,0,.35,.03,.11,.03,.22,.07,.31,.12l.14,.08s.03,.03,.03,.05c0,.02-.01,.03-.03,.05l-.34,.2s-.05,.02-.08,.02c-.03,0-.06,0-.08-.02l-.32-.18c-.08-.05-.17-.07-.26-.07-.09,0-.18,.02-.26,.07l-.79,.45s-.05,.02-.08,.02c-.03,0-.06,0-.08-.02l-.41-.24s-.03-.03-.03-.05Z"/><path class="be" d="M60.38,134.08c-.01-.16,.11-.32,.37-.47l.1-.06c.26-.14,.53-.2,.81-.2,.29,0,.55,.08,.8,.22,.18,.1,.3,.21,.35,.33,.05,.11,.05,.22-.02,.33-.06,.11-.18,.21-.34,.3l-.08,.05s-.05,.02-.08,.02c-.03,0-.06,0-.08-.02l-1-.58h-.02c-.09,.07-.15,.12-.16,.18-.02,.06,.02,.11,.09,.15,.05,.03,.1,.05,.15,.05,.05,0,.1,0,.16,0,.04,0,.07,0,.09,0,.02,0,.04,.01,.06,.03l.41,.24s.03,.02,.03,.04c0,.01,0,.03-.02,.04-.05,.03-.15,.05-.28,.06-.13,0-.29,0-.46-.05s-.34-.1-.5-.2c-.26-.15-.39-.3-.4-.47Zm1.66,.03h0c.1-.06,.15-.12,.17-.18,.01-.06-.02-.11-.1-.15s-.17-.07-.27-.06c-.1,0-.2,.04-.3,.1h0l.5,.29Z"/><path class="be" d="M62.05,135.07c.01-.14,.13-.28,.36-.42l.11-.06,.12-.06c.24-.13,.48-.19,.72-.2,.25,0,.47,.05,.67,.16,.19,.11,.28,.23,.27,.37l.66-.38s.05-.02,.08-.02c.03,0,.06,0,.08,.02l.4,.23s.03,.03,.04,.05c0,.02-.01,.03-.03,.05l-2.06,1.19s-.05,.02-.08,.02c-.03,0-.06,0-.08-.02l-.37-.22s-.03-.03-.03-.05c0-.02,0-.03,.03-.05l.1-.06c-.25,.01-.48-.04-.69-.16-.2-.12-.3-.25-.29-.39Zm1.19,.31c.1,0,.2-.04,.29-.08,.06-.03,.1-.05,.12-.06,.02-.01,.06-.04,.11-.07,.08-.05,.12-.1,.13-.16,0-.06-.03-.11-.12-.16-.09-.05-.19-.08-.28-.07-.1,0-.2,.04-.3,.09l-.1,.05-.09,.06c-.09,.06-.14,.12-.16,.17-.01,.06,.03,.11,.12,.16,.09,.05,.19,.07,.29,.07Z"/><path class="be" d="M63.64,136.14s0-.03,.03-.04l1.47-.85s.05-.02,.08-.02c.03,0,.06,0,.08,.02l.39,.23s.03,.03,.04,.05c0,.02,0,.03-.03,.05l-1.47,.85s-.05,.02-.08,.02c-.03,0-.06,0-.08-.02l-.39-.23s-.03-.03-.03-.05Zm1.85-1.07s.01-.03,.03-.05l.29-.17s.05-.02,.08-.02c.03,0,.06,0,.08,.02l.39,.23s.03,.03,.03,.05c0,.02-.01,.03-.03,.05l-.29,.17s-.05,.02-.08,.02-.06,0-.08-.02l-.39-.23s-.03-.03-.03-.05Z"/><path class="be" d="M65.16,136.33l.58-.33-.25-.14s-.03-.03-.03-.05c0-.02,.01-.03,.03-.05l.27-.15s.05-.02,.08-.02c.03,0,.06,0,.08,.02l.25,.14,.52-.3s.05-.02,.08-.02c.03,0,.06,0,.08,.02l.39,.22s.03,.03,.03,.05c0,.02-.01,.03-.03,.05l-.51,.3,.39,.23s.04,.03,.04,.05c0,.02,0,.03-.03,.05l-.27,.15s-.05,.02-.08,.02c-.03,0-.06,0-.08-.02l-.39-.23-.53,.31c-.07,.04-.11,.08-.12,.12-.01,.04,.01,.07,.08,.11l.25,.14s.03,.03,.03,.05c0,.02-.01,.03-.04,.05l-.29,.17s-.05,.02-.08,.02c-.03,0-.06,0-.08-.02l-.3-.17c-.44-.26-.46-.5-.04-.74Z"/><path class="be" d="M66.1,137.38c-.03-.18,.09-.36,.36-.52,.05-.03,.14-.09,.27-.16,.13-.07,.22-.13,.28-.16,.28-.15,.58-.22,.9-.2,.32,.01,.63,.11,.92,.28,.19,.11,.32,.22,.41,.34,.09,.12,.12,.24,.09,.35-.03,.12-.12,.22-.27,.31-.02,.01-.04,.02-.07,.02-.03,0-.05,0-.07-.02l-.44-.26s-.05-.03-.05-.05c0-.01,0-.03,.03-.06,.07-.08,.1-.14,.08-.2-.02-.06-.08-.12-.18-.17-.24-.14-.49-.13-.76,.01-.06,.03-.15,.08-.26,.15-.12,.07-.2,.12-.26,.16-.25,.16-.26,.3-.03,.44,.1,.06,.2,.09,.3,.1,.1,.01,.22,0,.35-.05,.04-.01,.07-.02,.1-.02,.03,0,.05,.01,.08,.03l.45,.26s.03,.02,.03,.04c0,.01,0,.03-.03,.04-.16,.09-.34,.14-.54,.16-.2,.02-.4,0-.61-.05-.21-.05-.4-.13-.59-.24-.3-.17-.46-.35-.49-.53Z"/><path class="be" d="M67.96,138.62c-.05-.08-.06-.15-.04-.23,.02-.07,.08-.13,.17-.19,.14-.08,.32-.11,.52-.1,.21,.02,.43,.08,.67,.18l.45,.19,.04-.02c.08-.04,.12-.09,.12-.12,0-.04-.03-.08-.11-.12-.04-.02-.08-.04-.13-.05-.04,0-.1-.01-.16-.02-.05,0-.09,0-.12-.01-.02,0-.04,0-.05,0l-.36-.21s-.03-.03-.03-.04,.01-.03,.03-.04c.06-.03,.15-.05,.27-.06,.12,0,.27,0,.43,.04,.16,.04,.32,.1,.49,.19,.26,.15,.4,.29,.41,.43,.01,.14-.08,.26-.27,.37l-.95,.55s-.05,.02-.08,.02c-.03,0-.06,0-.08-.02l-.39-.22s-.03-.03-.03-.05c0-.02,0-.03,.03-.05l.11-.06c-.11,.01-.23,0-.35-.02-.12-.02-.24-.07-.35-.13-.11-.06-.19-.13-.24-.21Zm1.08,.17c.12,0,.23-.04,.35-.1l.04-.02-.3-.13c-.21-.08-.36-.1-.45-.04-.05,.03-.07,.06-.05,.1,.01,.04,.05,.08,.11,.11,.09,.05,.2,.08,.31,.08Z"/><path class="be" d="M69.49,139.52s.01-.03,.03-.05l1.46-.84s.05-.02,.08-.02c.03,0,.06,0,.08,.02l.38,.22s.03,.03,.03,.05-.01,.03-.03,.05l-.12,.07c.12,0,.24,0,.35,.03,.11,.03,.22,.07,.31,.12l.14,.08s.03,.03,.03,.05-.01,.03-.03,.05l-.34,.2s-.05,.02-.08,.02c-.03,0-.06,0-.08-.02l-.32-.18c-.08-.05-.17-.07-.26-.07-.09,0-.18,.02-.26,.07l-.79,.45s-.05,.02-.08,.02c-.03,0-.06,0-.08-.02l-.41-.24s-.03-.03-.03-.05Z"/><path class="be" d="M71.01,140.24c.01-.14,.13-.28,.36-.42l.11-.06,.12-.06c.24-.13,.48-.19,.72-.2,.25,0,.47,.05,.67,.16,.19,.11,.28,.23,.27,.37l.66-.38s.05-.02,.08-.02c.03,0,.06,0,.08,.02l.4,.23s.04,.03,.04,.05c0,.02,0,.03-.03,.05l-2.06,1.19s-.05,.02-.08,.02c-.03,0-.06,0-.08-.02l-.37-.22s-.03-.03-.03-.04c0-.02,0-.03,.03-.05l.1-.06c-.25,.01-.48-.04-.69-.16-.2-.12-.3-.25-.29-.39Zm1.19,.31c.1,0,.2-.04,.29-.08,.06-.03,.1-.05,.13-.06,.02-.01,.06-.04,.11-.07,.08-.05,.12-.1,.13-.16,0-.06-.03-.11-.12-.16-.09-.05-.19-.08-.29-.07-.1,0-.2,.04-.3,.09l-.1,.05-.09,.06c-.09,.06-.14,.12-.16,.17-.01,.06,.03,.11,.12,.16,.09,.05,.19,.07,.29,.07Z"/></g><g class="as"><path class="aq" d="M21.58,131.45s0-.02,.02-.03l.44-.25,.41-.79s0-.01,.02-.02c.01,0,.02,0,.04,0s.03,0,.04,0l.27,.16s.03,.02,.03,.04c0,.01,0,.02,0,.03l-.23,.47,.81-.13s.04,0,.06,0c.02,0,.04,0,.06,.02l.27,.16s.02,.01,.02,.03c0,.01,0,.02-.02,.02,0,0-.02,0-.03,0l-1.37,.24-.44,.25s-.03,.01-.05,.01c-.02,0-.04,0-.05-.01l-.28-.16s-.02-.02-.02-.03Z"/><path class="aq" d="M22.5,131.89c-.01-.1,.05-.2,.19-.29,.02-.01,.05-.03,.09-.05,.04-.03,.08-.04,.09-.05,.15-.08,.32-.11,.5-.11,.18,0,.35,.06,.52,.16,.17,.1,.26,.2,.27,.3,.01,.1-.05,.2-.18,.29-.03,.02-.06,.04-.09,.06-.03,.02-.06,.03-.1,.05-.16,.08-.32,.12-.5,.11-.17,0-.35-.06-.52-.16-.17-.1-.27-.2-.28-.3Zm.72,.19c.06,0,.13-.03,.21-.07,.01,0,.04-.02,.08-.05,.04-.02,.07-.04,.08-.05,.07-.04,.1-.08,.11-.12,0-.04-.02-.07-.07-.1s-.12-.05-.18-.04c-.06,0-.13,.03-.21,.07l-.08,.05-.08,.05c-.07,.04-.11,.08-.11,.12,0,.04,.02,.07,.07,.1,.06,.03,.12,.05,.18,.04Z"/><path class="aq" d="M23.65,132.55c0-.09,.08-.18,.23-.26l.58-.33s.03-.01,.05-.01c.02,0,.04,0,.05,.01l.28,.16s.02,.02,.02,.03c0,.01,0,.02-.02,.03l-.56,.32c-.13,.07-.13,.14-.02,.21,.06,.03,.12,.05,.18,.05,.06,0,.13-.02,.19-.05l.56-.32s.03-.01,.05-.01c.02,0,.04,0,.05,.01l.27,.16s.02,.02,.02,.03,0,.02-.02,.03l-.97,.56s-.03,.01-.05,.01c-.02,0-.04,0-.05-.01l-.25-.15s-.02-.02-.02-.03c0-.01,0-.02,.02-.03l.08-.05c-.17,.02-.34-.02-.5-.11-.12-.07-.18-.15-.17-.24Z"/><path class="aq" d="M24.71,133.26s0-.02,.02-.03l.97-.56s.03-.01,.05-.01c.02,0,.04,0,.05,.01l.25,.15s.02,.02,.02,.03c0,.01,0,.02-.02,.03l-.08,.05c.08,0,.16,0,.23,.02,.07,.02,.14,.04,.21,.08l.09,.05s.02,.02,.02,.03,0,.02-.02,.03l-.22,.13s-.03,.01-.05,.01c-.02,0-.04,0-.05-.01l-.21-.12c-.06-.03-.11-.05-.17-.05-.06,0-.12,.02-.17,.05l-.52,.3s-.03,.01-.05,.01c-.02,0-.04,0-.05-.01l-.27-.16s-.02-.02-.02-.03Z"/><path class="aq" d="M25.59,133.77s0-.02,.02-.03l1.34-.77s.03-.01,.05-.01c.02,0,.04,0,.05,.01l.23,.14s.04,.04,.03,.06l-.28,.73,.75-.44s.03-.01,.05-.01c.02,0,.04,0,.05,.01l.26,.15s.02,.02,.02,.03c0,.01,0,.02-.02,.03l-1.34,.77s-.03,.01-.05,.01c-.02,0-.04,0-.05-.01l-.23-.14s-.04-.04-.03-.06l.25-.71-.73,.42s-.03,.01-.05,.01c-.02,0-.04,0-.05-.01l-.26-.15s-.02-.02-.02-.03Z"/><path class="aq" d="M27.07,134.62c-.03-.05-.04-.1-.02-.15,.02-.05,.05-.09,.11-.12,.09-.05,.21-.08,.34-.06s.28,.05,.44,.12l.3,.13h.02c.05-.04,.08-.07,.08-.1,0-.03-.02-.05-.07-.08-.03-.02-.06-.03-.08-.03-.03,0-.06,0-.11-.01-.03,0-.06,0-.08,0-.01,0-.03,0-.04,0l-.24-.14s-.02-.02-.02-.03,0-.02,.02-.02c.04-.02,.1-.03,.18-.04,.08,0,.18,0,.28,.03,.11,.02,.21,.07,.32,.13,.17,.1,.26,.19,.27,.28,0,.09-.05,.17-.18,.25l-.62,.36s-.03,.01-.05,.01c-.02,0-.04,0-.05-.01l-.25-.15s-.02-.02-.02-.03c0-.01,0-.02,.02-.03l.07-.04c-.07,0-.15,0-.23-.01-.08-.02-.16-.05-.23-.09-.07-.04-.13-.09-.16-.14Zm.71,.11c.08,0,.15-.02,.23-.07h.02l-.2-.1c-.14-.05-.24-.06-.3-.03-.03,.02-.04,.04-.04,.07,0,.03,.03,.05,.07,.07,.06,.04,.13,.05,.21,.05Z"/><path class="aq" d="M28.08,135.21s0-.02,.02-.03l.97-.56s.03-.01,.05-.01c.02,0,.04,0,.05,.01l.24,.14s.02,.02,.02,.03c0,.01,0,.02-.02,.03l-.07,.04c.07,0,.15,0,.23,.02,.08,.01,.15,.04,.22,.08,.15,.09,.2,.18,.14,.28,.09-.01,.17,0,.27,0,.09,.01,.17,.04,.24,.08,.11,.07,.17,.14,.16,.23,0,.09-.08,.17-.23,.26l-.59,.34s-.03,.01-.05,.01c-.02,0-.04,0-.05-.01l-.25-.15s-.02-.02-.02-.03c0-.01,0-.02,.02-.03l.57-.33c.06-.04,.1-.07,.1-.1,0-.03-.02-.06-.06-.09-.04-.02-.09-.04-.15-.03-.06,0-.12,.02-.18,.06l-.57,.33s-.03,.01-.05,.01c-.02,0-.04,0-.05-.01l-.25-.15s-.02-.02-.02-.03c0-.01,0-.02,.02-.03l.57-.33c.06-.04,.1-.07,.1-.1,0-.03-.02-.06-.06-.09-.04-.02-.09-.04-.15-.04-.06,0-.12,.02-.18,.06l-.57,.33s-.03,.01-.05,.01c-.02,0-.04,0-.05-.01l-.26-.15s-.02-.02-.02-.03Z"/><path class="aq" d="M30.08,136.25c0-.11,.07-.21,.24-.31l.06-.04c.17-.09,.35-.14,.54-.13,.19,0,.37,.05,.53,.15,.12,.07,.2,.14,.23,.22,.03,.07,.03,.15-.01,.22-.04,.07-.12,.14-.22,.2l-.05,.03s-.03,.01-.05,.01c-.02,0-.04,0-.05-.01l-.66-.38h-.01c-.06,.04-.1,.08-.11,.12-.01,.04,.01,.07,.06,.1,.03,.02,.07,.03,.1,.03,.03,0,.07,0,.11,0,.03,0,.05,0,.06,0,.01,0,.02,0,.04,.02l.27,.16s.02,.02,.02,.03c0,0,0,.02-.01,.02-.04,.02-.1,.03-.19,.04-.09,0-.19,0-.3-.03-.11-.03-.22-.07-.33-.13-.17-.1-.26-.2-.26-.31Zm1.09,.02h0c.07-.04,.1-.08,.11-.12,0-.04-.01-.07-.07-.1-.05-.03-.11-.04-.18-.04-.06,0-.13,.03-.2,.06h0l.33,.19Z"/></g><g><path class="cn" d="M21.58,131.27s0-.02,.02-.03l.44-.25,.41-.79s0-.01,.02-.02c.01,0,.02,0,.04,0s.03,0,.04,0l.27,.16s.03,.02,.03,.04c0,.01,0,.02,0,.03l-.23,.47,.81-.13s.04,0,.06,0c.02,0,.04,0,.06,.02l.27,.16s.02,.01,.02,.03c0,.01,0,.02-.02,.03,0,0-.02,0-.03,0l-1.37,.24-.44,.25s-.03,.01-.05,.01c-.02,0-.04,0-.05-.01l-.28-.16s-.02-.02-.02-.03Z"/><path class="bf" d="M22.5,131.71c-.01-.1,.05-.2,.19-.29,.02-.01,.05-.03,.09-.05,.04-.03,.08-.04,.09-.05,.15-.08,.32-.11,.5-.11,.18,0,.35,.06,.52,.16,.17,.1,.26,.2,.27,.3,.01,.1-.05,.2-.18,.29-.03,.02-.06,.04-.09,.06-.03,.01-.06,.03-.1,.05-.16,.08-.32,.12-.5,.11-.17,0-.35-.06-.52-.16-.17-.1-.27-.2-.28-.3Zm.72,.19c.06,0,.13-.03,.21-.07,.01,0,.04-.02,.08-.05,.04-.02,.07-.04,.08-.05,.07-.04,.1-.08,.11-.12,0-.04-.02-.07-.07-.1s-.12-.05-.18-.04c-.06,0-.13,.03-.21,.07l-.08,.05-.08,.05c-.07,.04-.11,.08-.11,.12,0,.04,.02,.07,.07,.1,.06,.03,.12,.05,.18,.04Z"/><path class="cp" d="M23.65,132.37c0-.09,.08-.18,.23-.26l.58-.33s.03-.01,.05-.01c.02,0,.04,0,.05,.01l.28,.16s.02,.02,.02,.03c0,.01,0,.02-.02,.03l-.56,.32c-.13,.07-.13,.14-.02,.21,.06,.03,.12,.05,.18,.05,.06,0,.13-.02,.19-.05l.56-.32s.03-.01,.05-.01c.02,0,.04,0,.05,.01l.27,.16s.02,.02,.02,.03,0,.02-.02,.03l-.97,.56s-.03,.01-.05,.01c-.02,0-.04,0-.05-.01l-.25-.15s-.02-.02-.02-.03c0-.01,0-.02,.02-.03l.08-.05c-.17,.02-.34-.02-.5-.11-.12-.07-.18-.15-.17-.24Z"/><path class="bd" d="M24.71,133.08s0-.02,.02-.03l.97-.56s.03-.01,.05-.01c.02,0,.04,0,.05,.01l.25,.15s.02,.02,.02,.03c0,.01,0,.02-.02,.03l-.08,.05c.08,0,.16,0,.23,.02,.07,.02,.14,.04,.21,.08l.09,.05s.02,.02,.02,.03,0,.02-.02,.03l-.22,.13s-.03,.01-.05,.01c-.02,0-.04,0-.05-.01l-.21-.12c-.06-.03-.11-.05-.17-.05-.06,0-.12,.02-.17,.05l-.52,.3s-.03,.01-.05,.01c-.02,0-.04,0-.05-.01l-.27-.16s-.02-.02-.02-.03Z"/><path class="bz" d="M25.59,133.59s0-.02,.02-.03l1.34-.77s.03-.01,.05-.01c.02,0,.04,0,.05,.01l.23,.14s.04,.04,.03,.06l-.28,.73,.75-.44s.03-.01,.05-.01c.02,0,.04,0,.05,.01l.26,.15s.02,.02,.02,.03c0,.01,0,.02-.02,.03l-1.34,.77s-.03,.01-.05,.01c-.02,0-.04,0-.05-.01l-.23-.14s-.04-.04-.03-.06l.25-.71-.73,.42s-.03,.01-.05,.01c-.02,0-.04,0-.05-.01l-.26-.15s-.02-.02-.02-.03Z"/><path class="cb" d="M27.07,134.44c-.03-.05-.04-.1-.02-.15,.02-.05,.05-.09,.11-.12,.09-.05,.21-.08,.34-.06s.28,.05,.44,.12l.3,.13h.02c.05-.04,.08-.07,.08-.1,0-.03-.02-.05-.07-.08-.03-.02-.06-.03-.08-.03-.03,0-.06,0-.11-.01-.03,0-.06,0-.08,0-.01,0-.03,0-.03,0l-.25-.14s-.02-.02-.02-.03,0-.02,.02-.02c.04-.02,.1-.03,.18-.04,.08,0,.18,0,.28,.03,.11,.02,.21,.07,.32,.13,.17,.1,.26,.19,.27,.28,0,.09-.05,.17-.18,.25l-.62,.36s-.03,.01-.05,.01c-.02,0-.04,0-.05-.01l-.25-.15s-.02-.02-.02-.03c0-.01,0-.02,.02-.03l.07-.04c-.07,0-.15,0-.23-.01-.08-.02-.16-.05-.23-.09-.07-.04-.13-.09-.16-.14Zm.71,.11c.08,0,.15-.02,.23-.07h.02l-.2-.1c-.14-.05-.24-.06-.3-.03-.03,.02-.04,.04-.04,.07,0,.03,.03,.05,.07,.07,.06,.04,.13,.05,.21,.05Z"/><path class="cx" d="M28.08,135.03s0-.02,.02-.03l.97-.56s.03-.01,.05-.01c.02,0,.04,0,.05,.01l.24,.14s.02,.02,.02,.03c0,.01,0,.02-.02,.03l-.07,.04c.07,0,.15,0,.23,.02,.08,.01,.15,.04,.22,.08,.15,.09,.2,.18,.14,.28,.09-.01,.17,0,.27,0,.09,.02,.17,.04,.24,.08,.11,.07,.17,.14,.16,.23,0,.09-.08,.17-.23,.26l-.59,.34s-.03,.01-.05,.01c-.02,0-.04,0-.05-.01l-.25-.15s-.02-.02-.02-.03c0-.01,0-.02,.02-.03l.57-.33c.06-.04,.1-.07,.1-.1,0-.03-.02-.06-.06-.09-.04-.02-.09-.04-.15-.03-.06,0-.12,.02-.18,.06l-.57,.33s-.03,.01-.05,.01c-.02,0-.04,0-.05-.01l-.25-.15s-.02-.02-.02-.03c0-.01,0-.02,.02-.03l.57-.33c.06-.04,.1-.07,.1-.1,0-.03-.02-.06-.06-.09-.04-.02-.09-.04-.15-.04-.06,0-.12,.02-.18,.06l-.57,.33s-.03,.01-.05,.01c-.02,0-.04,0-.05-.01l-.26-.15s-.02-.02-.02-.03Z"/><path class="ap" d="M30.08,136.06c0-.11,.07-.21,.24-.31l.06-.04c.17-.09,.35-.13,.54-.13,.19,0,.37,.05,.53,.15,.12,.07,.2,.14,.23,.22,.03,.07,.03,.15-.01,.22-.04,.07-.12,.14-.22,.2l-.05,.03s-.03,.01-.05,.01c-.02,0-.04,0-.05-.01l-.66-.38h-.01c-.06,.04-.1,.08-.11,.12-.01,.04,.01,.07,.06,.1,.03,.02,.07,.03,.1,.03,.03,0,.07,0,.11,0,.03,0,.05,0,.06,0,.01,0,.02,0,.04,.02l.27,.16s.02,.02,.02,.03c0,0,0,.02-.01,.02-.04,.02-.1,.03-.19,.04-.09,0-.19,0-.3-.03-.11-.03-.22-.07-.33-.13-.17-.1-.26-.2-.26-.31Zm1.09,.02h0c.07-.04,.1-.08,.11-.12,0-.04-.01-.07-.07-.1-.05-.03-.11-.04-.18-.04-.06,0-.13,.03-.2,.06h0l.33,.19Z"/></g></g><g><polygon class="aw" points="65.49 142.03 39.98 127.3 70.9 110.07 96.41 124.8 65.49 142.03"/><path class="ci" d="M65.42,141.89l-25.51-14.73,11.23-6.48c3.62-2.09,7.17-4.31,10.63-6.66,1.09-.74,2.07-1.63,2.93-2.62h0c.96-1.11,2.06-2.08,3.29-2.86,.2-.13,.41-.26,.62-.38l2.27-1.24,25.51,14.73-2.71,1.48c-.06,.03-.11,.07-.17,.1-.89,.55-1.7,1.21-2.45,1.94l-2.27,2.21c-.64,.62-1.33,1.19-2.06,1.69-3.5,2.38-7.09,4.64-10.76,6.75l-10.55,6.09Z"/><g class="bt"><g><path class="bv" d="M62.64,115.94l-.29-.17-.71,.48-.28-.16,.71-.48-.29-.17,.22-.15,.87,.5-.22,.15Z"/><path class="bv" d="M62.46,116.74c-.08-.04-.13-.09-.17-.15-.03-.05-.05-.11-.05-.17,0-.06,.02-.11,.05-.16,.03-.05,.08-.1,.14-.14,.06-.04,.13-.07,.22-.1,.08-.02,.17-.04,.26-.04,.09,0,.18,0,.27,.02,.09,.02,.17,.05,.25,.09,.08,.04,.13,.09,.17,.15,.04,.05,.05,.11,.05,.17,0,.06-.02,.11-.05,.16-.03,.05-.08,.1-.14,.14-.06,.04-.13,.07-.22,.1-.08,.02-.17,.04-.26,.04-.09,0-.18,0-.27-.02-.09-.02-.17-.05-.25-.09Zm.24-.45s-.06,.04-.08,.07c-.02,.03-.03,.05-.03,.08,0,.03,0,.05,.02,.08,.02,.03,.04,.05,.08,.07,.04,.02,.08,.04,.13,.05,.04,0,.09,0,.13,0,.04,0,.08-.02,.12-.03,.04-.01,.07-.03,.1-.05,.03-.02,.06-.04,.08-.07,.02-.03,.03-.05,.03-.08,0-.03,0-.05-.02-.08-.02-.03-.04-.05-.08-.07-.04-.02-.08-.04-.12-.05-.04,0-.09,0-.13,0-.04,0-.08,.01-.12,.03-.04,.01-.07,.03-.1,.05Z"/><path class="bv" d="M64.6,117.07l-.29-.17-.71,.48-.28-.16,.71-.48-.29-.17,.22-.15,.87,.5-.22,.15Z"/><path class="bv" d="M65.09,117.08l.26,.15-.58,.83-.28-.16,.12-.16-.27-.16-.24,.09-.29-.16,1.29-.43Zm-.36,.52l.2-.25-.39,.14,.18,.11Z"/><path class="bv" d="M64.85,118.11l.94-.63,.28,.16-.71,.48,.46,.27-.22,.15-.74-.43Z"/><path class="bv" d="M65.77,113.04c.07-.04,.15-.07,.24-.1,.09-.03,.19-.04,.3-.05s.21,0,.31,.02c.1,.02,.2,.06,.29,.11,.1,.06,.17,.12,.2,.19,.03,.07,.02,.14-.02,.2l-.19-.02s.03-.06,.03-.09,0-.06-.02-.08c-.01-.03-.03-.05-.06-.07-.02-.02-.05-.04-.08-.06-.07-.04-.14-.06-.21-.08-.08-.01-.15-.02-.23-.01-.08,0-.15,.02-.22,.04-.07,.02-.13,.05-.19,.08-.06,.04-.11,.07-.14,.12-.04,.04-.06,.09-.06,.13,0,.05,0,.09,.03,.13,.02,.04,.07,.08,.12,.11,.03,.02,.07,.03,.11,.05,.04,.01,.08,.03,.13,.03s.1,.01,.15,.01,.1,0,.15-.02l.06,.11c-.06,.01-.13,.02-.19,.02-.07,0-.13,0-.2-.02-.07-.01-.13-.03-.19-.05-.06-.02-.11-.04-.16-.07-.08-.05-.14-.1-.17-.16-.03-.06-.04-.12-.04-.18,0-.06,.03-.12,.08-.18,.04-.06,.1-.11,.18-.15Z"/><path class="bv" d="M67.88,113.6l.13,.07-.68,.94-.16-.09,.2-.28-.49-.28-.48,.12-.16-.09,1.64-.39Zm-.43,.56l.33-.43-.75,.18,.43,.25Z"/><path class="bv" d="M67.48,114.71l1.16-.67,.5,.29c.05,.03,.09,.06,.11,.1,.02,.04,.03,.08,.03,.11,0,.04-.02,.08-.05,.11-.03,.04-.06,.07-.11,.09-.04,.02-.09,.04-.13,.06-.05,.01-.1,.03-.15,.03-.05,0-.1,0-.16,0-.05,0-.1-.01-.15-.03l-.16,.42-.17-.1,.15-.39-.31-.18-.42,.24-.15-.09Zm.7-.23l.35,.2s.06,.03,.1,.04c.04,0,.08,0,.12,0,.04,0,.08,0,.12-.02,.04-.01,.08-.03,.11-.04,.03-.02,.06-.04,.08-.06,.02-.02,.03-.05,.03-.07,0-.02,0-.05-.02-.07-.01-.02-.03-.04-.06-.06l-.34-.2-.48,.28Z"/><path class="bv" d="M68.56,115.33l1.16-.67,.4,.23c.09,.05,.16,.11,.2,.17,.04,.06,.06,.12,.05,.17,0,.06-.03,.11-.08,.17-.05,.05-.11,.1-.19,.15-.09,.05-.18,.09-.28,.11-.1,.03-.2,.04-.3,.04-.1,0-.2-.01-.3-.04-.1-.03-.19-.06-.28-.11l-.4-.23Zm1.4,.14c.07-.04,.12-.08,.15-.12,.04-.04,.06-.09,.06-.13,0-.04,0-.09-.04-.13-.03-.04-.08-.08-.14-.12l-.26-.15-.9,.52,.26,.15c.07,.04,.14,.07,.21,.08,.07,.02,.15,.02,.22,.02,.07,0,.15-.02,.22-.04,.07-.02,.14-.05,.21-.09Z"/><path class="bv" d="M70.15,116.25l1.16-.67,.5,.29c.05,.03,.09,.06,.11,.1,.02,.04,.03,.08,.03,.11,0,.04-.02,.08-.05,.11-.03,.04-.06,.07-.11,.09-.04,.02-.09,.04-.13,.06-.05,.01-.1,.03-.15,.03-.05,0-.1,0-.15,0-.05,0-.1-.01-.15-.03l-.16,.42-.17-.1,.15-.39-.31-.18-.42,.24-.15-.09Zm.7-.23l.35,.2s.06,.03,.1,.04c.04,0,.08,0,.12,0,.04,0,.08,0,.12-.02,.04-.01,.08-.03,.11-.04,.03-.02,.06-.04,.08-.06,.02-.02,.03-.05,.03-.07,0-.02,0-.05-.02-.07-.01-.02-.03-.04-.06-.06l-.34-.2-.48,.28Z"/><path class="bv" d="M72.15,117.25l-.13,.08-.79-.46,1.16-.67,.78,.45-.13,.08-.63-.36-.38,.22,.55,.32-.12,.07-.55-.32-.4,.23,.64,.37Z"/><path class="bv" d="M72.71,117.05c.07-.04,.15-.07,.25-.1,.09-.03,.19-.04,.29-.04,.1,0,.21,0,.31,.02,.1,.02,.2,.06,.29,.11,.1,.06,.17,.12,.2,.2,.03,.07,.02,.14-.02,.2l-.19-.02s.03-.06,.03-.09,0-.06-.02-.08c-.01-.03-.03-.05-.06-.07-.02-.02-.05-.04-.08-.06-.07-.04-.14-.06-.21-.08-.08-.01-.15-.02-.23-.01-.08,0-.15,.02-.22,.04-.07,.02-.13,.05-.19,.08-.06,.04-.11,.07-.14,.12-.04,.04-.06,.09-.06,.13,0,.05,0,.09,.03,.13,.02,.04,.07,.08,.12,.11,.03,.02,.07,.03,.11,.05,.04,.01,.08,.03,.13,.03,.05,0,.1,.01,.15,.01s.1,0,.16-.02l.06,.11c-.06,.01-.13,.02-.19,.02-.07,0-.13,0-.2-.02-.07-.01-.13-.03-.19-.05-.06-.02-.11-.04-.16-.07-.08-.05-.14-.1-.17-.16-.03-.06-.04-.12-.04-.18,0-.06,.03-.12,.08-.18,.05-.06,.1-.11,.18-.15Z"/><path class="bv" d="M74.25,118.46l-.13,.08-.79-.46,1.16-.67,.78,.45-.13,.08-.63-.36-.38,.22,.55,.32-.12,.07-.55-.32-.4,.23,.65,.37Z"/><path class="bv" d="M74.32,118.66l1.16-.67,.15,.09-1.16,.67-.15-.09Z"/><path class="bv" d="M74.75,118.9l1.16-.67,.49,.28c.05,.03,.09,.06,.11,.1,.02,.04,.03,.08,.03,.11,0,.04-.02,.08-.05,.11-.03,.04-.06,.07-.11,.09-.05,.03-.1,.05-.16,.07-.06,.02-.12,.03-.19,.03-.07,0-.13,0-.19-.01-.06-.01-.12-.03-.17-.06l-.35-.2-.42,.24-.15-.09Zm.7-.23l.34,.2s.06,.03,.1,.04c.04,0,.08,0,.12,0,.04,0,.08-.01,.12-.02,.04-.01,.08-.03,.11-.05,.03-.02,.06-.04,.08-.06,.02-.02,.03-.05,.03-.07,0-.02,0-.05-.02-.07-.01-.02-.03-.04-.06-.06l-.33-.19-.48,.28Z"/><path class="bv" d="M77.64,119.39l-.4-.23-1.03,.59-.15-.09,1.03-.59-.4-.23,.13-.08,.95,.55-.13,.08Z"/></g><g><path class="bv" d="M82.86,121.17c-.06,.04-.13,.06-.2,.08-.07,.02-.14,.03-.21,.04-.07,0-.14,0-.2-.01-.07-.01-.12-.04-.18-.06-.05-.03-.09-.07-.11-.1-.02-.04-.03-.08-.03-.12,0-.04,.03-.08,.06-.12,.03-.04,.08-.08,.15-.12,.06-.04,.13-.06,.2-.08,.07-.02,.14-.03,.21-.04,.07,0,.14,0,.21,.01,.07,.01,.13,.03,.18,.07,.05,.03,.09,.06,.11,.1,.02,.04,.03,.08,.02,.12,0,.04-.03,.08-.06,.12-.04,.04-.08,.08-.15,.12Zm-.13-.07s.08-.06,.11-.08c.03-.03,.05-.06,.05-.09,0-.03,0-.06,0-.08-.01-.03-.04-.05-.07-.07-.03-.02-.08-.04-.12-.04-.04,0-.09,0-.14,0-.05,0-.1,.01-.15,.03-.05,.02-.1,.04-.14,.06-.05,.03-.09,.06-.11,.08-.03,.03-.04,.06-.05,.08,0,.03,0,.05,.01,.08,.01,.03,.04,.05,.07,.07,.03,.02,.07,.03,.12,.04,.04,0,.09,0,.14,0,.05,0,.1-.01,.15-.03,.05-.02,.1-.04,.15-.06Z"/><path class="bv" d="M83.25,121.74l-.11,.07-.52-.3,.11-.07,.2,.12,.56-.32s-.05,0-.08,0c-.03,0-.06,0-.1-.01-.03,0-.07-.01-.1-.02-.03,0-.06-.02-.07-.03l.12-.07s.05,.02,.09,.03c.04,0,.07,.01,.11,.02,.04,0,.07,0,.11,0,.03,0,.05,0,.05,0l.14,.07-.7,.4,.18,.11Z"/><path class="bv" d="M83.26,121.88l.16-.09,.11,.06-.16,.09-.11-.06Z"/><path class="bv" d="M84.68,122.22c-.06,.04-.13,.06-.2,.08-.07,.02-.14,.03-.21,.03-.07,0-.14,0-.21-.01-.07-.01-.12-.04-.18-.07-.05-.03-.09-.06-.11-.1-.02-.04-.03-.08-.03-.12,0-.04,.03-.08,.06-.12,.03-.04,.08-.08,.15-.12,.06-.04,.13-.06,.2-.08,.07-.02,.14-.03,.21-.04,.07,0,.14,0,.21,.01,.07,.01,.13,.03,.18,.07,.05,.03,.09,.06,.11,.1s.03,.08,.03,.12c0,.04-.03,.08-.06,.12-.03,.04-.08,.08-.15,.12Zm-.13-.07s.08-.05,.11-.08c.03-.03,.05-.06,.05-.09,0-.03,0-.06,0-.08-.01-.03-.04-.05-.07-.07-.04-.02-.08-.04-.12-.04-.04,0-.09,0-.14,0-.05,0-.1,.01-.15,.03-.05,.02-.1,.04-.14,.06-.05,.03-.09,.06-.11,.08-.03,.03-.04,.06-.05,.08,0,.03,0,.05,.01,.08,.01,.03,.04,.05,.07,.07,.03,.02,.07,.03,.12,.04,.04,0,.09,0,.14,0,.05,0,.1-.01,.15-.03,.05-.02,.1-.04,.15-.07Z"/><path class="bv" d="M85.06,122.79l-.11,.07-.52-.3,.11-.07,.2,.12,.56-.32s-.05,0-.08,0c-.03,0-.06,0-.1-.01-.03,0-.07-.01-.1-.02-.03,0-.06-.02-.07-.03l.12-.07s.05,.02,.09,.03c.04,0,.08,.01,.11,.02,.04,0,.08,0,.11,0,.03,0,.05,0,.05,0l.14,.07-.7,.4,.18,.1Z"/><path class="bv" d="M85.08,122.93l.16-.09,.11,.06-.16,.09-.11-.06Z"/><path class="bv" d="M85.34,123.08s.08-.04,.12-.06c.04-.02,.08-.03,.13-.03,.05,0,.1-.01,.16,0,.06,0,.12,0,.2,.02,.04,0,.09,.02,.13,.02,.04,0,.09,.02,.13,.02,.04,0,.08,0,.11,0,.03,0,.06-.01,.09-.02,.02,0,.03-.02,.04-.04,0,0,.01-.03,0-.04,0-.02-.01-.03-.02-.05-.01-.02-.03-.03-.06-.05-.03-.02-.06-.03-.09-.04-.03,0-.06-.01-.09-.02-.03,0-.06,0-.09,0-.03,0-.05,0-.07,0v-.1s.05,0,.08,0c.03,0,.07,0,.11,.01,.04,0,.09,.02,.14,.03,.05,.02,.09,.04,.14,.06,.04,.03,.08,.05,.1,.08,.02,.03,.04,.05,.04,.08,0,.03,0,.05-.02,.08-.02,.02-.04,.04-.07,.06-.04,.02-.08,.04-.12,.04-.04,0-.09,0-.13,0-.04,0-.09,0-.13-.01-.04,0-.08-.01-.11-.02-.03,0-.07-.01-.11-.02-.04,0-.08-.01-.13-.01-.04,0-.08,0-.12,0-.04,0-.08,.01-.11,.02l.49,.28-.11,.07-.64-.37Z"/><path class="bv" d="M87.26,123.71c-.06,.04-.13,.06-.2,.08-.07,.02-.14,.03-.21,.04-.07,0-.14,0-.2-.01-.07-.01-.12-.03-.18-.06-.05-.03-.09-.07-.11-.1-.02-.04-.03-.08-.03-.12,0-.04,.03-.08,.06-.12,.03-.04,.08-.08,.15-.12,.06-.04,.13-.06,.2-.08,.07-.02,.14-.03,.21-.04,.07,0,.14,0,.21,.01,.07,.01,.12,.03,.18,.07,.05,.03,.09,.06,.11,.1,.02,.04,.03,.08,.02,.12,0,.04-.03,.08-.06,.12-.03,.04-.08,.08-.14,.12Zm-.13-.07s.08-.06,.11-.08c.03-.03,.05-.06,.05-.09,0-.03,0-.06,0-.08-.01-.03-.04-.05-.07-.07-.03-.02-.08-.04-.12-.04-.04,0-.09,0-.14,0-.05,0-.1,.01-.15,.03-.05,.02-.1,.04-.15,.06-.05,.03-.08,.06-.11,.08-.03,.03-.04,.06-.05,.08,0,.03,0,.05,.01,.08,.01,.03,.04,.05,.07,.07,.03,.02,.07,.03,.12,.04,.04,0,.09,0,.14,0,.05,0,.1-.01,.15-.03,.05-.02,.1-.04,.15-.06Z"/><path class="bv" d="M87.65,124.28l-.11,.07-.52-.3,.11-.07,.2,.12,.56-.32s-.05,0-.08,0c-.03,0-.06,0-.1-.01-.03,0-.07-.01-.1-.02-.03,0-.05-.02-.07-.03l.12-.07s.05,.02,.09,.03c.04,0,.08,.01,.12,.02,.04,0,.07,0,.1,0,.03,0,.05,0,.06,0l.13,.07-.7,.4,.18,.11Z"/><path class="bv" d="M88.09,124.13s.1-.05,.16-.06c.06-.01,.12-.02,.19-.02,.06,0,.13,0,.19,.02,.06,.01,.12,.04,.17,.07,.05,.03,.09,.07,.12,.1,.03,.04,.04,.08,.03,.12,0,.04-.03,.08-.06,.12-.03,.04-.09,.08-.16,.12-.1,.06-.19,.1-.29,.14-.09,.03-.18,.05-.26,.06-.08,0-.16,0-.23,0-.07-.01-.14-.04-.19-.07-.07-.04-.11-.08-.13-.13-.02-.05-.02-.1,0-.15h.15s-.03,.08-.01,.12c.01,.04,.05,.07,.1,.1,.08,.04,.18,.06,.29,.05,.12-.01,.24-.05,.37-.13-.07,.02-.14,.02-.22,0-.08,0-.14-.03-.21-.07-.05-.03-.09-.06-.11-.1-.03-.03-.04-.07-.04-.11,0-.04,0-.07,.03-.11,.02-.03,.06-.07,.11-.09Zm.6,.07s-.07-.03-.11-.04c-.04,0-.08-.01-.13-.01-.04,0-.09,0-.13,.01-.04,0-.08,.02-.11,.04-.03,.02-.06,.04-.07,.06-.02,.02-.02,.05-.02,.07,0,.03,0,.05,.03,.07,.02,.02,.04,.05,.08,.07,.03,.02,.07,.03,.11,.04,.04,0,.09,.01,.13,.01,.04,0,.09,0,.13-.01,.04,0,.08-.02,.11-.04,.03-.02,.06-.04,.07-.07,.02-.02,.03-.05,.03-.07s0-.05-.03-.07c-.02-.02-.04-.05-.07-.06Z"/><path class="bv" d="M80.86,121.58l-.35-.2-.9,.52-.13-.07,.9-.52-.35-.2,.11-.07,.83,.48-.11,.07Z"/><path class="bv" d="M80.11,122.18l1.01-.58,.13,.07-1.01,.58-.13-.07Z"/><path class="bv" d="M81.36,122.9l.78-.45-.94,.15-.07-.04,.26-.54-.78,.45-.13-.07,1.01-.58,.14,.08-.29,.59,1.03-.17,.13,.08-1.01,.58-.13-.07Z"/><path class="bv" d="M82.54,123.45l-.11,.07-.69-.4,1.01-.58,.68,.39-.11,.07-.55-.32-.33,.19,.48,.28-.11,.06-.48-.28-.35,.2,.56,.33Z"/><path class="bv" d="M82.57,123.6l.16-.09,.1,.06-.16,.09-.1-.06Zm.58-.33l.16-.09,.1,.06-.16,.09-.1-.06Z"/><path class="bv" d="M83.86,124.21l-.11,.07-.52-.3,.11-.07,.2,.12,.56-.32s-.05,0-.08,0c-.03,0-.06,0-.1-.01-.03,0-.07-.01-.1-.02-.03,0-.06-.02-.07-.03l.12-.07s.05,.02,.09,.03c.04,0,.08,.01,.11,.02,.04,0,.07,0,.11,0,.03,0,.05,0,.05,0l.14,.07-.7,.4,.18,.11Z"/><path class="bv" d="M84.85,124.59s-.1,.04-.15,.05c-.06,.01-.11,.01-.17,0-.06,0-.12-.01-.17-.03-.06-.02-.11-.04-.16-.07-.05-.03-.09-.06-.12-.1-.03-.03-.04-.07-.05-.1,0-.03,0-.07,.02-.1,.02-.03,.05-.06,.09-.08,.03-.02,.07-.03,.1-.04,.04,0,.08-.01,.11-.02,.04,0,.08,0,.12,0,.04,0,.07,.01,.11,.02-.01-.02-.02-.04-.03-.05,0-.02,0-.04,0-.06,0-.02,.01-.04,.02-.05,.01-.02,.03-.03,.06-.05,.04-.02,.09-.04,.14-.05,.05,0,.11,0,.16,0,.05,0,.11,.01,.16,.03,.05,.02,.09,.03,.13,.06,.04,.02,.07,.05,.1,.08s.04,.06,.05,.09c0,.03,0,.06,0,.09-.01,.03-.04,.06-.08,.08-.05,.03-.11,.04-.17,.05-.07,0-.13,0-.19-.02,.02,.02,.03,.04,.03,.07,0,.02,0,.05,0,.07,0,.02-.02,.04-.03,.07-.02,.02-.04,.04-.07,.06Zm-.12-.08s.05-.04,.06-.06c.01-.02,.01-.04,0-.07,0-.02-.02-.04-.04-.07-.02-.02-.04-.04-.07-.06-.03-.02-.06-.03-.1-.04-.04-.01-.07-.02-.11-.02-.04,0-.08,0-.11,0-.04,0-.07,.02-.1,.04-.03,.02-.05,.04-.06,.06,0,.02-.01,.04,0,.07,0,.02,.02,.04,.04,.06,.02,.02,.04,.04,.07,.06,.03,.02,.06,.03,.1,.04,.04,.01,.07,.02,.11,.02,.04,0,.08,0,.11,0,.04,0,.07-.02,.1-.03Zm.02-.51s-.04,.03-.05,.05c0,.02,0,.04,0,.06,0,.02,.02,.04,.03,.05,.02,.02,.04,.03,.06,.05,.02,.01,.05,.02,.08,.03,.03,0,.06,.02,.09,.02,.03,0,.06,0,.1,0,.03,0,.06-.01,.09-.03,.02-.01,.04-.03,.05-.05,0-.02,0-.04,0-.05,0-.02-.02-.04-.03-.05-.02-.02-.04-.03-.06-.05-.03-.01-.05-.03-.08-.04-.03,0-.06-.01-.09-.02-.03,0-.06,0-.09,0-.03,0-.06,.01-.08,.03Z"/><path class="bv" d="M84.73,124.85l.16-.09,.1,.06-.16,.09-.1-.06Zm.58-.33l.16-.09,.1,.06-.16,.09-.1-.06Z"/><path class="bv" d="M85.77,125.06c.05,.04,.07,.09,.06,.13-.01,.05-.05,.09-.12,.13-.04,.03-.09,.04-.14,.06-.05,.01-.11,.02-.16,.01-.06,0-.11-.01-.17-.03-.06-.02-.11-.04-.16-.07-.07-.04-.12-.09-.15-.13-.03-.05-.03-.09-.01-.14h.17s-.02,.07,0,.1c.02,.03,.05,.07,.11,.1,.07,.04,.13,.06,.2,.06,.07,0,.13-.01,.19-.04,.06-.03,.09-.07,.08-.12,0-.04-.05-.09-.12-.13l-.04-.02,.11-.06,.04,.02c.07,.04,.14,.06,.21,.06,.07,0,.13-.01,.18-.04,.05-.03,.07-.06,.06-.1,0-.03-.04-.07-.1-.1-.05-.03-.11-.05-.17-.06-.06,0-.12,0-.19,0v-.09s.08,0,.12,0c.04,0,.08,0,.13,.01s.08,.02,.12,.03c.04,.01,.08,.03,.11,.05,.04,.03,.08,.05,.11,.08,.03,.03,.04,.06,.05,.09,0,.03,0,.06-.02,.08-.02,.03-.04,.05-.08,.07-.03,.02-.06,.03-.09,.04-.03,.01-.07,.02-.11,.02-.03,0-.07,0-.11,0-.04,0-.07-.01-.1-.03Z"/><path class="bv" d="M86.92,125.63c-.06,.04-.13,.06-.2,.08-.07,.02-.14,.03-.21,.04-.07,0-.14,0-.2-.01-.07-.01-.13-.03-.18-.06-.05-.03-.09-.07-.11-.1-.02-.04-.03-.08-.03-.12,0-.04,.03-.08,.06-.12s.08-.08,.15-.12c.06-.04,.13-.06,.2-.08,.07-.02,.14-.03,.21-.04,.07,0,.14,0,.21,.01,.07,.01,.12,.03,.18,.07,.05,.03,.09,.06,.11,.1,.02,.04,.03,.08,.02,.12,0,.04-.03,.08-.06,.12-.03,.04-.08,.08-.14,.12Zm-.13-.07s.08-.06,.11-.08c.03-.03,.04-.06,.05-.09,0-.03,0-.06,0-.08-.01-.03-.04-.05-.07-.07-.03-.02-.08-.03-.12-.04-.04,0-.09,0-.14,0-.05,0-.1,.01-.15,.03-.05,.02-.1,.04-.15,.06-.05,.03-.08,.06-.11,.08-.03,.03-.04,.06-.05,.08,0,.03,0,.05,.01,.08,.01,.03,.04,.05,.07,.07,.03,.02,.07,.03,.12,.04,.04,0,.09,0,.14,0,.05,0,.1-.01,.15-.03,.05-.02,.1-.04,.15-.06Z"/><path class="bv" d="M78.82,125.54s-.02-.04-.03-.06c-.01-.02-.03-.04-.04-.06-.02-.02-.04-.04-.06-.06l-.13,.07,.02,.02v.02c.05,.04,.08,.08,.1,.11,.02,.03,.03,.06,.04,.09,0,.03,0,.06-.02,.09-.02,.03-.05,.05-.1,.08-.06,.03-.11,.05-.17,.07-.06,.01-.12,.02-.17,.01-.06,0-.11-.01-.17-.03-.05-.02-.1-.04-.15-.06l-.17,.1-.11-.07,.18-.1c-.06-.04-.11-.09-.16-.14-.04-.05-.08-.1-.1-.15l.37-.07s.02,.05,.04,.07c.01,.02,.03,.04,.05,.07,.02,.03,.05,.05,.08,.07l.13-.07s-.04-.04-.06-.07c-.03-.03-.05-.07-.07-.1s-.02-.06-.02-.08c0-.03,.01-.05,.03-.07,.02-.02,.05-.04,.08-.07,.05-.03,.11-.05,.16-.06,.06-.01,.11-.02,.17-.02,.06,0,.12,0,.17,.02,.06,.01,.11,.03,.16,.05l.14-.08,.11,.07-.15,.08s.05,.04,.07,.06c.02,.02,.04,.04,.06,.06,.02,.02,.03,.04,.04,.06,.01,.02,.03,.04,.04,.06l-.35,.06Zm-.56,.14s.02-.02,.02-.03c0-.01,0-.03-.02-.04l-.11,.06s.04,.02,.06,.02,.03,0,.04,0Zm.25-.37s-.02,.02-.02,.02c0,.02,0,.03,.02,.05l.11-.06s-.08-.02-.11,0Z"/><path class="bv" d="M78.84,125.8s.11-.05,.17-.06c.06-.01,.13-.02,.19-.02,.07,0,.13,.01,.2,.03,.06,.02,.12,.04,.18,.07,.06,.03,.1,.07,.13,.11,.03,.04,.03,.08,.02,.13,0,.04-.04,.09-.08,.13-.05,.05-.11,.09-.19,.14-.08,.05-.17,.09-.25,.11-.08,.03-.17,.04-.25,.05-.08,0-.16,0-.24-.01-.08-.02-.15-.04-.21-.08-.12-.07-.19-.16-.19-.27h.32s.03,.1,.1,.13c.05,.03,.1,.04,.15,.04,.05,0,.11-.02,.16-.04-.07,0-.14-.02-.2-.06-.05-.03-.09-.06-.12-.1-.03-.03-.04-.07-.04-.11,0-.04,0-.07,.03-.1,.02-.03,.06-.06,.1-.09Zm.51,.15s-.04-.02-.06-.02c-.02,0-.05,0-.07,0-.02,0-.05,0-.07,0-.02,0-.04,.01-.06,.02-.03,.02-.05,.04-.05,.07,0,.03,.02,.05,.05,.07,.03,.02,.07,.03,.12,.03,.05,0,.09,0,.12-.03,.02-.01,.03-.02,.03-.02,.02-.03,.02-.04,.02-.05,0-.01,0-.03,0-.03-.02-.03-.03-.04-.04-.05Z"/><path class="bv" d="M80.08,126.51c.05,.03,.09,.06,.11,.09,.03,.03,.04,.07,.04,.1,0,.03,0,.07-.03,.1-.02,.03-.06,.06-.11,.09-.05,.03-.11,.05-.17,.06-.06,.01-.12,.02-.19,.02-.07,0-.13-.01-.2-.03-.07-.02-.13-.04-.19-.08-.07-.04-.13-.09-.16-.14-.03-.05-.04-.1-.02-.15h.32s0,.05,.02,.08c.02,.03,.04,.05,.07,.07,.03,.02,.07,.03,.11,.03,.04,0,.07,0,.11-.03,.03-.02,.05-.04,.05-.06,0-.02-.01-.04-.04-.06-.02-.01-.04-.02-.07-.02-.03,0-.05,0-.08,0l-.23-.13,.75-.29,.51,.29-.25,.14-.31-.18-.12,.05h.02l.02,.02,.03,.02Z"/><path class="bv" d="M80.06,127.04l.26-.15,.22,.13-.26,.15-.22-.13Z"/><path class="bv" d="M81.6,127.44c-.06,.04-.13,.06-.2,.08-.07,.02-.14,.03-.22,.03-.07,0-.14,0-.21-.02-.07-.01-.13-.04-.18-.07-.05-.03-.09-.07-.12-.11-.03-.04-.04-.08-.03-.12,0-.04,.02-.08,.06-.13,.03-.04,.08-.08,.14-.12,.06-.04,.13-.06,.2-.08,.07-.02,.14-.03,.22-.03,.07,0,.14,0,.21,.02s.13,.04,.18,.07c.05,.03,.1,.07,.12,.11,.02,.04,.03,.08,.03,.12,0,.04-.02,.08-.06,.13-.03,.04-.08,.08-.14,.12Zm-.28-.16c.06-.03,.09-.06,.1-.09,.01-.03,0-.06-.02-.07-.03-.02-.08-.02-.13-.02-.05,0-.11,.03-.16,.06-.06,.03-.09,.06-.11,.09-.01,.03,0,.06,.03,.07,.03,.02,.07,.02,.13,.01,.05,0,.11-.03,.16-.06Z"/><path class="bv" d="M82.48,127.95c-.06,.04-.13,.06-.2,.08-.07,.02-.14,.03-.22,.03-.07,0-.14,0-.21-.02-.07-.01-.13-.04-.18-.07-.05-.03-.09-.07-.12-.11-.02-.04-.03-.08-.03-.12,0-.04,.02-.08,.06-.13,.03-.04,.08-.08,.15-.12,.06-.04,.13-.06,.2-.08,.07-.02,.14-.03,.22-.03,.07,0,.14,0,.21,.02,.07,.01,.13,.04,.19,.07,.05,.03,.09,.07,.12,.11,.03,.04,.03,.08,.03,.12,0,.04-.02,.08-.06,.13-.03,.04-.08,.08-.14,.12Zm-.28-.16c.06-.03,.09-.06,.1-.09,.02-.03,0-.06-.02-.07-.03-.02-.08-.02-.13-.02-.05,0-.11,.03-.16,.06-.06,.03-.09,.06-.1,.09-.01,.03,0,.06,.03,.07,.03,.02,.07,.02,.13,.01,.05,0,.11-.03,.16-.06Z"/></g><rect class="bv" x="75.39" y="106.82" width=".14" height="27.12" transform="translate(-66.53 125.54) rotate(-60)"/><rect class="bv" x="69.61" y="110.57" width=".14" height="27.12" transform="translate(-72.66 122.41) rotate(-60)"/><path class="bv" d="M66.35,128.91l-2.41,1.39,2.42,1.4,2.41-1.39-2.42-1.4Zm.01,2.39l-1.73-1,1.72-.99,1.73,1-1.72,.99Zm-2.09-2.4l.35,.2,.34-.2-.35-.2-.34,.2Zm3.12,1.4l-1.04-.6-1.03,.6,1.04,.6,1.03-.6Zm-5.53-1.6h.01l-.34,.21,.68,.39,.34-.2-.33-.19,.34-.2,1.72,.99,.34-.2-1.04-.6,.34-.2-.35-.2-.34,.2-.34-.2,.34-.2,.34,.2,.34-.2,.35,.2,.34-.2,.69,.4-.34,.2,.35,.2,.69-.4-1.73-1-.34,.2-.33-.19,.34-.2-.35-.2-.34,.2-.35-.2-.34,.2,.35,.2-.34,.2-.35-.2-.34,.2,.68,.39-.69,.4Zm-.34-1.79l-1.04-.6-1.03,.6,1.04,.6,1.03-.6Zm1.38,0l-2.42-1.4-2.41,1.39,2.42,1.4,2.41-1.39Zm-2.41,.99l-1.73-1,1.72-.99,1.73,1-1.72,.99Zm1.38,.4l-.35-.2-.69,.4,.35,.2,.69-.4Zm1.03,.99l-.34,.2,.35,.2,.34-.2-.35-.2Zm.35,1l.69-.4-.35-.2-.34,.2-.35-.2-.34,.2,.69,.4Zm0,.8l.35,.2,.69-.4-.35-.2h0l-.35-.2-.34,.2,.35,.2-.34,.2Zm2.42,.6l-.35-.2-.69,.4,.35,.2,.69-.4Zm-6.56-3l-.34,.2,.35,.2,.34-.2-.35-.2Zm5.53,3.19l-.35-.2,.69-.4-.35-.2-1.03,.6,.69,.4,.34-.2Zm-1.04-.2l-.35-.2-.34,.2,.35,.2,.34-.2Zm.69,.8l.35,.2,.34-.2-.35-.2-.34,.2Zm-6.22-3.99l.35,.2,.34-.2-.35-.2,.34-.2-.69-.4,.34-.2-.35-.2-.34,.2-.35-.2-.34,.2,.35,.2-.34,.2-.35-.2-1.03,.6,.69,.4,.34-.2-.35-.2,.34-.2,.35,.2,.34-.2,.35,.2-.69,.4,.69,.4-.34,.2,.35,.2,.34-.2,.69,.4,.34-.2-1.39-.8,.34-.2Zm5.53,3.99l.34-.2-.69-.4-.34,.2,.69,.4Zm0,.4l.34-.2-.35-.2-.34,.2,.35,.2Zm-7.95-4.19l-.35-.2-.34,.2,.35,.2,.34-.2Zm1.39,.8l.34-.2-.35-.2-.69,.4,.69,.4,.34-.2,.35,.2,.34-.2-.35-.2-.34,.2-.35-.2Zm6.22,3.59l-.35-.2,.34-.2-.69-.4-.34,.2-.35-.2,.34-.2,.35,.2,.34-.2-.35-.2,.34-.2-.35-.2,.34-.2-1.04-.6,.34-.2,.69,.4,.34-.2-1.04-.6-.69,.4-.35-.2,.34-.2-.35-.2-.69,.4,.35,.2-.34,.2,.35,.2,.34-.2,.35,.2-.34,.2,1.04,.6-.69,.4-.35-.2-.33,.19h0l-.34,.19h0l-.34,.2,.35,.2,.34-.2h0l.33-.2h0l.34-.19,.35,.2-1.36,.79-1.04-.6,1.37-.79-.35-.2,.34-.2-.35-.2-.34,.2-.35-.2,.34-.2-.35-.2-.34,.2-.34-.2,.34-.2-.33-.19,.69-.4,.33,.19-.34,.2,.35,.2,.34-.2-.33-.19,.34-.2h-.01l.34-.21,.34,.2,.34-.2,.35,.2,.34-.2-.69-.4-.34,.2-.33-.19,.34-.2-1.73-1-.34,.2,1.04,.6-1.03,.6,.35,.2-.69,.4-.35-.2-1.36,.79,.35,.2,.68-.39,.35,.2-.33,.19,.33,.19-.34,.2,.69,.4,.34-.2,.35,.2,.68-.39,.35,.2-.68,.39-.35-.2-.69,.4,.35,.2-.34,.2,1.04,.6-.34,.2-.69-.4-.34,.2-.35-.2-.34,.2,.69,.4,.34-.2,.35,.2-.34,.2-.35-.2-.34,.2,1.73,1,.34-.2-.35-.2,.34-.2,.35,.2-.34,.2,.35,.2,.69-.4-.35-.2,.34-.2,.35,.2,.34-.2-.69-.4-.34,.2-.35-.2-.34,.2-.35-.2,.34-.2,.35,.2,.69-.4,.69,.4,.34-.2,.69,.4,.34-.2-.35-.2,.33-.19Zm-4.49-2.21l-.33-.19,.33-.19,.33,.19-.33,.19Zm.69,.4l-.35-.2,.33-.19,.35,.2-.33,.19Zm.36,2.59l-.34,.2-.35-.2,.34-.2,.35,.2Zm2.76-.79l-.69-.4,.33-.19,.69,.4-.33,.19Zm-10.36-2.8l2.42,1.4,2.41-1.39-2.42-1.4-2.41,1.39Zm2.41-.99l1.73,1-1.72,.99-1.73-1,1.72-.99Zm-1.03,1l1.04,.6,1.03-.6-1.04-.6-1.03,.6Zm1.39,1.6l1.72,.99,.34-.2-1.02-.59,.69-.4-.35-.2,.69-.4-.35-.2-1.72,.99Zm3.09,.2l.34-.2-1.02-.59,.34-.2-.35-.2-.34,.2,.33,.19-.34,.2,.34,.2-.34,.2,.69,.4-.34,.2,.69,.4,.69-.4-.69-.4Zm3.47,2.4l.34-.2-.35-.2-.34,.2,.35,.2Zm-4.5-1.4l.35,.2,.34-.2-.35-.2-.34,.2Z"/><g><path class="bv" d="M60.97,122.46l-.5-.29-1.31,.76-.48-.27,1.31-.76-.5-.29,.41-.24,1.47,.85-.41,.24Z"/><path class="bv" d="M63.09,123.2l-1.72,.99-.48-.27,.67-.39-.58-.34-.67,.39-.47-.27,1.72-.99,.47,.27-.64,.37,.58,.34,.64-.37,.48,.27Z"/><path class="bv" d="M63.83,123.64l.44,.25-1.12,1.34-.48-.28,.23-.25-.46-.27-.44,.14-.49-.28,2.33-.65Zm-.7,.83l.38-.4-.7,.22,.32,.18Z"/><path class="bv" d="M64.61,125.1l-.85,.49-.47-.27,1.72-.99,.37,.21-.18,.91,.88-.51,.47,.27-1.72,.99-.38-.22,.16-.89Z"/><path class="bv" d="M65.13,126.37l1.72-.99,.48,.27-.65,.38,1.18-.07,.54,.31-1.4,.08-.28,.94-.55-.32,.2-.61h-.27l-.5,.29-.48-.27Z"/><path class="bv" d="M69.32,126.8l-.44,.61,1.06-.25,.52,.3-1.75,.32-.57,.33-.47-.27,.58-.33,.56-1,.52,.3Z"/><path class="bv" d="M69.53,128.93c-.13-.08-.23-.16-.28-.25-.06-.09-.08-.18-.08-.27,0-.09,.04-.18,.1-.26,.06-.09,.15-.16,.26-.22,.11-.07,.24-.12,.39-.15,.15-.04,.3-.05,.46-.05,.16,0,.32,.02,.47,.05,.16,.03,.3,.09,.43,.16,.13,.08,.23,.16,.28,.25,.06,.09,.08,.18,.08,.27,0,.09-.04,.18-.11,.26-.06,.08-.15,.16-.26,.22-.11,.07-.24,.12-.39,.15-.15,.03-.3,.05-.46,.05-.16,0-.32-.02-.47-.05-.16-.03-.3-.09-.43-.16Zm.48-.73c-.06,.03-.11,.07-.15,.11-.04,.04-.06,.08-.07,.13,0,.04,0,.09,.02,.13,.02,.04,.07,.09,.14,.12,.07,.04,.14,.07,.22,.08,.08,.01,.15,.02,.23,.01,.07,0,.15-.02,.22-.04,.07-.02,.13-.05,.19-.08,.06-.03,.11-.07,.15-.11,.04-.04,.06-.08,.07-.13,0-.04,0-.09-.03-.13-.02-.04-.07-.08-.14-.12-.07-.04-.14-.07-.22-.08-.07-.01-.15-.02-.23-.01-.07,0-.15,.02-.22,.04-.07,.02-.13,.05-.19,.08Z"/><path class="bv" d="M71.79,129.75c.06,.03,.11,.05,.18,.06,.06,0,.13,0,.19,0,.06,0,.13-.03,.19-.05,.06-.02,.12-.05,.18-.08l.89-.51,.48,.27-.89,.51c-.12,.07-.25,.12-.38,.17-.13,.04-.27,.07-.41,.07-.14,0-.28,0-.43-.04-.14-.03-.28-.09-.41-.16-.14-.08-.23-.16-.29-.25-.05-.08-.07-.17-.06-.25,.01-.08,.06-.16,.13-.24,.07-.08,.17-.15,.28-.21l.89-.51,.48,.28-.89,.51c-.06,.03-.11,.07-.15,.1-.04,.04-.07,.07-.09,.11-.02,.04-.02,.07,0,.11,.01,.04,.05,.07,.11,.1Z"/><path class="bv" d="M72.5,130.63l.45-.26,.46,.27-.45,.26-.46-.27Zm.73-.42l1.01-.58,.46,.27-1.01,.58-.46-.27Z"/></g></g><g class="bt"><path class="bv" d="M71.04,110.07c-.12-.07-.21-.15-.26-.23-.05-.08-.08-.17-.07-.25,0-.09,.03-.17,.09-.25,.06-.08,.14-.15,.24-.21,.1-.06,.23-.11,.36-.14,.14-.03,.28-.05,.43-.05,.15,0,.29,.02,.44,.05,.14,.03,.28,.08,.4,.15,.12,.07,.21,.15,.26,.23,.05,.08,.08,.17,.07,.25,0,.08-.04,.17-.1,.24-.06,.08-.14,.15-.24,.21-.1,.06-.23,.11-.36,.14-.14,.03-.28,.05-.43,.05-.15,0-.29-.01-.44-.05-.15-.03-.28-.08-.4-.15Zm.45-.68c-.05,.03-.1,.07-.13,.1-.03,.04-.06,.08-.06,.12,0,.04,0,.08,.02,.12,.02,.04,.06,.08,.13,.12,.06,.04,.13,.06,.2,.07,.07,.01,.14,.02,.21,.01,.07,0,.14-.02,.2-.04,.07-.02,.12-.05,.18-.08,.05-.03,.1-.07,.13-.1,.03-.04,.06-.08,.06-.12,0-.04,0-.08-.02-.12-.02-.04-.06-.08-.13-.11-.06-.04-.13-.06-.2-.07-.07-.01-.14-.02-.21-.01-.07,0-.14,.02-.2,.04-.06,.02-.12,.05-.18,.08Z"/><path class="bv" d="M73.29,110.45l-.78,.45-.44-.25,1.59-.92,.34,.2-.17,.84,.81-.47,.44,.25-1.59,.92-.35-.2,.15-.82Z"/><path class="bv" d="M73.77,111.63l1.59-.92,.44,.25-1.21,.7,.73,.42-.38,.22-1.17-.67Z"/><path class="bv" d="M75.09,112.39l1.59-.92,.44,.25-1.59,.92-.44-.25Z"/><path class="bv" d="M77.03,112.61l-.78,.45-.44-.25,1.59-.92,.34,.2-.17,.84,.81-.47,.44,.25-1.59,.92-.35-.2,.15-.82Z"/><path class="bv" d="M79.04,114.23l-.38,.22-1.14-.66,1.59-.92,1.12,.65-.38,.22-.68-.39-.22,.13,.58,.34-.35,.2-.58-.34-.25,.15,.7,.41Z"/><path class="bv" d="M81.41,114.8s-.04-.08-.07-.12c-.02-.03-.05-.07-.09-.11-.03-.04-.08-.07-.12-.1-.04-.02-.08-.04-.11-.04-.03,0-.07,0-.1,.01-.02,.01-.03,.03-.03,.04,0,.02,0,.03,.02,.06,.02,.02,.04,.05,.06,.07,.03,.03,.06,.06,.09,.09,.05,.06,.09,.11,.13,.16,.03,.05,.05,.1,.06,.14,0,.05,0,.09-.04,.13-.03,.04-.08,.09-.16,.13-.1,.06-.19,.09-.3,.11-.1,.02-.2,.02-.29,0-.1-.01-.19-.03-.28-.06-.09-.03-.17-.07-.25-.11-.06-.03-.11-.07-.17-.11-.05-.04-.1-.08-.15-.13-.04-.04-.08-.09-.12-.14-.03-.05-.06-.09-.08-.14l.57-.11s.04,.1,.08,.15c.03,.04,.06,.08,.1,.13,.04,.05,.1,.09,.16,.12,.05,.03,.09,.04,.12,.05,.03,0,.06,0,.08-.01,.02-.01,.03-.03,.03-.05,0-.02-.02-.04-.04-.07-.02-.03-.05-.05-.08-.09-.03-.03-.06-.07-.09-.1-.05-.05-.08-.1-.11-.15-.02-.05-.03-.09-.03-.13,0-.04,.02-.08,.05-.11,.03-.03,.07-.07,.13-.1,.09-.05,.18-.09,.28-.11,.1-.02,.2-.03,.3-.02,.1,0,.2,.02,.29,.05,.1,.03,.18,.06,.26,.11,.06,.03,.11,.07,.15,.11s.09,.08,.12,.12c.03,.04,.06,.08,.09,.12,.03,.04,.05,.07,.06,.1l-.55,.1Z"/><path class="bv" d="M83.78,115.57l-1.59,.92-.44-.25,.62-.36-.54-.31-.62,.36-.44-.25,1.59-.92,.44,.25-.59,.34,.54,.31,.59-.34,.44,.25Z"/><path class="bv" d="M83.17,117.07c-.12-.07-.21-.15-.26-.23-.05-.08-.08-.17-.07-.25,0-.09,.03-.17,.09-.25,.06-.08,.14-.15,.24-.21,.1-.06,.23-.11,.36-.14,.14-.03,.28-.05,.43-.05,.15,0,.29,.02,.44,.05,.14,.03,.28,.08,.4,.15,.12,.07,.21,.15,.26,.23,.05,.08,.08,.17,.07,.25,0,.08-.04,.17-.1,.24-.06,.08-.14,.15-.24,.21-.1,.06-.23,.11-.36,.14-.14,.03-.28,.05-.43,.05-.15,0-.29-.01-.44-.05-.15-.03-.28-.08-.4-.15Zm.45-.68c-.05,.03-.1,.07-.13,.1-.03,.04-.06,.08-.06,.12,0,.04,0,.08,.02,.12,.02,.04,.07,.08,.13,.12,.06,.04,.13,.06,.2,.07,.07,.01,.14,.02,.21,.01,.07,0,.14-.02,.2-.04,.07-.02,.12-.05,.18-.08,.05-.03,.1-.07,.13-.1,.03-.04,.06-.08,.06-.12,0-.04,0-.08-.02-.12-.02-.04-.07-.08-.13-.11-.06-.04-.13-.06-.2-.07-.07-.01-.14-.02-.21-.01-.07,0-.14,.02-.2,.04-.06,.02-.12,.05-.17,.08Z"/><path class="bv" d="M84.19,117.64l1.59-.92,.69,.4c.08,.05,.14,.1,.17,.15,.03,.06,.05,.11,.04,.17,0,.06-.03,.11-.06,.17-.04,.05-.09,.1-.16,.14-.07,.04-.15,.07-.24,.1-.09,.02-.19,.04-.28,.04-.1,0-.2,0-.29-.03-.1-.02-.18-.05-.26-.1l-.26-.15-.49,.28-.44-.25Zm1.31-.25l.23,.13s.06,.02,.11,.02c.05,0,.11-.02,.17-.06,.07-.04,.1-.07,.09-.1,0-.03-.02-.05-.05-.07l-.22-.13-.34,.2Z"/><path class="bv" d="M85.6,118.46l1.59-.92,.69,.4c.08,.05,.14,.1,.17,.15,.03,.06,.05,.11,.04,.17,0,.06-.03,.11-.06,.17-.04,.05-.09,.1-.16,.14-.07,.04-.15,.07-.24,.1-.09,.02-.19,.04-.28,.04-.1,0-.2,0-.29-.03-.1-.02-.18-.05-.26-.1l-.26-.15-.49,.28-.44-.25Zm1.31-.25l.23,.13s.06,.02,.11,.02c.05,0,.11-.02,.17-.06,.07-.04,.1-.07,.09-.1,0-.03-.02-.05-.05-.07l-.22-.13-.34,.2Z"/><path class="bv" d="M87,119.27l1.59-.92,.44,.25-1.59,.92-.44-.25Z"/><path class="bv" d="M88.94,119.49l-.78,.45-.44-.25,1.59-.92,.34,.2-.17,.84,.81-.47,.44,.25-1.59,.92-.35-.2,.15-.82Z"/><path class="bv" d="M90.65,121.22c-.21-.01-.39-.06-.54-.15-.1-.06-.19-.13-.24-.2-.06-.08-.09-.15-.09-.24,0-.08,.03-.16,.09-.25,.06-.08,.15-.16,.29-.24,.11-.06,.24-.11,.38-.14,.14-.03,.28-.05,.43-.04,.14,0,.29,.02,.43,.05,.14,.03,.27,.09,.39,.15,.07,.04,.13,.09,.18,.13,.05,.05,.09,.1,.11,.15,.03,.05,.04,.1,.04,.15,0,.05,0,.1-.03,.15l-.58-.05c.03-.05,.03-.11,.01-.17-.03-.06-.07-.11-.14-.15-.05-.03-.11-.05-.18-.07-.06-.01-.13-.02-.2-.02-.07,0-.14,.02-.21,.03-.07,.02-.14,.05-.2,.08-.06,.04-.11,.07-.14,.11s-.05,.08-.06,.12c0,.04,0,.08,.03,.12,.03,.04,.07,.07,.12,.1,.13,.07,.29,.11,.5,.1l-.28-.16,.32-.18,.66,.38-.85,.49-.36-.21,.13-.08Z"/></g></g></g></g></g></g></svg>