<?xml version="1.0" encoding="UTF-8"?><svg xmlns="http://www.w3.org/2000/svg" xmlns:xlink="http://www.w3.org/1999/xlink" viewBox="0 0 114.67 160"><defs><style>.cn{fill:url(#p);}.co{fill:url(#ay);}.cp{fill:url(#m);}.cq{fill:url(#aa);}.cr{fill:url(#al);}.cs{fill:url(#am);}.ct{fill:url(#cm);}.ct,.cu,.cv,.cw,.cx,.cy,.cz,.da,.db,.dc,.dd,.de,.df,.dg,.dh,.di{mix-blend-mode:color-dodge;}.dj{fill:url(#bc);}.dj,.dk,.dl{mix-blend-mode:screen;}.dm{fill:url(#bh);}.dm,.dn,.do,.dp,.dq,.dr,.ds,.dt,.du{mix-blend-mode:multiply;}.cu{fill:url(#bm);}.cu,.dv,.cy,.db,.dw,.dg{opacity:.5;}.dx{fill:url(#aq);}.cv{fill:url(#ce);}.dy{fill:url(#r);}.dn,.dv,.dz{fill:#b07c50;}.ea{fill:url(#t);}.eb{opacity:.18;}.dk{fill:url(#bb);}.ec{fill:url(#j);}.ec,.ed,.ee{mix-blend-mode:overlay;}.ef{fill:url(#l);}.do{fill:url(#bn);}.eg{opacity:.45;}.eh{fill:url(#ah);}.ei{fill:url(#at);}.ej{fill:url(#bt);}.ek,.el{fill:#68d1a3;}.em{fill:#928fa1;}.cw{fill:url(#h);}.en{fill:#ebdef3;}.eo{fill:url(#af);}.dp{fill:#b086cc;}.ep{fill:#201f26;}.eq{fill:url(#ap);}.er{isolation:isolate;}.cx{fill:url(#cg);}.es{fill:url(#s);}.el{opacity:.26;}.et{opacity:.2;}.eu{opacity:.91;}.dq{fill:#bcbec0;}.ev{fill:url(#bq);}.dl{fill:url(#as);opacity:.6;}.ew{fill:url(#q);}.ex{fill:url(#f);}.ey{opacity:0;}.ez{fill:url(#bi);}.fa{opacity:.36;}.cy{fill:url(#bg);}.cz{fill:url(#cj);}.fb{fill:url(#cl);}.fc{fill:url(#au);}.fd{fill:url(#n);}.fe{opacity:.64;}.ff{fill:url(#ad);}.dr{fill:url(#g);}.da{fill:url(#cf);}.dz{opacity:.34;}.fg{fill:url(#bw);}.fh{fill:url(#av);}.fi{fill:url(#e);}.fj{fill:url(#ai);}.db{fill:url(#bp);}.fk{fill:#8defa3;}.dw{fill:url(#bd);mix-blend-mode:lighten;}.fl{fill:url(#v);}.fm{fill:url(#aj);}.fn{fill:url(#br);}.fo{fill:url(#y);}.fp{fill:url(#by);}.fq{fill:url(#bl);}.fr{fill:url(#cd);}.fs{fill:url(#o);}.ft{opacity:.73;}.dc{fill:url(#ar);}.fu{opacity:.82;}.fv{fill:url(#x);}.fw{fill:url(#cc);}.fx{fill:url(#cb);}.dd{fill:url(#az);}.fy{fill:url(#bs);}.fz{fill:url(#u);}.ds{fill:url(#ba);}.ga{fill:url(#ae);}.gb{fill:url(#z);}.gc{fill:url(#bz);}.gd{fill:url(#ag);}.ge{fill:url(#bx);}.gf{opacity:.27;}.gg{fill:url(#bu);}.gh{fill:url(#an);}.gi{fill:url(#ca);}.dt{fill:url(#bk);}.gj{fill:url(#w);}.gk{fill:url(#ao);}.gl{fill:url(#ax);}.df{fill:url(#ck);}.gm{fill:url(#bv);}.gn{fill:url(#bf);}.go{fill:url(#ab);}.gp{fill:url(#k);}.gq{opacity:.55;}.ee{fill:url(#i);}.gr{fill:url(#aw);}.gs{opacity:.09;}.dg{fill:url(#bj);}.dh{fill:url(#ch);}.di{fill:url(#ci);}.gt{fill:url(#ac);}.gu{fill:url(#bo);}.du{fill:url(#be);}.gv{fill:url(#ak);}</style><linearGradient id="e" x1="25.79" y1="83.35" x2="32.59" y2="44.4" gradientTransform="matrix(1, 0, 0, 1, 0, 0)" gradientUnits="userSpaceOnUse"><stop offset=".03" stop-color="#27262c"/><stop offset="1" stop-color="#383c43"/></linearGradient><linearGradient id="f" x1="188.59" y1="2106.6" x2="136.32" y2="2074.46" gradientTransform="translate(-1157.1 -3036.79) rotate(30) skewX(49.11)" xlink:href="#e"/><linearGradient id="g" x1="33.29" y1="62.25" x2="75.41" y2="62.12" gradientTransform="matrix(1, 0, 0, 1, 0, 0)" gradientUnits="userSpaceOnUse"><stop offset="0" stop-color="#fff"/><stop offset=".04" stop-color="#f7f7f7"/><stop offset=".99" stop-color="#45108a"/></linearGradient><radialGradient id="h" cx="29.04" cy="61.45" fx="29.04" fy="61.45" r="32.38" gradientTransform="matrix(1, 0, 0, 1, 0, 0)" gradientUnits="userSpaceOnUse"><stop offset="0" stop-color="#fff"/><stop offset="1" stop-color="#000"/></radialGradient><linearGradient id="i" x1="-452.24" y1="2101.73" x2="-443.56" y2="2101.73" gradientTransform="translate(435.21 -2117.67) rotate(30) skewX(30)" gradientUnits="userSpaceOnUse"><stop offset=".04" stop-color="#9f19ab"/><stop offset=".24" stop-color="#ae24b0"/><stop offset=".65" stop-color="#d643bf"/><stop offset="1" stop-color="#ff63ce"/></linearGradient><linearGradient id="j" x1="-446.77" y1="2101.73" x2="-438.09" y2="2101.73" gradientTransform="translate(435.21 -2117.67) rotate(30) skewX(30)" gradientUnits="userSpaceOnUse"><stop offset=".04" stop-color="#ffa98c"/><stop offset=".32" stop-color="#feb892"/><stop offset=".86" stop-color="#fee0a3"/><stop offset="1" stop-color="#feeca8"/></linearGradient><radialGradient id="k" cx="5.87" cy="51.4" fx="5.87" fy="51.4" r="1.74" xlink:href="#h"/><radialGradient id="l" cx="8.51" cy="52.7" fx="8.51" fy="52.7" r="1.68" xlink:href="#h"/><radialGradient id="m" cx="11.15" cy="54.42" fx="11.15" fy="54.42" r="1.81" xlink:href="#h"/><radialGradient id="n" cx="13.79" cy="55.97" fx="13.79" fy="55.97" r="1.74" xlink:href="#h"/><radialGradient id="o" cx="19.08" cy="58.8" fx="19.08" fy="58.8" r="1.68" xlink:href="#h"/><radialGradient id="p" cx="21.72" cy="60.52" fx="21.72" fy="60.52" r="1.81" xlink:href="#h"/><radialGradient id="q" cx="24.36" cy="62" fx="24.36" fy="62" r="1.78" xlink:href="#h"/><radialGradient id="r" cx="27" cy="63.57" fx="27" fy="63.57" r="1.75" xlink:href="#h"/><radialGradient id="s" cx="32.28" cy="66.42" fx="32.28" fy="66.42" r="1.68" xlink:href="#h"/><radialGradient id="t" cx="34.92" cy="67.94" fx="34.92" fy="67.94" r="1.68" xlink:href="#h"/><radialGradient id="u" cx="37.56" cy="69.47" fx="37.56" fy="69.47" r="1.68" xlink:href="#h"/><radialGradient id="v" cx="40.2" cy="70.99" fx="40.2" fy="70.99" r="1.68" xlink:href="#h"/><radialGradient id="w" cx="45.48" cy="74.24" fx="45.48" fy="74.24" r="1.75" xlink:href="#h"/><radialGradient id="x" cx="48.12" cy="75.77" fx="48.12" fy="75.77" r="1.75" xlink:href="#h"/><radialGradient id="y" cx="50.76" cy="77.29" fx="50.76" fy="77.29" r="1.75" xlink:href="#h"/><radialGradient id="z" cx="53.4" cy="78.81" fx="53.4" fy="78.81" r="1.75" xlink:href="#h"/><linearGradient id="aa" x1="-487.14" y1="2091.23" x2="-497.69" y2="2082.62" xlink:href="#j"/><linearGradient id="ab" x1="-487.56" y1="2089.28" x2="-497.19" y2="2081.42" xlink:href="#j"/><linearGradient id="ac" x1="-487.67" y1="2092.4" x2="-497.26" y2="2084.56" xlink:href="#j"/><radialGradient id="ad" cx="8.77" cy="47.86" fx="8.77" fy="47.86" r="3.29" xlink:href="#h"/><radialGradient id="ae" cx="8.77" cy="45.88" fx="8.77" fy="45.88" r="3.46" xlink:href="#h"/><radialGradient id="af" cx="8.96" cy="43.85" fx="8.96" fy="43.85" r="3.2" xlink:href="#h"/><linearGradient id="ag" x1="-463.67" y1="2077.69" x2="-440.4" y2="2087.51" xlink:href="#j"/><linearGradient id="ah" x1="-463.19" y1="2077.47" x2="-441.09" y2="2086.8" xlink:href="#j"/><linearGradient id="ai" x1="-463.13" y1="2076.71" x2="-439.8" y2="2086.56" xlink:href="#j"/><linearGradient id="aj" x1="-462.46" y1="2075.31" x2="-439.09" y2="2085.18" xlink:href="#j"/><linearGradient id="ak" x1="-461.41" y1="2075.14" x2="-439.67" y2="2084.32" xlink:href="#j"/><linearGradient id="al" x1="-461.68" y1="2074.56" x2="-438.86" y2="2084.19" xlink:href="#j"/><linearGradient id="am" x1="-461.17" y1="2073.04" x2="-437.9" y2="2082.86" xlink:href="#j"/><linearGradient id="an" x1="-460.77" y1="2072.77" x2="-437.73" y2="2082.5" xlink:href="#j"/><linearGradient id="ao" x1="-459.61" y1="2072.28" x2="-437.5" y2="2081.61" xlink:href="#j"/><linearGradient id="ap" x1="-460.03" y1="2070.68" x2="-436.66" y2="2080.55" xlink:href="#j"/><linearGradient id="aq" x1="18.15" y1="4.07" x2="70.83" y2="95.32" gradientTransform="matrix(1, 0, 0, 1, 0, 0)" gradientUnits="userSpaceOnUse"><stop offset=".06" stop-color="#27262c"/><stop offset=".32" stop-color="#29282e"/><stop offset=".46" stop-color="#2f2e35"/><stop offset=".47" stop-color="#313037"/><stop offset=".48" stop-color="#353237"/><stop offset=".49" stop-color="#423a3a"/><stop offset=".5" stop-color="#58473e"/><stop offset=".51" stop-color="#765a45"/><stop offset=".53" stop-color="#9d714c"/><stop offset=".53" stop-color="#b27e51"/><stop offset=".53" stop-color="#a9794f"/><stop offset=".55" stop-color="#7e5f46"/><stop offset=".57" stop-color="#5c4a3f"/><stop offset=".59" stop-color="#443b3a"/><stop offset=".61" stop-color="#363338"/><stop offset=".63" stop-color="#313037"/><stop offset=".69" stop-color="#2b2a31"/><stop offset=".81" stop-color="#27262c"/><stop offset="1" stop-color="#201f26"/></linearGradient><radialGradient id="ar" cx="102.39" cy="41.45" fx="102.39" fy="41.45" r="97.5" gradientTransform="matrix(1, 0, 0, 1, 0, 0)" gradientUnits="userSpaceOnUse"><stop offset="0" stop-color="#b07c50"/><stop offset=".12" stop-color="#aa784d"/><stop offset=".28" stop-color="#9b6d46"/><stop offset=".45" stop-color="#815b3b"/><stop offset=".63" stop-color="#5e422a"/><stop offset=".82" stop-color="#312216"/><stop offset="1" stop-color="#000"/></radialGradient><radialGradient id="as" cx="84.88" cy="34.65" fx="84.88" fy="34.65" r="57.61" gradientTransform="matrix(1, 0, 0, 1, 0, 0)" gradientUnits="userSpaceOnUse"><stop offset="0" stop-color="#b27d51"/><stop offset="1" stop-color="#2a2a30"/></radialGradient><linearGradient id="at" x1="88.78" y1="88.59" x2="-76.37" y2="36.89" gradientTransform="matrix(1, 0, 0, 1, 0, 0)" gradientUnits="userSpaceOnUse"><stop offset=".19" stop-color="#342f31"/><stop offset=".93" stop-color="#675140"/></linearGradient><linearGradient id="au" x1="89.95" y1="150.42" x2="8.44" y2="-21.81" gradientTransform="matrix(1, 0, 0, 1, 0, 0)" gradientUnits="userSpaceOnUse"><stop offset="0" stop-color="#775a44"/><stop offset=".28" stop-color="#53453c"/><stop offset="1" stop-color="#27262c"/></linearGradient><linearGradient id="av" x1="28.61" y1="80.8" x2="82.99" y2="80.8" gradientTransform="matrix(1, 0, 0, 1, 0, 0)" gradientUnits="userSpaceOnUse"><stop offset="0" stop-color="#311b61"/><stop offset=".2" stop-color="#290e52"/><stop offset=".49" stop-color="#200041"/><stop offset="1" stop-color="#0f001f"/></linearGradient><linearGradient id="aw" x1="35.86" y1="22.37" x2="80.86" y2="154.25" gradientTransform="matrix(1, 0, 0, 1, 0, 0)" gradientUnits="userSpaceOnUse"><stop offset=".01" stop-color="#3a3632"/><stop offset=".43" stop-color="#27262c"/><stop offset=".91" stop-color="#18171d"/></linearGradient><linearGradient id="ax" x1="-364.04" y1="10741.41" x2="-354.31" y2="10741.41" gradientTransform="translate(9210.82 -4786.4) rotate(109.11) scale(1.53 .65) skewX(26.33)" xlink:href="#av"/><linearGradient id="ay" x1="90.86" y1="65.98" x2="84.15" y2="65.69" gradientTransform="matrix(1, 0, 0, 1, 0, 0)" gradientUnits="userSpaceOnUse"><stop offset="0" stop-color="#2c2c32"/><stop offset=".99" stop-color="#b07c50"/></linearGradient><radialGradient id="az" cx="87.49" cy="63.12" fx="87.49" fy="63.12" r="3.94" gradientTransform="matrix(1, 0, 0, 1, 0, 0)" gradientUnits="userSpaceOnUse"><stop offset="0" stop-color="#51351e"/><stop offset=".2" stop-color="#4b311c"/><stop offset=".44" stop-color="#3c2716"/><stop offset=".71" stop-color="#22160c"/><stop offset="1" stop-color="#000"/></radialGradient><linearGradient id="ba" x1="33.99" y1="70.67" x2="18.26" y2="70.67" gradientTransform="matrix(1, 0, 0, 1, 0, 0)" gradientUnits="userSpaceOnUse"><stop offset="0" stop-color="#fff"/><stop offset=".04" stop-color="#f7f7f7"/><stop offset=".99" stop-color="#27262c"/></linearGradient><linearGradient id="bb" x1="39.17" y1="115.61" x2="32.94" y2="128.19" gradientTransform="matrix(1, 0, 0, 1, 0, 0)" gradientUnits="userSpaceOnUse"><stop offset="0" stop-color="#6bb290"/><stop offset="1" stop-color="#000"/></linearGradient><linearGradient id="bc" x1="57.31" y1="124.59" x2="51.08" y2="137.17" xlink:href="#bb"/><linearGradient id="bd" x1="48.67" y1="93.71" x2="30.46" y2="84.21" gradientTransform="matrix(1, 0, 0, 1, 0, 0)" gradientUnits="userSpaceOnUse"><stop offset="0" stop-color="#b07c50"/><stop offset=".11" stop-color="#8a613e"/><stop offset=".25" stop-color="#60432b"/><stop offset=".4" stop-color="#3d2b1b"/><stop offset=".54" stop-color="#22180f"/><stop offset=".69" stop-color="#0f0a06"/><stop offset=".84" stop-color="#030201"/><stop offset="1" stop-color="#000"/></linearGradient><linearGradient id="be" x1="47.1" y1="106.15" x2="58.07" y2="106.15" gradientTransform="matrix(1, 0, 0, 1, 0, 0)" gradientUnits="userSpaceOnUse"><stop offset="0" stop-color="#ffbb96"/><stop offset=".23" stop-color="#fffbc9"/><stop offset=".54" stop-color="#f9b673"/><stop offset=".64" stop-color="#f9b876"/><stop offset=".72" stop-color="#fabe81"/><stop offset=".81" stop-color="#fcc892"/><stop offset=".86" stop-color="#fed2a3"/><stop offset=".97" stop-color="#ffc28c"/></linearGradient><linearGradient id="bf" x1="65.42" y1="130.71" x2="34.21" y2="74.65" gradientTransform="matrix(1, 0, 0, 1, 0, 0)" gradientUnits="userSpaceOnUse"><stop offset=".04" stop-color="#c49771"/><stop offset=".35" stop-color="#d39f72"/><stop offset=".95" stop-color="#fbb476"/><stop offset="1" stop-color="#ffb677"/></linearGradient><radialGradient id="bg" cx="55.99" cy="103.78" fx="55.99" fy="103.78" r="6.29" gradientTransform="matrix(1, 0, 0, 1, 0, 0)" gradientUnits="userSpaceOnUse"><stop offset="0" stop-color="#fff"/><stop offset="1" stop-color="#000"/></radialGradient><linearGradient id="bh" x1="73.59" y1="86.75" x2="86.33" y2="86.75" xlink:href="#be"/><linearGradient id="bi" x1="94.88" y1="115.29" x2="58.62" y2="50.14" gradientTransform="matrix(1, 0, 0, 1, 0, 0)" gradientUnits="userSpaceOnUse"><stop offset=".02" stop-color="#c49771"/><stop offset=".34" stop-color="#d39f72"/><stop offset=".95" stop-color="#fbb476"/><stop offset="1" stop-color="#ffb677"/></linearGradient><radialGradient id="bj" cx="83.92" cy="84" fx="83.92" fy="84" r="7.31" xlink:href="#bg"/><linearGradient id="bk" x1="66.47" y1="68.31" x2="75.45" y2="68.31" xlink:href="#be"/><linearGradient id="bl" x1="81.48" y1="88.43" x2="55.92" y2="42.5" xlink:href="#bf"/><radialGradient id="bm" cx="73.75" cy="66.37" fx="73.75" fy="66.37" r="5.15" xlink:href="#bg"/><linearGradient id="bn" x1="62.36" y1="102.17" x2="77.45" y2="102.17" xlink:href="#be"/><linearGradient id="bo" x1="87.58" y1="135.97" x2="44.63" y2="58.81" xlink:href="#bf"/><radialGradient id="bp" cx="74.6" cy="98.9" fx="74.6" fy="98.9" r="8.66" xlink:href="#bg"/><linearGradient id="bq" x1="-690.84" y1="2876.98" x2="-702.17" y2="2947.49" gradientTransform="translate(634.66 -3039.33) rotate(30) skewX(30)" gradientUnits="userSpaceOnUse"><stop offset=".04" stop-color="#b07c50"/><stop offset=".31" stop-color="#bf8757"/><stop offset=".84" stop-color="#e7a56b"/><stop offset="1" stop-color="#f5af72"/></linearGradient><linearGradient id="br" x1="-682.56" y1="2878.31" x2="-693.89" y2="2948.82" gradientTransform="translate(634.66 -3039.33) rotate(30) skewX(30)" gradientUnits="userSpaceOnUse"><stop offset="0" stop-color="#9f79c8"/><stop offset=".14" stop-color="#a27cc9"/><stop offset=".27" stop-color="#ab87ce"/><stop offset=".4" stop-color="#bb9ad7"/><stop offset=".52" stop-color="#d1b4e3"/><stop offset=".65" stop-color="#dac3e8"/><stop offset=".9" stop-color="#f3ecf8"/><stop offset="1" stop-color="#fff"/></linearGradient><linearGradient id="bs" x1="-674.2" y1="2879.65" x2="-685.54" y2="2950.16" xlink:href="#bq"/><linearGradient id="bt" x1="-665.92" y1="2880.98" x2="-677.25" y2="2951.49" xlink:href="#br"/><linearGradient id="bu" x1="-657.58" y1="2882.32" x2="-668.91" y2="2952.83" xlink:href="#bq"/><linearGradient id="bv" x1="-649.3" y1="2883.65" x2="-660.63" y2="2954.16" xlink:href="#br"/><linearGradient id="bw" x1="78.54" y1="-10.94" x2="69.21" y2="47.08" gradientTransform="matrix(1, 0, 0, 1, 0, 0)" xlink:href="#bq"/><linearGradient id="bx" x1="69.47" y1="2952.07" x2="73.14" y2="2986.69" gradientTransform="translate(-1530.78 -4289.34) rotate(30) skewX(49.11)" xlink:href="#bq"/><linearGradient id="by" x1="77.87" y1="2951.17" x2="81.54" y2="2985.8" gradientTransform="translate(-1530.78 -4289.34) rotate(30) skewX(49.11)" xlink:href="#br"/><linearGradient id="bz" x1="86.34" y1="2950.28" x2="90.02" y2="2984.9" gradientTransform="translate(-1530.78 -4289.34) rotate(30) skewX(49.11)" xlink:href="#bq"/><linearGradient id="ca" x1="94.74" y1="2949.38" x2="98.42" y2="2984.01" gradientTransform="translate(-1530.78 -4289.34) rotate(30) skewX(49.11)" xlink:href="#br"/><linearGradient id="cb" x1="103.2" y1="2948.49" x2="106.88" y2="2983.11" gradientTransform="translate(-1530.78 -4289.34) rotate(30) skewX(49.11)" xlink:href="#bq"/><linearGradient id="cc" x1="111.61" y1="2947.6" x2="115.28" y2="2982.22" gradientTransform="translate(-1530.78 -4289.34) rotate(30) skewX(49.11)" xlink:href="#br"/><linearGradient id="cd" x1="120.01" y1="2946.7" x2="123.68" y2="2981.33" gradientTransform="translate(-1530.78 -4289.34) rotate(30) skewX(49.11)" xlink:href="#bq"/><radialGradient id="ce" cx="17.51" cy="36.22" fx="17.51" fy="36.22" r="2.66" gradientTransform="matrix(1, 0, 0, 1, 0, 0)" gradientUnits="userSpaceOnUse"><stop offset="0" stop-color="#fff"/><stop offset=".07" stop-color="#d8d8d8"/><stop offset=".16" stop-color="#a5a5a5"/><stop offset=".26" stop-color="#797979"/><stop offset=".37" stop-color="#545454"/><stop offset=".47" stop-color="#353535"/><stop offset=".59" stop-color="#1d1d1d"/><stop offset=".7" stop-color="#0d0d0d"/><stop offset=".84" stop-color="#030303"/><stop offset="1" stop-color="#000"/></radialGradient><radialGradient id="cf" cx="24.87" cy="40.47" fx="24.87" fy="40.47" r="2.66" xlink:href="#ce"/><radialGradient id="cg" cx="32.29" cy="44.75" fx="32.29" fy="44.75" r="2.66" xlink:href="#ce"/><radialGradient id="ch" cx="39.65" cy="49" fx="39.65" fy="49" r="2.66" xlink:href="#ce"/><radialGradient id="ci" cx="47.05" cy="53.28" fx="47.05" fy="53.28" r="2.66" xlink:href="#ce"/><radialGradient id="cj" cx="54.41" cy="57.53" fx="54.41" fy="57.53" r="2.66" xlink:href="#ce"/><radialGradient id="ck" cx="62.71" cy="62.67" fx="62.71" fy="62.67" r="2.66" xlink:href="#ce"/><linearGradient id="cl" x1="68.63" y1="53.75" x2="110.04" y2="30.68" gradientTransform="matrix(1, 0, 0, 1, 0, 0)" gradientUnits="userSpaceOnUse"><stop offset=".04" stop-color="#b07c50"/><stop offset=".6" stop-color="#bf8757"/><stop offset="1" stop-color="#cd925f"/></linearGradient><radialGradient id="cm" cx="46.99" cy="44.35" fx="46.99" fy="44.35" r="26.78" xlink:href="#ce"/></defs><g class="er"><g id="b"><g id="c"><g id="d"><g><g><path class="fi" d="M55.2,97.55L3.9,67.93c-1.8-1.04-3.27-3.84-3.27-6.24V28.52c0-2.41,1.46-3.51,3.27-2.47l51.31,29.62c1.8,1.04,3.27,3.84,3.27,6.24v33.16c0,2.41-1.46,3.51-3.27,2.47Z"/><path class="ex" d="M54.57,97.74L3.27,68.11c-1.8-1.04-3.27-3.84-3.27-6.24,0,0,1.46-36.67,3.27-35.63l51.31,29.62c1.8,1.04,3.27,3.84,3.27,6.24v33.16c0,2.41-1.46,3.51-3.27,2.47Z"/><path class="dr" d="M55.68,98.37L3.58,68.29c-1.83-1.06-1.83-43.58,0-42.52l52.1,30.08c1.83,1.06,3.32,3.9,3.32,6.34v33.67c0,2.44-1.49,3.57-3.32,2.51Z"/><path class="cw" d="M54.57,55.86L3.27,26.24c-1.37-.79-2.55-.34-3.03,.99,.54-1.09,1.64-1.42,2.91-.69l51.31,29.62c1.8,1.04,3.27,3.84,3.27,6.24v33.16c0,.57-.09,1.07-.24,1.48,.23-.46,.36-1.06,.36-1.78V62.11c0-2.41-1.46-5.2-3.27-6.24Z"/><path class="ee" d="M51.09,87.41c0,2.38-1.68,3.34-3.76,2.14s-3.76-4.1-3.76-6.48,1.68-3.34,3.76-2.14,3.76,4.1,3.76,6.48Z"/><path class="ec" d="M55.83,90.15c0,2.38-1.68,3.34-3.76,2.14-2.08-1.2-3.76-4.1-3.76-6.48s1.68-3.34,3.76-2.14c2.08,1.2,3.76,4.1,3.76,6.48Z"/><g class="de"><path class="gp" d="M5.7,51.02l.67,.39c.12,.07,.21,.14,.29,.31,.1,.19,.11,.32,.11,.49v1.07c0,.16-.01,.26-.09,.34-.09,.1-.19,.06-.32-.01l-.81-.47c-.1-.06-.15-.12-.24-.23l-.14-.17c-.1-.12-.21-.23-.21-.4,0-.13,.08-.2,.18-.15,.04,.03,.08,.06,.12,.11l.11,.13c.05,.06,.14,.18,.19,.21l.85,.49v-1.2l-1.08-.62v-2.2l1.26,.73c.1,.06,.18,.18,.18,.36s-.09,.2-.18,.15l-.9-.52v1.2Z"/><path class="ef" d="M7.98,51.14c0,.11-.07,.21-.18,.15-.12-.07-.18-.25-.18-.36v-.25c0-.11,.07-.21,.18-.15l1.63,.94v1.46c0,.18,0,.2-.1,.26l-.51,.31c-.1,.06-.1,.07-.1,.24v.97c0,.16-.05,.22-.18,.15-.13-.08-.18-.2-.18-.36v-1.21c0-.17,0-.18,.1-.24l.51-.31c.12-.08,.11-.07,.11-.3v-.69l-1.08-.62Z"/><path class="cp" d="M10.62,55.56l1.26,.73c.1,.06,.18,.18,.18,.36s-.09,.2-.18,.15l-1.63-.94v-1.64c0-.38,.14-.49,.41-.33l1.03,.59v-1.2l-1.26-.73c-.1-.05-.18-.18-.18-.36s.09-.2,.18-.15l1.22,.7c.12,.07,.21,.14,.3,.31,.1,.19,.11,.33,.11,.51v1.03c0,.18-.01,.31-.11,.38-.09,.06-.18,.04-.3-.03l-1.03-.6v1.2Z"/><path class="fd" d="M13.62,55.6l.67,.39c.12,.07,.21,.14,.29,.31,.1,.19,.11,.32,.11,.49v1.07c0,.16-.01,.26-.09,.34-.09,.1-.19,.06-.32-.01l-.81-.47c-.1-.06-.15-.12-.24-.23l-.14-.17c-.1-.12-.21-.23-.21-.4,0-.13,.08-.2,.18-.15,.04,.03,.08,.06,.12,.11l.11,.13c.05,.06,.14,.18,.19,.21l.85,.49v-1.2l-1.08-.62v-2.2l1.26,.73c.1,.06,.18,.18,.18,.36s-.09,.2-.18,.15l-.9-.52v1.2Z"/><path class="fs" d="M18.54,57.24c0,.11-.07,.21-.18,.15-.12-.07-.18-.25-.18-.36v-.25c0-.11,.07-.21,.18-.15l1.63,.94v1.46c0,.18,0,.2-.1,.26l-.51,.31c-.1,.06-.1,.07-.1,.24v.97c0,.16-.05,.22-.18,.15-.13-.08-.18-.2-.18-.36v-1.21c0-.17,0-.18,.1-.24l.51-.31c.12-.08,.11-.08,.11-.3v-.69l-1.08-.62Z"/><path class="cn" d="M21.18,61.66l1.26,.73c.1,.06,.18,.18,.18,.36s-.09,.2-.18,.15l-1.63-.94v-1.64c0-.38,.14-.49,.41-.33l1.03,.59v-1.2l-1.26-.73c-.1-.06-.18-.18-.18-.36s.09-.2,.18-.15l1.22,.7c.12,.07,.21,.14,.3,.31,.1,.19,.11,.33,.11,.51v1.03c0,.18-.01,.31-.11,.38-.09,.06-.18,.04-.3-.03l-1.03-.6v1.2Z"/><path class="ew" d="M23.63,60.18c-.1-.06-.18-.18-.18-.36s.09-.2,.18-.15l1.26,.73c.21,.12,.37,.43,.37,.71v.96c0,.2-.03,.33-.14,.4,.11,.21,.14,.37,.14,.57v.96c0,.29-.16,.41-.37,.29l-1.26-.73c-.1-.06-.18-.18-.18-.36s.09-.2,.18-.15l1.26,.73v-.83c0-.28-.08-.41-.18-.47l-.72-.41c-.1-.06-.18-.18-.18-.36s.09-.2,.18-.15l.72,.41c.1,.06,.18,.02,.18-.26v-.83l-1.26-.73Z"/><path class="dy" d="M27.54,61.93c.2,.12,.37,.44,.37,.71v2.9c0,.28-.16,.41-.37,.29l-1.08-.62c-.21-.12-.37-.43-.37-.71v-2.9c0-.28,.17-.41,.37-.29l1.08,.62Zm0,3.4v-2.9l-1.08-.62v2.9l1.08,.62Z"/><path class="es" d="M31.74,64.86c0,.11-.07,.21-.18,.15-.12-.07-.18-.25-.18-.36v-.25c0-.11,.07-.21,.18-.15l1.63,.94v1.46c0,.18,0,.2-.1,.26l-.51,.31c-.1,.06-.1,.07-.1,.24v.97c0,.16-.05,.22-.18,.15-.13-.08-.18-.2-.18-.36v-1.21c0-.17,0-.18,.1-.24l.51-.31c.12-.08,.11-.07,.11-.3v-.69l-1.08-.62Z"/><path class="ea" d="M34.38,66.38c0,.11-.07,.21-.18,.15-.12-.07-.18-.25-.18-.36v-.25c0-.11,.07-.21,.18-.15l1.63,.94v1.46c0,.18,0,.2-.1,.26l-.51,.31c-.1,.06-.1,.07-.1,.24v.97c0,.16-.05,.22-.18,.15-.13-.08-.18-.2-.18-.36v-1.21c0-.17,0-.18,.1-.24l.51-.31c.12-.08,.11-.08,.11-.3v-.69l-1.08-.62Z"/><path class="fz" d="M37.02,67.91c0,.11-.07,.21-.18,.15-.12-.07-.18-.25-.18-.36v-.25c0-.11,.07-.21,.18-.15l1.63,.94v1.46c0,.18,0,.2-.1,.26l-.51,.31c-.1,.06-.1,.07-.1,.24v.97c0,.16-.05,.22-.18,.15-.13-.08-.18-.2-.18-.36v-1.21c0-.17,0-.18,.1-.24l.51-.31c.12-.08,.11-.08,.11-.3v-.69l-1.08-.62Z"/><path class="fl" d="M39.66,69.43c0,.11-.07,.21-.18,.15-.12-.07-.18-.25-.18-.36v-.25c0-.11,.07-.21,.18-.15l1.63,.94v1.46c0,.18,0,.2-.1,.26l-.51,.31c-.1,.06-.1,.07-.1,.24v.97c0,.16-.05,.22-.18,.15-.13-.08-.18-.2-.18-.36v-1.21c0-.17,0-.18,.1-.24l.51-.31c.12-.08,.11-.08,.11-.3v-.69l-1.08-.62Z"/><path class="gj" d="M46.02,72.6c.2,.12,.37,.44,.37,.71v2.9c0,.28-.16,.41-.37,.29l-1.08-.62c-.21-.12-.37-.43-.37-.71v-2.9c0-.28,.17-.41,.37-.29l1.08,.62Zm0,3.4v-2.9l-1.08-.62v2.9l1.08,.62Z"/><path class="fv" d="M48.66,74.12c.2,.12,.37,.44,.37,.71v2.9c0,.28-.16,.41-.37,.29l-1.08-.62c-.21-.12-.37-.43-.37-.71v-2.9c0-.28,.17-.41,.37-.29l1.08,.62Zm0,3.4v-2.9l-1.08-.62v2.9l1.08,.62Z"/><path class="fo" d="M51.3,75.65c.2,.12,.37,.44,.37,.71v2.9c0,.28-.16,.41-.37,.29l-1.08-.62c-.21-.12-.37-.43-.37-.71v-2.9c0-.28,.17-.41,.37-.29l1.08,.62Zm0,3.4v-2.9l-1.08-.62v2.9l1.08,.62Z"/><path class="gb" d="M53.94,77.17c.2,.12,.37,.44,.37,.71v2.9c0,.28-.16,.41-.37,.29l-1.08-.62c-.21-.12-.37-.43-.37-.71v-2.9c0-.28,.17-.41,.37-.29l1.08,.62Zm0,3.4v-2.9l-1.08-.62v2.9l1.08,.62Z"/></g><g><path class="en" d="M5.5,51.04l.67,.39c.12,.07,.21,.14,.29,.31,.1,.19,.11,.32,.11,.49v1.07c0,.16-.01,.26-.09,.34-.09,.1-.19,.06-.32-.01l-.81-.47c-.1-.06-.15-.12-.24-.23l-.14-.17c-.1-.12-.21-.23-.21-.4,0-.13,.08-.2,.18-.15,.04,.03,.08,.06,.12,.11l.11,.13c.05,.06,.14,.18,.19,.21l.85,.49v-1.2l-1.08-.62v-2.2l1.26,.73c.1,.06,.18,.18,.18,.36s-.09,.2-.18,.15l-.9-.52v1.2Z"/><path class="en" d="M7.78,51.15c0,.11-.07,.21-.18,.15-.12-.07-.18-.25-.18-.36v-.25c0-.11,.07-.21,.18-.15l1.63,.94v1.46c0,.18,0,.2-.1,.26l-.51,.31c-.1,.06-.1,.07-.1,.24v.97c0,.16-.05,.22-.18,.15-.13-.08-.18-.2-.18-.36v-1.21c0-.17,0-.18,.1-.24l.51-.31c.12-.08,.11-.07,.11-.3v-.69l-1.08-.62Z"/><path class="en" d="M10.42,55.58l1.26,.73c.1,.05,.18,.18,.18,.36s-.09,.2-.18,.15l-1.63-.94v-1.64c0-.38,.14-.49,.41-.33l1.03,.59v-1.2l-1.26-.73c-.1-.06-.18-.18-.18-.36s.09-.2,.18-.15l1.22,.7c.12,.07,.21,.14,.3,.31,.1,.19,.11,.33,.11,.51v1.03c0,.18-.01,.31-.11,.38-.09,.06-.18,.04-.3-.03l-1.03-.6v1.2Z"/><path class="en" d="M13.42,55.61l.67,.39c.12,.07,.21,.14,.29,.31,.1,.19,.11,.32,.11,.49v1.07c0,.16-.01,.26-.09,.34-.09,.1-.19,.06-.32-.01l-.81-.47c-.1-.06-.15-.12-.24-.23l-.14-.17c-.1-.12-.21-.23-.21-.4,0-.13,.08-.2,.18-.15,.04,.03,.08,.06,.12,.11l.11,.13c.05,.06,.14,.18,.19,.21l.85,.49v-1.2l-1.08-.62v-2.2l1.26,.73c.1,.05,.18,.18,.18,.36s-.09,.2-.18,.15l-.9-.52v1.2Z"/><path class="en" d="M18.34,57.25c0,.11-.07,.21-.18,.15-.12-.07-.18-.25-.18-.36v-.25c0-.11,.07-.21,.18-.15l1.63,.94v1.46c0,.18,0,.2-.1,.26l-.51,.31c-.1,.06-.1,.07-.1,.24v.97c0,.16-.05,.22-.18,.14-.13-.08-.18-.2-.18-.36v-1.21c0-.17,0-.18,.1-.24l.51-.31c.12-.08,.11-.07,.11-.3v-.69l-1.08-.62Z"/><path class="en" d="M20.98,61.68l1.26,.73c.1,.05,.18,.18,.18,.36s-.09,.2-.18,.15l-1.63-.94v-1.64c0-.38,.14-.49,.41-.33l1.03,.59v-1.2l-1.26-.73c-.1-.05-.18-.18-.18-.36s.09-.2,.18-.15l1.22,.7c.12,.07,.21,.14,.3,.31,.1,.19,.11,.33,.11,.51v1.03c0,.18-.01,.31-.11,.38-.09,.06-.18,.04-.3-.03l-1.03-.6v1.2Z"/><path class="en" d="M23.44,60.19c-.1-.05-.18-.18-.18-.36s.09-.2,.18-.15l1.26,.73c.21,.12,.37,.43,.37,.71v.96c0,.2-.03,.33-.14,.4,.11,.21,.14,.37,.14,.57v.96c0,.29-.16,.41-.37,.29l-1.26-.73c-.1-.06-.18-.18-.18-.36s.09-.2,.18-.15l1.26,.73v-.83c0-.28-.08-.41-.18-.47l-.72-.41c-.1-.06-.18-.18-.18-.36s.09-.2,.18-.15l.72,.41c.1,.06,.18,.02,.18-.26v-.83l-1.26-.73Z"/><path class="en" d="M27.34,61.94c.2,.12,.37,.44,.37,.71v2.9c0,.28-.16,.41-.37,.29l-1.08-.62c-.21-.12-.37-.43-.37-.71v-2.9c0-.28,.17-.41,.37-.29l1.08,.62Zm0,3.4v-2.9l-1.08-.62v2.9l1.08,.62Z"/><path class="en" d="M31.54,64.87c0,.11-.07,.21-.18,.15-.12-.07-.18-.25-.18-.36v-.25c0-.11,.07-.21,.18-.15l1.63,.94v1.46c0,.18,0,.2-.1,.26l-.51,.31c-.1,.06-.1,.07-.1,.24v.97c0,.16-.05,.22-.18,.15-.13-.08-.18-.2-.18-.36v-1.21c0-.17,0-.18,.1-.24l.51-.31c.12-.08,.11-.08,.11-.3v-.69l-1.08-.62Z"/><path class="en" d="M34.18,66.4c0,.11-.07,.21-.18,.15-.12-.07-.18-.25-.18-.36v-.25c0-.11,.07-.21,.18-.15l1.63,.94v1.46c0,.18,0,.2-.1,.26l-.51,.31c-.1,.06-.1,.07-.1,.24v.97c0,.16-.05,.22-.18,.15-.13-.08-.18-.2-.18-.36v-1.21c0-.17,0-.18,.1-.24l.51-.31c.12-.08,.11-.07,.11-.3v-.69l-1.08-.62Z"/><path class="en" d="M36.82,67.92c0,.11-.07,.21-.18,.15-.12-.07-.18-.25-.18-.36v-.25c0-.11,.07-.21,.18-.15l1.63,.94v1.46c0,.18,0,.2-.1,.26l-.51,.31c-.1,.06-.1,.07-.1,.24v.97c0,.16-.05,.22-.18,.15-.13-.08-.18-.2-.18-.36v-1.21c0-.17,0-.18,.1-.24l.51-.31c.12-.08,.11-.08,.11-.3v-.69l-1.08-.62Z"/><path class="en" d="M39.46,69.44c0,.11-.07,.21-.18,.14-.12-.07-.18-.25-.18-.36v-.25c0-.11,.07-.21,.18-.15l1.63,.94v1.46c0,.18,0,.2-.1,.26l-.51,.31c-.1,.06-.1,.07-.1,.24v.97c0,.16-.05,.22-.18,.15-.13-.08-.18-.2-.18-.36v-1.21c0-.17,0-.18,.1-.24l.51-.31c.12-.08,.11-.08,.11-.3v-.69l-1.08-.62Z"/><path class="en" d="M45.82,72.61c.2,.12,.37,.44,.37,.71v2.9c0,.28-.16,.41-.37,.29l-1.08-.62c-.21-.12-.37-.43-.37-.71v-2.9c0-.28,.17-.41,.37-.29l1.08,.62Zm0,3.4v-2.9l-1.08-.62v2.9l1.08,.62Z"/><path class="en" d="M48.46,74.14c.2,.12,.37,.44,.37,.71v2.9c0,.28-.16,.41-.37,.29l-1.08-.62c-.21-.12-.37-.43-.37-.71v-2.9c0-.28,.17-.41,.37-.29l1.08,.62Zm0,3.4v-2.9l-1.08-.62v2.9l1.08,.62Z"/><path class="en" d="M51.1,75.66c.2,.12,.37,.44,.37,.71v2.9c0,.28-.16,.41-.37,.29l-1.08-.62c-.21-.12-.37-.43-.37-.71v-2.9c0-.28,.17-.41,.37-.29l1.08,.62Zm0,3.4v-2.9l-1.08-.62v2.9l1.08,.62Z"/><path class="en" d="M53.74,77.19c.2,.12,.37,.44,.37,.71v2.9c0,.28-.16,.41-.37,.29l-1.08-.62c-.21-.12-.37-.43-.37-.71v-2.9c0-.28,.17-.41,.37-.29l1.08,.62Zm0,3.4v-2.9l-1.08-.62v2.9l1.08,.62Z"/></g><g><polygon class="cq" points="12.53 49 12.53 47.09 5.01 42.75 5.01 44.66 12.53 49"/><path class="go" d="M12.53,46.63v-.1c0-1-.71-2.22-1.58-2.72l-4.36-2.52c-.87-.5-1.58-.1-1.58,.9v.1l7.52,4.34Z"/><path class="gt" d="M5.01,45.12v.06c0,1,.71,2.22,1.58,2.72l4.36,2.52c.87,.5,1.58,.1,1.58-.9v-.06l-7.52-4.34Z"/></g><g class="de"><path class="ff" d="M5.01,45.18c0,.07,.01,.15,.02,.22l7.25,4.18v.06c0,.45-.15,.77-.39,.95,.39-.11,.64-.48,.64-1.08v-.06l-7.52-4.34v.06Z"/><polygon class="ga" points="5.01 43.02 12.28 47.21 12.28 48.86 12.53 49 12.53 47.09 5.01 42.75 5.01 43.02"/><path class="eo" d="M10.95,43.8l-4.36-2.52c-.48-.28-.9-.27-1.19-.05,.26-.07,.59-.02,.94,.18l4.36,2.52c.82,.47,1.49,1.58,1.56,2.55l.27,.15v-.1c0-1-.71-2.22-1.58-2.72Z"/></g><g><path class="en" d="M5.68,61.69v-1.33l.23,.13v1.35c0,.47-.18,.6-.53,.39-.1-.06-.18-.12-.24-.19l.03-.2c.06,.06,.12,.11,.19,.15,.11,.06,.19,.07,.24,.03,.05-.04,.08-.16,.08-.35Z"/><path class="en" d="M6.81,61.56c.18,.1,.33,.26,.44,.46,.11,.2,.17,.41,.17,.63,0,.25-.06,.4-.19,.46-.13,.06-.27,.04-.44-.06-.17-.1-.32-.25-.43-.46-.12-.2-.17-.42-.17-.64s.06-.39,.18-.46c.12-.07,.27-.05,.45,.05Zm.28,.53c-.06-.15-.16-.26-.28-.33-.13-.07-.22-.07-.29,0-.07,.07-.1,.19-.1,.34,0,.16,.04,.31,.11,.46,.07,.15,.16,.25,.27,.32,.11,.06,.2,.06,.27,0,.07-.06,.11-.18,.11-.34,0-.14-.03-.29-.1-.44Z"/><path class="en" d="M7.71,63.56v-2.13l.23,.13v.91h0c.04-.06,.09-.09,.16-.09,.07,0,.15,.02,.24,.06,.04,.02,.07,.05,.11,.08,.04,.03,.08,.07,.12,.13,.04,.05,.08,.11,.11,.17,.03,.06,.06,.14,.08,.22,.02,.09,.03,.18,.03,.27v.86l-.23-.13v-.83c0-.13-.02-.24-.07-.35-.05-.11-.12-.19-.22-.25-.07-.04-.14-.05-.19-.04-.06,.02-.1,.06-.12,.12-.01,.03-.02,.06-.02,.12v.88l-.23-.13Z"/><path class="en" d="M9.16,64.39v-1.06c0-.16,0-.29-.01-.4l.2,.12v.25h.02c.03-.05,.09-.09,.16-.1,.07,0,.16,.01,.26,.07,.05,.03,.1,.07,.15,.11,.05,.05,.1,.11,.14,.18,.05,.07,.09,.16,.12,.26,.03,.1,.04,.21,.04,.33v.86l-.23-.13v-.84c0-.13-.02-.24-.07-.35-.05-.11-.12-.19-.22-.25-.07-.04-.14-.05-.19-.03-.06,.02-.1,.06-.12,.12-.01,.03-.02,.06-.02,.11v.87l-.23-.13Z"/><path class="en" d="M11.09,65.41l.06-.18c.12,.16,.26,.28,.41,.37,.12,.07,.21,.09,.27,.06,.07-.03,.1-.09,.1-.19,0-.09-.03-.18-.08-.27-.05-.09-.14-.2-.25-.32-.31-.31-.47-.59-.47-.84,0-.16,.05-.26,.16-.3,.11-.04,.24-.01,.41,.08,.16,.09,.29,.2,.39,.32l-.06,.18c-.09-.12-.2-.21-.33-.29-.11-.06-.19-.08-.25-.05-.06,.03-.08,.08-.08,.16,0,.09,.03,.18,.08,.27,.05,.09,.14,.19,.27,.32,.15,.16,.27,.3,.34,.44s.11,.27,.11,.42c0,.17-.05,.27-.16,.33-.11,.05-.26,.02-.46-.1-.08-.05-.17-.11-.25-.18-.08-.07-.15-.14-.2-.21Z"/><path class="en" d="M12.46,66.3v-1.06c0-.1,0-.23-.01-.4l.2,.12v.24h.02c.09-.12,.22-.13,.4-.03,.08,.05,.16,.12,.22,.21,.06,.09,.11,.19,.14,.29h0s.08-.09,.14-.1c.08-.02,.17,0,.28,.06,.05,.03,.09,.06,.14,.11,.05,.05,.09,.1,.13,.17,.04,.07,.08,.15,.11,.26,.03,.1,.04,.21,.04,.33v.85l-.22-.13v-.82c0-.14-.02-.27-.07-.37-.05-.1-.11-.18-.21-.24-.06-.04-.12-.05-.17-.03-.05,.02-.08,.05-.11,.11-.01,.04-.02,.08-.02,.12v.9l-.22-.13v-.87c0-.12-.02-.23-.07-.33-.05-.1-.11-.17-.2-.22-.07-.04-.13-.05-.18-.02-.05,.02-.09,.06-.11,.12-.01,.03-.02,.07-.02,.12v.87l-.22-.13Z"/><path class="en" d="M14.65,65.58s.06-.01,.1,.01c.04,.02,.08,.06,.1,.11,.03,.05,.04,.09,.04,.14s-.01,.08-.04,.09c-.03,.02-.06,.01-.11-.02-.04-.02-.08-.06-.1-.1s-.04-.09-.04-.14,.01-.08,.04-.09Zm.22,2.1l-.23-.13v-1.45l.23,.13v1.45Z"/><path class="en" d="M15.3,66.22l.22,.05v.35l.33,.19v.2l-.33-.19v.78c0,.19,.06,.32,.17,.38,.05,.03,.1,.05,.13,.06v.21s-.12-.04-.19-.08c-.11-.06-.19-.15-.25-.25-.06-.11-.09-.25-.09-.43v-.79l-.2-.11v-.2l.2,.11v-.27Z"/><path class="en" d="M16.12,68.41v-2.13l.23,.13v.91h0c.04-.06,.09-.09,.16-.09,.07,0,.15,.02,.24,.06,.04,.02,.07,.05,.11,.08s.08,.07,.12,.13c.04,.05,.08,.11,.11,.17,.03,.06,.06,.14,.08,.22s.03,.18,.03,.27v.86l-.23-.13v-.83c0-.13-.02-.24-.07-.35-.05-.11-.12-.19-.22-.25-.07-.04-.14-.05-.19-.04-.06,.02-.1,.06-.12,.12-.01,.03-.02,.06-.02,.12v.88l-.23-.13Z"/></g><g class="ed"><path class="gd" d="M37.59,54.92l.07,.39c-.18,0-.43-.09-.76-.28-.42-.24-.76-.59-1.02-1.03-.26-.45-.4-.94-.4-1.47s.14-.86,.42-1.02c.28-.16,.64-.11,1.09,.15,.29,.17,.52,.35,.68,.54l-.09,.29c-.16-.18-.35-.34-.58-.47-.34-.2-.62-.23-.82-.11-.2,.12-.31,.4-.31,.83s.1,.79,.29,1.14c.2,.35,.47,.63,.81,.83,.24,.14,.45,.21,.61,.22Z"/><path class="eh" d="M38.11,55.67v-1.63c0-.3,0-.55-.02-.75l.33,.19,.02,.48h.01c.05-.12,.12-.21,.23-.24,.11-.03,.22-.01,.35,.06,.02,.01,.06,.04,.1,.07v.41s-.07-.05-.13-.08c-.13-.08-.24-.09-.33-.04-.09,.05-.15,.15-.17,.3,0,.05-.01,.12-.01,.19v1.27l-.38-.22Z"/><path class="fj" d="M41.13,56.3l-1.45-.84c0,.28,.07,.53,.2,.74,.13,.21,.3,.38,.51,.5,.22,.13,.41,.2,.57,.21l.07,.35c-.2-.01-.43-.09-.69-.25-.31-.18-.56-.43-.74-.76-.18-.32-.27-.67-.27-1.03s.09-.62,.27-.76c.18-.14,.41-.13,.71,.04,.16,.09,.3,.21,.42,.35,.12,.14,.21,.29,.27,.44,.06,.15,.1,.3,.13,.43,.03,.14,.04,.26,.04,.38,0,.09,0,.15-.01,.19Zm-1.45-1.15l1.1,.63c0-.17-.04-.35-.12-.55-.08-.19-.22-.34-.4-.45-.17-.1-.31-.11-.41-.02s-.15,.21-.17,.38Z"/><path class="fm" d="M43.02,55.02l.37,.21v2.87c0,.19,0,.4,.02,.62l-.33-.19-.02-.42h-.01c-.06,.1-.15,.16-.27,.17-.12,.02-.27-.02-.43-.12-.25-.15-.47-.38-.64-.7-.17-.32-.25-.66-.25-1.02,0-.38,.09-.64,.27-.77,.18-.13,.4-.12,.66,.03,.15,.09,.28,.2,.39,.33,.11,.13,.19,.26,.24,.39h0v-1.41Zm0,2.49v-.41c0-.07,0-.14-.02-.19-.03-.16-.09-.31-.19-.46-.1-.15-.22-.27-.35-.35-.19-.11-.34-.11-.45,0-.11,.11-.17,.29-.17,.56s.05,.49,.16,.72c.11,.23,.26,.4,.45,.51,.13,.07,.24,.09,.35,.06,.1-.03,.17-.12,.21-.26,.01-.05,.02-.1,.02-.18Z"/><path class="gv" d="M44.04,55.86s.1-.02,.17,.02c.07,.04,.12,.1,.17,.17,.04,.08,.06,.15,.06,.23s-.02,.13-.06,.15c-.04,.03-.1,.02-.18-.03-.07-.04-.12-.1-.16-.17-.04-.07-.06-.15-.06-.22s.02-.13,.07-.15Zm.36,3.44l-.38-.22v-2.38l.38,.22v2.38Z"/><path class="cr" d="M45.11,56.89l.37,.08v.57l.54,.31v.33l-.54-.31v1.28c0,.31,.09,.52,.28,.62,.09,.05,.16,.08,.22,.1l.02,.34c-.1-.02-.21-.06-.33-.13-.17-.1-.31-.24-.41-.42-.1-.18-.15-.42-.15-.71v-1.3l-.32-.19v-.33l.32,.19v-.44Z"/><path class="cs" d="M49.3,61.68l.07,.39c-.18,0-.43-.09-.76-.28-.42-.24-.76-.59-1.02-1.03-.26-.45-.4-.94-.4-1.47s.14-.86,.42-1.02c.28-.16,.64-.11,1.09,.15,.29,.17,.52,.35,.68,.54l-.09,.29c-.16-.18-.35-.34-.58-.47-.34-.2-.62-.23-.82-.11-.2,.12-.31,.4-.31,.83s.1,.79,.29,1.14c.2,.35,.47,.63,.81,.83,.24,.14,.45,.21,.61,.22Z"/><path class="gh" d="M51.25,61.8v.89c0,.23,0,.42,.03,.59l-.34-.2-.03-.32h-.01c-.06,.06-.15,.09-.26,.1-.11,0-.23-.03-.37-.12-.2-.12-.35-.27-.47-.47-.11-.2-.17-.39-.17-.58,0-.29,.11-.45,.32-.47,.22-.03,.52,.08,.92,.31v-.05c0-.06,0-.12-.01-.18s-.03-.13-.06-.21c-.03-.08-.08-.16-.15-.23-.07-.07-.15-.14-.25-.2-.21-.12-.39-.17-.54-.14l-.09-.34c.19-.03,.42,.04,.68,.19,.29,.17,.49,.38,.61,.63,.12,.25,.18,.52,.18,.79Zm-.36,.45v-.41c-.58-.35-.88-.34-.88,.03,0,.13,.03,.26,.1,.36,.07,.11,.15,.19,.25,.25,.13,.07,.24,.1,.33,.07,.09-.03,.15-.08,.18-.18,.01-.04,.02-.08,.02-.13Z"/><path class="gk" d="M51.86,63.6v-1.63c0-.3,0-.55-.02-.75l.33,.19,.02,.48h.01c.05-.12,.12-.21,.23-.24,.11-.03,.22-.01,.35,.06,.02,.01,.06,.04,.1,.07v.41s-.07-.05-.13-.08c-.13-.08-.24-.09-.33-.04-.09,.05-.15,.15-.17,.3,0,.05-.01,.12-.01,.19v1.27l-.38-.22Z"/><path class="eq" d="M54.62,61.72l.37,.21v2.87c0,.19,0,.4,.02,.62l-.33-.19-.02-.42h-.01c-.06,.1-.15,.16-.27,.17-.12,.02-.27-.02-.43-.12-.25-.15-.47-.38-.64-.7-.17-.32-.25-.66-.25-1.02,0-.38,.09-.64,.27-.77,.18-.13,.4-.12,.66,.03,.15,.09,.28,.2,.39,.33,.11,.13,.19,.26,.24,.39h0v-1.41Zm0,2.49v-.41c0-.07,0-.14-.02-.19-.03-.16-.09-.31-.19-.46-.1-.15-.22-.27-.35-.35-.19-.11-.34-.11-.45,0-.11,.11-.17,.29-.17,.56s.05,.49,.16,.72c.11,.23,.26,.4,.45,.51,.13,.07,.24,.09,.35,.06,.1-.03,.17-.12,.21-.26,.01-.05,.02-.1,.02-.18Z"/></g><g><path class="en" d="M26.11,74.18v-1.7h-.3l-.04-.22h.37l.2,.1v1.95l-.22-.13Z"/><path class="en" d="M27.45,74.95v-1.7h-.3l-.04-.22h.37l.2,.1v1.95l-.22-.13Z"/><path class="en" d="M28.34,75.58l-.17-.1,.73-1.76,.18,.1-.73,1.75Z"/><path class="en" d="M30.27,76.58l-1.08-.63v-.16l.18-.1c.24-.12,.4-.23,.49-.31,.09-.09,.14-.2,.14-.34,0-.11-.03-.22-.08-.32-.05-.1-.14-.19-.26-.25-.13-.07-.25-.09-.36-.04l-.07-.23c.14-.05,.3-.03,.48,.08,.17,.1,.3,.23,.39,.39,.09,.16,.13,.32,.13,.48,0,.17-.05,.3-.14,.4-.09,.1-.24,.2-.45,.31l-.13,.07h0l.76,.45v.22Z"/><path class="en" d="M30.67,75.09c.11-.12,.25-.12,.43-.02,.18,.1,.32,.27,.41,.5,.1,.23,.15,.5,.15,.81,0,.33-.05,.55-.15,.67-.1,.12-.25,.12-.44,.01-.17-.1-.31-.26-.41-.5-.1-.24-.16-.51-.16-.83,0-.32,.05-.54,.16-.65Zm.41,.18c-.1-.06-.19-.04-.25,.07-.06,.1-.1,.29-.1,.54s.03,.46,.09,.64c.06,.18,.15,.29,.25,.36,.11,.07,.2,.04,.26-.07,.06-.11,.09-.29,.09-.55s-.03-.46-.08-.63c-.06-.17-.14-.29-.26-.36Z"/></g></g><g class="et"><path class="ey" d="M87.56,160c-1.76,0-3.35-.38-4.61-1.11l-28.01-15.94-28.01-15.94c-1.68-.97-2.65-2.51-2.65-4.22,0-1.87,1.16-3.62,3.19-4.78l18.33-10.31c1.59-.92,3.58-1.42,5.6-1.42,1.76,0,3.35,.38,4.61,1.11l28.01,15.94,28.01,15.94c1.68,.97,2.65,2.51,2.65,4.22,0,1.87-1.16,3.62-3.19,4.79l-18.33,10.31c-1.59,.92-3.58,1.42-5.6,1.42Z"/><path class="gs" d="M27.97,118.41l4.97-2.77c.2-.12,9.53-5.2,9.7-5.1l3.2-1.57c1.45-.83,3.57-1.11,5.41-1.11,1.6,0,3.31,.5,4.45,1.16l22.45,12.79,4.76,2.71,27.21,15.5c.87,.5,1.68,1.28,2.1,2.04,.34,.61,.55,1.28,.56,1.98,.05,1.8-1.05,3.5-3.04,4.65l-4.97,2.77c-.2,.12-9.53,5.2-9.7,5.1l-3.2,1.57c-1.45,.83-3.57,1.11-5.41,1.11-1.6,0-3.31-.5-4.45-1.16l-22.45-12.79-4.76-2.71-27.21-15.5c-.87-.5-1.68-1.28-2.1-2.04-.34-.61-.55-1.28-.56-1.98-.05-1.8,1.05-3.5,3.04-4.65Z"/><path class="eb" d="M28.46,118.8l4.84-2.67c.4-.23,9.14-4.83,9.49-4.62l3.11-1.29c1.3-.75,3.56-.8,5.22-.8,1.44,0,3.26,.61,4.29,1.21l21.79,12.42,4.62,2.63,26.42,15.06c.79,.45,1.68,1.26,2.08,1.94,.34,.59,.58,1.21,.62,1.88,.1,1.73-.95,3.39-2.9,4.52l-4.84,2.67c-.4,.23-9.14,4.83-9.49,4.62l-3.11,1.29c-1.3,.75-3.56,.8-5.22,.8-1.44,0-3.26-.61-4.29-1.21l-21.79-12.42-4.62-2.63-26.42-15.06c-.79-.45-1.68-1.26-2.08-1.94-.34-.59-.58-1.21-.62-1.88-.1-1.73,.95-3.39,2.9-4.52Z"/><path class="gf" d="M28.96,119.19l4.7-2.57c.61-.35,8.74-4.45,9.27-4.15l3.01-1c1.16-.67,3.55-.49,5.02-.49,1.28,0,3.22,.73,4.13,1.26l21.13,12.06,4.47,2.55,25.62,14.63c.7,.4,1.68,1.25,2.05,1.84s.61,1.15,.67,1.79c.15,1.65-.84,3.28-2.76,4.39l-4.7,2.57c-.61,.35-8.74,4.45-9.27,4.15l-3.01,1c-1.16,.67-3.55,.49-5.02,.49-1.28,0-3.22-.73-4.13-1.26l-21.13-12.06-4.47-2.55-25.62-14.63c-.7-.4-1.68-1.25-2.05-1.84s-.61-1.15-.67-1.79c-.15-1.65,.84-3.28,2.76-4.38Z"/><path class="fa" d="M29.46,119.59l4.57-2.47c.81-.47,8.35-4.07,9.05-3.67l2.91-.71c1.01-.58,3.54-.18,4.83-.18,1.12,0,3.17,.84,3.97,1.31l20.47,11.7,4.33,2.47,24.83,14.19c.61,.35,1.69,1.23,2.02,1.74,.35,.55,.64,1.09,.72,1.69,.21,1.58-.73,3.16-2.62,4.25l-4.57,2.47c-.81,.47-8.35,4.07-9.05,3.67l-2.91,.71c-1.01,.58-3.54,.18-4.83,.18-1.12,0-3.17-.84-3.97-1.31l-20.47-11.7-4.33-2.47-24.83-14.19c-.61-.35-1.69-1.23-2.02-1.75-.35-.55-.64-1.09-.72-1.69-.21-1.58,.73-3.16,2.62-4.25Z"/><path class="eg" d="M29.95,119.98l4.43-2.37c1.01-.58,7.96-3.69,8.83-3.19l2.81-.43c.87-.5,3.53,.14,4.64,.14,.96,0,3.13,.96,3.81,1.36l19.81,11.33,4.19,2.4,24.04,13.75c.52,.3,1.7,1.21,1.99,1.65,.36,.53,.67,1.02,.77,1.6,.26,1.51-.62,3.05-2.47,4.12l-4.43,2.37c-1.01,.58-7.96,3.69-8.83,3.19l-2.81,.43c-.87,.5-3.53-.14-4.64-.14-.96,0-3.13-.96-3.81-1.36l-19.81-11.33-4.19-2.4-24.04-13.75c-.52-.3-1.7-1.21-1.99-1.65-.36-.53-.67-1.02-.77-1.6-.26-1.51,.62-3.05,2.47-4.12Z"/><path class="gq" d="M30.45,120.38l4.3-2.27c1.21-.7,7.56-3.32,8.61-2.71l2.71-.14c.72-.42,3.53,.45,4.44,.45,.8,0,3.08,1.07,3.65,1.4l19.15,10.97,4.05,2.32,23.24,13.31c.44,.25,1.71,1.19,1.96,1.55,.36,.51,.7,.96,.82,1.5,.31,1.43-.51,2.94-2.33,3.98l-4.3,2.27c-1.21,.7-7.56,3.32-8.61,2.71l-2.71,.14c-.72,.42-3.53-.45-4.44-.45-.8,0-3.08-1.07-3.65-1.4l-19.15-10.97-4.05-2.32-23.24-13.31c-.44-.25-1.71-1.19-1.96-1.55-.36-.51-.7-.96-.82-1.5-.31-1.43,.51-2.94,2.33-3.98Z"/><path class="fe" d="M30.95,120.77l4.17-2.17c1.42-.82,7.17-2.94,8.4-2.23l2.62,.14c.58-.33,3.52,.76,4.25,.76,.64,0,3.04,1.19,3.49,1.45l18.49,10.61,3.9,2.24,22.45,12.88c.35,.2,1.72,1.17,1.93,1.45,.37,.49,.73,.9,.87,1.41,.37,1.36-.41,2.82-2.19,3.85l-4.17,2.17c-1.42,.82-7.17,2.94-8.4,2.23l-2.62-.14c-.58,.33-3.52-.76-4.25-.76-.64,0-3.04-1.19-3.49-1.45l-18.49-10.61-3.9-2.24-22.45-12.88c-.35-.2-1.72-1.17-1.93-1.45-.37-.49-.73-.9-.87-1.41-.37-1.36,.41-2.82,2.19-3.85Z"/><path class="ft" d="M31.44,121.17l4.03-2.07c1.62-.94,6.78-2.56,8.18-1.75l2.52,.43c.43-.25,3.51,1.07,4.06,1.07,.48,0,2.99,1.3,3.33,1.5l17.84,10.25,3.76,2.16,21.65,12.44c.26,.15,1.78,1.12,1.9,1.35,.46,.39,.77,.84,.92,1.31,.42,1.29-.3,2.71-2.04,3.72l-4.03,2.07c-1.62,.94-6.78,2.56-8.18,1.75l-2.52-.43c-.43,.25-3.51-1.07-4.06-1.07-.48,0-2.99-1.3-3.33-1.5l-17.84-10.25-3.76-2.16-21.65-12.44c-.26-.15-1.78-1.12-1.9-1.35-.46-.39-.77-.84-.92-1.31-.42-1.29,.3-2.71,2.04-3.72Z"/><path class="fu" d="M31.94,121.56l3.9-1.97c1.82-1.05,6.38-2.18,7.96-1.27l2.42,.71c.29-.17,3.5,1.39,3.87,1.39,.32,0,2.94,1.42,3.17,1.55l17.18,9.88,3.62,2.08,20.86,12c.17,.1,1.79,1.09,1.87,1.25,.48,.36,.8,.77,.97,1.22,.48,1.22-.19,2.6-1.9,3.58l-3.9,1.97c-1.82,1.05-6.38,2.18-7.96,1.27l-2.42-.71c-.29,.17-3.5-1.39-3.87-1.39-.32,0-2.94-1.42-3.17-1.55l-17.18-9.88-3.62-2.08-20.86-12c-.17-.1-1.79-1.09-1.87-1.25-.48-.36-.8-.77-.97-1.22-.48-1.22,.19-2.6,1.9-3.58Z"/><path class="eu" d="M32.43,121.95l3.76-1.88c2.02-1.17,5.99-1.8,7.74-.79l2.32,1c.14-.08,3.49,1.7,3.67,1.7,.16,0,2.9,1.53,3.01,1.6l16.52,9.52,3.47,2,20.06,11.56c.09,.05,1.81,1.07,1.85,1.15,.49,.32,.83,.71,1.02,1.12,.53,1.14-.08,2.48-1.76,3.45l-3.76,1.88c-2.02,1.17-5.99,1.8-7.74,.79l-2.32-1c-.14,.08-3.49-1.7-3.67-1.7-.16,0-2.9-1.53-3.01-1.6l-16.52-9.52-3.47-2-20.06-11.56c-.09-.05-1.81-1.07-1.85-1.15-.49-.32-.83-.71-1.02-1.12-.53-1.14,.08-2.48,1.76-3.45Z"/><path d="M81.23,154.89l-24.42-14.1-24.42-14.1c-1.93-1.11-1.69-3.06,.54-4.34l3.63-1.78c2.23-1.29,5.6-1.43,7.52-.31l24.42,14.1,24.42,14.1c1.93,1.11,1.69,3.06-.54,4.34l-3.63,1.78c-2.23,1.29-5.6,1.43-7.52,.31Z"/></g><g><path class="dx" d="M81.23,151.76l-42.71-24.66c-4.82-2.78-8.72-10.24-8.72-16.67V7.51c0-3.27-2.68-3.99-1.06-5.16,.06-.04,3.81-1.75,3.88-1.78,1.75-.67,3.62-.97,5.9,.34l42.71,24.66c4.82,2.78,8.72,10.24,8.72,16.67v102.93c0,3.41-1.1,5.85-2.86,6.96-.1,.07-4.62,2.21-4.74,2.25-1.56,.52,.98-1.4-1.12-2.62Z"/><path class="dc" d="M80.84,25.7L38.13,1.05c-2.27-1.31,40.35,25.44,40.35,25.44,4.82,2.78,8.72,10.24,8.72,16.67,0,0,2.36,105.55,2.36,102.14V42.37c0-6.42-3.91-13.88-8.72-16.67Z"/><path class="dl" d="M77.91,153.28l-42.71-24.66c-4.82-2.78-8.72-10.24-8.72-16.67V9.03c0-6.42,3.91-9.38,8.72-6.59l42.71,24.66c4.82,2.78,8.72,10.24,8.72,16.67v102.93c0,6.42-3.91,9.38-8.72,6.59Z"/><path class="ei" d="M77.15,153.69l-42.71-24.66c-4.82-2.78-8.72-10.24-8.72-16.67V9.44C25.72,3.01,29.63,.06,34.45,2.84l42.71,24.66c4.82,2.78,8.72,10.24,8.72,16.67v102.93c0,6.42-3.91,9.38-8.72,6.59Z"/><path class="fc" d="M26.91,113.12V10.05c0-5.63,3.42-8.22,7.65-5.78l42.48,24.53c4.22,2.44,7.65,8.98,7.65,14.61v103.07c0,5.63-3.42,8.22-7.65,5.78l-42.48-24.53c-4.22-2.44-7.65-8.98-7.65-14.61Z"/><path class="fh" d="M28.61,113.81V16.39c0-4.71,2.87-6.88,6.4-4.84l41.57,24c3.53,2.04,6.4,7.52,6.4,12.23v97.42c0,4.71-2.87,6.88-6.4,4.84l-41.57-24c-3.53-2.04-6.4-7.52-6.4-12.23Z"/><path class="gr" d="M35.49,12.81c-3.33-1.92-6.03-.38-6.03,3.44V114.94c0,3.82,2.7,8.48,6.03,10.4l40.61,23.45c3.33,1.92,6.03,.38,6.03-3.44V46.66c0-3.82-2.7-8.48-6.03-10.4L35.49,12.81Z"/><path class="gl" d="M87.02,70.48v-7.68c0-.98,.6-2.12,1.33-2.55h0c.74-.43,1.33,.03,1.33,1.01v7.68c0,.98-.6,2.12-1.33,2.55h0c-.74,.43-1.33-.03-1.33-1.01Z"/><path class="co" d="M87.83,71.36c-.38,0-.52-.47-.52-.88v-7.68c0-.87,.54-1.93,1.19-2.3,.14-.08,.27-.12,.38-.12,.38,0,.52,.47,.52,.88v7.68c0,.87-.54,1.93-1.19,2.3-.14,.08-.27,.12-.38,.12Z"/><path class="dd" d="M87.7,70.68v-7.68c0-.87,.54-1.93,1.19-2.3,.12-.07,.24-.11,.34-.11-.08-.12-.19-.2-.35-.2-.11,0-.25,.04-.39,.12-.64,.37-1.19,1.42-1.19,2.3v7.68c0,.41,.14,.88,.52,.88,.01,0,.03,0,.04,0-.12-.18-.17-.44-.17-.68Z"/><path class="dq" d="M76.11,36.25L35.49,12.81c-3.33-1.92-6.03-.38-6.03,3.44V114.94c0,3.82,2.7,8.48,6.03,10.4l40.61,23.45c3.33,1.92,6.03,.38,6.03-3.44V46.66c0-3.82-2.7-8.48-6.03-10.4Zm5.51,109.1c0,1.19-.28,2.16-.81,2.82-.48,.6-1.17,.92-1.99,.92h0c-.74,0-1.59-.26-2.44-.76l-40.61-23.45c-3.18-1.84-5.77-6.3-5.77-9.95V16.25c0-2.31,1.07-3.74,2.8-3.74,.74,0,1.59,.26,2.45,.76l40.61,23.45c3.18,1.84,5.77,6.3,5.77,9.95v98.69Z"/></g><g><polygon class="dn" points="29.07 87.97 82.1 118.59 82.1 67.33 29.07 36.71 29.07 87.97"/><polygon class="dp" points="29.07 88.33 82.1 118.95 82.1 118.27 29.07 87.65 29.07 88.33"/><polygon class="dp" points="29.07 102.3 82.1 132.92 82.1 132.24 29.07 101.62 29.07 102.3"/><polygon class="dp" points="29.07 115.2 82.1 145.82 82.1 145.14 29.07 114.52 29.07 115.2"/><g><path class="ep" d="M59.9,62.43l-30.78-17.77v33.93l30.78,17.77c1.46,.84,2.65-.05,2.65-2v-26.87c0-1.95-1.19-4.22-2.65-5.06Z"/><path class="ds" d="M59.9,62.43l-30.78-17.77v33.93l30.78,17.77c1.46,.84,2.65-.05,2.65-2v-26.87c0-1.95-1.19-4.22-2.65-5.06Z"/><path class="dz" d="M57.07,88c0,1.93-1.36,2.71-3.05,1.74-1.68-.97-3.05-3.32-3.05-5.25s1.36-2.71,3.05-1.74c1.68,.97,3.05,3.32,3.05,5.25Z"/><path class="el" d="M60.91,90.22c0,1.93-1.36,2.71-3.05,1.74-1.68-.97-3.05-3.32-3.05-5.25s1.36-2.71,3.05-1.74c1.68,.97,3.05,3.32,3.05,5.25Z"/><path class="en" d="M30.54,63.56c0,.09-.05,.17-.15,.12-.09-.05-.15-.2-.15-.29v-.2c0-.09,.05-.17,.15-.12l1.32,.76v1.18c0,.14,0,.16-.08,.21l-.42,.25c-.08,.05-.08,.05-.08,.2v.79c0,.13-.04,.18-.15,.12-.11-.06-.15-.16-.15-.29v-.98c0-.13,0-.14,.08-.19l.41-.25c.1-.06,.09-.06,.09-.24v-.56l-.87-.5Z"/><path class="en" d="M32.68,67.15l1.02,.59c.08,.04,.15,.14,.15,.29s-.07,.16-.15,.12l-1.32-.76v-1.33c0-.31,.11-.39,.34-.27l.83,.48v-.97l-1.02-.59c-.08-.04-.15-.14-.15-.29s.07-.16,.15-.12l.99,.57c.1,.06,.17,.12,.24,.25,.08,.15,.09,.27,.09,.42v.83c0,.15,0,.25-.09,.31-.07,.05-.14,.03-.24-.03l-.84-.48v.97Z"/><path class="en" d="M34.67,65.94c-.08-.04-.15-.14-.15-.29s.07-.16,.15-.12l1.02,.59c.17,.1,.3,.35,.3,.58v.78c0,.16-.02,.27-.12,.33,.09,.17,.12,.3,.12,.46v.78c0,.23-.13,.33-.3,.24l-1.02-.59c-.08-.04-.15-.14-.15-.29s.07-.16,.15-.12l1.02,.59v-.68c0-.23-.07-.33-.15-.38l-.58-.34c-.08-.04-.15-.14-.15-.29s.07-.16,.15-.12l.58,.34c.08,.05,.15,.02,.15-.21v-.68l-1.02-.59Z"/><path class="en" d="M37.83,67.36c.16,.09,.3,.35,.3,.58v2.35c0,.23-.13,.33-.3,.24l-.87-.5c-.17-.1-.3-.35-.3-.58v-2.35c0-.22,.13-.33,.3-.24l.87,.5Zm0,2.76v-2.35l-.87-.5v2.35l.87,.5Z"/><path class="en" d="M41.23,69.74c0,.09-.05,.17-.15,.12-.09-.05-.15-.2-.15-.29v-.2c0-.09,.05-.17,.15-.12l1.32,.76v1.18c0,.14,0,.16-.08,.21l-.42,.25c-.08,.05-.08,.05-.08,.2v.79c0,.13-.04,.18-.15,.12-.11-.06-.15-.16-.15-.29v-.98c0-.13,0-.14,.08-.19l.41-.25c.1-.06,.09-.06,.09-.24v-.56l-.87-.5Z"/><path class="en" d="M43.37,70.97c0,.09-.05,.17-.15,.12-.09-.05-.15-.2-.15-.29v-.2c0-.09,.05-.17,.15-.12l1.32,.76v1.18c0,.14,0,.16-.08,.21l-.42,.25c-.08,.05-.08,.05-.08,.2v.79c0,.13-.04,.18-.15,.12-.11-.06-.15-.16-.15-.29v-.98c0-.13,0-.14,.08-.19l.41-.25c.1-.06,.09-.06,.09-.24v-.56l-.87-.5Z"/><path class="en" d="M45.51,72.21c0,.09-.05,.17-.15,.12-.09-.05-.15-.2-.15-.29v-.2c0-.09,.05-.17,.15-.12l1.32,.76v1.18c0,.14,0,.16-.08,.21l-.42,.25c-.08,.05-.08,.05-.08,.2v.79c0,.13-.04,.18-.15,.12-.11-.06-.15-.16-.15-.29v-.98c0-.13,0-.14,.08-.19l.41-.25c.1-.06,.09-.06,.09-.24v-.56l-.87-.5Z"/><path class="en" d="M47.65,73.44c0,.09-.05,.17-.15,.12-.1-.05-.15-.2-.15-.29v-.2c0-.09,.05-.17,.15-.12l1.32,.76v1.18c0,.14,0,.16-.08,.21l-.42,.25c-.08,.05-.08,.05-.08,.2v.79c0,.13-.04,.18-.15,.12-.11-.06-.15-.16-.15-.29v-.98c0-.13,0-.14,.08-.19l.41-.25c.1-.06,.09-.06,.09-.24v-.56l-.87-.5Z"/><path class="en" d="M52.8,76.01c.16,.09,.3,.35,.3,.58v2.35c0,.23-.13,.33-.3,.24l-.87-.5c-.17-.1-.3-.35-.3-.58v-2.35c0-.22,.13-.33,.3-.24l.87,.5Zm0,2.76v-2.35l-.87-.5v2.35l.87,.5Z"/><path class="en" d="M54.94,77.24c.16,.09,.3,.35,.3,.58v2.35c0,.23-.13,.33-.3,.24l-.87-.5c-.17-.1-.3-.35-.3-.58v-2.35c0-.22,.13-.33,.3-.24l.87,.5Zm0,2.76v-2.35l-.87-.5v2.35l.87,.5Z"/><path class="en" d="M57.08,78.48c.16,.09,.3,.35,.3,.58v2.35c0,.23-.13,.33-.3,.24l-.87-.5c-.17-.1-.3-.35-.3-.58v-2.35c0-.22,.13-.33,.3-.24l.87,.5Zm0,2.76v-2.35l-.87-.5v2.35l.87,.5Z"/><path class="en" d="M59.22,79.71c.16,.09,.3,.35,.3,.58v2.35c0,.23-.13,.33-.3,.24l-.87-.5c-.17-.1-.3-.35-.3-.58v-2.35c0-.22,.13-.33,.3-.24l.87,.5Zm0,2.76v-2.35l-.87-.5v2.35l.87,.5Z"/><g><path class="em" d="M46.14,61.67l.06,.31c-.14,0-.35-.07-.62-.23-.34-.2-.62-.48-.83-.84-.21-.36-.32-.76-.32-1.19s.11-.7,.34-.83c.23-.13,.52-.09,.88,.12,.24,.14,.42,.28,.55,.44l-.08,.24c-.13-.15-.29-.28-.47-.38-.28-.16-.5-.19-.66-.09-.17,.1-.25,.32-.25,.67s.08,.64,.24,.92c.16,.28,.38,.51,.66,.67,.2,.11,.36,.17,.5,.17Z"/><path class="em" d="M46.56,62.28v-1.32c0-.24,0-.44-.01-.61l.27,.15v.39h.02c.04-.1,.1-.17,.18-.19,.09-.03,.18-.01,.28,.05,.02,.01,.05,.03,.08,.06v.33s-.06-.04-.1-.07c-.11-.06-.2-.07-.27-.03-.07,.04-.12,.12-.14,.24,0,.04-.01,.1-.01,.16v1.03l-.3-.18Z"/><path class="em" d="M49,62.79l-1.18-.68c0,.23,.06,.43,.16,.6,.11,.17,.24,.31,.41,.4,.18,.1,.33,.16,.46,.17l.06,.28c-.16-.01-.35-.08-.56-.2-.25-.15-.46-.35-.6-.61-.15-.26-.22-.54-.22-.84s.07-.5,.21-.62c.14-.11,.33-.1,.57,.04,.13,.07,.24,.17,.34,.28,.1,.12,.17,.23,.22,.36,.05,.12,.08,.24,.11,.35,.02,.11,.03,.21,.03,.31,0,.07,0,.12-.01,.16Zm-1.18-.93l.89,.51c0-.14-.03-.29-.1-.44-.07-.16-.18-.28-.33-.37-.14-.08-.25-.09-.33-.02-.08,.07-.12,.17-.14,.31Z"/><path class="em" d="M50.54,61.75l.3,.17v2.33c0,.16,0,.32,.01,.51l-.27-.16v-.34h-.02c-.05,.08-.12,.13-.22,.14-.1,.01-.21-.02-.35-.09-.21-.12-.38-.31-.51-.57-.14-.26-.21-.54-.21-.83,0-.31,.07-.52,.22-.62,.15-.1,.33-.09,.54,.03,.12,.07,.23,.16,.31,.26,.09,.11,.15,.21,.19,.32h0v-1.15Zm0,2.02v-.33c0-.06,0-.11-.01-.16-.02-.13-.07-.25-.15-.38-.08-.12-.17-.22-.29-.28-.15-.09-.28-.09-.37,0-.09,.09-.14,.24-.14,.45s.04,.4,.13,.58c.09,.19,.21,.32,.37,.41,.1,.06,.2,.08,.28,.05,.08-.03,.14-.1,.17-.21,0-.04,.01-.08,.01-.14Z"/><path class="em" d="M51.36,62.43s.08-.02,.14,.02c.06,.03,.1,.08,.14,.14,.03,.06,.05,.12,.05,.19s-.02,.1-.05,.12c-.03,.02-.08,.01-.14-.02-.06-.03-.1-.08-.13-.14-.03-.06-.05-.12-.05-.18s.02-.1,.05-.12Zm.29,2.79l-.3-.18v-1.93l.3,.18v1.93Z"/><path class="em" d="M52.23,63.27l.3,.07v.46l.44,.25v.27l-.44-.25v1.04c0,.25,.08,.42,.23,.51,.07,.04,.13,.07,.18,.08v.27c-.06-.01-.15-.05-.26-.11-.14-.08-.25-.19-.33-.34-.08-.15-.12-.34-.12-.57v-1.05l-.26-.15v-.27l.26,.15v-.36Z"/><path class="em" d="M55.62,67.15l.06,.31c-.14,0-.35-.07-.62-.23-.34-.2-.62-.48-.83-.84-.21-.36-.32-.76-.32-1.19s.11-.7,.34-.83c.23-.13,.52-.09,.88,.12,.24,.14,.42,.28,.55,.44l-.08,.24c-.13-.15-.29-.28-.47-.38-.28-.16-.5-.19-.66-.09s-.25,.32-.25,.67,.08,.64,.24,.92c.16,.28,.38,.51,.66,.67,.2,.11,.36,.17,.5,.17Z"/><path class="em" d="M57.21,67.24v.72c0,.19,0,.34,.02,.48l-.27-.16-.02-.26h-.01c-.05,.05-.12,.07-.21,.08-.09,0-.19-.03-.3-.09-.16-.09-.29-.22-.38-.38-.09-.16-.14-.32-.14-.47,0-.23,.09-.36,.26-.38,.17-.02,.42,.06,.75,.25v-.04s0-.1-.01-.14c0-.05-.02-.1-.05-.17-.02-.06-.06-.13-.12-.19-.05-.06-.12-.11-.2-.16-.17-.1-.32-.14-.44-.11l-.07-.27c.15-.02,.34,.03,.55,.15,.23,.13,.4,.3,.49,.51,.1,.2,.14,.42,.14,.64Zm-.29,.36v-.33c-.47-.28-.71-.28-.71,.02,0,.11,.03,.21,.08,.3,.05,.09,.12,.16,.2,.2,.1,.06,.19,.08,.26,.06,.07-.02,.12-.07,.15-.14,0-.03,.01-.06,.01-.1Z"/><path class="em" d="M57.7,68.71v-1.32c0-.24,0-.44-.01-.61l.27,.15v.39h.02c.04-.1,.1-.17,.18-.19,.09-.03,.18-.01,.28,.05,.02,.01,.05,.03,.08,.06v.33s-.06-.04-.1-.07c-.11-.06-.2-.07-.27-.03-.07,.04-.12,.12-.14,.24,0,.04-.01,.1-.01,.16v1.03l-.3-.18Z"/><path class="em" d="M59.94,67.18l.3,.17v2.33c0,.16,0,.32,.01,.51l-.27-.16v-.34h-.02c-.05,.08-.12,.13-.22,.14-.1,.01-.21-.02-.35-.09-.21-.12-.38-.31-.51-.57-.14-.26-.21-.54-.21-.83,0-.31,.07-.52,.22-.62,.15-.1,.33-.09,.54,.03,.12,.07,.23,.16,.31,.26,.09,.11,.15,.21,.19,.32h0v-1.15Zm0,2.02v-.33c0-.06,0-.11-.01-.16-.02-.13-.07-.25-.15-.38-.08-.12-.17-.22-.29-.28-.15-.09-.28-.09-.37,0-.09,.09-.14,.24-.14,.45s.04,.4,.13,.58c.09,.19,.21,.32,.37,.41,.1,.06,.2,.08,.28,.05,.08-.03,.14-.1,.17-.21,0-.04,.01-.08,.01-.14Z"/></g><g><path class="en" d="M35.35,76.5v-1.38h-.24l-.04-.18h.3l.16,.08v1.58l-.18-.1Z"/><path class="en" d="M36.44,77.13v-1.38h-.24l-.04-.18h.3l.16,.08v1.58l-.18-.1Z"/><path class="en" d="M37.17,77.65l-.14-.08,.59-1.42,.15,.08-.59,1.42Z"/><path class="en" d="M38.73,78.45l-.88-.51v-.13l.15-.08c.19-.1,.33-.18,.4-.25,.07-.07,.11-.16,.11-.28,0-.09-.02-.18-.06-.26-.04-.08-.11-.15-.21-.21-.1-.06-.2-.07-.29-.04l-.06-.18c.11-.04,.24-.02,.39,.06,.14,.08,.24,.19,.31,.32,.07,.13,.11,.26,.11,.39,0,.13-.04,.24-.11,.32-.08,.08-.2,.16-.36,.25l-.11,.05h0l.62,.36v.18Z"/><path class="en" d="M39.05,77.25c.09-.09,.2-.1,.35-.01,.14,.08,.26,.22,.34,.41,.08,.19,.12,.41,.12,.66,0,.27-.04,.45-.12,.55-.08,.1-.2,.1-.35,.01-.14-.08-.25-.21-.33-.4-.08-.19-.13-.41-.13-.67,0-.26,.04-.44,.13-.53Zm.34,.14c-.08-.05-.15-.03-.2,.06-.05,.08-.08,.23-.08,.44s.02,.38,.08,.52c.05,.14,.12,.24,.2,.29,.09,.05,.16,.04,.21-.05,.05-.09,.07-.24,.07-.44s-.02-.37-.07-.51c-.05-.14-.12-.24-.21-.29Z"/></g></g><path class="fk" d="M38.6,98.42l-4.62-2.67-.27-1.04c-.03-.11-.11-.22-.2-.28l-1.42-.82c-.12-.07-.21-.01-.21,.12s.09,.3,.21,.36l1.27,.73,1.57,5.99c.03,.11,.11,.22,.2,.28l.45,.26s-.04,0-.05,.02c-.22,.12-.22,.53,0,.9s.57,.58,.79,.45c.22-.12,.22-.53,0-.9-.02-.03-.03-.05-.05-.08l.98,.57s-.04,0-.05,.02c-.22,.12-.22,.53,0,.9s.57,.58,.79,.45c.22-.12,.22-.53,0-.9-.02-.03-.03-.05-.05-.08l.21,.12c.12,.07,.21,.01,.21-.12s-.09-.3-.21-.36l-2.86-1.65-.32-1.22,3.33,1.92c.31,.18,.57,.08,.63-.22l.31-1.49c.09-.41-.22-1.03-.63-1.27Z"/><path class="ek" d="M38.6,111.73l-4.62-2.67-.27-1.04c-.03-.11-.11-.22-.2-.28l-1.42-.82c-.12-.07-.21-.01-.21,.12s.09,.3,.21,.36l1.27,.73,1.57,5.99c.03,.11,.11,.22,.2,.28l.45,.26s-.04,0-.05,.02c-.22,.12-.22,.53,0,.9,.22,.37,.57,.58,.79,.45,.22-.12,.22-.53,0-.9-.02-.03-.03-.05-.05-.08l.98,.57s-.04,0-.05,.02c-.22,.12-.22,.53,0,.9,.22,.37,.57,.58,.79,.45,.22-.12,.22-.53,0-.9-.02-.03-.03-.05-.05-.08l.21,.12c.12,.07,.21,.01,.21-.12s-.09-.3-.21-.36l-2.86-1.65-.32-1.22,3.33,1.92c.31,.18,.57,.08,.63-.22l.31-1.49c.09-.41-.22-1.03-.63-1.27Z"/><path class="dq" d="M76.02,37.27L35.14,13.66c-3.35-1.94-6.07-.39-6.07,3.46V114.78c0,3.85,2.72,8.54,6.07,10.47l40.88,23.6c3.35,1.94,6.07,.39,6.07-3.46V47.74c0-3.85-2.72-8.54-6.07-10.47Zm5.54,108.12c0,1.19-.28,2.18-.81,2.84-.49,.61-1.18,.93-2.01,.93h0c-.75,0-1.6-.26-2.46-.76l-40.88-23.6c-3.2-1.85-5.81-6.34-5.81-10.02V17.13c0-2.32,1.08-3.77,2.82-3.77,.75,0,1.6,.26,2.46,.76l40.88,23.6c3.2,1.85,5.81,6.34,5.81,10.02v97.65Z"/><polygon class="fk" points="62.75 113.14 43.04 101.8 43.04 100.44 62.75 111.78 62.75 113.14"/><polygon class="fk" points="53.61 111.01 43.04 104.95 43.04 103.58 53.61 109.65 53.61 111.01"/><polygon class="ek" points="62.75 127.4 43.04 116.06 43.04 114.69 62.75 126.04 62.75 127.4"/><polygon class="ek" points="53.61 125.27 43.04 119.2 43.04 117.84 53.61 123.9 53.61 125.27"/><g><path class="fk" d="M67.29,117.88l-2.3-1.33v-.45l.4-.19c.44-.21,.74-.4,.92-.55,.17-.16,.26-.36,.27-.6,0-.19-.05-.38-.15-.56-.1-.18-.25-.33-.46-.45-.24-.14-.48-.17-.73-.1l-.19-.63c.29-.1,.64-.03,1.05,.2,.36,.21,.64,.48,.83,.82,.19,.34,.29,.67,.29,1.01,0,.32-.09,.57-.26,.75-.17,.19-.43,.36-.77,.52l-.29,.12h0l1.39,.82v.61Z"/><path class="fk" d="M69.96,115.52v.61l-1.31-.76-.1,.72c.07,.03,.15,.07,.24,.12,.34,.19,.61,.44,.83,.73,.3,.39,.44,.8,.44,1.25,0,.38-.13,.63-.38,.74-.25,.11-.58,.05-.99-.18-.37-.21-.67-.46-.91-.75l.13-.48c.22,.26,.47,.47,.75,.64,.2,.12,.38,.15,.52,.11,.14-.04,.22-.17,.22-.39,0-.5-.32-.93-.96-1.3-.14-.08-.29-.16-.47-.23l.22-1.84,1.76,1.02Z"/><path class="fk" d="M71.79,116.51c.39,.23,.69,.58,.9,1.06,.2,.48,.31,1.02,.31,1.62,0,.64-.11,1.08-.32,1.32-.21,.24-.52,.24-.92,0-.38-.22-.68-.57-.88-1.06-.21-.48-.32-1.03-.32-1.64,0-.62,.11-1.05,.33-1.29,.22-.24,.53-.25,.92-.02Zm-.02,.55c-.17-.1-.31-.06-.42,.13-.11,.19-.16,.52-.16,.99s.05,.86,.15,1.16c.1,.31,.24,.51,.42,.61,.38,.22,.58-.16,.58-1.13s-.19-1.55-.57-1.77Z"/><path class="fk" d="M74.6,118.13c.39,.23,.69,.58,.9,1.06,.2,.48,.31,1.02,.31,1.62,0,.64-.11,1.08-.32,1.32-.21,.24-.52,.24-.92,.01-.38-.22-.68-.57-.88-1.06-.21-.48-.32-1.03-.32-1.64,0-.62,.11-1.05,.33-1.29,.22-.24,.52-.25,.92-.02Zm-.02,.56c-.17-.1-.31-.06-.42,.13-.11,.19-.16,.52-.16,.99s.05,.86,.15,1.16c.1,.31,.24,.51,.42,.62,.38,.22,.58-.16,.58-1.13s-.19-1.55-.57-1.77Z"/><path class="fk" d="M77.22,121.76l1.33,.77v.51l-1.33-.77v-.51Z"/></g><g><path class="ek" d="M67.84,129.52l2.29,1.32v.47l-1.44,2.6-.67-.39,1.43-2.45h0l-1.61-.94v-.61Z"/><path class="ek" d="M72.76,132.36v.61l-1.31-.76-.1,.72c.07,.03,.15,.07,.24,.12,.34,.19,.61,.44,.83,.73,.3,.39,.44,.8,.44,1.25,0,.38-.13,.63-.38,.74-.25,.11-.58,.05-.99-.18-.37-.21-.67-.46-.9-.75l.13-.48c.22,.26,.47,.47,.75,.64,.2,.12,.38,.15,.52,.11,.14-.04,.22-.17,.22-.39,0-.5-.32-.93-.96-1.3-.14-.08-.29-.16-.47-.23l.22-1.84,1.76,1.02Z"/><path class="ek" d="M74.6,133.35c.39,.23,.69,.58,.9,1.06,.2,.48,.31,1.02,.31,1.62,0,.64-.11,1.08-.32,1.32-.21,.24-.52,.24-.92,0-.38-.22-.68-.57-.88-1.06-.21-.48-.32-1.03-.32-1.64,0-.62,.11-1.05,.33-1.29,.22-.24,.52-.25,.92-.02Zm-.02,.55c-.17-.1-.31-.06-.42,.13-.11,.19-.16,.52-.16,.99s.05,.86,.15,1.16c.1,.31,.24,.51,.42,.61,.38,.22,.58-.16,.58-1.13s-.19-1.55-.57-1.77Z"/><path class="ek" d="M77.22,136.98l1.33,.77v.51l-1.33-.77v-.51Z"/></g><path class="dk" d="M38.6,124.19l-4.62-2.67-.27-1.04c-.03-.11-.11-.22-.2-.28l-1.42-.82c-.12-.07-.21-.01-.21,.12s.09,.3,.21,.36l1.27,.73,1.11,4.21c.22,.16,.45,.3,.67,.43l3.45,1.99c.16,0,.29-.1,.33-.3l.31-1.49c.09-.41-.22-1.03-.63-1.27Z"/><polygon class="dj" points="62.75 139.86 43.04 128.51 43.04 127.15 62.75 138.49 62.75 139.86"/><path class="dw" d="M46.77,94.98l.12-.75v-.53l-.76-1.29c-.14-.23-.16-.5-.05-.68,.08-.15,.24-.24,.41-.24,.07,0,.14,.01,.21,.04l.95,.39,.4-.7s.02-.02,.03-.04l-16.55-8.75v4.48l15.25,8.12s0-.04,0-.06Z"/><path class="dv" d="M48.44,95.48l-1,.03c-.17,0-.36-.27-.33-.47l.19-1.17c.01-.08-.01-.18-.07-.27l-.81-1.37c-.14-.23-.06-.45,.13-.37l1.12,.46c.07,.03,.14,.01,.17-.04l.5-.87c.08-.15,.33,0,.41,.24l.5,1.45c.03,.1,.1,.19,.17,.24l1.12,.83c.19,.14,.26,.45,.13,.52l-.81,.44c-.05,.03-.08,.1-.07,.19l.19,1.39c.03,.23-.16,.28-.33,.08l-1-1.18c-.07-.08-.15-.12-.21-.12Z"/></g><g><path class="du" d="M53.13,100.02l.95,3.69c.08,.31,.29,.6,.53,.75l2.89,1.74c.54,.33,.77,1.25,.34,1.38l-2.31,.68c-.19,.06-.27,.29-.2,.6l.84,3.66c.16,.69-.43,.84-.88,.23l-2.38-3.27c-.2-.27-.46-.42-.66-.38l-2.38,.53c-.45,.1-1.04-.73-.88-1.24l.84-2.7c.07-.22-.01-.56-.2-.83l-2.31-3.34c-.43-.63-.21-1.29,.34-.99l2.89,1.6c.24,.13,.45,.08,.53-.14l.95-2.59c.18-.49,.91-.07,1.08,.63Z"/><path class="gn" d="M52.49,100.34l.95,3.69c.08,.31,.29,.6,.53,.75l2.89,1.74c.54,.33,.77,1.25,.34,1.38l-2.31,.68c-.19,.06-.27,.29-.2,.6l.84,3.66c.16,.69-.43,.84-.88,.23l-2.38-3.27c-.2-.27-.46-.42-.66-.38l-2.38,.53c-.45,.1-1.04-.73-.88-1.24l.84-2.7c.07-.22-.01-.56-.2-.83l-2.31-3.34c-.43-.63-.21-1.29,.34-.99l2.89,1.6c.24,.13,.45,.08,.53-.14l.95-2.59c.18-.49,.91-.07,1.08,.63Z"/><path class="cy" d="M52.49,100.34l.95,3.69c.08,.31,.29,.6,.53,.75l2.89,1.74c.54,.33,.77,1.25,.34,1.38l-2.31,.68c-.19,.06-.27,.29-.2,.6l.84,3.66c.16,.69-.43,.84-.88,.23l-2.38-3.27c-.2-.27-.46-.42-.66-.38l-2.38,.53c-.45,.1-1.04-.73-.88-1.24l.84-2.7c.07-.22-.01-.56-.2-.83l-2.31-3.34c-.43-.63-.21-1.29,.34-.99l2.89,1.6c.24,.13,.45,.08,.53-.14l.95-2.59c.18-.49,.91-.07,1.08,.63Z"/></g><g><path class="dm" d="M80.59,79.63l1.1,4.28c.09,.36,.34,.7,.62,.87l3.36,2.02c.63,.38,.89,1.45,.39,1.6l-2.68,.78c-.22,.07-.32,.34-.24,.7l.97,4.26c.18,.8-.5,.98-1.02,.26l-2.76-3.8c-.23-.32-.53-.49-.76-.44l-2.76,.61c-.52,.11-1.2-.85-1.02-1.44l.97-3.13c.08-.26-.01-.65-.24-.97l-2.68-3.88c-.5-.73-.24-1.5,.39-1.15l3.36,1.86c.28,.15,.53,.09,.62-.16l1.1-3.01c.21-.57,1.05-.08,1.26,.73Z"/><path class="ez" d="M79.85,80l1.1,4.28c.09,.36,.34,.7,.62,.87l3.36,2.02c.63,.38,.89,1.45,.39,1.6l-2.68,.78c-.22,.07-.32,.34-.24,.7l.97,4.26c.18,.8-.5,.98-1.02,.26l-2.76-3.8c-.23-.32-.53-.49-.76-.44l-2.76,.61c-.52,.11-1.2-.85-1.02-1.44l.97-3.13c.08-.26-.01-.65-.24-.97l-2.68-3.88c-.5-.73-.24-1.5,.39-1.15l3.36,1.86c.28,.15,.53,.09,.62-.16l1.1-3.01c.21-.57,1.05-.08,1.26,.73Z"/><path class="dg" d="M79.85,80l1.1,4.28c.09,.36,.34,.7,.62,.87l3.36,2.02c.63,.38,.89,1.45,.39,1.6l-2.68,.78c-.22,.07-.32,.34-.24,.7l.97,4.26c.18,.8-.5,.98-1.02,.26l-2.76-3.8c-.23-.32-.53-.49-.76-.44l-2.76,.61c-.52,.11-1.2-.85-1.02-1.44l.97-3.13c.08-.26-.01-.65-.24-.97l-2.68-3.88c-.5-.73-.24-1.5,.39-1.15l3.36,1.86c.28,.15,.53,.09,.62-.16l1.1-3.01c.21-.57,1.05-.08,1.26,.73Z"/></g><g><path class="dt" d="M71.41,63.29l.78,3.02c.06,.25,.24,.5,.43,.61l2.37,1.42c.45,.27,.63,1.02,.27,1.13l-1.89,.55c-.16,.05-.22,.24-.17,.49l.69,3c.13,.56-.35,.69-.72,.18l-1.95-2.68c-.16-.22-.38-.35-.54-.31l-1.95,.43c-.37,.08-.85-.6-.72-1.01l.69-2.21c.06-.18,0-.46-.17-.68l-1.89-2.73c-.36-.51-.17-1.06,.27-.81l2.37,1.31c.2,.11,.37,.06,.43-.11l.78-2.12c.15-.4,.74-.05,.89,.51Z"/><path class="fq" d="M70.88,63.55l.78,3.02c.06,.25,.24,.5,.43,.61l2.37,1.42c.45,.27,.63,1.02,.27,1.13l-1.89,.55c-.16,.05-.22,.24-.17,.49l.69,3c.13,.56-.35,.69-.72,.18l-1.95-2.68c-.16-.22-.38-.35-.54-.31l-1.95,.43c-.37,.08-.85-.6-.72-1.01l.69-2.21c.06-.18,0-.46-.17-.68l-1.89-2.73c-.36-.51-.17-1.06,.27-.81l2.37,1.31c.2,.11,.37,.06,.43-.11l.78-2.12c.15-.4,.74-.05,.89,.51Z"/><path class="cu" d="M70.88,63.55l.78,3.02c.06,.25,.24,.5,.43,.61l2.37,1.42c.45,.27,.63,1.02,.27,1.13l-1.89,.55c-.16,.05-.22,.24-.17,.49l.69,3c.13,.56-.35,.69-.72,.18l-1.95-2.68c-.16-.22-.38-.35-.54-.31l-1.95,.43c-.37,.08-.85-.6-.72-1.01l.69-2.21c.06-.18,0-.46-.17-.68l-1.89-2.73c-.36-.51-.17-1.06,.27-.81l2.37,1.31c.2,.11,.37,.06,.43-.11l.78-2.12c.15-.4,.74-.05,.89,.51Z"/></g><g><path class="do" d="M70.66,93.73l1.31,5.07c.11,.42,.4,.83,.73,1.03l3.98,2.39c.75,.45,1.06,1.72,.46,1.9l-3.17,.93c-.26,.08-.37,.41-.28,.82l1.15,5.04c.22,.95-.59,1.16-1.21,.31l-3.27-4.5c-.27-.37-.63-.58-.9-.52l-3.27,.72c-.62,.14-1.43-1.01-1.21-1.7l1.15-3.71c.1-.31-.02-.77-.28-1.15l-3.18-4.6c-.6-.86-.29-1.78,.46-1.36l3.98,2.21c.33,.18,.62,.11,.73-.19l1.31-3.56c.25-.67,1.25-.09,1.49,.86Z"/><path class="gu" d="M69.77,94.17l1.31,5.07c.11,.42,.4,.83,.73,1.03l3.98,2.39c.75,.45,1.06,1.72,.46,1.9l-3.17,.93c-.26,.08-.37,.41-.28,.82l1.15,5.04c.22,.95-.59,1.16-1.21,.31l-3.27-4.5c-.27-.37-.63-.58-.9-.52l-3.27,.72c-.62,.14-1.42-1.01-1.21-1.7l1.15-3.71c.1-.31-.02-.77-.28-1.15l-3.17-4.6c-.6-.86-.29-1.78,.46-1.36l3.98,2.21c.33,.18,.62,.11,.73-.19l1.31-3.56c.25-.67,1.25-.09,1.49,.86Z"/><path class="db" d="M69.77,94.17l1.31,5.07c.11,.42,.4,.83,.73,1.03l3.98,2.39c.75,.45,1.06,1.72,.46,1.9l-3.17,.93c-.26,.08-.37,.41-.28,.82l1.15,5.04c.22,.95-.59,1.16-1.21,.31l-3.27-4.5c-.27-.37-.63-.58-.9-.52l-3.27,.72c-.62,.14-1.42-1.01-1.21-1.7l1.15-3.71c.1-.31-.02-.77-.28-1.15l-3.17-4.6c-.6-.86-.29-1.78,.46-1.36l3.98,2.21c.33,.18,.62,.11,.73-.19l1.31-3.56c.25-.67,1.25-.09,1.49,.86Z"/></g></g><g><path class="ev" d="M19.76,33.44l-7.42-4.28L28.53,12.27c1.58-1.65,4.08-2,6.06-.86l4.05,2.34-18.88,19.69Z"/><polygon class="fn" points="27.12 37.69 19.69 33.41 38.58 13.72 46 18 27.12 37.69"/><polygon class="fy" points="34.54 41.98 27.12 37.69 46 18 53.42 22.28 34.54 41.98"/><polygon class="ej" points="41.89 46.22 34.47 41.94 53.36 22.25 60.78 26.53 41.89 46.22"/><polygon class="gg" points="49.3 50.5 41.88 46.22 60.76 26.53 68.19 30.81 49.3 50.5"/><polygon class="gm" points="56.66 54.75 49.24 50.46 68.12 30.77 75.54 35.06 56.66 54.75"/><path class="fg" d="M64.02,59l17.62-18.38c-.72-1.44-1.72-2.71-2.94-3.73l-3.23-1.86-18.88,19.69,7.42,4.28Z"/><path class="ge" d="M16.05,38.79h0c-2.05-1.18-3.71-4.36-3.71-7.09v-2.61l7.42,4.28v2.61c0,2.73-1.66,3.99-3.71,2.81Z"/><path class="fp" d="M23.4,43.04h0c-2.05-1.18-3.71-4.36-3.71-7.09v-2.61l7.42,4.28v2.61c0,2.73-1.66,3.99-3.71,2.81Z"/><path class="gc" d="M30.83,47.32h0c-2.05-1.18-3.71-4.36-3.71-7.09v-2.61l7.42,4.28v2.61c0,2.73-1.66,3.99-3.71,2.81Z"/><path class="gi" d="M38.18,51.57h0c-2.05-1.18-3.71-4.36-3.71-7.09v-2.61l7.42,4.28v2.61c0,2.73-1.66,3.99-3.71,2.81Z"/><path class="fx" d="M45.59,55.85h0c-2.05-1.18-3.71-4.36-3.71-7.09v-2.61l7.42,4.28v2.61c0,2.73-1.66,3.99-3.71,2.81Z"/><path class="fw" d="M52.95,60.09h0c-2.05-1.18-3.71-4.36-3.71-7.09v-2.61l7.42,4.28v2.61c0,2.73-1.66,3.99-3.71,2.81Z"/><path class="fr" d="M60.31,64.34h0c-2.05-1.18-3.71-4.36-3.71-7.09v-2.61l7.42,4.28v2.61c0,2.73-1.66,3.99-3.71,2.81Z"/><path class="cv" d="M19.48,33.21v2.55c0,2.73-1.66,3.99-3.71,2.8-.17-.1-.34-.22-.51-.34,.25,.22,.52,.41,.79,.57,2.05,1.18,3.71-.07,3.71-2.8v-2.61l-.28-.16Z"/><path class="da" d="M26.84,37.46v2.55c0,2.73-1.66,3.99-3.71,2.81-.17-.1-.34-.22-.51-.34,.25,.22,.52,.41,.79,.57,2.05,1.18,3.71-.07,3.71-2.81v-2.61l-.28-.16Z"/><path class="cx" d="M34.26,41.74v2.55c0,2.73-1.66,3.99-3.71,2.81-.17-.1-.34-.22-.51-.34,.25,.22,.52,.41,.79,.57,2.05,1.18,3.71-.07,3.71-2.8v-2.61l-.28-.16Z"/><path class="dh" d="M41.61,45.99v2.55c0,2.73-1.66,3.99-3.71,2.81-.17-.1-.34-.22-.51-.34,.25,.22,.52,.41,.79,.57,2.05,1.18,3.71-.07,3.71-2.81v-2.61l-.28-.16Z"/><path class="di" d="M49.02,50.27v2.55c0,2.73-1.66,3.99-3.71,2.81-.17-.1-.34-.22-.51-.34,.25,.22,.52,.41,.79,.57h0c2.05,1.18,3.71-.07,3.71-2.81v-2.61l-.28-.16Z"/><path class="cz" d="M56.38,54.51v2.55c0,2.73-1.66,3.99-3.71,2.8-.17-.1-.34-.22-.51-.34,.25,.22,.52,.41,.79,.57,2.05,1.18,3.71-.07,3.71-2.81v-2.61l-.28-.16Z"/><path class="df" d="M63.74,58.76v2.55c0,2.73-1.66,3.99-3.71,2.81-.17-.1-.34-.22-.51-.34,.25,.22,.52,.41,.79,.57,2.05,1.18,3.71-.07,3.71-2.81v-2.61l-.28-.16Z"/><path class="fb" d="M64.02,61.54l18.85-9.82c0-2.86,0-5.78,0-5.9,0-1.87-.45-3.63-1.23-5.2l-17.62,18.31v2.61Z"/><polygon class="ct" points="12.34 29.09 63.79 59.62 81.64 40.61 63.68 58.29 12.34 29.09"/></g></g></g></g></g></svg>