<?xml version="1.0" encoding="UTF-8"?><svg xmlns="http://www.w3.org/2000/svg" xmlns:xlink="http://www.w3.org/1999/xlink" viewBox="0 0 147.8 150"><defs><style>.bm{fill:url(#j);}.bn{fill:url(#p);}.bo{fill:url(#ba);}.bp{fill:url(#ay);}.bq{fill:url(#q);}.bq,.br,.bs,.bt,.bu,.bv,.bw,.bx,.by,.bz,.ca,.cb{mix-blend-mode:color-dodge;}.cc{fill:url(#m);}.cd{fill:url(#aa);}.ce{fill:url(#al);}.cf{fill:url(#am);}.br{fill:url(#ak);}.cg{fill:url(#aq);}.ch{fill:url(#r);}.ci{fill:url(#bk);}.cj{fill:url(#h);}.ck{fill:url(#i);}.cl{fill:url(#l);}.bs{fill:url(#bh);}.cm{fill:url(#at);}.cn{fill:url(#af);}.co{fill:url(#as);}.cp{fill:url(#ap);}.cq{isolation:isolate;}.cr{fill:url(#s);}.cs{opacity:.2;}.ct{fill:url(#f);}.cu{fill:url(#bi);}.cv{fill:url(#g);}.cw{fill:url(#au);}.cx{fill:url(#bd);}.cy{fill:url(#ad);}.cz{fill:url(#bc);}.da{fill:url(#az);}.db{fill:url(#av);}.dc{fill:url(#e);}.dd{fill:url(#ai);}.bt{fill:url(#n);}.de{fill:url(#v);}.df{fill:url(#aj);}.dg{fill:url(#y);}.dh{fill:url(#o);}.bu{fill:url(#ar);}.bv{fill:url(#be);}.bw{fill:url(#x);}.di{fill:url(#bg);}.dj{fill:url(#u);}.dk{fill:url(#ae);}.dl{fill:url(#bj);}.dm{fill:url(#z);}.dn{fill:url(#ag);}.bx{fill:url(#an);}.by{fill:url(#bl);}.bz{fill:url(#t);}.do{fill:url(#w);}.dp{fill:url(#ao);}.dq{fill:url(#ax);}.ca{fill:url(#ah);}.dr{fill:url(#bf);}.ds{fill:url(#ab);}.dt{fill:url(#k);}.cb{fill:url(#bb);}.du{fill:url(#aw);}.dv{fill:url(#ac);}</style><linearGradient id="e" x1="87.75" y1="75.12" x2="215.63" y2="36.83" gradientTransform="matrix(1, 0, 0, 1, 0, 0)" gradientUnits="userSpaceOnUse"><stop offset=".04" stop-color="#b47f52"/><stop offset=".35" stop-color="#c38a59"/><stop offset=".97" stop-color="#eba86c"/><stop offset="1" stop-color="#eeaa6e"/></linearGradient><linearGradient id="f" x1="-30.42" y1="90.68" x2="138.31" y2="52.86" gradientTransform="matrix(1, 0, 0, 1, 0, 0)" gradientUnits="userSpaceOnUse"><stop offset=".04" stop-color="#b27e51"/><stop offset=".35" stop-color="#c18958"/><stop offset=".97" stop-color="#e9a66b"/><stop offset="1" stop-color="#eca86d"/></linearGradient><linearGradient id="g" x1="122.07" y1="-63.67" x2="71.13" y2="33.41" gradientTransform="matrix(1, 0, 0, 1, 0, 0)" gradientUnits="userSpaceOnUse"><stop offset=".04" stop-color="#b27e51"/><stop offset=".33" stop-color="#c18958"/><stop offset=".89" stop-color="#e9a66b"/><stop offset="1" stop-color="#f2ad70"/></linearGradient><linearGradient id="h" x1="94.14" y1="73.14" x2="145.53" y2="57.75" gradientTransform="matrix(1, 0, 0, 1, 0, 0)" gradientUnits="userSpaceOnUse"><stop offset=".04" stop-color="#6bb290"/><stop offset=".34" stop-color="#73c194"/><stop offset=".94" stop-color="#89e9a1"/><stop offset="1" stop-color="#8ceea3"/></linearGradient><linearGradient id="i" x1="85.09" y1="7.23" x2="73.69" y2="28.97" xlink:href="#h"/><linearGradient id="j" x1="6020.92" y1="80.24" x2="6094.69" y2="63.71" gradientTransform="translate(6108.87) rotate(-180) scale(1 -1)" xlink:href="#h"/><linearGradient id="k" x1="6044.07" y1="7.82" x2="6032.86" y2="29.18" gradientTransform="translate(6108.87) rotate(-180) scale(1 -1)" xlink:href="#h"/><linearGradient id="l" x1="84.28" y1="15.53" x2="95.73" y2="28.76" xlink:href="#h"/><linearGradient id="m" x1="80.02" y1="26.41" x2="95.96" y2="4.76" gradientTransform="matrix(1, 0, 0, 1, 0, 0)" gradientUnits="userSpaceOnUse"><stop offset=".04" stop-color="#457261"/><stop offset=".14" stop-color="#4d8169"/><stop offset=".34" stop-color="#64a97e"/><stop offset=".62" stop-color="#8aeaa1"/><stop offset=".63" stop-color="#8ceea3"/><stop offset=".87" stop-color="#6bb290"/></linearGradient><radialGradient id="n" cx="41.5" cy="-28.39" fx="41.5" fy="-28.39" r="8.24" gradientTransform="translate(52.74 43.29) scale(.99)" gradientUnits="userSpaceOnUse"><stop offset="0" stop-color="#fff"/><stop offset="1" stop-color="#000"/></radialGradient><linearGradient id="o" x1="6042.49" y1="15.85" x2="6053.93" y2="29.07" gradientTransform="translate(6108.01) rotate(-180) scale(1 -1)" xlink:href="#h"/><linearGradient id="p" x1="6038.23" y1="26.72" x2="6054.16" y2="5.08" gradientTransform="translate(6108.01) rotate(-180) scale(1 -1)" xlink:href="#m"/><radialGradient id="q" cx="6103.82" cy="-28.07" fx="6103.82" fy="-28.07" r="8.24" gradientTransform="translate(6072.67 43.29) rotate(-180) scale(.99 -.99)" xlink:href="#n"/><linearGradient id="r" x1="6021.13" y1="26.06" x2="6024.01" y2="40.63" gradientTransform="translate(6108.01) rotate(-180) scale(1 -1)" xlink:href="#h"/><linearGradient id="s" x1="6026.57" y1="24.97" x2="6016.53" y2="39.75" gradientTransform="translate(6108.01) rotate(-180) scale(1 -1)" xlink:href="#m"/><radialGradient id="t" cx="6073.27" cy="-11.24" fx="6073.27" fy="-11.24" r="8.01" gradientTransform="translate(6072.67 43.29) rotate(-180) scale(.99 -.99)" xlink:href="#n"/><linearGradient id="u" x1="74.96" y1="31.64" x2="74.96" y2="23.73" gradientTransform="matrix(1, 0, 0, 1, 0, 0)" gradientUnits="userSpaceOnUse"><stop offset=".04" stop-color="#3f6055"/><stop offset=".19" stop-color="#476f5d"/><stop offset=".48" stop-color="#5d9773"/><stop offset=".88" stop-color="#80d897"/><stop offset="1" stop-color="#8ceea3"/></linearGradient><linearGradient id="v" x1="62.42" y1="26.06" x2="65.3" y2="40.63" xlink:href="#h"/><linearGradient id="w" x1="67.86" y1="24.97" x2="57.82" y2="39.75" xlink:href="#m"/><radialGradient id="x" cx="10.45" cy="-11.24" fx="10.45" fy="-11.24" r="8.01" xlink:href="#n"/><linearGradient id="y" x1="51.42" y1="117.13" x2="145.05" y2="89.1" gradientTransform="matrix(1, 0, 0, 1, 0, 0)" gradientUnits="userSpaceOnUse"><stop offset=".04" stop-color="#705a49"/><stop offset="1" stop-color="#6b5545"/></linearGradient><linearGradient id="z" x1="-38.48" y1="128.52" x2="85" y2="100.84" gradientTransform="matrix(1, 0, 0, 1, 0, 0)" gradientUnits="userSpaceOnUse"><stop offset="0" stop-color="#624d3e"/><stop offset="1" stop-color="#846b58"/></linearGradient><linearGradient id="aa" x1="78.4" y1="14.42" x2="37.27" y2="92.79" gradientTransform="matrix(1, 0, 0, 1, 0, 0)" gradientUnits="userSpaceOnUse"><stop offset=".04" stop-color="#5b493c"/><stop offset=".46" stop-color="#6a5546"/><stop offset="1" stop-color="#846b58"/></linearGradient><linearGradient id="ab" x1="56.58" y1="115.53" x2="88.46" y2="105.99" gradientTransform="matrix(1, 0, 0, 1, 0, 0)" gradientUnits="userSpaceOnUse"><stop offset=".04" stop-color="#538a6e"/><stop offset=".25" stop-color="#5b9976"/><stop offset=".66" stop-color="#72c18c"/><stop offset="1" stop-color="#89e8a1"/></linearGradient><linearGradient id="ac" x1="48.55" y1="71.66" x2="39.34" y2="89.21" gradientTransform="matrix(1, 0, 0, 1, 0, 0)" gradientUnits="userSpaceOnUse"><stop offset=".04" stop-color="#579174"/><stop offset=".25" stop-color="#5fa07b"/><stop offset=".66" stop-color="#76c890"/><stop offset="1" stop-color="#8ceea3"/></linearGradient><linearGradient id="ad" x1="6064.25" y1="120.09" x2="6111.07" y2="109.6" gradientTransform="translate(6108.87) rotate(-180) scale(1 -1)" xlink:href="#ab"/><linearGradient id="ae" x1="6076.7" y1="72.13" x2="6067.66" y2="89.38" gradientTransform="translate(6108.87) rotate(-180) scale(1 -1)" xlink:href="#ac"/><linearGradient id="af" x1="47.89" y1="78.36" x2="57.13" y2="89.03" xlink:href="#h"/><linearGradient id="ag" x1="44.45" y1="87.14" x2="57.32" y2="69.67" xlink:href="#m"/><radialGradient id="ah" cx="2.75" cy="35.4" fx="2.75" fy="35.4" r="6.65" xlink:href="#n"/><linearGradient id="ai" x1="6075.26" y1="78.61" x2="6084.5" y2="89.29" gradientTransform="translate(6108.01) rotate(-180) scale(1 -1)" xlink:href="#h"/><linearGradient id="aj" x1="6071.82" y1="87.39" x2="6084.69" y2="69.92" gradientTransform="translate(6108.01) rotate(-180) scale(1 -1)" xlink:href="#m"/><radialGradient id="ak" cx="6135.23" cy="35.65" fx="6135.23" fy="35.65" r="6.65" gradientTransform="translate(6072.67 43.29) rotate(-180) scale(.99 -.99)" xlink:href="#n"/><linearGradient id="al" x1="6058.02" y1="86.86" x2="6060.34" y2="98.62" gradientTransform="translate(6108.01) rotate(-180) scale(1 -1)" xlink:href="#h"/><linearGradient id="am" x1="6062.41" y1="85.98" x2="6054.3" y2="97.91" gradientTransform="translate(6108.01) rotate(-180) scale(1 -1)" xlink:href="#m"/><radialGradient id="an" cx="6110.57" cy="49.24" fx="6110.57" fy="49.24" r="6.47" gradientTransform="translate(6072.67 43.29) rotate(-180) scale(.99 -.99)" xlink:href="#n"/><linearGradient id="ao" x1="40.36" y1="91.36" x2="40.36" y2="84.98" xlink:href="#u"/><linearGradient id="ap" x1="30.24" y1="86.86" x2="32.57" y2="98.62" xlink:href="#h"/><linearGradient id="aq" x1="34.64" y1="85.98" x2="26.53" y2="97.91" xlink:href="#m"/><radialGradient id="ar" cx="-22.32" cy="49.24" fx="-22.32" fy="49.24" r="6.47" xlink:href="#n"/><linearGradient id="as" x1="119.1" y1="129.63" x2="201.66" y2="104.92" xlink:href="#h"/><linearGradient id="at" x1="37.57" y1="139.67" x2="146.41" y2="115.27" xlink:href="#h"/><linearGradient id="au" x1="144.12" y1="38.33" x2="105.3" y2="112.32" xlink:href="#h"/><linearGradient id="av" x1="123.97" y1="128.13" x2="148.24" y2="120.86" gradientTransform="matrix(1, 0, 0, 1, 0, 0)" gradientUnits="userSpaceOnUse"><stop offset=".04" stop-color="#b47f52"/><stop offset=".3" stop-color="#c38a59"/><stop offset=".8" stop-color="#eba76d"/><stop offset="1" stop-color="#fdb476"/></linearGradient><linearGradient id="aw" x1="115.94" y1="92.36" x2="107.25" y2="108.93" xlink:href="#av"/><linearGradient id="ax" x1="6000.41" y1="131.72" x2="6036.88" y2="123.54" gradientTransform="translate(6108.87) rotate(-180) scale(1 -1)" xlink:href="#av"/><linearGradient id="ay" x1="6008.39" y1="92.81" x2="5999.85" y2="109.09" gradientTransform="translate(6108.87) rotate(-180) scale(1 -1)" xlink:href="#av"/><linearGradient id="az" x1="115.33" y1="98.69" x2="124.05" y2="108.77" gradientTransform="matrix(1, 0, 0, 1, 0, 0)" gradientUnits="userSpaceOnUse"><stop offset=".04" stop-color="#b07c50"/><stop offset=".29" stop-color="#bf8757"/><stop offset=".79" stop-color="#e7a56b"/><stop offset="1" stop-color="#fab374"/></linearGradient><linearGradient id="ba" x1="112.08" y1="106.98" x2="124.22" y2="90.48" gradientTransform="matrix(1, 0, 0, 1, 0, 0)" gradientUnits="userSpaceOnUse"><stop offset=".04" stop-color="#b47f52"/><stop offset=".19" stop-color="#c38a59"/><stop offset=".5" stop-color="#eba76d"/><stop offset=".63" stop-color="#ffb677"/><stop offset=".87" stop-color="#e4a369"/></linearGradient><radialGradient id="bb" cx="70.74" cy="56.03" fx="70.74" fy="56.03" r="6.28" xlink:href="#n"/><linearGradient id="bc" x1="6006.98" y1="98.93" x2="6015.7" y2="109.01" gradientTransform="translate(6108.01) rotate(-180) scale(1 -1)" xlink:href="#az"/><linearGradient id="bd" x1="6003.73" y1="107.21" x2="6015.88" y2="90.72" gradientTransform="translate(6108.01) rotate(-180) scale(1 -1)" xlink:href="#ba"/><radialGradient id="be" cx="6065.53" cy="56.27" fx="6065.53" fy="56.27" r="6.28" gradientTransform="translate(6072.67 43.29) rotate(-180) scale(.99 -.99)" xlink:href="#n"/><linearGradient id="bf" x1="5990.7" y1="106.71" x2="5992.9" y2="117.82" gradientTransform="translate(6108.01) rotate(-180) scale(1 -1)" xlink:href="#az"/><linearGradient id="bg" x1="5994.85" y1="105.88" x2="5987.2" y2="117.15" gradientTransform="translate(6108.01) rotate(-180) scale(1 -1)" xlink:href="#ba"/><radialGradient id="bh" cx="6042.25" cy="69.1" fx="6042.25" fy="69.1" r="6.11" gradientTransform="translate(6072.67 43.29) rotate(-180) scale(.99 -.99)" xlink:href="#n"/><linearGradient id="bi" x1="108.22" y1="110.97" x2="108.22" y2="104.94" gradientTransform="matrix(1, 0, 0, 1, 0, 0)" gradientUnits="userSpaceOnUse"><stop offset=".04" stop-color="#b47f52"/><stop offset=".29" stop-color="#c38a59"/><stop offset=".79" stop-color="#eba76d"/><stop offset="1" stop-color="#feb576"/></linearGradient><linearGradient id="bj" x1="98.66" y1="106.71" x2="100.86" y2="117.82" xlink:href="#az"/><linearGradient id="bk" x1="102.81" y1="105.88" x2="95.16" y2="117.15" xlink:href="#ba"/><radialGradient id="bl" cx="47.07" cy="69.1" fx="47.07" fy="69.1" r="6.11" xlink:href="#n"/></defs><g class="cq"><g id="b"><g id="c"><g id="d"><g><polygon class="cs" points="24.96 90.04 75.93 119.93 126.9 89.93 75.81 60.2 24.96 90.04"/><polygon class="dc" points="74.84 53.14 74.84 117.87 120.1 91.67 120.1 26.54 74.84 53.14"/><polygon class="ct" points="74.9 53.14 74.9 117.87 29.41 91.59 29.41 26.46 74.9 53.14"/><polygon class="cv" points="29.41 26.46 74.9 53.14 120.1 26.54 74.51 0 29.41 26.46"/><polygon class="cj" points="93.89 42.08 93.89 106.8 102.21 102.25 102.21 37.13 93.89 42.08"/><polygon class="ck" points="48.08 15.26 93.94 42.08 102.21 37.13 56.24 10.45 48.08 15.26"/><polygon class="bm" points="55.89 42.21 55.89 106.93 47.83 102.5 47.83 37.38 55.89 42.21"/><polygon class="dt" points="101.33 15.53 55.84 42.21 47.83 37.38 93.42 10.84 101.33 15.53"/><g><path class="cl" d="M81.25,27.25l-7.35-4.23s7.4-10.46,14.28-13.77c4.13-1.99,8.88,.53,10.37,3.61,.89,1.85-1.15,4.98-3.46,6.38-6.16,3.73-13.84,8.01-13.84,8.01Z"/><path class="cc" d="M95.14,13.6c1.13-.54,2.3-.74,3.44-.69-1.46-3.1-6.24-5.65-10.39-3.66-6.88,3.31-14.28,13.77-14.28,13.77l7.13,4.11c1.11-1.53,7.82-10.5,14.1-13.53Z"/><path class="bt" d="M98.34,12.48c-1.13-.05-2.3,.15-3.42,.69-6.29,3.03-13.89,13.95-13.89,13.95,1.11-1.53,7.82-10.5,14.1-13.53,1.13-.54,2.3-.74,3.44-.69-.07-.14-.15-.28-.23-.42Z"/></g><g><path class="dh" d="M68.55,27.57l7.35-4.23s-7.4-10.46-14.28-13.77c-4.13-1.99-8.88,.53-10.37,3.61-.89,1.85,1.15,4.98,3.46,6.38,6.16,3.73,13.84,8.01,13.84,8.01Z"/><path class="bn" d="M54.66,13.92c-1.13-.54-2.3-.74-3.44-.69,1.46-3.1,6.24-5.65,10.39-3.66,6.88,3.31,14.28,13.77,14.28,13.77l-7.13,4.11c-1.11-1.53-7.82-10.5-14.1-13.53Z"/><path class="bq" d="M51.45,12.8c1.13-.05,2.3,.15,3.42,.69,6.29,3.03,13.89,13.95,13.89,13.95-1.11-1.53-7.82-10.5-14.1-13.53-1.13-.54-2.3-.74-3.44-.69,.07-.14,.15-.28,.23-.42Z"/></g><g><path class="ch" d="M79.53,25.7s6.03-1.19,10.85,.17c6.15,1.74,10.21,7.71,7.16,10.09-3.05,2.37-6.19,4.58-9.54,2.75-3.35-1.82-15.21-8.65-15.21-8.65l6.74-4.37Z"/><path class="cr" d="M83.98,30.06c-4.82-1.36-10.85-.17-10.85-.17l-.3,.19-.04-.02,6.74-4.37s6.03-1.19,10.85,.17c6.15,1.74,10.21,7.71,7.16,10.09-1.84,1.43-3.71,2.79-5.64,3.26,1.33-2.74-2.47-7.61-7.92-9.15Z"/><path class="bz" d="M73.39,29.81l.04,.02s6.33-1.39,11.15-.02c5.45,1.54,9.25,6.41,7.92,9.15,.34-.08-.06,.13-.59,.25,1.33-2.74-2.47-7.61-7.92-9.15-4.82-1.36-10.85-.17-10.85-.17l-.3,.19-.04-.02,.59-.25Z"/></g><path class="dj" d="M78.99,25.95l-1.97-1.68c-1.16-.99-2.87-.96-4,.07l-2.09,1.92,3.81,2.76,4.25-3.06Z"/><g><path class="de" d="M69.77,25.7s-6.03-1.19-10.85,.17c-6.15,1.74-10.21,7.71-7.16,10.09,3.05,2.37,6.19,4.58,9.54,2.75,3.35-1.82,15.21-8.65,15.21-8.65l-6.74-4.37Z"/><path class="do" d="M65.32,30.06c4.82-1.36,10.85-.17,10.85-.17l.3,.19,.04-.02-6.74-4.37s-6.03-1.19-10.85,.17c-6.15,1.74-10.21,7.71-7.16,10.09,1.84,1.43,3.71,2.79,5.64,3.26-1.33-2.74,2.47-7.61,7.92-9.15Z"/><path class="bw" d="M75.91,29.81l-.04,.02s-6.33-1.39-11.15-.02c-5.45,1.54-9.25,6.41-7.92,9.15-.34-.08,.06,.13,.59,.25-1.33-2.74,2.47-7.61,7.92-9.15,4.82-1.36,10.85-.17,10.85-.17l.3,.19,.04-.02-.59-.25Z"/></g></g><g><polygon class="cs" points="0 120.28 41.15 144.42 82.29 120.2 41.06 96.19 0 120.28"/><polygon class="dg" points="40.27 108.72 40.27 142.76 76.81 121.6 76.81 87.24 40.27 108.72"/><polygon class="dm" points="40.32 108.72 40.32 142.76 3.59 121.54 3.59 87.18 40.32 108.72"/><polygon class="cd" points="3.59 87.18 40.32 108.72 76.81 87.24 40 65.82 3.59 87.18"/><polygon class="ds" points="55.65 99.79 55.65 133.82 62.36 130.14 62.36 95.8 55.65 99.79"/><polygon class="dv" points="18.67 78.14 55.69 99.79 62.36 95.8 25.25 74.25 18.67 78.14"/><polygon class="cy" points="24.97 99.9 24.97 133.92 18.46 130.34 18.46 96 24.97 99.9"/><polygon class="dk" points="61.65 78.36 24.93 99.9 18.46 96 55.27 74.57 61.65 78.36"/><g><path class="cn" d="M45.44,87.82l-5.93-3.42s5.98-8.44,11.53-11.12c3.33-1.6,7.17,.43,8.37,2.91,.72,1.49-.93,4.02-2.79,5.15-4.97,3.01-11.18,6.47-11.18,6.47Z"/><path class="dn" d="M56.66,76.8c.91-.44,1.85-.6,2.77-.56-1.18-2.5-5.04-4.56-8.39-2.95-5.55,2.67-11.53,11.12-11.53,11.12l5.75,3.31c.9-1.23,6.31-8.48,11.39-10.92Z"/><path class="ca" d="M59.24,75.9c-.92-.04-1.86,.12-2.76,.56-5.08,2.44-11.22,11.26-11.22,11.26,.9-1.23,6.31-8.48,11.39-10.92,.91-.44,1.85-.6,2.77-.56-.05-.12-.12-.23-.19-.34Z"/></g><g><path class="dd" d="M35.19,88.08l5.93-3.42s-5.98-8.44-11.53-11.12c-3.33-1.6-7.17,.43-8.37,2.91-.72,1.49,.93,4.02,2.79,5.15,4.97,3.01,11.18,6.47,11.18,6.47Z"/><path class="df" d="M23.98,77.05c-.91-.44-1.85-.6-2.77-.56,1.18-2.5,5.04-4.56,8.39-2.95,5.55,2.67,11.53,11.12,11.53,11.12l-5.75,3.31c-.9-1.23-6.31-8.48-11.39-10.92Z"/><path class="br" d="M21.39,76.15c.92-.04,1.86,.12,2.76,.56,5.08,2.44,11.22,11.26,11.22,11.26-.9-1.23-6.31-8.48-11.39-10.92-.91-.44-1.85-.6-2.77-.56,.05-.12,.12-.23,.19-.34Z"/></g><g><path class="ce" d="M44.06,86.56s4.87-.96,8.76,.14c4.96,1.4,8.25,6.23,5.78,8.14s-5,3.7-7.7,2.22c-2.7-1.47-12.28-6.98-12.28-6.98l5.44-3.52Z"/><path class="cf" d="M47.65,90.09c-3.89-1.1-8.76-.14-8.76-.14l-.24,.16-.03-.02,5.44-3.52s4.87-.96,8.76,.14c4.96,1.4,8.25,6.23,5.78,8.14-1.49,1.16-3,2.26-4.55,2.63,1.08-2.21-2-6.14-6.39-7.38Z"/><path class="bx" d="M39.1,89.88l.03,.02s5.11-1.12,9-.02c4.4,1.24,7.47,5.17,6.39,7.38,.27-.06-.05,.1-.48,.21,1.08-2.21-2-6.14-6.39-7.38-3.89-1.1-8.76-.14-8.76-.14l-.24,.16-.03-.02,.48-.21Z"/></g><path class="dp" d="M43.62,86.77l-1.59-1.36c-.94-.8-2.32-.78-3.23,.06l-1.69,1.55,3.08,2.22,3.43-2.47Z"/><g><path class="cp" d="M36.17,86.56s-4.87-.96-8.76,.14c-4.96,1.4-8.25,6.23-5.78,8.14s5,3.7,7.7,2.22c2.7-1.47,12.28-6.98,12.28-6.98l-5.44-3.52Z"/><path class="cg" d="M32.58,90.09c3.89-1.1,8.76-.14,8.76-.14l.24,.16,.03-.02-5.44-3.52s-4.87-.96-8.76,.14c-4.96,1.4-8.25,6.23-5.78,8.14,1.49,1.16,3,2.26,4.55,2.63-1.07-2.21,2-6.14,6.39-7.38Z"/><path class="bu" d="M41.13,89.88l-.03,.02s-5.11-1.12-9-.02c-4.4,1.24-7.47,5.17-6.39,7.38-.27-.06,.05,.1,.48,.21-1.07-2.21,2-6.14,6.39-7.38,3.89-1.1,8.76-.14,8.76-.14l.24,.16,.03-.02-.48-.21Z"/></g></g><g><polygon class="cs" points="70.11 127.22 108.96 150 147.8 127.14 108.87 104.48 70.11 127.22"/><polygon class="co" points="108.13 127.35 108.13 148.44 142.62 128.46 142.62 107.08 108.13 127.35"/><polygon class="cm" points="108.18 127.35 108.18 148.44 73.51 128.41 73.51 107.02 108.18 127.35"/><polygon class="cw" points="73.51 107.02 108.18 127.35 142.62 107.08 107.88 86.85 73.51 107.02"/><polygon class="db" points="122.65 118.92 122.65 140 128.98 136.52 128.98 115.15 122.65 118.92"/><polygon class="du" points="87.74 98.48 122.69 118.92 128.98 115.15 93.96 94.81 87.74 98.48"/><polygon class="dq" points="93.69 119.02 93.69 140.09 87.54 136.72 87.54 115.34 93.69 119.02"/><polygon class="bp" points="128.32 98.69 93.65 119.02 87.54 115.34 122.29 95.12 128.32 98.69"/><g><path class="da" d="M113.01,107.62l-5.6-3.22s5.64-7.97,10.88-10.5c3.15-1.51,6.77,.41,7.9,2.75,.68,1.41-.88,3.8-2.64,4.86-4.69,2.84-10.55,6.1-10.55,6.1Z"/><path class="bo" d="M123.6,97.22c.86-.41,1.75-.57,2.62-.53-1.11-2.36-4.76-4.31-7.92-2.79-5.24,2.52-10.88,10.5-10.88,10.5l5.43,3.13c.85-1.16,5.96-8,10.75-10.31Z"/><path class="cb" d="M126.04,96.37c-.86-.03-1.75,.12-2.61,.53-4.79,2.31-10.59,10.63-10.59,10.63,.85-1.16,5.96-8,10.75-10.31,.86-.41,1.75-.57,2.62-.53-.05-.11-.11-.22-.18-.32Z"/></g><g><path class="cz" d="M103.34,107.86l5.6-3.22s-5.64-7.97-10.88-10.5c-3.15-1.51-6.77,.41-7.9,2.75-.68,1.41,.88,3.8,2.64,4.86,4.69,2.84,10.55,6.1,10.55,6.1Z"/><path class="cx" d="M92.75,97.46c-.86-.41-1.75-.57-2.62-.53,1.11-2.36,4.76-4.31,7.92-2.79,5.24,2.52,10.88,10.5,10.88,10.5l-5.43,3.13c-.85-1.16-5.96-8-10.75-10.31Z"/><path class="bv" d="M90.31,96.61c.86-.03,1.75,.12,2.61,.53,4.79,2.31,10.59,10.63,10.59,10.63-.85-1.16-5.96-8-10.75-10.31-.86-.41-1.75-.57-2.62-.53,.05-.11,.11-.22,.18-.32Z"/></g><g><path class="dr" d="M111.7,106.43s4.6-.91,8.27,.13c4.68,1.32,7.78,5.88,5.46,7.69-2.33,1.81-4.72,3.49-7.27,2.1-2.55-1.39-11.6-6.59-11.6-6.59l5.14-3.33Z"/><path class="di" d="M115.1,109.76c-3.67-1.04-8.27-.13-8.27-.13l-.23,.15-.03-.02,5.14-3.33s4.6-.91,8.27,.13c4.68,1.32,7.78,5.88,5.46,7.69-1.4,1.09-2.83,2.13-4.3,2.48,1.01-2.09-1.88-5.8-6.04-6.97Z"/><path class="bs" d="M107.02,109.57l.03,.02s4.82-1.06,8.5-.02c4.15,1.17,7.05,4.88,6.04,6.97,.26-.06-.04,.1-.45,.19,1.01-2.09-1.88-5.8-6.04-6.97-3.67-1.04-8.27-.13-8.27-.13l-.23,.15-.03-.02,.45-.19Z"/></g><path class="cu" d="M111.29,106.63l-1.5-1.28c-.88-.76-2.19-.73-3.05,.05l-1.6,1.46,2.9,2.1,3.24-2.33Z"/><g><path class="dl" d="M104.26,106.43s-4.6-.91-8.27,.13c-4.68,1.32-7.78,5.88-5.46,7.69,2.33,1.81,4.72,3.49,7.27,2.1,2.55-1.39,11.59-6.59,11.59-6.59l-5.14-3.33Z"/><path class="ci" d="M100.87,109.76c3.67-1.04,8.27-.13,8.27-.13l.23,.15,.03-.02-5.14-3.33s-4.6-.91-8.27,.13c-4.68,1.32-7.78,5.88-5.46,7.69,1.4,1.09,2.83,2.13,4.3,2.48-1.01-2.09,1.88-5.8,6.04-6.97Z"/><path class="by" d="M108.95,109.57l-.03,.02s-4.82-1.06-8.5-.02c-4.15,1.17-7.05,4.88-6.04,6.97-.26-.06,.04,.1,.45,.19-1.01-2.09,1.88-5.8,6.04-6.97,3.67-1.04,8.27-.13,8.27-.13l.23,.15,.03-.02-.45-.19Z"/></g></g></g></g></g></g></svg>