<?xml version="1.0" encoding="UTF-8"?><svg xmlns="http://www.w3.org/2000/svg" xmlns:xlink="http://www.w3.org/1999/xlink" viewBox="0 0 160 114.48"><defs><style>.bm{fill:url(#bb);}.bn{opacity:.04;}.bo{fill:url(#j);}.bp{fill:url(#p);}.bq{fill:url(#ba);}.br{fill:url(#m);}.bs{fill:url(#aa);}.bt{opacity:.7;}.bu{fill:url(#al);}.bv{fill:url(#am);}.bw{fill:url(#ay);}.bw,.bx,.by,.bz,.ca,.cb{mix-blend-mode:multiply;}.cc{fill:url(#aq);}.cd{fill:url(#r);}.ce{fill:url(#h);}.cf{fill:url(#t);}.cg{opacity:.18;}.ch{fill:url(#i);}.ci{fill:url(#l);}.cj{opacity:.1;}.ck{fill:url(#bh);}.ck,.cl,.cm,.cn,.co{mix-blend-mode:color-dodge;}.cp{opacity:.45;}.cq{fill:url(#ah);}.cr{fill:url(#z);opacity:.6;}.cr,.cs{mix-blend-mode:screen;}.ct{fill:url(#at);}.cu{fill:url(#be);}.cv{fill:#928fa1;}.cw{fill:url(#af);}.cx{fill:url(#as);}.cy{fill:url(#ap);}.cz{isolation:isolate;}.da{fill:url(#s);}.db,.dc{opacity:.2;}.dd{opacity:.09;}.de{opacity:.91;}.df{fill:url(#q);}.dg{fill:url(#f);}.bx{fill:url(#bl);}.dh{opacity:0;}.di{fill:url(#g);}.dj{opacity:.36;}.by{fill:url(#bj);}.dk{opacity:.03;}.dl{fill:url(#au);}.dm{fill:url(#n);}.dn{opacity:.64;}.do{opacity:.19;}.dc{fill:url(#bc);}.dp{fill:url(#ad);}.bz{fill:url(#bf);}.dq{fill:url(#az);}.dr{fill:#18171d;}.ds{fill:url(#av);}.dt{opacity:.1;}.du{opacity:.15;}.dv{fill:url(#e);}.dw{opacity:.18;}.dx{opacity:0;}.dy{fill:url(#ai);}.dz{opacity:.16;}.ea{fill:url(#v);}.eb{fill:url(#ar);}.ec{fill:url(#aj);}.ed{fill:url(#y);}.ee{fill:url(#o);}.cl{fill:url(#bg);}.ef{opacity:.73;}.eg{opacity:.82;}.eh{opacity:.11;}.ei{fill:url(#x);}.ej{fill:#313037;}.ek{opacity:.33;}.el{opacity:.12;}.em{fill:url(#u);}.cs{fill:url(#bi);}.en{fill:url(#ae);}.eo{opacity:.06;}.ep{opacity:.08;}.eq{opacity:.17;}.er{fill:url(#ag);}.cn{fill:#302e2d;}.es{opacity:.27;}.co{fill:url(#bd);}.et{fill:url(#an);}.eu{opacity:.02;}.ca{fill:url(#bk);}.ev{fill:url(#w);}.ew{fill:url(#ao);}.ex{fill:url(#ax);}.ey{fill:url(#ab);}.ez{fill:url(#k);}.fa{opacity:.55;}.fb{opacity:.05;}.fc{opacity:.07;}.fd{opacity:.14;}.fe{fill:url(#aw);}.ff{opacity:.09;}.cb{fill:#fed2a3;}.fg{fill:url(#ac);}.fh{opacity:.13;}.fi{fill:url(#ak);}</style><radialGradient id="e" cx="69.63" cy="64.13" fx="69.63" fy="64.13" r="52.33" gradientTransform="matrix(1, 0, 0, 1, 0, 0)" gradientUnits="userSpaceOnUse"><stop offset="0" stop-color="#232228"/><stop offset=".43" stop-color="#342f31"/><stop offset="1" stop-color="#36353f" stop-opacity=".6"/></radialGradient><linearGradient id="f" x1="-2314.74" y1="447.69" x2="-2404.57" y2="379.79" gradientTransform="translate(2738.64 1090.8) rotate(30) skewX(-49.11)" gradientUnits="userSpaceOnUse"><stop offset="0" stop-color="#322e30"/><stop offset=".31" stop-color="#342f31"/><stop offset=".62" stop-color="#2f2b2e"/><stop offset=".96" stop-color="#222027"/><stop offset="1" stop-color="#201f26"/></linearGradient><linearGradient id="g" x1="-1551.42" y1="388.63" x2="-1569.4" y2="440.61" gradientTransform="translate(1842.19 573.44) rotate(30) skewX(-30)" gradientUnits="userSpaceOnUse"><stop offset=".06" stop-color="#ffb677"/><stop offset=".13" stop-color="#ffbd84"/><stop offset=".27" stop-color="#ffcfa6"/><stop offset=".46" stop-color="#ffeddd"/><stop offset=".56" stop-color="#fff"/><stop offset=".67" stop-color="#ffede1"/><stop offset=".81" stop-color="#ffd9bf"/><stop offset=".92" stop-color="#ffcdab"/><stop offset="1" stop-color="#ffc9a4"/></linearGradient><linearGradient id="h" x1="120.39" y1="39.58" x2="131.18" y2="39.58" gradientTransform="translate(-80.89)" gradientUnits="userSpaceOnUse"><stop offset=".04" stop-color="#ffba78"/><stop offset=".4" stop-color="#fec986"/><stop offset="1" stop-color="#feeca8"/></linearGradient><linearGradient id="i" x1="118.71" y1="41.92" x2="124.71" y2="41.92" xlink:href="#h"/><linearGradient id="j" x1="116.73" y1="39.72" x2="121.58" y2="39.72" xlink:href="#h"/><linearGradient id="k" x1="121.74" y1="43.42" x2="129.36" y2="43.42" xlink:href="#h"/><linearGradient id="l" x1="129.99" y1="39.45" x2="134.84" y2="39.45" xlink:href="#h"/><linearGradient id="m" x1="126.86" y1="37.24" x2="132.85" y2="37.24" xlink:href="#h"/><linearGradient id="n" x1="122.2" y1="35.75" x2="129.83" y2="35.75" xlink:href="#h"/><linearGradient id="o" x1="141.35" y1="55.34" x2="157.29" y2="66.6" gradientTransform="translate(-80.89)" gradientUnits="userSpaceOnUse"><stop offset=".02" stop-color="#f4e4ff"/><stop offset=".24" stop-color="#e8d3f5"/><stop offset=".59" stop-color="#d1b4e3"/><stop offset=".59" stop-color="#d0b3e2"/><stop offset=".83" stop-color="#c2a2d9"/><stop offset="1" stop-color="#be9cd6"/></linearGradient><linearGradient id="p" x1="142.51" y1="53.7" x2="158.45" y2="64.96" xlink:href="#o"/><linearGradient id="q" x1="143.8" y1="51.87" x2="159.74" y2="63.13" xlink:href="#o"/><linearGradient id="r" x1="144.83" y1="50.4" x2="160.78" y2="61.66" xlink:href="#o"/><linearGradient id="s" x1="146.24" y1="48.42" x2="162.18" y2="59.68" xlink:href="#o"/><linearGradient id="t" x1="147.66" y1="46.4" x2="163.6" y2="57.66" xlink:href="#o"/><linearGradient id="u" x1="149.26" y1="44.13" x2="165.2" y2="55.4" xlink:href="#o"/><linearGradient id="v" x1="150.9" y1="41.81" x2="166.84" y2="53.08" xlink:href="#o"/><linearGradient id="w" x1="6656.65" y1="67.13" x2="6809.24" y2="67.13" gradientTransform="translate(6811.36) rotate(-180) scale(1 -1)" gradientUnits="userSpaceOnUse"><stop offset="0" stop-color="#27262c"/><stop offset="1" stop-color="#4d4038"/></linearGradient><linearGradient id="x" x1="6676.71" y1="66.47" x2="6829.3" y2="66.47" gradientTransform="translate(6811.36) rotate(-180) scale(1 -1)" gradientUnits="userSpaceOnUse"><stop offset=".06" stop-color="#27262c"/><stop offset=".32" stop-color="#29282e"/><stop offset=".46" stop-color="#2f2e35"/><stop offset=".47" stop-color="#313037"/><stop offset=".48" stop-color="#353237"/><stop offset=".49" stop-color="#423a3a"/><stop offset=".5" stop-color="#58473e"/><stop offset=".51" stop-color="#765a45"/><stop offset=".53" stop-color="#9d714c"/><stop offset=".53" stop-color="#b27e51"/><stop offset=".53" stop-color="#a9794f"/><stop offset=".55" stop-color="#7e5f46"/><stop offset=".57" stop-color="#5c4a3f"/><stop offset=".59" stop-color="#443b3a"/><stop offset=".61" stop-color="#363338"/><stop offset=".63" stop-color="#313037"/><stop offset=".69" stop-color="#2b2a31"/><stop offset=".81" stop-color="#27262c"/><stop offset="1" stop-color="#201f26"/></linearGradient><linearGradient id="y" x1="6656.65" y1="63.18" x2="6809.24" y2="63.18" gradientTransform="translate(6811.36) rotate(-180) scale(1 -1)" gradientUnits="userSpaceOnUse"><stop offset=".19" stop-color="#342f31"/><stop offset="1" stop-color="#675140"/></linearGradient><radialGradient id="z" cx="78.42" cy="77.12" fx="78.42" fy="77.12" r="58" gradientTransform="matrix(1, 0, 0, 1, 0, 0)" gradientUnits="userSpaceOnUse"><stop offset="0" stop-color="#b27d51"/><stop offset="1" stop-color="#2a2a30"/></radialGradient><linearGradient id="aa" x1="6658.17" y1="63.18" x2="6807.71" y2="63.18" gradientTransform="translate(6811.36) rotate(-180) scale(1 -1)" gradientUnits="userSpaceOnUse"><stop offset=".19" stop-color="#342f31"/><stop offset="1" stop-color="#57473b"/></linearGradient><linearGradient id="ab" x1="69.2" y1="124.51" x2="89.34" y2="-9.47" gradientTransform="matrix(1, 0, 0, 1, 0, 0)" gradientUnits="userSpaceOnUse"><stop offset=".03" stop-color="#344441"/><stop offset=".3" stop-color="#416759"/><stop offset=".91" stop-color="#62c298"/><stop offset="1" stop-color="#68d1a3"/></linearGradient><linearGradient id="ac" x1="83.87" y1="97.6" x2="71.95" y2="22.39" gradientTransform="matrix(1, 0, 0, 1, 0, 0)" gradientUnits="userSpaceOnUse"><stop offset=".03" stop-color="#354542"/><stop offset=".31" stop-color="#42685a"/><stop offset=".91" stop-color="#63c399"/><stop offset="1" stop-color="#68d1a3"/></linearGradient><linearGradient id="ad" x1="8997.91" y1="-989.14" x2="9005.26" y2="-989.14" gradientTransform="translate(7436.43 -3010.08) rotate(150) scale(1 -1) skewX(49.11)" gradientUnits="userSpaceOnUse"><stop offset="0" stop-color="#3d065f"/><stop offset="1" stop-color="#5f27bd"/></linearGradient><linearGradient id="ae" x1="8997.91" y1="-989.14" x2="9005.26" y2="-989.14" gradientTransform="translate(7436.43 -3010.08) rotate(150) scale(1 -1) skewX(49.11)" gradientUnits="userSpaceOnUse"><stop offset="0" stop-color="#433935"/><stop offset="1" stop-color="#675140"/></linearGradient><linearGradient id="af" x1="9001.55" y1="-988.3" x2="9001.68" y2="-991.21" gradientTransform="translate(7436.43 -3010.08) rotate(150) scale(1 -1) skewX(49.11)" gradientUnits="userSpaceOnUse"><stop offset=".37" stop-color="#342f31"/><stop offset=".93" stop-color="#b17d51"/></linearGradient><linearGradient id="ag" x1="9006.53" y1="-989.14" x2="9013.89" y2="-989.14" xlink:href="#ad"/><linearGradient id="ah" x1="9006.53" y1="-989.14" x2="9013.89" y2="-989.14" xlink:href="#ae"/><linearGradient id="ai" x1="9010.17" y1="-988.25" x2="9010.3" y2="-991.16" xlink:href="#af"/><linearGradient id="aj" x1="6786.16" y1="96.65" x2="6798.8" y2="97.58" gradientTransform="translate(6811.36) rotate(-180) scale(1 -1)" gradientUnits="userSpaceOnUse"><stop offset="0" stop-color="#342f31"/><stop offset="1" stop-color="#5e4b3d"/></linearGradient><linearGradient id="ak" x1="64.82" y1="144.21" x2="28.18" y2="66.99" gradientTransform="matrix(1, 0, 0, 1, 0, 0)" gradientUnits="userSpaceOnUse"><stop offset=".17" stop-color="#d0cbe6"/><stop offset="1" stop-color="#e1ddef"/></linearGradient><linearGradient id="al" x1="65.83" y1="143.73" x2="29.19" y2="66.51" xlink:href="#ak"/><linearGradient id="am" x1="67.43" y1="142.97" x2="30.8" y2="65.75" xlink:href="#ak"/><linearGradient id="an" x1="69.76" y1="141.87" x2="33.12" y2="64.64" xlink:href="#ak"/><linearGradient id="ao" x1="72.06" y1="140.78" x2="35.42" y2="63.55" xlink:href="#ak"/><linearGradient id="ap" x1="74.02" y1="139.84" x2="37.39" y2="62.62" xlink:href="#ak"/><linearGradient id="aq" x1="76.52" y1="138.66" x2="39.88" y2="61.44" xlink:href="#ak"/><linearGradient id="ar" x1="78.78" y1="137.59" x2="42.14" y2="60.37" xlink:href="#ak"/><linearGradient id="as" x1="80.05" y1="136.99" x2="43.41" y2="59.76" xlink:href="#ak"/><linearGradient id="at" x1="81.09" y1="136.49" x2="44.45" y2="59.27" xlink:href="#ak"/><linearGradient id="au" x1="83.31" y1="135.44" x2="46.67" y2="58.22" xlink:href="#ak"/><linearGradient id="av" x1="127.36" y1="74.34" x2="110.77" y2="32.39" xlink:href="#ak"/><linearGradient id="aw" x1="19.73" y1="83.43" x2="48.56" y2="83.43" gradientTransform="matrix(1, 0, 0, 1, 0, 0)" gradientUnits="userSpaceOnUse"><stop offset=".17" stop-color="#68d1a3"/><stop offset="1" stop-color="#8defa3"/></linearGradient><linearGradient id="ax" x1="9907.76" y1="60.24" x2="9858.81" y2="60.24" gradientTransform="translate(9965.96) rotate(-180) scale(1 -1)" gradientUnits="userSpaceOnUse"><stop offset="0" stop-color="#e9a66d"/><stop offset=".23" stop-color="#ffffe2"/><stop offset=".54" stop-color="#c49771"/><stop offset=".62" stop-color="#c69a74"/><stop offset=".7" stop-color="#cfa47f"/><stop offset=".76" stop-color="#deb490"/><stop offset=".83" stop-color="#f3cba9"/><stop offset=".86" stop-color="#ffd8b7"/><stop offset=".97" stop-color="#e9a66d"/></linearGradient><linearGradient id="ay" x1="-2970.57" y1="76.22" x2="-2972.8" y2="84.99" gradientTransform="translate(3049.35)" gradientUnits="userSpaceOnUse"><stop offset="0" stop-color="#e9a66d"/><stop offset=".23" stop-color="#fffbc9"/><stop offset=".54" stop-color="#f9b673"/><stop offset=".64" stop-color="#f9b876"/><stop offset=".72" stop-color="#fabe81"/><stop offset=".81" stop-color="#fcc892"/><stop offset=".86" stop-color="#fed2a3"/><stop offset=".97" stop-color="#ffc28c"/></linearGradient><linearGradient id="az" x1="9935.68" y1="15.84" x2="9885.78" y2="66.05" gradientTransform="translate(9965.96) rotate(-180) scale(1 -1)" gradientUnits="userSpaceOnUse"><stop offset=".04" stop-color="#ffe3c9"/><stop offset=".81" stop-color="#ffd9b9"/><stop offset="1" stop-color="#ffd7b5"/></linearGradient><linearGradient id="ba" x1="8345.12" y1="67.05" x2="8344.88" y2="67.05" gradientTransform="translate(8452.12) rotate(-180) scale(1 -1)" gradientUnits="userSpaceOnUse"><stop offset="0" stop-color="#ffbb96"/><stop offset=".23" stop-color="#fffbc9"/><stop offset=".54" stop-color="#f9b673"/><stop offset=".64" stop-color="#f9b876"/><stop offset=".72" stop-color="#fabe81"/><stop offset=".81" stop-color="#fcc892"/><stop offset=".86" stop-color="#fed2a3"/><stop offset=".97" stop-color="#ffc28c"/></linearGradient><linearGradient id="bb" x1="8393.92" y1="72.98" x2="8344.96" y2="72.98" xlink:href="#ba"/><linearGradient id="bc" x1="9858.84" y1="70.38" x2="9858.82" y2="70.46" gradientTransform="translate(9965.96) rotate(-180) scale(1 -1)" gradientUnits="userSpaceOnUse"><stop offset="0" stop-color="#fee2a6"/><stop offset=".47" stop-color="#f8b996"/><stop offset=".63" stop-color="#f7aa90"/><stop offset=".63" stop-color="#f6a98f"/><stop offset=".69" stop-color="#f59d8a"/><stop offset=".77" stop-color="#f49687"/><stop offset="1" stop-color="#f49587"/></linearGradient><radialGradient id="bd" cx="9885.08" cy="64.24" fx="9885.08" fy="64.24" r="19.51" gradientTransform="translate(9965.96) rotate(-180) scale(1 -1)" gradientUnits="userSpaceOnUse"><stop offset="0" stop-color="#fff"/><stop offset="1" stop-color="#000"/></radialGradient><linearGradient id="be" x1="-2957.39" y1="47.43" x2="-3000.21" y2="90.52" gradientTransform="translate(3049.35)" gradientUnits="userSpaceOnUse"><stop offset="0" stop-color="#ffb677"/><stop offset="1" stop-color="#fbc393"/></linearGradient><linearGradient id="bf" x1="9870.09" y1="56.1" x2="9912.56" y2="56.1" gradientTransform="translate(9965.96) rotate(-180) scale(1 -1)" xlink:href="#ba"/><radialGradient id="bg" cx="10535.1" cy="-1127.11" fx="10535.1" fy="-1127.11" r="6.93" gradientTransform="translate(10608.56 395.41) rotate(179.17) scale(1 -.42)" gradientUnits="userSpaceOnUse"><stop offset="0" stop-color="#f49587"/><stop offset="0" stop-color="#ed9183"/><stop offset=".08" stop-color="#bc7368"/><stop offset=".16" stop-color="#8f574f"/><stop offset=".24" stop-color="#68403a"/><stop offset=".33" stop-color="#482c28"/><stop offset=".42" stop-color="#2d1b19"/><stop offset=".52" stop-color="#190f0e"/><stop offset=".64" stop-color="#0a0606"/><stop offset=".77" stop-color="#020101"/><stop offset="1" stop-color="#000"/></radialGradient><radialGradient id="bh" cx="11480.71" cy="2822.68" fx="11480.71" fy="2822.68" r="5.95" gradientTransform="translate(11382.89 2302.53) rotate(-163.54) scale(1 -.37)" gradientUnits="userSpaceOnUse"><stop offset="0" stop-color="#f49587"/><stop offset=".12" stop-color="#bc7368"/><stop offset=".24" stop-color="#8b544c"/><stop offset=".36" stop-color="#603a35"/><stop offset=".48" stop-color="#3d2522"/><stop offset=".61" stop-color="#221513"/><stop offset=".74" stop-color="#0f0908"/><stop offset=".86" stop-color="#030202"/><stop offset="1" stop-color="#000"/></radialGradient><radialGradient id="bi" cx="-2966.69" cy="47.82" fx="-2966.69" fy="47.82" r="16.63" gradientTransform="translate(3049.35)" gradientUnits="userSpaceOnUse"><stop offset="0" stop-color="#fff"/><stop offset=".25" stop-color="#b9b9b9"/><stop offset=".62" stop-color="#565656"/><stop offset=".88" stop-color="#181818"/><stop offset="1" stop-color="#000"/></radialGradient><linearGradient id="bj" x1="8371.81" y1="59.73" x2="8383.36" y2="59.73" xlink:href="#ba"/><radialGradient id="bk" cx="8381.3" cy="60.61" fx="8381.3" fy="60.61" r="1.79" gradientTransform="translate(8452.12) rotate(-180) scale(1 -1)" xlink:href="#bd"/><radialGradient id="bl" cx="8375.7" cy="57.71" fx="8375.7" fy="57.71" r="2.81" gradientTransform="translate(8452.12) rotate(-180) scale(1 -1)" xlink:href="#bd"/></defs><g class="cz"><g id="b"><g id="c"><g id="d"><g><path class="ek" d="M56.75,63.21L22.17,43.24c-2.85-1.65-2.5-4.53,.8-6.43L82.27,2.58c3.29-1.9,8.28-2.11,11.13-.46l34.58,19.97c2.85,1.65,2.5,4.53-.8,6.43l-59.3,34.24c-3.29,1.9-8.28,2.11-11.13,.46Z"/><path class="dv" d="M56.06,62.55L21.79,42.76c-2.83-1.63-2.47-4.48,.79-6.37L81.34,2.47c3.26-1.89,8.2-2.09,11.03-.46l34.27,19.79c2.83,1.63,2.47,4.48-.79,6.37l-58.76,33.92c-3.26,1.89-8.2,2.09-11.03,.46Z"/><path class="dg" d="M56.06,61.64L21.79,41.85c-2.83-1.63-2.47-4.48,.79-6.37L81.34,1.56c3.26-1.89,8.2-2.09,11.03-.46l34.27,19.79c2.83,1.63,2.47,4.48-.79,6.37l-58.76,33.92c-3.26,1.88-8.2,2.09-11.03,.46Z"/><path class="di" d="M54.83,46.81c-.11-.33-.52-.69-1.22-1.1-.68-.39-1.31-.62-1.9-.69-.59-.07-1.11,.03-1.58,.3-.47,.27-.66,.57-.55,.9,.11,.33,.52,.69,1.23,1.11,.68,.39,1.31,.62,1.9,.69s1.11-.03,1.57-.3c.48-.28,.66-.58,.55-.9Zm-1.99,.57c-.3-.07-.7-.25-1.19-.54-.49-.29-.81-.52-.94-.69s-.1-.32,.1-.43c.2-.11,.45-.13,.75-.06,.3,.07,.7,.25,1.2,.54,.49,.28,.8,.51,.93,.69,.13,.18,.1,.32-.1,.43-.2,.12-.45,.14-.75,.06Zm8.67-4.43c-.11-.33-.52-.69-1.22-1.1-.68-.39-1.31-.62-1.9-.69-.59-.07-1.11,.03-1.58,.3-.47,.27-.66,.57-.55,.9,.11,.33,.52,.69,1.23,1.11,.68,.39,1.31,.62,1.9,.69,.58,.07,1.11-.03,1.57-.3,.48-.28,.66-.58,.55-.9Zm-1.99,.57c-.3-.07-.7-.25-1.19-.54-.49-.29-.81-.51-.94-.69-.13-.17-.1-.32,.1-.43,.2-.11,.45-.13,.75-.06,.3,.07,.7,.25,1.2,.54,.49,.28,.8,.51,.93,.69,.13,.18,.1,.32-.1,.43-.2,.12-.45,.14-.75,.06Zm-1.35,1.36c-.11-.33-.52-.69-1.22-1.1-.68-.39-1.31-.62-1.9-.69-.59-.07-1.11,.03-1.58,.3-.47,.27-.66,.57-.55,.9,.11,.33,.52,.69,1.23,1.11,.68,.39,1.31,.62,1.9,.69,.58,.07,1.11-.03,1.57-.3,.48-.28,.66-.58,.55-.9Zm-1.99,.57c-.3-.07-.7-.25-1.19-.54-.49-.29-.81-.51-.94-.69-.13-.17-.1-.32,.1-.43,.2-.11,.45-.13,.75-.06,.3,.07,.7,.25,1.2,.54,.49,.28,.8,.51,.93,.69s.1,.32-.1,.43c-.2,.12-.45,.14-.75,.06Zm-4.7,3.29c-.11-.33-.52-.69-1.22-1.1-.68-.39-1.31-.62-1.9-.69-.59-.07-1.11,.03-1.58,.3-.47,.27-.66,.57-.55,.9,.11,.33,.52,.69,1.23,1.11,.68,.39,1.31,.62,1.9,.69,.58,.07,1.11-.03,1.57-.3,.48-.28,.66-.58,.55-.9Zm-1.99,.57c-.3-.07-.7-.25-1.19-.54s-.81-.51-.94-.69c-.13-.17-.1-.32,.1-.43,.2-.11,.45-.13,.75-.06,.3,.07,.7,.25,1.2,.54,.49,.28,.8,.51,.93,.69,.13,.18,.1,.32-.1,.43-.2,.12-.45,.14-.75,.06Zm20.05-11c-.11-.33-.52-.69-1.22-1.1-.68-.39-1.31-.62-1.9-.69-.59-.07-1.11,.03-1.58,.3-.47,.27-.66,.57-.55,.9,.11,.33,.52,.69,1.23,1.11,.68,.39,1.31,.62,1.9,.69,.58,.07,1.11-.03,1.57-.3,.48-.28,.66-.58,.55-.9Zm-1.99,.57c-.3-.07-.7-.25-1.19-.54-.49-.29-.81-.52-.94-.69s-.1-.32,.1-.43c.2-.11,.45-.13,.75-.06s.7,.25,1.2,.54c.49,.28,.8,.51,.93,.69,.13,.18,.1,.32-.1,.43-.2,.12-.45,.14-.75,.06Zm8.67-4.43c-.11-.33-.52-.69-1.22-1.1-.68-.39-1.31-.62-1.9-.69-.59-.07-1.11,.03-1.58,.3-.47,.27-.66,.57-.55,.9s.52,.69,1.23,1.11c.68,.39,1.31,.62,1.9,.69,.58,.07,1.11-.03,1.57-.3,.48-.28,.66-.58,.55-.9Zm-1.99,.57c-.3-.07-.7-.25-1.19-.54s-.81-.52-.94-.69c-.13-.17-.1-.32,.1-.43,.2-.11,.45-.13,.75-.06,.3,.07,.7,.25,1.2,.54,.49,.28,.8,.51,.93,.69,.13,.18,.1,.32-.1,.43-.2,.12-.45,.14-.75,.06Zm-1.35,1.36c-.11-.33-.52-.69-1.22-1.1-.68-.39-1.31-.62-1.9-.69-.59-.07-1.11,.03-1.58,.3-.47,.27-.66,.57-.55,.9,.11,.33,.52,.69,1.23,1.11,.68,.39,1.31,.62,1.9,.69s1.11-.03,1.57-.3c.48-.28,.66-.58,.55-.9Zm-1.99,.57c-.3-.07-.7-.25-1.19-.54-.49-.29-.81-.52-.94-.69-.13-.17-.1-.32,.1-.43,.2-.11,.45-.13,.75-.06s.7,.25,1.2,.54c.49,.28,.8,.51,.93,.69,.13,.18,.1,.32-.1,.43-.2,.12-.45,.14-.75,.06Zm-4.7,3.29c-.11-.33-.52-.69-1.22-1.1-.68-.39-1.31-.62-1.9-.69-.59-.07-1.11,.03-1.58,.3-.47,.27-.66,.57-.55,.9,.11,.33,.52,.7,1.23,1.11,.68,.39,1.31,.62,1.9,.69s1.11-.03,1.57-.3c.48-.28,.66-.58,.55-.9Zm-1.99,.57c-.3-.07-.7-.25-1.19-.54-.49-.29-.81-.52-.94-.69-.13-.17-.1-.32,.1-.43,.2-.11,.45-.13,.75-.06,.3,.07,.7,.25,1.2,.54,.49,.28,.8,.51,.93,.69s.1,.32-.1,.43c-.2,.12-.45,.14-.75,.06Zm17.28-9.4c-.11-.33-.52-.69-1.22-1.1-.68-.39-1.31-.62-1.9-.69-.59-.07-1.11,.03-1.58,.3-.47,.27-.66,.57-.55,.9,.11,.33,.52,.69,1.23,1.11,.68,.39,1.31,.62,1.9,.69,.58,.07,1.11-.03,1.57-.3,.48-.28,.66-.58,.55-.9Zm-1.99,.57c-.3-.07-.7-.25-1.19-.54-.49-.29-.81-.52-.94-.69-.13-.17-.1-.32,.1-.43,.2-.11,.45-.13,.75-.06s.7,.25,1.2,.54c.49,.28,.8,.51,.93,.69,.13,.18,.1,.32-.1,.43-.2,.12-.45,.14-.75,.06Zm8.67-4.43c-.11-.33-.52-.69-1.22-1.1-.68-.39-1.31-.62-1.9-.69-.59-.07-1.11,.03-1.58,.3-.47,.27-.66,.57-.55,.9,.11,.33,.52,.69,1.23,1.11,.68,.39,1.31,.62,1.9,.69,.58,.07,1.11-.03,1.57-.3,.48-.28,.66-.58,.55-.9Zm-1.99,.57c-.3-.07-.7-.25-1.19-.54-.49-.29-.81-.52-.94-.69-.13-.17-.1-.32,.1-.43,.2-.11,.45-.13,.75-.06,.3,.07,.7,.25,1.2,.54,.49,.28,.8,.51,.93,.69,.13,.18,.1,.32-.1,.43-.2,.12-.45,.14-.75,.06Zm-1.35,1.36c-.11-.33-.52-.69-1.22-1.1-.68-.39-1.31-.62-1.9-.69-.59-.07-1.11,.03-1.58,.3-.47,.27-.66,.57-.55,.9,.11,.33,.52,.69,1.23,1.11,.68,.39,1.31,.62,1.9,.69,.58,.07,1.11-.03,1.57-.3,.48-.28,.66-.58,.55-.9Zm-1.99,.57c-.3-.07-.7-.25-1.19-.54-.49-.29-.81-.52-.94-.69s-.1-.32,.1-.43c.2-.11,.45-.13,.75-.06,.3,.07,.7,.25,1.2,.54,.49,.28,.8,.51,.93,.69,.13,.18,.1,.32-.1,.43-.2,.12-.45,.14-.75,.06Zm8.67-4.43c-.11-.33-.52-.69-1.22-1.1-.68-.39-1.31-.62-1.9-.69-.59-.07-1.11,.03-1.58,.3-.47,.27-.66,.57-.55,.9,.11,.33,.52,.69,1.23,1.11,.68,.39,1.31,.62,1.9,.69,.58,.07,1.11-.03,1.57-.3,.48-.28,.66-.58,.55-.9Zm-1.99,.57c-.3-.07-.7-.25-1.19-.54-.49-.29-.81-.52-.94-.69-.13-.17-.1-.32,.1-.43,.2-.11,.45-.13,.75-.06,.3,.07,.7,.25,1.2,.54,.49,.28,.8,.51,.93,.69,.13,.18,.1,.32-.1,.43-.2,.12-.45,.14-.75,.06Zm11.47-9.66c.11,.33,.52,.69,1.23,1.11,.68,.39,1.31,.62,1.9,.69s1.11-.03,1.57-.3c.48-.28,.66-.58,.55-.9-.11-.33-.52-.69-1.22-1.1-.68-.39-1.31-.62-1.9-.69-.59-.07-1.11,.03-1.58,.3-.47,.27-.66,.57-.55,.9Zm1.99-.56c.3,.07,.7,.25,1.2,.54,.49,.28,.8,.51,.93,.69,.13,.18,.1,.32-.1,.43-.2,.12-.45,.14-.75,.06-.3-.07-.7-.25-1.19-.54-.49-.29-.81-.52-.94-.69-.13-.17-.1-.32,.1-.43,.2-.11,.45-.13,.75-.06Zm-3.42,5.01c-.11-.33-.52-.69-1.22-1.1-.68-.39-1.31-.62-1.9-.69-.59-.07-1.11,.03-1.58,.3-.47,.27-.66,.57-.55,.9,.11,.33,.52,.69,1.23,1.11,.68,.39,1.31,.62,1.9,.69s1.11-.03,1.57-.3c.48-.28,.66-.58,.55-.9Zm-1.99,.57c-.3-.07-.7-.25-1.19-.54s-.81-.51-.94-.69c-.13-.17-.1-.32,.1-.43,.2-.11,.45-.13,.75-.06,.3,.07,.7,.25,1.2,.54,.49,.28,.8,.51,.93,.69,.13,.18,.1,.32-.1,.43-.2,.12-.45,.14-.75,.06Zm5.33-2.5c-.11-.33-.52-.69-1.22-1.1-.68-.39-1.31-.62-1.9-.69-.59-.07-1.11,.03-1.58,.3-.47,.27-.66,.57-.55,.9s.52,.69,1.23,1.11c.68,.39,1.31,.62,1.9,.69s1.11-.03,1.57-.3c.48-.27,.66-.58,.55-.9Zm-1.99,.57c-.3-.07-.7-.25-1.19-.54-.49-.29-.81-.51-.94-.69s-.1-.32,.1-.43c.2-.11,.45-.13,.75-.06,.3,.07,.7,.25,1.2,.54,.49,.28,.8,.51,.93,.69,.13,.18,.1,.32-.1,.43-.2,.12-.45,.14-.75,.06Zm-4.7,3.29c-.11-.33-.52-.69-1.22-1.1-.68-.39-1.31-.62-1.9-.69-.59-.07-1.11,.03-1.58,.3-.47,.27-.66,.57-.55,.9,.11,.33,.52,.69,1.23,1.11,.68,.39,1.31,.62,1.9,.69s1.11-.03,1.57-.3c.48-.28,.66-.58,.55-.9Zm-1.99,.57c-.3-.07-.7-.25-1.19-.54-.49-.29-.81-.51-.94-.69-.13-.17-.1-.32,.1-.43,.2-.11,.45-.13,.75-.06,.3,.07,.7,.25,1.2,.54,.49,.28,.8,.51,.93,.69,.13,.18,.1,.32-.1,.43-.2,.12-.45,.14-.75,.06Z"/><g><path class="ce" d="M44.96,42.17c-.61-.35-.94-.84-.89-1.34,.02-.21-.11-.41-.36-.55-.26-.15-.62-.23-1-.22-1.06,.03-2.06-.26-2.68-.77-.72-.6-.71-1.43,0-2.03,.11-.09,.24-.18,.37-.26,1.22-.7,3.19-.71,4.4,0,.61,.35,.94,.84,.89,1.34-.02,.21,.11,.41,.36,.55,.26,.15,.62,.23,1,.22,1.06-.03,2.06,.26,2.68,.77,.72,.6,.71,1.43,0,2.03-.6,.5-1.56,.79-2.58,.79-.83,0-1.61-.18-2.2-.52Z"/><path class="ch" d="M37.82,42.14l3.31-1.91-.11-.06c.52,.14,1.11,.22,1.71,.2,.23,0,.44,.04,.59,.13,.15,.08,.22,.2,.21,.32-.03,.32,.08,.63,.28,.91l-3.35,1.94-2.64-1.53Z"/><path class="bo" d="M39.59,39.47c.29,.24,.68,.43,1.09,.58l-3.25,1.87-.68-.4c-1.24-.71-1.23-1.88,.01-2.6l2.45-1.41c-.42,.64-.31,1.38,.37,1.95Z"/><path class="ez" d="M44.07,42.02c.14,.13,.31,.26,.51,.38,.69,.4,1.6,.61,2.58,.61,.46,0,.9-.05,1.31-.15l-2.44,1.41c-1.25,.72-3.26,.72-4.5,0l-.68-.4,3.23-1.87Z"/><path class="ci" d="M50.19,39.7c-.29-.24-.68-.43-1.1-.58l3.25-1.87,.68,.4c1.24,.71,1.23,1.88-.01,2.6l-2.45,1.41c.43-.64,.31-1.38-.37-1.95Z"/><path class="br" d="M46.45,38.67c-.15-.08-.22-.2-.21-.32,.03-.32-.08-.63-.29-.91l3.35-1.94,2.64,1.53-3.36,1.94c-.48-.12-1-.18-1.55-.17-.23,0-.44-.04-.59-.13Z"/><path class="dm" d="M45.71,37.15c-.14-.13-.31-.26-.51-.38-1.05-.61-2.58-.76-3.89-.47l2.44-1.41c1.25-.72,3.26-.72,4.5,0l.68,.4-3.23,1.87Z"/></g><g><path class="ee" d="M60.93,56.34l1.37,.2-.34-.8,.85-.49,.34,1.33,.66,.38-.78,.45-.66-.38-2.29-.2,.85-.49Z"/><path class="bp" d="M65.25,56.17c-.19,.11-.38,.19-.56,.25-.19,.06-.36,.1-.53,.11-.17,.02-.32,.01-.46-.01-.14-.02-.26-.07-.36-.12-.1-.06-.17-.13-.21-.21-.04-.08-.05-.17-.02-.27,.03-.1,.09-.2,.19-.31,.1-.11,.25-.21,.44-.32,.19-.11,.37-.19,.56-.25,.19-.06,.36-.1,.53-.11,.17-.02,.32-.01,.46,.01,.14,.02,.26,.07,.36,.12,.1,.06,.17,.13,.21,.21,.04,.08,.05,.17,.02,.27-.03,.1-.09,.2-.2,.31-.1,.11-.25,.22-.43,.32Zm-1.13-.22c.1,.06,.21,.08,.34,.07,.13,0,.24-.04,.35-.11,.11-.06,.17-.13,.19-.2,.01-.07-.03-.14-.13-.19-.1-.06-.21-.08-.34-.07-.13,0-.24,.04-.35,.11-.11,.06-.17,.13-.18,.2-.01,.07,.03,.14,.13,.19Z"/><path class="df" d="M66.91,55.21c-.21,.12-.42,.19-.63,.2-.2,.01-.39-.03-.56-.13l-.97-.56,.76-.44,.85,.49c.06,.04,.14,.05,.21,.05,.08,0,.15-.03,.22-.07,.06-.03,.11-.07,.15-.12,.04-.05,.06-.11,.06-.18l-.9-.52,.76-.44,.88,.51s.1,.04,.14,.04,.09-.02,.15-.04l.45,.26c-.11,.09-.21,.15-.29,.2-.26,.15-.48,.2-.65,.14l-.07-.02c0,.11-.06,.22-.16,.32-.1,.1-.23,.2-.41,.31Z"/><path class="cd" d="M68.82,52.9c-.15,.08-.27,.17-.37,.25-.1,.08-.15,.16-.16,.22l.87,.5-.76,.44-1.47-.85,.7-.4,.28,.16c-.02-.1,0-.2,.05-.29s.15-.18,.28-.25c.05-.03,.08-.05,.1-.05l.48,.28Z"/><path class="da" d="M69.95,52.3l.97,.56-.78,.45-1.98-1.14,.61-.35,2.15-.08-1.01-.58,.78-.45,1.98,1.14-.62,.36-2.11,.09Z"/><path class="cf" d="M73.33,51.5c-.1,.06-.21,.11-.33,.15-.11,.04-.23,.06-.33,.08-.11,.01-.21,.01-.3,0-.1-.01-.18-.04-.24-.08-.07-.04-.12-.1-.14-.16-.02-.06,0-.13,.03-.2,.04-.07,.1-.15,.18-.22,.09-.08,.2-.16,.33-.23,.17-.1,.33-.17,.48-.21l-.04-.03c-.07-.04-.15-.05-.24-.04-.09,.01-.2,.06-.33,.13-.12,.07-.22,.14-.29,.22-.07,.07-.14,.16-.2,.25l-.55-.06c.15-.23,.41-.45,.76-.66,.34-.19,.65-.31,.93-.36,.29-.04,.53,0,.74,.11l.28,.16s.1,.04,.14,.04c.04,0,.09-.02,.15-.04l.45,.26c-.05,.04-.1,.08-.15,.11-.05,.03-.1,.06-.14,.09-.14,.08-.26,.13-.36,.15-.11,.02-.2,.02-.29,0l-.07-.02c0,.1-.05,.2-.13,.3-.08,.1-.19,.18-.33,.26Zm-.15-.35s.09-.06,.12-.09,.07-.07,.09-.1c.01-.03,.02-.05,.02-.07,0-.02,0-.04-.03-.05l-.11-.06c-.06,.02-.12,.04-.18,.07-.06,.03-.11,.05-.16,.08-.09,.05-.16,.11-.19,.16-.03,.05-.02,.09,.03,.12,.04,.02,.1,.03,.17,.02,.07-.01,.15-.04,.22-.08Z"/><path class="em" d="M78.09,48.72l-.76,.44-.83-.48c-.07-.04-.15-.06-.22-.06s-.14,.02-.2,.06c-.06,.04-.11,.08-.14,.15-.03,.06-.03,.12,0,.17l.82,.48-.76,.44-.83-.48c-.07-.04-.15-.06-.22-.06-.07,0-.14,.02-.2,.06-.06,.04-.11,.08-.14,.15-.03,.06-.03,.12,0,.17l.82,.48-.76,.44-1.47-.85,.69-.4,.22,.13c0-.09,.04-.18,.13-.28,.09-.1,.22-.2,.4-.3,.09-.05,.17-.09,.25-.12,.08-.03,.15-.05,.22-.06,.07-.01,.14-.02,.19-.02s.11,0,.16,.02c0-.09,.03-.18,.12-.28,.08-.1,.21-.2,.38-.29,.14-.08,.27-.13,.38-.16,.12-.03,.23-.04,.32-.03,.1,0,.18,.02,.26,.05,.07,.03,.14,.06,.19,.09l.97,.56Z"/><path class="ea" d="M79.12,48.16c-.18,.11-.37,.19-.55,.25-.18,.06-.36,.1-.53,.12-.17,.02-.32,.01-.46,0-.14-.02-.26-.06-.36-.12-.11-.06-.18-.13-.23-.22-.05-.08-.05-.17-.03-.27,.03-.1,.09-.2,.19-.31,.1-.11,.25-.21,.44-.32,.19-.11,.37-.19,.56-.25,.19-.06,.36-.1,.53-.11,.17-.02,.32-.01,.46,.01,.14,.02,.26,.07,.36,.12,.03,.02,.05,.03,.08,.05,.02,.02,.05,.04,.06,.05l-1.48,.85c.09,.04,.18,.05,.29,.03,.11-.02,.21-.06,.3-.11,.08-.05,.15-.1,.2-.16s.06-.11,.04-.15l.77-.3c.03,.12,0,.25-.11,.39-.1,.15-.29,.29-.54,.44Zm-.58-.72c-.08-.03-.18-.04-.28-.03-.1,.01-.2,.05-.3,.1-.1,.06-.15,.11-.17,.17-.02,.06,0,.11,.05,.16l.7-.4Z"/></g><g class="cm"><path class="cv" d="M63.24,22.02c-.18-.11-.32-.24-.39-.4-.08-.16-.09-.34-.04-.53,.05-.19,.17-.39,.35-.6,.19-.21,.45-.41,.8-.62,.42-.24,.84-.42,1.27-.53,.43-.11,.82-.15,1.17-.12l-.46,.79c-.11-.02-.23-.02-.34-.01-.12,.01-.23,.03-.34,.06-.11,.03-.21,.07-.31,.11-.1,.04-.19,.09-.27,.14-.17,.1-.3,.2-.37,.3-.08,.1-.12,.19-.12,.28,0,.09,.02,.17,.08,.25s.13,.14,.22,.2c.1,.06,.23,.11,.37,.13,.14,.03,.29,.04,.45,.03,.16,0,.32-.03,.49-.08,.17-.05,.33-.11,.48-.2,.08-.05,.16-.1,.23-.16,.07-.06,.13-.12,.18-.18,.05-.06,.08-.13,.1-.19,.02-.06,0-.13-.02-.19l1.38-.33c.05,.1,.05,.22,0,.34-.04,.13-.12,.26-.23,.39-.11,.13-.25,.26-.41,.39-.16,.13-.33,.25-.52,.35-.32,.19-.66,.33-1.02,.43-.36,.1-.71,.17-1.05,.19-.34,.03-.66,.02-.95-.03-.29-.05-.54-.13-.73-.24Z"/><path class="cv" d="M69.18,18.58c-.22,.13-.41,.26-.56,.38-.15,.13-.23,.24-.24,.33l1.33,.77-1.16,.67-2.24-1.29,1.06-.61,.43,.25c-.04-.15-.01-.3,.08-.45s.23-.27,.43-.39c.08-.04,.13-.07,.15-.08l.73,.42Z"/><path class="cv" d="M72.11,18.72c-.28,.16-.56,.29-.84,.38-.28,.09-.55,.15-.8,.18-.25,.03-.49,.02-.7-.01-.21-.03-.4-.09-.55-.18-.16-.09-.28-.2-.35-.33-.07-.13-.08-.26-.04-.41,.04-.15,.14-.3,.29-.47,.15-.16,.38-.33,.67-.49,.29-.16,.57-.29,.85-.38,.28-.09,.55-.15,.81-.17,.26-.02,.49-.02,.71,.02,.21,.04,.4,.1,.55,.19,.04,.02,.08,.05,.12,.08,.04,.03,.07,.06,.1,.08l-2.26,1.3c.13,.06,.28,.07,.45,.04,.17-.04,.32-.09,.45-.17,.13-.07,.23-.15,.3-.24,.07-.09,.09-.16,.06-.22l1.18-.46c.05,.18,0,.38-.16,.6-.16,.22-.43,.45-.83,.68Zm-.89-1.1c-.13-.05-.27-.07-.43-.05-.16,.02-.31,.07-.45,.15-.15,.08-.24,.17-.27,.26-.03,.09,0,.17,.08,.25l1.06-.61Z"/><path class="cv" d="M74.98,17.07c-.22,.13-.45,.23-.69,.3-.24,.07-.48,.12-.72,.14-.24,.02-.47,0-.68-.03-.22-.04-.41-.11-.58-.21-.16-.09-.28-.2-.35-.32-.07-.12-.1-.25-.08-.38,.02-.13,.09-.26,.2-.4,.11-.13,.27-.26,.48-.38,.21-.12,.43-.21,.67-.27,.24-.06,.46-.09,.68-.07l-1.2-.69,1.16-.67,2.21,1.28c.08,.04,.15,.07,.21,.06,.06,0,.14-.02,.22-.07l.68,.39c-.17,.13-.32,.23-.45,.31-.4,.23-.73,.3-1,.22l-.11-.03c.03,.14-.02,.29-.15,.43-.12,.14-.29,.28-.5,.4Zm-.36-.58c.21-.12,.32-.27,.32-.45l-.4-.23c-.16-.02-.32-.02-.49,0-.17,.03-.32,.08-.44,.15-.09,.05-.15,.1-.2,.16-.05,.06-.07,.11-.08,.17,0,.06,0,.11,.03,.16,.03,.05,.08,.1,.15,.14,.14,.08,.31,.11,.51,.1,.2-.02,.4-.08,.59-.19Z"/><path class="cv" d="M74.62,14.42l-.68-.39,1.16-.67,.68,.39-1.16,.67Zm2.42,1.4l-2.24-1.29,1.16-.67,2.24,1.29-1.16,.67Z"/><path class="cv" d="M80.32,13.79c-.11,.12-.25,.25-.4,.37-.15,.13-.32,.24-.5,.34-.13,.08-.27,.14-.41,.2-.14,.06-.28,.09-.42,.11-.14,.02-.27,.02-.41,0-.13-.02-.26-.06-.38-.13l-1.02-.59-.4,.23-.61-.35,.4-.23-.7-.41,1.16-.67,.7,.41,.63-.36,.61,.35-.63,.36,.74,.43c.07,.04,.15,.06,.22,.05,.07,0,.15-.04,.23-.08,.06-.03,.12-.07,.18-.12,.06-.05,.12-.1,.17-.16l.85,.25Z"/><path class="cv" d="M79.23,12.79c-.18-.11-.32-.24-.39-.4-.08-.16-.09-.34-.04-.53,.05-.19,.17-.39,.35-.6,.19-.21,.45-.41,.8-.62,.42-.24,.84-.42,1.27-.53,.43-.11,.82-.15,1.17-.12l-.46,.79c-.11-.02-.23-.02-.34-.01-.12,.01-.23,.03-.34,.06-.11,.03-.21,.07-.31,.11-.1,.04-.19,.09-.27,.14-.17,.1-.3,.2-.37,.3-.08,.1-.12,.19-.12,.28,0,.09,.02,.17,.08,.25s.13,.14,.22,.2c.1,.06,.23,.11,.37,.13,.14,.03,.29,.04,.45,.03,.16,0,.32-.03,.49-.08,.17-.05,.33-.11,.48-.2,.08-.05,.16-.1,.23-.16,.07-.06,.13-.12,.18-.18,.05-.06,.08-.13,.1-.19,.02-.06,0-.13-.02-.19l1.38-.33c.05,.1,.05,.22,0,.34-.04,.13-.12,.26-.23,.39-.11,.13-.25,.26-.41,.39-.16,.13-.33,.25-.52,.35-.32,.19-.66,.33-1.02,.43-.36,.1-.71,.17-1.05,.19-.34,.03-.66,.02-.95-.03-.29-.05-.54-.13-.73-.24Z"/><path class="cv" d="M85.53,10.98c-.16,.09-.33,.17-.5,.23-.17,.06-.34,.1-.51,.12-.16,.02-.32,.02-.46,0-.15-.02-.27-.06-.37-.11-.11-.07-.18-.15-.21-.24-.02-.09,0-.2,.05-.31,.05-.11,.15-.22,.28-.34,.13-.12,.3-.24,.5-.36,.26-.15,.5-.26,.73-.32l-.07-.04c-.1-.06-.23-.08-.37-.06-.14,.02-.31,.09-.5,.2-.18,.11-.33,.22-.45,.33-.11,.11-.22,.24-.31,.39l-.84-.1c.23-.35,.62-.69,1.16-1,.51-.3,.99-.48,1.42-.55,.44-.07,.81-.01,1.13,.17l.43,.25c.08,.04,.15,.07,.21,.06,.06,0,.14-.02,.22-.07l.68,.39c-.08,.06-.16,.12-.23,.17-.08,.05-.15,.1-.21,.14-.21,.12-.39,.2-.55,.23-.16,.03-.31,.03-.44-.01l-.11-.03c-.02,.16-.08,.31-.2,.45-.12,.15-.29,.28-.5,.4Zm-.23-.54c.07-.04,.13-.09,.19-.14,.06-.05,.1-.1,.13-.15,.02-.04,.03-.07,.04-.11,0-.03-.01-.06-.04-.07l-.17-.1c-.09,.03-.18,.07-.27,.11-.09,.04-.17,.08-.24,.12-.14,.08-.24,.16-.28,.25-.05,.08-.03,.14,.04,.19,.06,.04,.15,.05,.26,.03,.11-.02,.22-.06,.33-.12Z"/><path class="cv" d="M88.22,7.58c-.22,.13-.41,.26-.56,.38-.15,.13-.23,.24-.24,.33l1.33,.77-1.16,.67-2.24-1.29,1.06-.61,.43,.25c-.04-.15-.01-.3,.08-.45,.09-.14,.23-.27,.43-.39,.08-.04,.13-.07,.15-.08l.73,.42Z"/><path class="cv" d="M90.91,7.87c-.22,.13-.45,.23-.69,.3-.24,.07-.48,.12-.72,.14-.24,.02-.47,0-.68-.03-.22-.04-.41-.11-.58-.21-.16-.09-.28-.2-.35-.32-.07-.12-.1-.25-.08-.38,.02-.13,.09-.26,.2-.4,.11-.13,.27-.26,.48-.38,.21-.12,.43-.21,.67-.27,.24-.06,.46-.09,.68-.07l-1.2-.69,1.16-.67,2.21,1.28c.08,.04,.15,.07,.21,.06,.06,0,.14-.02,.22-.07l.68,.39c-.17,.13-.32,.23-.45,.31-.4,.23-.73,.3-1,.22l-.11-.03c.03,.14-.02,.29-.15,.43-.12,.14-.29,.28-.51,.4Zm-.36-.58c.21-.12,.32-.27,.32-.45l-.4-.23c-.16-.02-.32-.02-.49,0s-.32,.08-.44,.15c-.09,.05-.15,.1-.2,.16-.05,.06-.07,.11-.08,.17,0,.06,0,.11,.03,.16,.03,.05,.08,.1,.15,.14,.14,.08,.31,.11,.51,.1,.2-.02,.4-.08,.59-.19Z"/></g></g><g><g><g class="bt"><path class="dh" d="M54.07,114.48c2.6,0,4.97-.57,6.83-1.65l95.18-54.79c2.49-1.44,3.92-3.71,3.92-6.24,0-2.77-1.72-5.36-4.72-7.09l-41.05-23.7c-2.36-1.36-5.3-2.11-8.3-2.11-2.6,0-4.97,.57-6.83,1.65L3.92,75.34c-2.49,1.44-3.92,3.71-3.92,6.24,0,2.77,1.72,5.36,4.72,7.09l41.05,23.7c2.36,1.36,5.3,2.11,8.3,2.11Z"/><path class="ff" d="M99.1,20.81L3.92,75.6c-2.39,1.38-3.75,3.55-3.74,5.95,.01,2.63,1.66,5.09,4.54,6.75l39.23,22.65c.06,.04,1.96,1.12,2.04,1.15,2.42,1.32,5.42,1.99,8.35,1.87,2.37,0,5.04-.82,6.73-1.8l94.66-54.48c2.39-1.38,3.75-3.55,3.74-5.95-.01-2.63-1.66-5.09-4.54-6.75l-40.81-23.56c-.84-.49-2.02-1.02-3-1.34-1.64-.53-3.42-.84-5.22-.86-2.58-.02-4.95,.52-6.8,1.59Z"/><path class="cg" d="M99.1,21.07L3.92,75.86c-2.29,1.32-3.58,3.39-3.56,5.66,.02,2.48,1.6,4.82,4.36,6.41l39.41,22.75c.13,.07,1.91,1.08,2.06,1.13,2.48,1.28,5.54,1.87,8.4,1.63,2.13,0,5.11-1.07,6.63-1.95l94.13-54.18c2.29-1.32,3.58-3.39,3.56-5.66-.02-2.48-1.6-4.82-4.36-6.41l-40.57-23.42c-.76-.44-2.09-1.06-2.96-1.36-1.62-.54-3.38-.88-5.17-.92-2.56-.05-4.93,.48-6.76,1.53Z"/><path class="es" d="M99.1,21.33L3.92,76.12c-2.19,1.27-3.4,3.22-3.37,5.37,.03,2.34,1.53,4.55,4.17,6.08l39.59,22.86c.19,.11,1.86,1.04,2.09,1.11,2.54,1.24,5.66,1.75,8.45,1.39,1.89,0,5.18-1.32,6.54-2.1l93.61-53.88c2.19-1.27,3.4-3.22,3.37-5.37-.03-2.34-1.53-4.55-4.17-6.08l-40.33-23.28c-.68-.39-2.15-1.11-2.93-1.38-1.6-.55-3.34-.93-5.12-.98-2.54-.07-4.91,.43-6.72,1.48Z"/><path class="dj" d="M99.1,21.59L3.92,76.38c-2.09,1.21-3.23,3.06-3.19,5.08,.04,2.2,1.47,4.29,3.99,5.74l39.77,22.96c.25,.15,1.82,1,2.11,1.1,2.6,1.2,5.78,1.63,8.5,1.15,1.66,0,5.25-1.57,6.44-2.25l93.09-53.58c2.09-1.21,3.23-3.06,3.19-5.08-.04-2.2-1.47-4.29-3.99-5.74l-40.08-23.14c-.59-.34-2.22-1.16-2.9-1.4-1.58-.56-3.3-.97-5.07-1.04-2.52-.1-4.89,.38-6.69,1.42Z"/><path class="cp" d="M99.1,21.85L3.92,76.64c-1.99,1.15-3.06,2.89-3.01,4.79,.05,2.05,1.41,4.02,3.81,5.4l39.96,23.07c.32,.18,1.77,.97,2.14,1.08,2.66,1.16,5.9,1.51,8.55,.91,1.42,0,5.32-1.81,6.34-2.4l92.57-53.28c1.99-1.15,3.06-2.89,3.01-4.79-.05-2.05-1.41-4.02-3.81-5.4l-39.84-23c-.51-.29-2.29-1.21-2.87-1.42-1.56-.57-3.26-1.02-5.01-1.11-2.49-.12-4.87,.34-6.65,1.36Z"/><path class="fa" d="M99.1,22.11L3.92,76.9c-1.9,1.09-2.89,2.73-2.83,4.5,.06,1.91,1.35,3.75,3.63,5.07l40.14,23.18c.38,.22,1.72,.93,2.16,1.06,2.72,1.13,6.01,1.39,8.6,.68,1.18,0,5.39-2.06,6.24-2.55l92.04-52.98c1.9-1.09,2.89-2.73,2.83-4.5-.06-1.91-1.35-3.75-3.63-5.07l-39.6-22.86c-.42-.24-2.35-1.26-2.83-1.44-1.54-.58-3.22-1.06-4.96-1.17-2.47-.15-4.86,.29-6.61,1.31Z"/><path class="dn" d="M99.09,22.37L3.92,77.16c-1.8,1.04-2.71,2.57-2.64,4.21,.07,1.76,1.28,3.48,3.44,4.73l40.32,23.28c.44,.26,1.67,.89,2.19,1.05,2.78,1.09,6.13,1.26,8.65,.44,.95,0,5.46-2.31,6.14-2.7l91.52-52.68c1.8-1.04,2.72-2.57,2.64-4.21-.07-1.76-1.28-3.48-3.44-4.73l-39.36-22.72c-.34-.19-2.42-1.31-2.8-1.46-1.52-.59-3.19-1.11-4.91-1.23-2.45-.17-4.84,.24-6.58,1.25Z"/><path class="ef" d="M99.09,22.63L3.92,77.42c-1.7,.98-2.54,2.4-2.46,3.92,.08,1.62,1.22,3.22,3.26,4.4l40.51,23.39c.51,.29,1.62,.85,2.21,1.03,2.85,1.05,6.25,1.14,8.71,.2,.71,0,5.53-2.56,6.04-2.86l91-52.38c1.7-.98,2.54-2.4,2.46-3.92-.08-1.62-1.22-3.22-3.26-4.4l-39.11-22.58c-.25-.15-2.48-1.36-2.77-1.48-1.5-.6-3.15-1.15-4.86-1.3-2.43-.2-4.82,.2-6.54,1.19Z"/><path class="eg" d="M99.09,22.89L3.91,77.68c-1.6,.92-2.37,2.24-2.28,3.63,.09,1.48,1.16,2.95,3.08,4.06l40.69,23.49c.57,.33,1.57,.81,2.24,1.01,2.91,1.01,6.37,1.02,8.76-.04,.47,0,5.61-2.81,5.94-3.01l90.48-52.08c1.6-.92,2.37-2.24,2.28-3.63-.09-1.48-1.16-2.95-3.08-4.06l-38.87-22.44c-.17-.1-2.55-1.42-2.74-1.5-1.48-.61-3.11-1.2-4.81-1.36-2.41-.22-4.8,.15-6.51,1.13Z"/><path class="de" d="M99.09,23.15L3.91,77.94c-1.5,.86-2.2,2.07-2.1,3.34,.1,1.33,1.1,2.68,2.9,3.72l40.87,23.6c.63,.37,1.52,.77,2.26,1,2.97,.97,6.49,.9,8.81-.28,.24,0,5.68-3.06,5.85-3.16l89.95-51.78c1.5-.86,2.2-2.07,2.1-3.34-.1-1.33-1.1-2.68-2.9-3.72l-38.63-22.3c-.08-.05-2.61-1.48-2.7-1.52-1.47-.62-3.07-1.24-4.76-1.42-2.39-.25-4.78,.1-6.47,1.08Z"/><path d="M56.91,108.8l95.18-54.78c2.86-1.65,2.5-4.53-.8-6.43l-41.06-23.7c-3.3-1.9-8.29-2.11-11.15-.46L3.91,78.2c-2.86,1.65-2.5,4.53,.8,6.43l41.06,23.7c3.3,1.9,8.29,2.11,11.15,.46Z"/></g><path class="ev" d="M43.43,109.49L5.05,87.33c-4.33-2.5-3.79-6.87,1.21-9.75L96.51,25.47c5-2.89,12.56-3.2,16.89-.7l38.38,22.16c4.33,2.5,3.79,6.87-1.21,9.75L60.32,108.79c-5,2.89-12.56,3.2-16.89,.7Z"/><path class="ei" d="M43.43,108.83L5.05,86.67c-1.93-1.12-2.9-2.61-2.92-4.17,0-.14,0-3.15,.01-3.29,.16-1.81,1.55-.81,4.12-2.3L96.51,24.81c5-2.89,12.56-3.2,16.89-.7l38.38,22.16c1.93,1.12,2.89-.85,2.92,.71,0,.14,0,3.73-.01,3.86-.16,1.81-1.55,3.69-4.12,5.18L60.32,108.13c-5,2.89-12.56,3.2-16.89,.7Z"/><path class="ed" d="M43.43,105.54L5.05,83.38c-4.33-2.5-3.79-6.87,1.21-9.75L96.51,21.52c5-2.89,12.56-3.2,16.89-.7l38.38,22.16c4.33,2.5,3.79,6.87-1.21,9.75L60.32,104.84c-5,2.89-12.56,3.2-16.89,.7Z"/><path class="cr" d="M5.05,82.95l38.38,22.16c4.33,2.5,11.89,2.19,16.89-.7l90.25-52.11c2.63-1.52,4.03-3.45,4.13-5.3,.11,1.98-1.29,4.09-4.13,5.73L60.32,104.84c-5,2.89-12.56,3.2-16.89,.7L5.05,83.38c-2.05-1.18-3.01-2.79-2.92-4.45,.08,1.51,1.04,2.94,2.92,4.02Z"/><path class="bs" d="M7.27,74.28L97.64,22.11c4.38-2.53,11.01-2.81,14.81-.61l38.18,22.04c3.8,2.19,3.32,6.02-1.06,8.55L59.2,104.26c-4.38,2.53-11.01,2.81-14.81,.61L6.21,82.83c-3.8-2.19-3.32-6.02,1.06-8.55Z"/><path class="dr" d="M9.03,75.03L98.94,23.12c3.67-2.12,9.22-2.35,12.39-.51l37.36,21.57c3.18,1.83,2.78,5.04-.89,7.16L57.89,103.24c-3.67,2.12-9.22,2.35-12.39,.51L8.14,82.19c-3.18-1.83-2.78-5.04,.89-7.16Z"/><path class="ey" d="M111.01,23.29c-2.99-1.73-7.83-1.74-10.81-.02L9.29,75.76c-2.98,1.72-2.96,4.51,.03,6.24l36.5,21.07c2.99,1.73,7.83,1.74,10.81,.02l90.91-52.48c2.98-1.72,2.96-4.51-.03-6.24l-36.5-21.07Z"/><path class="fg" d="M51.26,103.63c1.9,0,3.68-.42,5-1.18l90.91-52.48c1.19-.69,1.85-1.56,1.85-2.46s-.67-1.8-1.89-2.5l-36.5-21.07c-1.34-.78-3.14-1.2-5.07-1.2s-3.68,.42-5,1.18L9.66,76.4c-1.19,.69-1.85,1.56-1.85,2.46s.67,1.8,1.89,2.5l36.5,21.07c1.34,.78,3.14,1.2,5.07,1.2Z"/><path class="dp" d="M133.53,65.46l4.18-2.42c.52-.3,.95-1.11,.95-1.81h0c0-.7-.42-1.02-.95-.71l-4.18,2.42c-.52,.3-.95,1.11-.95,1.81h0c0,.7,.42,1.02,.95,.71Z"/><path class="en" d="M133.53,65.46l4.18-2.42c.52-.3,.95-1.11,.95-1.81h0c0-.7-.42-1.02-.95-.71l-4.18,2.42c-.52,.3-.95,1.11-.95,1.81h0c0,.7,.42,1.02,.95,.71Z"/><path class="cw" d="M133.15,65.32c.07,0,.16-.03,.25-.08l4.18-2.42c.45-.26,.82-.99,.82-1.59,0-.27-.08-.58-.32-.58-.07,0-.16,.03-.25,.08l-4.18,2.42c-.45,.26-.82,.99-.82,1.59,0,.27,.08,.58,.32,.58Z"/><path class="er" d="M126.06,69.77l4.18-2.42c.52-.3,.95-1.11,.95-1.81h0c0-.7-.42-1.02-.95-.71l-4.18,2.42c-.52,.3-.95,1.11-.95,1.81h0c0,.7,.42,1.02,.95,.71Z"/><path class="cq" d="M126.06,69.77l4.18-2.42c.52-.3,.95-1.11,.95-1.81h0c0-.7-.42-1.02-.95-.71l-4.18,2.42c-.52,.3-.95,1.11-.95,1.81h0c0,.7,.42,1.02,.95,.71Z"/><path class="dy" d="M125.68,69.63c.07,0,.16-.03,.25-.08l4.18-2.42c.45-.26,.82-.99,.82-1.59,0-.27-.08-.58-.32-.58-.07,0-.16,.03-.25,.08l-4.18,2.42c-.45,.26-.82,.99-.82,1.59,0,.27,.08,.58,.32,.58Z"/><path class="ec" d="M20.73,95.46l6.87,3.97h0c0-1.26-.76-2.71-1.7-3.26l-3.46-2c-.94-.54-1.7,.03-1.7,1.29h0Z"/><path class="cn" d="M21.79,93.97c-.33,.23-.53,.69-.53,1.34l6.31,3.64c.02,.16,.03,.32,.03,.48l-6.87-3.97c0-.95,.44-1.51,1.06-1.49Z"/></g><g><g><path class="fi" d="M33.31,72.69l-1.6-.92-2.94,1.7-1.52-.88,2.94-1.7-1.61-.93,.93-.53,4.73,2.73-.92,.53Z"/><path class="bu" d="M34.72,74.61c-.29-.16-.57-.3-.85-.41-.28-.11-.53-.17-.74-.18l-1.7,.98-1.49-.86,2.86-1.65,1.36,.79-.54,.31c.34-.03,.67,0,.99,.06,.32,.07,.6,.17,.85,.31,.1,.06,.16,.09,.18,.11l-.93,.54Z"/><path class="bv" d="M33.53,76.27c-.2-.12-.37-.24-.5-.37-.13-.13-.22-.25-.26-.38-.05-.12-.05-.23-.01-.34,.04-.11,.12-.2,.26-.27,.14-.08,.32-.14,.53-.15,.21-.02,.44,0,.68,.03,.24,.04,.5,.11,.76,.21,.26,.1,.53,.22,.79,.37,.33,.19,.57,.37,.72,.54l.09-.05c.13-.08,.18-.17,.13-.27s-.2-.23-.44-.37c-.24-.14-.48-.25-.73-.33-.25-.08-.54-.16-.86-.23l.21-.62c.79,.17,1.52,.46,2.22,.86,.66,.38,1.06,.73,1.21,1.05,.15,.32,.02,.6-.38,.84l-.56,.32c-.1,.06-.15,.11-.14,.15,0,.05,.05,.1,.15,.17l-.87,.5c-.14-.06-.26-.12-.38-.17-.12-.06-.22-.11-.3-.16-.27-.15-.44-.29-.51-.41-.07-.12-.06-.23,.03-.33l.07-.08c-.35-.01-.68-.06-1.01-.15-.32-.09-.62-.21-.89-.37Zm1.19-.17c.09,.05,.19,.1,.3,.14,.11,.04,.22,.08,.33,.1,.09,.02,.16,.03,.24,.03,.07,0,.12,0,.16-.03l.21-.12c-.07-.06-.15-.13-.24-.2-.09-.07-.17-.13-.26-.18-.18-.11-.36-.17-.55-.21-.18-.03-.32-.02-.41,.03-.08,.05-.1,.11-.06,.19,.04,.08,.13,.16,.27,.24Z"/><path class="et" d="M40.41,80.19l-1.49-.86,1.61-.93c.14-.08,.2-.17,.17-.26-.03-.09-.1-.17-.22-.24-.12-.07-.3-.13-.51-.16-.22-.04-.42-.04-.61-.01l-1.61,.93-1.49-.86,2.86-1.65,1.34,.77-.42,.25c.3,0,.62,.04,.97,.15,.35,.1,.7,.26,1.06,.47,.28,.16,.47,.31,.56,.45,.09,.14,.13,.26,.11,.37-.02,.11-.07,.21-.17,.29-.09,.08-.19,.16-.29,.21l-1.88,1.09Z"/><path class="ew" d="M41.99,81.16c-.36-.21-.67-.43-.93-.68-.26-.25-.44-.48-.52-.71l1.13-.06c.14,.22,.29,.41,.46,.59,.17,.17,.36,.32,.56,.43,.21,.12,.36,.15,.45,.1,.05-.03,.05-.08,0-.14-.04-.07-.16-.18-.35-.35-.23-.2-.42-.38-.56-.52-.14-.15-.24-.27-.3-.38-.06-.11-.07-.2-.05-.28,.03-.08,.1-.15,.21-.21,.15-.08,.32-.14,.53-.16,.21-.02,.43-.02,.67,.02,.24,.03,.49,.1,.74,.19,.26,.09,.51,.21,.75,.35,.3,.17,.56,.36,.78,.55,.22,.19,.39,.41,.49,.67l-1.18,.03c-.14-.21-.27-.39-.39-.51-.12-.13-.26-.23-.41-.32-.09-.05-.17-.09-.25-.11-.08-.02-.15-.01-.2,.01-.05,.03-.06,.08,0,.15,.05,.07,.17,.18,.38,.35,.24,.2,.44,.38,.58,.53,.14,.15,.24,.28,.29,.4,.05,.11,.06,.21,.02,.29-.04,.08-.11,.16-.23,.22-.15,.09-.32,.14-.51,.16-.2,.02-.41,.01-.64-.02-.23-.04-.47-.1-.73-.2-.26-.1-.52-.22-.78-.38Z"/><path class="cy" d="M44.65,82.69c-.2-.12-.37-.24-.5-.37-.13-.13-.22-.25-.27-.38-.05-.12-.05-.23,0-.34,.04-.11,.12-.2,.25-.27,.15-.08,.32-.14,.53-.15,.21-.02,.44,0,.68,.03,.24,.04,.5,.11,.76,.21,.26,.1,.53,.22,.79,.37,.34,.19,.57,.37,.72,.54l.09-.05c.13-.08,.18-.17,.13-.27-.05-.1-.2-.23-.45-.37-.24-.14-.48-.25-.73-.33-.25-.08-.54-.16-.86-.23l.21-.62c.79,.17,1.53,.46,2.22,.86,.66,.38,1.06,.73,1.21,1.05,.15,.32,.02,.6-.38,.84l-.55,.32c-.1,.06-.15,.11-.14,.15,0,.05,.05,.1,.15,.17l-.87,.5c-.14-.06-.26-.12-.38-.17-.12-.06-.22-.11-.3-.16-.27-.15-.44-.29-.5-.41-.07-.12-.06-.23,.03-.33l.07-.08c-.34-.01-.68-.06-1.01-.15s-.62-.21-.9-.37Zm1.19-.17c.09,.05,.19,.1,.3,.14,.11,.04,.22,.08,.33,.1,.09,.02,.16,.03,.24,.03,.07,0,.12,0,.16-.03l.21-.12c-.07-.06-.15-.13-.24-.2-.09-.07-.18-.13-.26-.18-.18-.11-.36-.17-.55-.21-.18-.03-.32-.02-.41,.03-.08,.05-.1,.11-.06,.19,.04,.08,.13,.16,.27,.24Z"/><path class="cc" d="M48.6,83.26c.2-.11,.43-.19,.71-.24,.28-.05,.58-.05,.91-.02,.33,.03,.67,.1,1.04,.22,.36,.12,.73,.28,1.09,.49,.5,.29,.85,.57,1.04,.85,.19,.28,.26,.53,.19,.76l-1.75-.66c0-.16-.12-.31-.36-.45-.2-.12-.43-.19-.67-.21-.25-.02-.47,.03-.67,.14-.2,.11-.28,.24-.24,.38,.03,.14,.15,.27,.36,.39,.24,.14,.5,.21,.78,.21l1.14,1.01c-.4,.04-.83,0-1.32-.11-.48-.11-.97-.31-1.47-.6-.36-.21-.65-.42-.85-.63-.2-.21-.33-.41-.38-.6-.05-.19-.04-.36,.04-.52,.08-.16,.22-.3,.42-.41Z"/><path class="eb" d="M54.17,87.95c-.27-.09-.54-.18-.82-.3-.28-.11-.53-.24-.76-.37-.17-.1-.31-.2-.43-.3-.12-.1-.21-.21-.25-.31-.05-.1-.05-.2-.01-.3,.04-.1,.14-.19,.29-.28l1.31-.76-.51-.29,.78-.45,.51,.29,.9-.52,1.49,.86-.9,.52,.81,.47-.78,.45-.81-.47-.95,.55c-.1,.05-.13,.11-.11,.16,.02,.05,.08,.11,.18,.17,.07,.04,.17,.09,.27,.13,.11,.05,.23,.09,.35,.12l-.55,.62Z"/><path class="cx" d="M53.65,87.83l2.86-1.65,1.49,.86-2.86,1.65-1.49-.86Zm3.1-1.79l.87-.5,1.49,.86-.87,.5-1.49-.86Z"/><path class="ct" d="M57.08,89.87c-.37-.21-.65-.42-.85-.63-.2-.21-.32-.41-.38-.59-.05-.19-.04-.36,.04-.52,.09-.16,.22-.3,.42-.41,.2-.11,.43-.19,.71-.24,.28-.05,.58-.06,.9-.02s.67,.1,1.03,.22c.36,.11,.73,.28,1.1,.49,.37,.21,.65,.42,.85,.63,.2,.21,.33,.41,.38,.6,.06,.19,.04,.36-.04,.52-.08,.16-.22,.3-.42,.41-.2,.11-.43,.19-.71,.24-.28,.05-.58,.06-.9,.02-.32-.03-.67-.11-1.03-.22-.36-.12-.73-.28-1.09-.49Zm.76-1.28c-.19,.11-.27,.24-.25,.38,.03,.14,.15,.27,.36,.4,.21,.12,.44,.19,.69,.21,.24,.01,.46-.03,.65-.14,.19-.11,.27-.24,.25-.38-.03-.14-.15-.27-.36-.4-.21-.12-.44-.19-.69-.21-.25-.02-.46,.03-.66,.14Z"/><path class="dl" d="M63.27,93.38l-1.49-.86,1.61-.93c.14-.08,.2-.17,.17-.26-.03-.09-.1-.17-.22-.24-.12-.07-.3-.13-.51-.16-.22-.04-.42-.04-.61-.01l-1.61,.93-1.49-.86,2.86-1.65,1.34,.77-.42,.24c.3,0,.62,.04,.97,.15,.35,.11,.7,.26,1.06,.47,.28,.16,.47,.31,.56,.45,.09,.14,.13,.26,.11,.37-.02,.11-.07,.21-.17,.29-.09,.08-.19,.15-.29,.21l-1.88,1.09Z"/></g><path class="ds" d="M101.76,43.25c-1.05,0-1.89,.49-1.89,1.09s.85,1.1,1.9,1.1c1.05,0,1.89-.49,1.89-1.09s-.85-1.1-1.9-1.1Zm6.03,3.48c-1.05,0-1.89,.49-1.89,1.09,0,.6,.85,1.1,1.9,1.1,1.05,0,1.89-.49,1.89-1.09,0-.6-.85-1.1-1.9-1.1Zm6.56-.4l8.05-3-15.26-8.81,1.47-2.46-5.84-3.37c-.2-.12-.46-.05-.58,.15-.12,.2-.05,.46,.15,.58l5.1,2.94-6.03,10.08,10.2,5.89c.07,.04,.14,.06,.21,.06,.15,0,.29-.08,.37-.21,.12-.2,.05-.46-.15-.58l-9.46-5.46,1.16-1.94,10.61,6.13Zm5.27,.1l6.9,3.98,1.58-.91-6.56-3.79-1.92,.71Zm4.94-1.84l-1.91,.71,9.01,5.2,1.58-.91-8.68-5Zm-7.98,2.97l4.79,2.77,1.58-.91-4.45-2.57-1.92,.71Z"/><path class="ej" d="M55.38,97.84l-36.37-21c-.89-.51-.78-1.41,.25-2h0c1.03-.59,2.58-.66,3.46-.14l36.37,21c.89,.51,.78,1.41-.25,2h0c-1.03,.59-2.58,.66-3.46,.14Z"/><polygon class="fe" points="19.73 75.91 21.12 75.11 48.56 90.95 47.17 91.76 19.73 75.91"/></g><g><g><g><path class="dh" d="M110.26,66.49c-7.2-4.09-12.03-9.36-13.82-15.09l-.08-.05c-9.92-1.03-19.05-3.82-26.13-7.98l-.27-.16-3.87,2.68c-13.62,9.43-15.89,18.88-14.07,30.95l.28,.16c20.89,1.05,37.27-.26,53.6-8.12l4.65-2.24-.28-.16Z"/><path class="dx" d="M110.2,66.49c-7.18-4.07-11.99-9.33-13.77-15.03l-.08-.05c-9.88-1.03-18.98-3.81-26.04-7.95l-.27-.16-3.86,2.67c-13.57,9.39-15.83,18.82-14.02,30.84l.28,.16c20.82,1.05,37.14-.26,53.41-8.1l4.63-2.23-.27-.16Z"/><path class="eu" d="M110.15,66.49c-7.15-4.06-11.95-9.29-13.72-14.98l-.08-.05c-9.85-1.02-18.92-3.79-25.94-7.92l-.27-.16-3.85,2.66c-13.52,9.36-15.77,18.75-13.97,30.72l.27,.16c20.74,1.04,37-.26,53.22-8.07l4.61-2.22-.27-.16Z"/><path class="dk" d="M110.09,66.49c-7.13-4.04-11.9-9.26-13.67-14.92l-.08-.05c-9.81-1.02-18.85-3.78-25.85-7.89l-.27-.16-3.83,2.65c-13.47,9.33-15.72,18.68-13.92,30.61l.27,.16c20.67,1.04,36.87-.26,53.02-8.04l4.6-2.21-.27-.15Z"/><path class="bn" d="M110.04,66.49c-7.1-4.03-11.86-9.23-13.62-14.87l-.08-.05c-9.77-1.02-18.78-3.76-25.76-7.86l-.27-.16-3.82,2.64c-13.42,9.29-15.66,18.61-13.87,30.5l.27,.16c20.59,1.03,36.73-.26,52.83-8.01l4.58-2.2-.27-.15Z"/><path class="fb" d="M109.98,66.49c-7.07-4.01-11.82-9.19-13.57-14.82l-.08-.04c-9.74-1.01-18.71-3.75-25.66-7.83l-.27-.16-3.8,2.63c-13.38,9.26-15.6,18.54-13.82,30.39l.27,.16c20.52,1.03,36.6-.26,52.64-7.98l4.56-2.2-.27-.15Z"/><path class="eo" d="M109.92,66.49c-7.05-4-11.77-9.16-13.52-14.76l-.08-.04c-9.7-1.01-18.64-3.74-25.57-7.81l-.26-.16-3.79,2.62c-13.33,9.23-15.55,18.48-13.77,30.28l.27,.16c20.44,1.03,36.47-.26,52.44-7.95l4.55-2.19-.27-.15Z"/><path class="fc" d="M109.87,66.49c-7.02-3.98-11.73-9.13-13.47-14.71l-.08-.04c-9.67-1.01-18.57-3.72-25.47-7.78l-.26-.15-3.78,2.61c-13.28,9.19-15.49,18.41-13.72,30.17l.27,.16c20.37,1.02,36.33-.25,52.25-7.92l4.53-2.18-.27-.15Z"/><path class="ep" d="M109.81,66.49c-7-3.97-11.69-9.09-13.42-14.65l-.08-.04c-9.63-1-18.5-3.71-25.38-7.75l-.26-.15-3.76,2.6c-13.23,9.16-15.43,18.34-13.67,30.06l.27,.15c20.29,1.02,36.2-.25,52.06-7.89l4.51-2.17-.27-.15Z"/><path class="dd" d="M109.76,66.49c-6.97-3.95-11.64-9.06-13.37-14.6l-.08-.04c-9.6-1-18.44-3.7-25.29-7.72l-.26-.15-3.75,2.6c-13.18,9.12-15.37,18.27-13.62,29.94l.27,.15c20.22,1.02,36.06-.25,51.87-7.86l4.5-2.16-.27-.15Z"/><path class="cj" d="M109.7,66.49c-6.94-3.94-11.6-9.02-13.32-14.54l-.08-.04c-9.56-.99-18.37-3.68-25.19-7.69l-.26-.15-3.74,2.59c-13.13,9.09-15.32,18.21-13.57,29.83l.27,.15c20.14,1.01,35.93-.25,51.67-7.83l4.48-2.16-.27-.15Z"/><path class="dt" d="M109.65,66.49c-6.92-3.93-11.56-8.99-13.27-14.49l-.08-.04c-9.53-.99-18.3-3.67-25.1-7.66l-.26-.15-3.72,2.58c-13.08,9.06-15.26,18.14-13.52,29.72l.27,.15c20.07,1.01,35.8-.25,51.48-7.8l4.46-2.15-.26-.15Z"/><path class="eh" d="M109.59,66.49c-6.89-3.91-11.51-8.96-13.22-14.44l-.08-.04c-9.49-.99-18.23-3.65-25-7.63l-.26-.15-3.71,2.57c-13.03,9.02-15.2,18.07-13.46,29.61l.26,.15c19.99,1,35.66-.25,51.29-7.77l4.45-2.14-.26-.15Z"/><path class="el" d="M109.54,66.49c-6.87-3.9-11.47-8.92-13.17-14.38l-.08-.04c-9.45-.98-18.16-3.64-24.91-7.61l-.26-.15-3.69,2.56c-12.98,8.99-15.15,18-13.41,29.5l.26,.15c19.92,1,35.53-.25,51.09-7.74l4.43-2.13-.26-.15Z"/><path class="fh" d="M109.48,66.49c-6.84-3.88-11.43-8.89-13.12-14.33l-.08-.04c-9.42-.98-18.09-3.63-24.82-7.58l-.26-.15-3.68,2.55c-12.93,8.95-15.09,17.93-13.36,29.39l.26,.15c19.84,1,35.39-.25,50.9-7.72l4.41-2.12-.26-.15Z"/><path class="fd" d="M109.43,66.49c-6.82-3.87-11.38-8.86-13.07-14.27l-.07-.04c-9.38-.98-18.02-3.61-24.72-7.55l-.26-.15-3.67,2.54c-12.89,8.92-15.03,17.87-13.31,29.28l.26,.15c19.76,.99,35.26-.25,50.71-7.69l4.39-2.12-.26-.15Z"/><path class="du" d="M109.37,66.49c-6.79-3.85-11.34-8.82-13.02-14.22l-.07-.04c-9.35-.97-17.96-3.6-24.63-7.52l-.25-.15-3.65,2.53c-12.84,8.89-14.97,17.8-13.26,29.17l.26,.15c19.69,.99,35.12-.25,50.52-7.66l4.38-2.11-.26-.15Z"/><path class="dz" d="M109.31,66.49c-6.76-3.84-11.3-8.79-12.97-14.16l-.07-.04c-9.31-.97-17.89-3.59-24.53-7.49l-.25-.15-3.64,2.52c-12.79,8.85-14.92,17.73-13.21,29.05l.26,.15c19.61,.98,34.99-.24,50.32-7.63l4.36-2.1-.26-.15Z"/><path class="eq" d="M109.26,66.49c-6.74-3.82-11.25-8.76-12.92-14.11l-.07-.04c-9.28-.96-17.82-3.57-24.44-7.46l-.25-.15-3.62,2.51c-12.74,8.82-14.86,17.66-13.16,28.94l.26,.15c19.54,.98,34.86-.24,50.13-7.6l4.34-2.09-.26-.15Z"/><path class="dw" d="M109.2,66.49c-6.71-3.81-11.21-8.72-12.87-14.06l-.07-.04c-9.24-.96-17.75-3.56-24.35-7.43l-.25-.15-3.61,2.5c-12.69,8.78-14.8,17.59-13.11,28.83l.26,.15c19.46,.98,34.72-.24,49.94-7.57l4.33-2.08-.26-.15Z"/><path class="do" d="M109.15,66.49c-6.69-3.79-11.17-8.69-12.83-14l-.07-.04c-9.2-.96-17.68-3.54-24.25-7.4l-.25-.15-3.6,2.49c-12.64,8.75-14.75,17.53-13.06,28.72l.26,.15c19.39,.97,34.59-.24,49.74-7.54l4.31-2.08-.26-.14Z"/><path class="db" d="M109.09,66.49c-6.66-3.78-11.12-8.65-12.78-13.95l-.07-.04c-9.17-.95-17.61-3.53-24.16-7.38l-.25-.15-3.58,2.48c-12.59,8.72-14.69,17.46-13.01,28.61l.26,.15c19.31,.97,34.45-.24,49.55-7.51l4.29-2.07-.25-.14Z"/></g><path class="ex" d="M107.24,63.02c-6.41-3.64-10.95-6.25-12.54-11.35l-.07-.04c-8.82-.92-16.95-3.4-23.25-7.1l-.24-.14-3.45,2.39c-12.12,8.39-14.13,17.49-12.52,28.22l.25,.8c18.59,.93,33.16-.23,47.68-7.23l4.13-1.99v-3.57Z"/><path class="bw" d="M55.42,74.94l-.25-.8c-.28-1.88-.45-3.72-.48-5.51-.03,2.06,.15,4.18,.48,6.37l.25,.8c18.59,.93,33.16-.23,47.68-7.23l4.13-1.99v-.86l-4.13,1.99c-14.53,7-29.1,8.16-47.68,7.23Z"/><path class="dq" d="M106.99,62.88c-6.41-3.64-10.7-8.33-12.29-13.42l-.07-.04c-8.82-.92-16.95-3.4-23.25-7.1l-.24-.14-3.45,2.39c-12.12,8.39-14.13,16.8-12.52,27.53l.25,.14c18.59,.93,33.16-.23,47.68-7.23l4.13-1.99-.24-.14Z"/><g class="db"><path class="bq" d="M106.98,66.97c.09,.05,.17,.1,.26,.15l-.24-.14h-.01Z"/><path class="bm" d="M55.17,76.2l.25,.14c18.59,.93,33.16-.23,47.68-7.23l4.13-1.99v2.23l-4.13,1.99c-14.53,7-29.1,8.16-47.68,7.23l-.25-.8c-.38-2.54-.56-3.65-.45-6.01,.06,1.44,.22,2.92,.45,4.45Z"/></g><path class="dc" d="M106.98,70.25c.09,.05,.17,.1,.26,.15l-.24-.14h-.01Z"/><path class="co" d="M57.02,55.82c-2.44,4.91-2.66,10.15-1.77,16.09l.25,.14c18.59,.93,33.16-.23,47.68-7.23l3.75-1.8,.23,.13-4.13,1.99c-14.53,7-29.1,8.16-47.68,7.23l-.25-.14c-.91-6.07-.66-11.41,1.92-16.41Z"/><path class="cu" d="M66.09,69.68c13.92,0,24.06-2.02,33.9-6.76l.48-.23c-4.31-3.01-7.35-6.58-8.9-10.49-7.62-.93-14.58-3.06-20.25-6.19l-2.13,1.48c-10.16,7.04-11.93,13.73-10.96,22.01,2.84,.12,5.43,.19,7.87,.19Z"/><path class="bz" d="M99.86,62.98c-3.99-2.92-6.81-6.33-8.29-10.05-7.62-.93-14.58-3.06-20.25-6.19l-2.13,1.48c-8.46,5.85-11.1,11.47-11.19,17.97-.1-6.81,2.42-12.63,11.19-18.7l2.13-1.48c5.67,3.14,12.62,5.27,20.25,6.19,1.56,3.9,4.59,7.47,8.9,10.49l-.48,.23s-.09,.04-.13,.06Z"/><path class="cl" d="M61.68,72.95c.02,1.38,2.73,4.02,6.01,3.97s5.9-2.76,5.88-4.14c-.02-1.38-2.7-2.47-5.98-2.42-3.28,.05-5.93,1.21-5.91,2.59Z"/><path class="ck" d="M72.5,46.18c-.34,1.16,1.93,2.86,5.08,3.79,3.15,.93,5.98,.74,6.32-.42,.34-1.16-1.93-2.86-5.08-3.79-3.15-.93-5.98-.74-6.32,.42Z"/><path class="cs" d="M69.19,47.49l2.13-1.48c5.67,3.14,12.62,5.27,20.25,6.19,1.52,3.81,4.46,7.3,8.61,10.27l.29-.14c-4.31-3.01-7.35-6.58-8.9-10.49-7.62-.93-14.57-3.06-20.25-6.19l-2.13,1.48c-8.77,6.07-11.29,11.89-11.19,18.7,0-.04,0-.09,0-.13,.03-6.6,2.62-12.29,11.18-18.21Z"/></g><path class="cb" d="M79.22,60.39c1.47-.85,1.46-2.22-.02-3.07s-3.86-.86-5.32,0c-1.06,.61-1.35,1.5-.86,2.27l-4.26,2.46,2.27,1.31,4.26-2.46c1.33,.28,2.87,.11,3.93-.5Z"/><path class="by" d="M79.2,58.82c-1.47-.85-3.86-.86-5.32,0-1.06,.61-1.35,1.5-.86,2.27l-2.96,1.71-1.3-.75,4.26-2.46c-.48-.77-.2-1.66,.86-2.27,1.47-.85,3.85-.84,5.32,0,1.08,.62,1.36,1.53,.87,2.3-.18-.29-.47-.56-.87-.79Z"/><g class="cm"><path class="ca" d="M72.85,59.3c.04,.09,.08,.18,.14,.27l-4.04,2.34-.31-.18,4.21-2.43Z"/><path class="bx" d="M79.17,57.32c-1.47-.85-3.86-.86-5.32,0-.83,.48-1.17,1.12-1.07,1.75-.3-.71,.01-1.49,.97-2.05,1.47-.85,3.85-.84,5.32,0,.64,.37,.98,.83,1.07,1.31-.16-.37-.48-.72-.98-1.01Z"/></g></g></g></g></g></g></g></svg>