<?xml version="1.0" encoding="UTF-8"?>
<svg width="82px" height="83px" viewBox="0 0 82 83" version="1.1" xmlns="http://www.w3.org/2000/svg" xmlns:xlink="http://www.w3.org/1999/xlink">
    <title>Group 8 Copy</title>
    <g id="Page-1" stroke="none" stroke-width="1" fill="none" fill-rule="evenodd">
        <g id="Group-8-Copy">
            <g id="Group-2" transform="translate(15.000000, 14.000000)" fill-rule="nonzero">
                <g id="grafana_icon-(1)">
                    <g id="Group">
                        <polygon id="Path" fill="#CC8E58" points="50.557469 0.807909605 47.9179225 0.124293785 44.1538353 2.09745763 37.8126761 7.08474576 37.8126761 7.08474576 34.6108592 6.15254237 31.1435259 5.56214689 25.9269072 6.15254237 20.7102885 5.56214689 17.2429551 6.15254237 14.0411383 7.08474576 14.0411383 7.08474576 7.69997906 2.09745763 3.93589194 0.124293785 1.29634536 0.807909605 0 2.75 0 7.4420904 0 10.1610169 0.921498509 13.2528249 1.01521022 16.3446328 3.06124928 20.3997175 3.20181685 24.6723164 2.26469972 29.4887006 1.81175978 35.3771186 4.12331536 39.1214689 7.7312163 42.1822034 8.52776586 42.8502825 11.4015917 48.8008475 15.8685167 51.9548023 15.8685167 51.9548023 17.5240903 53.1355932 25.9269072 54.8757062 25.9269072 54.8757062 25.9269072 54.8757062 25.9269072 54.8757062 25.9269072 54.8757062 34.3297241 53.1355932 35.9852977 51.9548023 40.4522227 48.8008475 43.3260485 42.8502825 44.1225981 42.1822034 47.730499 39.1214689 50.0420546 35.3771186 49.5891147 29.4887006 48.6519975 24.6723164 48.7925651 20.3997175 50.8386042 16.3446328 50.9323159 13.2528249 51.8538144 10.1610169 51.8538144 7.4420904 51.8538144 2.75"></polygon>
                        <polygon id="Path" fill="#CC8E58" points="36.6568983 17.3079096 34.2047752 16.9039548 33.1739463 12.7090395 25.9269072 20.6793785 20.7102885 14.9463277 20.7102885 14.9463277 18.6798681 12.7090395 17.6490392 16.9039548 15.1969161 17.3079096 13.2602074 19.3432203 14.2910362 22.2485876 14.8689251 20.6949153 17.617802 19.7316384 19.4920363 22.3262712 19.5388921 24.1285311 19.5388921 24.1285311 17.5240903 30.6850282 16.5244987 35.8432203 21.7723546 30.3742938 24.5056129 29.4887006 25.9269072 20.6793785 27.3482015 29.4887006 30.0814598 30.3742938 35.3293157 35.8432203 34.3297241 30.6850282 32.3149223 24.1285311 32.3149223 24.1285311 32.3617781 22.3262712 34.2360124 19.7316384 36.9848893 20.6949153 37.5627782 22.2485876 38.593607 19.3432203"></polygon>
                        <g id="Path">
                            <polygon fill="#2D2113" points="11.2610241 8.0480226 7.51255564 3.85310734 3.51418923 2.65677966 1.95232735 3.01412429 1.34320122 5.60875706 1.34320122 10.2542373 3.48295199 14.0451977 7.20018326 16.3446328 10.8861773 13.1596045"></polygon>
                            <polygon fill="#2C1800" points="25.9269072 19.7316384 24.9741714 10.5183616 25.9269072 10.6737288"></polygon>
                            <polygon fill="#A8633A" points="17.617802 6.89830508 14.0411383 7.08474576 7.69997906 2.09745763 3.93589194 0.124293785 1.29634536 0.807909605 0 2.75 0 7.4420904 1.34320122 8.42090395 1.34320122 5.60875706 1.95232735 3.01412429 3.51418923 2.65677966 7.51255564 3.85310734 11.2610241 8.0480226 10.8861773 13.1596045 7.20018326 16.3446328 4.77929735 24.1285311 9.3086968 25.8841808 12.9634536 21.9689266 14.2910362 22.2485876 13.2602074 19.3432203 14.58779 17.9449153 15.1969161 17.3079096 17.6490392 16.9039548 18.6798681 12.7090395 21.0695167 12.5225989 23.0843186 10.5183616 24.7711294 12.9731638 25.9269072 20.6793785 25.9269072 8.0480226"></polygon>
                            <polygon fill="#CC8E58" points="4.12331536 39.1214689 3.62351956 33.3262712 6.30992199 27.1115819 9.3086968 25.8841808 4.77929735 24.1285311 16.1965077 8.42090395 10.8861773 13.1596045 7.20018326 16.3446328 3.06124928 20.3997175 2.26469972 29.4887006 1.81175978 35.3771186"></polygon>
                            <polygon fill="#A8633A" points="14.6502644 16.5310734 18.6798681 12.7090395 17.6490392 16.9039548 15.1969161 17.3079096 14.3847479 18.1624294"></polygon>
                            <polygon fill="#EBE8DB" points="17.5240903 43.3785311 14.6502644 40.9081921 12.2293785 32.3474576 13.5413425 27.9194915 12.9634536 24.1285311 17.5240903 30.6850282 20.7102885 29.2556497 24.5056129 29.4887006 24.1932405 31.6483051 21.5536939 32.8912429 20.7102885 34.9731638 21.1319912 36.8064972 21.8973035 37.6610169 20.0230693 42.2754237 17.8676999 42.2754237 16.1965077 40.0381356 16.1965077 41.6539548"></polygon>
                            <polygon fill="#5D2900" points="10.8861773 13.1596045 11.2610241 8.0480226 14.2910362 9.0579096 16.1965077 8.42090395"></polygon>
                            <polygon fill="#5D2900" points="10.4332374 8.68502825 10.8861773 13.1596045 11.2610241 8.0480226 9.16812923 5.76412429"></polygon>
                            <polygon fill="#A8633A" points="3.06124928 20.3997175 1.01521022 16.3446328 0 10.1610169 0 7.4420904 1.34320122 8.42090395 1.34320122 10.2542373 3.48295199 14.0451977 7.20018326 16.3446328"></polygon>
                            <polygon fill="#A8633A" points="14.2910362 22.2485876 14.2910362 20.0423729 18.1019792 18.3022599 17.617802 19.7316384 14.8689251 20.6949153"></polygon>
                            <polygon fill="#D6B795" points="17.7271323 24.6723164 15.4624326 24.019774 14.2910362 22.2485876 12.9634536 21.9689266 12.2293785 22.7457627 12.9634536 24.1285311 13.7131473 25.200565 17.5240903 30.6850282 19.5388921 24.1285311"></polygon>
                            <polygon fill="#DBD5C3" points="20.3666789 47.5268362 19.3202314 43.8757062 17.5240903 43.3785311 14.6502644 40.9081921 13.7912404 37.8940678 10.2145767 42.2754237 8.52776586 42.8502825 11.4015917 48.8008475 15.8685167 51.9548023 19.3202314 50.2146893 22.61576 48.5522599"></polygon>
                        </g>
                        <polygon id="Path" fill="#2D2113" points="40.5927902 8.0480226 44.3412587 3.85310734 48.3396252 2.65677966 49.901487 3.01412429 50.5106132 5.60875706 50.5106132 10.2542373 48.3708624 14.0451977 44.6536311 16.3446328 40.9676371 13.1596045"></polygon>
                        <g transform="translate(32.330541, 19.731638)" id="Path">
                            <polygon fill="#2C1800" points="0.0312372376 4.39689266 0.0312372376 2.59463277 1.90547149 0 4.6543484 0.963276836 5.23223729 2.51694915 4.06084089 4.28813559 1.79614116 4.94067797"></polygon>
                            <g transform="translate(0.624745, 0.000000)">
                                <g>
                                    <path d="M1.76490392,3.12288136 C2.62392796,3.12288136 3.34238442,2.53248588 3.52980785,1.74011299 C3.54542647,1.81779661 3.54542647,1.89548023 3.54542647,1.98870056 C3.54542647,3.01412429 2.76449553,3.83757062 1.79614116,3.83757062 C0.827786796,3.83757062 0.0468558564,3.01412429 0.0468558564,1.98870056 C0.0468558564,1.97316384 0.0468558564,1.95762712 0.0468558564,1.9420904 C0.312372376,2.62570621 0.983972984,3.12288136 1.76490392,3.12288136 Z" fill="#4D2F00"></path>
                                    <path d="M1.76490392,3.12288136 C0.983972984,3.12288136 0.312372376,2.62570621 0.0468558564,1.9420904 C0.078093094,0.947740113 0.843405415,0.139830508 1.79614116,0.139830508 C2.68640243,0.139830508 3.42047752,0.838983051 3.52980785,1.74011299 C3.34238442,2.53248588 2.62392796,3.12288136 1.76490392,3.12288136 Z" fill="#2C1800"></path>
                                </g>
                                <path d="M2.53021624,2.03531073 L3.43609613,1.75564972 C3.43609613,1.75564972 3.09248652,0.823446328 1.73366669,1.02542373 C1.73366669,1.04096045 2.42088591,1.63135593 2.53021624,2.03531073 Z" fill="#ECD9CB"></path>
                            </g>
                        </g>
                        <polygon id="Path" fill="#2C1800" points="25.9269072 19.7316384 26.8796429 10.5183616 25.9269072 10.6737288"></polygon>
                        <polygon id="Path" fill="#262626" points="30.3001205 32.8912429 27.6605739 31.6483051 25.9269072 31.6483051 25.9269072 31.6483051 24.1932405 31.6483051 21.5536939 32.8912429 20.7102885 34.9731638 21.1319912 36.8064972 23.3185979 39.2612994 25.9269072 40.0381356 25.9269072 40.0381356 25.9269072 40.0381356 25.9269072 40.0381356 25.9269072 40.0381356 28.5352165 39.2612994 30.7218232 36.8064972 31.1435259 34.9731638"></polygon>
                        <polygon id="Path" fill="#000000" points="27.082685 36.3559322 28.0041835 36.6666667 29.1911985 36.6666667 30.0658412 35.1285311 28.3790303 33.9322034 25.9269072 33.4194915 25.9269072 33.4194915 25.9269072 33.4194915 25.9269072 33.4194915 25.9269072 33.4194915 23.474784 33.9322034 21.7879732 35.1285311 22.6626159 36.6666667 23.8496309 36.6666667 24.7711294 36.3559322 23.9745798 37.3813559 21.8973035 37.6610169 23.3185979 39.2612994 25.9269072 40.0381356 25.9269072 40.0381356 25.9269072 40.0381356 25.9269072 40.0381356 25.9269072 40.0381356 28.5352165 39.2612994 29.9565108 37.6610169 27.8792345 37.3813559"></polygon>
                        <polygon id="Path" fill="#000000" points="33.9861145 42.2754237 31.8307451 42.2754237 25.9269072 40.9548023 25.9269072 40.9548023 25.9269072 40.9548023 25.9269072 40.9548023 25.9269072 40.9548023 20.0230693 42.2754237 17.8676999 42.2754237 16.1965077 40.0381356 16.1965077 41.6539548 17.5240903 43.3785311 20.0230693 44.0776836 23.3185979 42.5550847 25.9269072 43.3163842 25.9269072 43.3163842 25.9269072 43.3163842 25.9269072 43.3163842 25.9269072 43.3163842 28.5352165 42.5550847 31.8307451 44.0776836 34.3297241 43.3785311 35.6573067 41.6539548 35.6573067 40.0381356"></polygon>
                        <polygon id="Path" fill="#918A85" points="31.8307451 44.0776836 28.5352165 42.5550847 25.9269072 43.3163842 23.3185979 42.5550847 20.0230693 44.0776836 23.3185979 45.8488701 25.9269072 46.3615819 25.9269072 46.3615819 25.9269072 46.3615819 25.9269072 46.3615819 25.9269072 46.3615819 28.5352165 45.8488701"></polygon>
                        <polygon id="Path" fill="#5C524A" points="31.8307451 42.2754237 29.9565108 37.6610169 28.5352165 39.2612994 25.9269072 40.0381356 23.3185979 39.2612994 21.8973035 37.6610169 20.0230693 42.2754237 25.9269072 40.9548023"></polygon>
                        <polygon id="Path" fill="#EBE8DB" points="31.8307451 44.0776836 28.5352165 45.8488701 25.9269072 46.3615819 23.3185979 45.8488701 20.0230693 44.0776836 19.3202314 43.8757062 20.3666789 47.5268362 23.8496309 49.1271186 25.9269072 49.670904 25.9269072 49.670904 25.9269072 49.670904 25.9269072 49.670904 25.9269072 49.670904 28.0041835 49.1271186 31.4871355 47.5268362 32.5335829 43.8757062"></polygon>
                        <polygon id="Path" fill="#A8633A" points="34.2360124 6.89830508 37.8126761 7.08474576 44.1538353 2.09745763 47.9179225 0.124293785 50.557469 0.807909605 51.8538144 2.75 51.8538144 7.4420904 50.5106132 8.42090395 50.5106132 5.60875706 49.901487 3.01412429 48.3396252 2.65677966 44.3412587 3.85310734 40.5927902 8.0480226 40.9676371 13.1596045 44.6536311 16.3446328 47.074517 24.1285311 42.5451176 25.8841808 38.8903608 21.9689266 37.5627782 22.2485876 38.593607 19.3432203 37.2660244 17.9449153 36.6568983 17.3079096 34.2047752 16.9039548 33.1739463 12.7090395 30.7842976 12.5225989 28.7694958 10.5183616 27.082685 12.9731638 25.9269072 20.6793785 25.9269072 8.0480226"></polygon>
                        <polygon id="Path" fill="#CC8E58" points="47.730499 39.1214689 48.2302948 33.3262712 45.5438924 27.1115819 42.5451176 25.8841808 47.074517 24.1285311 35.6573067 8.42090395 40.9676371 13.1596045 44.6536311 16.3446328 48.7925651 20.3997175 49.5891147 29.4887006 50.0420546 35.3771186"></polygon>
                        <polygon id="Path" fill="#A8633A" points="37.8126761 7.08474576 34.6108592 6.15254237 31.1435259 5.56214689 25.9269072 6.15254237 20.7102885 5.56214689 17.2429551 6.15254237 14.0411383 7.08474576 17.617802 6.89830508 25.9269072 8.0480226 25.9269072 8.0480226 25.9269072 8.0480226 25.9269072 8.0480226 25.9269072 8.0480226 34.2360124 6.89830508"></polygon>
                        <polygon id="Path" fill="#A8633A" points="37.20355 16.5310734 33.1739463 12.7090395 34.2047752 16.9039548 36.6568983 17.3079096 37.4690665 18.1624294"></polygon>
                        <polygon id="Path" fill="#EBE8DB" points="34.3297241 43.3785311 37.20355 40.9081921 39.6244359 32.3474576 38.3124719 27.9194915 38.8903608 24.1285311 34.3297241 30.6850282 31.1435259 29.2556497 27.3482015 29.4887006 27.6605739 31.6483051 30.3001205 32.8912429 31.1435259 34.9731638 30.7218232 36.8064972 29.9565108 37.6610169 31.8307451 42.2754237 33.9861145 42.2754237 35.6573067 40.0381356 35.6573067 41.6539548"></polygon>
                        <polygon id="Path" fill="#A8633A" points="25.9269072 20.6793785 33.1739463 12.7090395 30.7842976 12.5225989 28.7694958 10.5183616 29.1443427 8.9180791 25.9269072 8.0480226 25.9269072 8.0480226 25.9269072 8.0480226 25.9269072 8.0480226 25.9269072 8.0480226 22.7094717 8.9180791 23.0843186 10.5183616 21.0695167 12.5225989 18.6798681 12.7090395 25.9269072 20.6793785 25.9269072 20.6793785 25.9269072 20.6793785"></polygon>
                        <polygon id="Path" fill="#5D2900" points="40.9676371 13.1596045 40.5927902 8.0480226 37.5627782 9.0579096 35.6573067 8.42090395"></polygon>
                        <polygon id="Path" fill="#5D2900" points="41.420577 8.68502825 40.9676371 13.1596045 40.5927902 8.0480226 42.6856852 5.76412429"></polygon>
                        <polygon id="Path" fill="#A8633A" points="48.7925651 20.3997175 50.8386042 16.3446328 51.8538144 10.1610169 51.8538144 7.4420904 50.5106132 8.42090395 50.5106132 10.2542373 48.3708624 14.0451977 44.6536311 16.3446328"></polygon>
                        <polygon id="Path" fill="#A8633A" points="37.5627782 22.2485876 37.5627782 20.0423729 33.7518352 18.3022599 34.2360124 19.7316384 36.9848893 20.6949153"></polygon>
                        <polygon id="Path" fill="#CC8E58" points="30.0346039 22.6059322 31.1435259 14.9463277 25.9269072 20.6793785"></polygon>
                        <polygon id="Path" fill="#807664" points="35.9852977 51.9548023 29.2380544 48.5522599 28.0041835 49.1271186 25.9269072 49.670904 23.8496309 49.1271186 22.61576 48.5522599 15.8685167 51.9548023 17.5240903 53.1355932 25.9269072 54.8757062 25.9269072 54.8757062 25.9269072 54.8757062 25.9269072 54.8757062 25.9269072 54.8757062 34.3297241 53.1355932"></polygon>
                        <g transform="translate(3.592282, 23.771186)" fill="#DBD5C3" id="Path">
                            <polygon points="6.93466674 0.807909605 5.71641448 2.11299435 2.71763967 3.34039548 0.0312372376 9.55508475 0.531033039 15.3502825 4.13893398 18.4110169 4.13893398 14.4646893 5.37280486 10.9378531 7.84054663 6.3700565 7.66874183 0"></polygon>
                            <polygon points="41.9516101 3.34039548 38.9528353 2.11299435 37.734583 0.807909605 37.0005079 0 36.8287031 6.3700565 39.2964449 10.9378531 40.5303158 14.4646893 40.5303158 18.4110169 44.1382167 15.3502825 44.6380125 9.55508475"></polygon>
                        </g>
                        <polygon id="Path" fill="#D6B795" points="38.8903608 21.9689266 37.5627782 22.2485876 36.3913818 24.019774 34.1266821 24.6723164 32.3149223 24.1285311 34.3297241 30.6850282 38.1406671 25.200565 38.8903608 24.1285311 39.6244359 22.7457627"></polygon>
                        <polygon id="Path" fill="#CFC7AF" points="40.5927902 23.7711864 39.6244359 22.7457627 38.8903608 24.1285311 38.3124719 27.9194915 39.6244359 32.3474576 38.062574 37.8940678 41.6392377 42.2754237 43.3260485 42.8502825 46.6371957 40.0381356"></polygon>
                        <polygon id="Path" fill="#DBD5C3" points="41.6392377 42.2754237 38.062574 37.8940678 37.20355 40.9081921 34.3297241 43.3785311 32.5335829 43.8757062 31.4871355 47.5268362 29.2380544 48.5522599 32.5335829 50.2146893 35.9852977 51.9548023 40.4522227 48.8008475 43.3260485 42.8502825"></polygon>
                        <polygon id="Path" fill="#CFC7AF" points="11.2610241 23.7711864 12.2293785 22.7457627 12.9634536 24.1285311 13.5413425 27.9194915 12.2293785 32.3474576 13.7912404 37.8940678 10.2145767 42.2754237 8.52776586 42.8502825 5.21661868 40.0381356"></polygon>
                        <g transform="translate(14.212943, 19.731638)" id="Path">
                            <polygon fill="#2C1800" points="5.27909315 4.39689266 5.27909315 2.59463277 3.4048589 0 0.655981989 0.963276836 0.078093094 2.51694915 1.2494895 4.28813559 3.51418923 4.94067797"></polygon>
                            <g transform="translate(1.093303, 0.000000)">
                                <g>
                                    <path d="M1.8273784,3.12288136 C0.968354365,3.12288136 0.249897901,2.53248588 0.0624744752,1.74011299 C0.0468558564,1.81779661 0.0468558564,1.89548023 0.0468558564,1.98870056 C0.0468558564,3.01412429 0.827786796,3.83757062 1.79614116,3.83757062 C2.76449553,3.83757062 3.54542647,3.01412429 3.54542647,1.98870056 C3.54542647,1.97316384 3.54542647,1.95762712 3.54542647,1.9420904 C3.27990995,2.62570621 2.60830934,3.12288136 1.8273784,3.12288136 Z" fill="#4D2F00"></path>
                                    <path d="M1.8273784,3.12288136 C2.60830934,3.12288136 3.27990995,2.62570621 3.54542647,1.9420904 C3.51418923,0.947740113 2.74887691,0.139830508 1.79614116,0.139830508 C0.90587989,0.139830508 0.171804807,0.838983051 0.0624744752,1.74011299 C0.249897901,2.53248588 0.968354365,3.12288136 1.8273784,3.12288136 Z" fill="#2C1800"></path>
                                </g>
                                <path d="M1.06206608,2.03531073 L0.156186188,1.75564972 C0.156186188,1.75564972 0.499795801,0.823446328 1.85861564,1.02542373 C1.85861564,1.04096045 1.17139641,1.63135593 1.06206608,2.03531073 Z" fill="#ECD9CB"></path>
                            </g>
                        </g>
                        <polygon id="Path" fill="#D9AA8B" points="25.9269072 20.6793785 25.9269072 20.6793785 24.1932405 31.6483051 25.9269072 31.6483051 25.9269072 31.6483051 27.6605739 31.6483051"></polygon>
                    </g>
                    <g id="Group" transform="translate(43.876304, 43.000000)" fill="#CC8E58">
                        <g transform="translate(0.759763, 1.400000)" id="Path">
                            <path d="M0.170946641,0.3 C0.170946641,0.2 0.170946641,0.12 0.170946641,0.02 L1.02567984,0.02 C1.02567984,0.12 1.02567984,0.2 1.02567984,0.3 L0.740768777,0.3 L0.740768777,1.22 C0.645798421,1.22 0.550828065,1.22 0.455857709,1.22 L0.455857709,0.3 L0.170946641,0.3 Z"></path>
                            <path d="M2.20331226,0.02 L2.29828262,0.02 L2.29828262,1.22 C2.20331226,1.22 2.1083419,1.22 1.99437748,1.22 L1.99437748,0.68 L1.74745455,0.94 L1.70946641,0.94 L1.46254348,0.68 L1.46254348,1.22 C1.36757313,1.22 1.27260277,1.22 1.15863834,1.22 L1.15863834,0.02 L1.27260277,0.02 L1.70946641,0.54 L2.20331226,0.02 Z"></path>
                        </g>
                        <path d="M1.99437748,3.98 C0.968697631,3.98 0.132958498,3.1 0.132958498,2.02 C0.132958498,0.94 0.968697631,0.06 1.99437748,0.06 C3.02005732,0.06 3.85579645,0.94 3.85579645,2.02 C3.85579645,3.1 3.02005732,3.98 1.99437748,3.98 Z M1.99437748,0.28 C1.08266206,0.28 0.360887353,1.06 0.360887353,2 C0.360887353,2.96 1.10165613,3.72 1.99437748,3.72 C2.90609289,3.72 3.6278676,2.94 3.6278676,2 C3.6278676,1.06 2.90609289,0.28 1.99437748,0.28 Z" id="Shape"></path>
                    </g>
                </g>
            </g>
            <rect id="Rectangle" x="0" y="0" width="82" height="83"></rect>
        </g>
    </g>
</svg>